<svg width="160" height="48" viewBox="0 0 160 48" fill="none" xmlns="http://www.w3.org/2000/svg">
<g clip-path="url(#clip0_161_486)">
<path fill-rule="evenodd" clip-rule="evenodd" d="M49.903 16.358C44.268 14.066 38.577 14.31 37.133 16.994C35.676 19.7 37.798 26.106 41.803 31.425C45.809 36.741 51.47 36.568 54.594 30.762C57.668 24.972 55.521 18.642 49.903 16.358Z" fill="#FF9700"/>
<mask id="mask0_161_486" style="mask-type:luminance" maskUnits="userSpaceOnUse" x="17" y="0" width="18" height="22">
<path d="M17 0H34.981V21.723H17V0Z" fill="white"/>
</mask>
<g mask="url(#mask0_161_486)">
<path fill-rule="evenodd" clip-rule="evenodd" d="M21.247 18.2121C26.247 21.7361 31.8469 22.8021 33.8309 20.5161C35.8329 18.2121 35.1409 11.4811 32.3809 5.38011C29.62 -0.719893 24.064 -1.84589 19.77 3.09811C15.53 8.03711 16.26 14.6981 21.246 18.2121" fill="#006ECD"/>
</g>
<mask id="mask1_161_486" style="mask-type:luminance" maskUnits="userSpaceOnUse" x="21" y="25" width="19" height="23">
<path d="M21.549 25.5571H39.261V48.0001H21.549V25.5571Z" fill="white"/>
</mask>
<g mask="url(#mask1_161_486)">
<path fill-rule="evenodd" clip-rule="evenodd" d="M39.166 36.7621C38.365 30.5671 35.389 25.5521 32.415 25.5571C29.415 25.5601 25.025 30.5891 22.47 36.7891C19.92 42.9871 22.82 48.0071 29.255 48.0001C35.651 47.9551 39.965 42.9421 39.165 36.7621" fill="#EF141D"/>
</g>
<path fill-rule="evenodd" clip-rule="evenodd" d="M15.375 19.8328C14.346 19.8328 13.654 20.5108 13.654 21.5198V22.5348H16.098C16.098 22.5348 16.18 31.1508 16.087 32.0548C15.994 32.9568 15.78 34.4258 14.269 35.1968C12.965 35.8608 12.939 36.4908 12.855 37.0498C12.747 37.7748 12.874 37.8678 13.369 37.7378C15.311 37.2298 17.379 36.3978 18.424 34.3448C18.991 33.2318 19.218 32.0248 19.218 30.1948V22.5348C20.253 22.5218 21 21.8168 21 20.8478V19.8328H15.375ZM12.658 31.4498C12.658 31.4498 10.698 34.4548 6.889 34.4548C2.96 34.4548 0 31.2418 0 26.9798C0 22.6608 2.96 19.4038 6.89 19.4038C10.628 19.4038 12.608 22.4068 12.608 22.4068C12.608 22.4068 11.561 23.6048 10.556 23.6048C10.066 23.6048 9.699 23.3628 9.276 23.0838C8.708 22.7088 8.064 22.2838 6.889 22.2838C4.656 22.2838 2.839 24.3908 2.839 26.9798C2.839 29.5138 4.656 31.5768 6.889 31.5768C8.215 31.5768 8.839 31.1708 9.388 30.8128C9.778 30.5568 10.148 30.3168 10.682 30.3168C11.813 30.3168 12.658 31.4498 12.658 31.4498Z" fill="white"/>
<path fill-rule="evenodd" clip-rule="evenodd" d="M115.447 33.2178C115.447 33.6788 115.339 34.0328 115.129 34.2778C114.919 34.5238 114.615 34.6458 114.221 34.6458H113.277V21.6698C113.277 21.2188 113.387 20.8668 113.609 20.6168C113.83 20.3668 114.143 20.2418 114.546 20.2418H115.447V33.2178ZM110.061 24.5418V21.6698C110.061 21.2188 110.168 20.8668 110.386 20.6168C110.601 20.3668 110.916 20.2418 111.33 20.2418H112.229V33.2178C112.229 33.6788 112.119 34.0328 111.897 34.2778C111.675 34.5238 111.368 34.6458 110.976 34.6458H110.061V30.3458C109.471 30.4658 108.778 30.5588 107.979 30.6248C107.184 30.6898 106.235 30.7218 105.131 30.7218H102.713V22.2698C102.713 21.8198 102.816 21.4688 103.022 21.2188C103.229 20.9668 103.539 20.8438 103.952 20.8438H104.852V29.2928H106.77C107.184 29.2928 107.681 29.2678 108.268 29.2178C108.853 29.1678 109.449 29.0978 110.061 29.0078V24.5418ZM120.799 28.2298H129.443V28.9378C129.45 29.0837 129.412 29.2283 129.336 29.3528C129.276 29.4436 129.199 29.5221 129.109 29.5838C129.033 29.6394 128.944 29.676 128.851 29.6908C128.771 29.7028 128.718 29.7078 128.685 29.7078H118.564V22.5168C118.564 22.0338 118.745 21.6218 119.108 21.2838C119.462 20.949 119.934 20.7666 120.421 20.7758H129.427V21.4688C129.427 21.6528 129.394 21.7978 129.328 21.8998C129.27 21.9949 129.19 22.0745 129.094 22.1318C129.014 22.1818 128.934 22.2118 128.851 22.2218C128.796 22.2313 128.741 22.237 128.685 22.2388H120.799V24.5168H129.321V25.2248C129.321 25.4108 129.288 25.5518 129.224 25.6488C129.164 25.7412 129.083 25.818 128.987 25.8728C128.915 25.9205 128.833 25.9519 128.747 25.9648C128.692 25.9731 128.637 25.9784 128.582 25.9808H120.799V28.2298ZM138.581 22.9178C138.581 22.4358 138.383 22.0238 137.991 21.6778C137.598 21.3308 137.121 21.1578 136.56 21.1578C136.284 21.1578 136.024 21.2068 135.778 21.3018C135.545 21.3888 135.33 21.5187 135.144 21.6848C134.956 21.8448 134.811 22.0298 134.709 22.2408C134.606 22.4556 134.553 22.6907 134.553 22.9288C134.553 23.1669 134.606 23.402 134.709 23.6168C134.811 23.8328 134.956 24.0198 135.144 24.1798C135.32 24.3398 135.532 24.4658 135.778 24.5558C136.024 24.6468 136.284 24.6918 136.56 24.6918C137.12 24.6918 137.598 24.5188 137.99 24.1738C138.383 23.8278 138.581 23.4088 138.581 22.9178ZM144.291 33.2178C144.291 33.6788 144.181 34.0328 143.959 34.2778C143.737 34.5238 143.431 34.6458 143.038 34.6458H142.123V31.6098H133.388V30.9328C133.388 30.7628 133.418 30.6278 133.478 30.5258C133.527 30.4355 133.597 30.3583 133.682 30.3008C133.76 30.2543 133.846 30.2211 133.935 30.2028C134.012 30.1888 134.072 30.1798 134.111 30.1798H144.291V33.2178ZM140.737 22.9178C140.737 23.3578 140.627 23.7698 140.403 24.1508C140.176 24.5384 139.872 24.8759 139.511 25.1428C139.108 25.4439 138.656 25.6726 138.175 25.8188C137.67 25.9788 137.129 26.0588 136.56 26.0588C135.98 26.0588 135.438 25.9788 134.937 25.8188C134.459 25.671 134.01 25.4424 133.609 25.1428C133.248 24.8769 132.947 24.5392 132.723 24.1508C132.509 23.7754 132.397 23.3501 132.4 22.9178C132.4 22.4878 132.507 22.0808 132.723 21.6998C132.94 21.3188 133.236 20.9878 133.609 20.7068C134.011 20.4071 134.459 20.1763 134.937 20.0238C135.461 19.8541 136.009 19.7701 136.56 19.7748C137.13 19.7748 137.67 19.8578 138.175 20.0238C138.683 20.1878 139.128 20.4168 139.511 20.7068C139.884 20.9868 140.181 21.3188 140.403 21.6998C140.626 22.0808 140.737 22.4868 140.737 22.9178ZM144.306 28.3768C144.306 28.8378 144.196 29.1908 143.974 29.4368C143.754 29.6808 143.445 29.8058 143.052 29.8058H142.138V29.3388H139.128V28.6458C139.128 28.4858 139.158 28.3558 139.216 28.2558C139.263 28.1668 139.335 28.0933 139.423 28.0438C139.553 27.968 139.7 27.9267 139.851 27.9238H142.138V27.1418C141.479 27.2928 140.748 27.4168 139.946 27.5118C139.145 27.6058 138.33 27.6688 137.504 27.6998V28.3618C137.504 28.8218 137.396 29.1758 137.18 29.4218C136.963 29.6678 136.663 29.7888 136.279 29.7888H135.334V27.7138H131.115V27.0528C131.115 26.8928 131.145 26.7618 131.205 26.6608C131.254 26.5703 131.325 26.4936 131.412 26.4378C131.48 26.3814 131.561 26.342 131.647 26.3228C131.726 26.3078 131.789 26.2998 131.839 26.2998H136.413C137.288 26.2998 138.24 26.2658 139.269 26.1958C140.23 26.1329 141.188 26.0224 142.138 25.8648V21.6848C142.138 21.2328 142.239 20.8828 142.447 20.6318C142.654 20.3818 142.964 20.2558 143.377 20.2558H144.306V28.3758V28.3768ZM63.8299 22.8378C63.8299 21.6388 64.8199 20.6638 66.0439 20.6638C67.2679 20.6638 68.2559 21.6388 68.2559 22.8378C68.2559 24.0378 67.2679 25.0098 66.0439 25.0098C64.8199 25.0098 63.8299 24.0378 63.8299 22.8378ZM67.0779 26.2338C68.9979 25.8638 70.4229 24.4838 70.4229 22.8398C70.4229 20.9078 68.4649 19.3418 66.0469 19.3418C63.6249 19.3418 61.6659 20.9078 61.6659 22.8398C61.6659 24.4838 63.0899 25.8628 65.0129 26.2338V26.7968H59.8459C59.6969 26.7968 59.1219 26.8478 59.1219 27.5388V28.2238H72.2449C72.3929 28.2188 72.966 28.1708 72.966 27.4788V26.7968H67.0779V26.2338ZM87.8919 32.1448V32.8278H101.216C101.362 32.8278 101.941 32.7758 101.941 32.0868V31.4028H88.6179C88.4679 31.4048 87.8919 31.4528 87.8919 32.1448Z" fill="white"/>
<mask id="mask2_161_486" style="mask-type:luminance" maskUnits="userSpaceOnUse" x="0" y="0" width="160" height="48">
<path d="M0 48H160V0H0V48Z" fill="white"/>
</mask>
<g mask="url(#mask2_161_486)">
<path fill-rule="evenodd" clip-rule="evenodd" d="M91.8199 27.6789H98.0129V24.8569H91.8199V27.6789ZM100.18 27.4239V20.7439H99.2579C98.4529 20.7439 98.0129 21.2539 98.0129 22.1749V23.4279H91.8229V20.7449H90.8999C90.0949 20.7449 89.6499 21.2549 89.6499 22.1749V29.1079H98.3609C99.3649 29.1079 100.178 28.3549 100.178 27.4239H100.18ZM62.9149 32.5199L69.7729 32.5159C70.5609 32.5159 71.2059 31.9349 71.2059 31.2159V28.9529H61.4699C61.3199 28.9559 60.7469 29.0059 60.7469 29.6969V30.3809H69.0359V31.0909L61.9989 31.0939C61.1909 31.0939 60.7469 31.6029 60.7469 32.5239V34.6639H70.6219C70.7699 34.6639 71.3439 34.6129 71.3439 33.9209V33.2389H62.9149V32.5199ZM84.1469 21.7029V29.0029C82.4909 29.4629 80.3399 29.6149 79.3749 29.6149H76.7579L76.7559 26.4309H80.6659C81.4739 26.4309 81.9139 25.9219 81.9139 25.0019V20.8099H75.3179C75.1679 20.8119 74.5939 20.8629 74.5939 21.5519V22.2379H79.7499V25.0049L75.8399 25.0029C75.0319 25.0029 74.5899 25.5099 74.5939 26.4319V31.0459L77.7239 31.0469C81.0089 31.0469 82.8819 30.6389 84.1469 30.1949L84.1439 34.6649H85.0689C85.8729 34.6649 86.3159 34.1569 86.3159 33.2349L86.3189 20.2749H85.3969C84.5919 20.2749 84.1469 20.7829 84.1469 21.7039M110.061 25.9949H106.991V25.3339C106.991 25.1539 107.021 25.0159 107.079 24.9189C107.131 24.8317 107.202 24.7574 107.287 24.7019C107.358 24.6539 107.439 24.623 107.524 24.6119C107.602 24.6019 107.664 24.5969 107.714 24.5969H110.061V25.9949ZM146.68 31.1759C146.53 31.1779 145.955 31.2269 145.955 31.9169V32.6029H159.277C159.424 32.5999 160 32.5499 160 31.8599V31.1759H146.68ZM154.204 20.5379V21.9489C154.204 22.8049 154.189 26.0139 159.419 27.7109L158.849 28.4079C158.849 28.4079 158.479 28.9079 157.751 28.7179C156.619 28.3379 154.334 27.3479 153.028 25.2829C151.72 27.3489 149.436 28.3379 148.302 28.7179C147.578 28.9079 147.207 28.4079 147.207 28.4079L146.637 27.7109C151.568 26.1129 151.827 23.1689 151.846 22.1229V21.9699C151.846 21.0479 152.29 20.5379 153.097 20.5379H154.204ZM117.801 31.1759C117.651 31.1779 117.076 31.2269 117.076 31.9169V32.6029H130.397C130.545 32.5999 131.12 32.5499 131.12 31.8599V31.1759H117.801Z" fill="white"/>
</g>
</g>
<defs>
<clipPath id="clip0_161_486">
<rect width="160" height="48" fill="white"/>
</clipPath>
</defs>
</svg>
