<svg width="56" height="48" viewBox="0 0 56 48" fill="none" xmlns="http://www.w3.org/2000/svg">
<path fill-rule="evenodd" clip-rule="evenodd" d="M49.9032 16.3575C44.2682 14.0655 38.5772 14.3095 37.1332 16.9935C35.6762 19.6995 37.7982 26.1055 41.8032 31.4245C45.8092 36.7405 51.4702 36.5675 54.5942 30.7615C57.6682 24.9715 55.5212 18.6415 49.9032 16.3575Z" fill="#FF9700"/>
<mask id="mask0_161_480" style="mask-type:luminance" maskUnits="userSpaceOnUse" x="17" y="0" width="18" height="22">
<path d="M17 0H34.981V21.723H17V0Z" fill="white"/>
</mask>
<g mask="url(#mask0_161_480)">
<path fill-rule="evenodd" clip-rule="evenodd" d="M21.2471 18.2126C26.2471 21.7366 31.8471 22.8026 33.8311 20.5166C35.8331 18.2126 35.1411 11.4816 32.3811 5.38059C29.6201 -0.719405 24.0641 -1.8454 19.7701 3.09859C15.5301 8.0376 16.2601 14.6986 21.2461 18.2126" fill="#006ECD"/>
</g>
<mask id="mask1_161_480" style="mask-type:luminance" maskUnits="userSpaceOnUse" x="21" y="25" width="19" height="23">
<path d="M21.5488 25.5566H39.2608V47.9996H21.5488V25.5566Z" fill="white"/>
</mask>
<g mask="url(#mask1_161_480)">
<path fill-rule="evenodd" clip-rule="evenodd" d="M39.1658 36.7616C38.3648 30.5666 35.3888 25.5516 32.4148 25.5566C29.4148 25.5596 25.0248 30.5886 22.4698 36.7886C19.9198 42.9866 22.8198 48.0066 29.2548 47.9996C35.6508 47.9546 39.9648 42.9416 39.1648 36.7616" fill="#EF141D"/>
</g>
<path fill-rule="evenodd" clip-rule="evenodd" d="M15.375 19.8333C14.346 19.8333 13.654 20.5113 13.654 21.5203V22.5353H16.098C16.098 22.5353 16.18 31.1513 16.087 32.0553C15.994 32.9573 15.78 34.4263 14.269 35.1973C12.965 35.8613 12.939 36.4913 12.855 37.0503C12.747 37.7753 12.874 37.8683 13.369 37.7383C15.311 37.2303 17.379 36.3983 18.424 34.3453C18.991 33.2323 19.218 32.0253 19.218 30.1953V22.5353C20.253 22.5223 21 21.8173 21 20.8483V19.8333H15.375ZM12.658 31.4503C12.658 31.4503 10.698 34.4553 6.889 34.4553C2.96 34.4553 0 31.2423 0 26.9803C0 22.6613 2.96 19.4043 6.89 19.4043C10.628 19.4043 12.608 22.4073 12.608 22.4073C12.608 22.4073 11.561 23.6053 10.556 23.6053C10.066 23.6053 9.699 23.3633 9.276 23.0843C8.708 22.7093 8.064 22.2843 6.889 22.2843C4.656 22.2843 2.839 24.3913 2.839 26.9803C2.839 29.5143 4.656 31.5773 6.889 31.5773C8.215 31.5773 8.839 31.1713 9.388 30.8133C9.778 30.5573 10.148 30.3173 10.682 30.3173C11.813 30.3173 12.658 31.4503 12.658 31.4503Z" fill="black"/>
</svg>
