<svg width="380" height="364" viewBox="0 0 380 364" fill="none" xmlns="http://www.w3.org/2000/svg">
<g filter="url(#filter0_f_107_1059)">
<rect x="40" y="32" width="300" height="300" rx="150" fill="url(#paint0_linear_107_1059)" fill-opacity="0.1"/>
</g>
<g filter="url(#filter1_f_107_1059)">
<rect x="40" y="32" width="300" height="300" rx="150" fill="url(#paint1_linear_107_1059)" fill-opacity="0.1"/>
</g>
<path d="M18.2959 138L18.8584 134.59H15.8877L15.3252 138H13.8135L14.376 134.59H12.5479L12.7764 133.096H14.6221L15.0967 130.178H13.2861L13.5146 128.666H15.3604L15.9053 125.273H17.417L16.8721 128.666H19.8428L20.3877 125.273H21.8818L21.3369 128.666H23.1826L22.9365 130.178H21.0908L20.6162 133.096H22.4443L22.1807 134.59H20.3701L19.8076 138H18.2959ZM16.1338 133.096H19.1045L19.5791 130.178H16.6084L16.1338 133.096ZM30.9521 125.273V138H29.0186V125.273H30.9521ZM32.9033 126.943V125.273H42.7646V126.943H38.8096V138H36.876V126.943H32.9033ZM57.1084 123.744V139.494H55.4209V123.744H57.1084ZM52.415 125.432C52.415 130.037 50.4463 134.045 45.0498 136.629L44.1709 135.275C48.3633 133.28 50.4023 130.441 50.7275 126.768H44.9268V125.432H52.415ZM67.6025 124.342C67.6025 126.152 70.0986 127.664 73.1748 128.016L72.5947 129.281C70.0107 128.974 67.752 127.884 66.7412 126.275C65.7217 127.884 63.4629 128.974 60.9053 129.281L60.3252 128.016C63.4014 127.664 65.8975 126.152 65.8975 124.342V123.814H67.6025V124.342ZM73.9307 130.195V131.531H67.5674V132.938H72.1201V136.664H62.9443V138.053H72.5596V139.336H61.3096V135.451H70.4678V134.221H61.292V132.938H65.8975V131.531H59.5693V130.195H73.9307ZM92.6514 123.762V135.293H90.9814V129.369H87.9756V128.016H90.9814V123.762H92.6514ZM93.0732 137.807V139.16H82.4209V134.256H84.0908V137.807H93.0732ZM85.1631 126.943C85.1631 128.912 86.5869 130.881 88.96 131.672L88.0986 133.008C86.332 132.384 85.0225 131.118 84.3369 129.562C83.6514 131.294 82.2715 132.691 80.3994 133.359L79.5381 132.006C81.9639 131.18 83.458 129.105 83.458 126.943V126.328H80.0479V124.957H88.5381V126.328H85.1631V126.943ZM109.474 131.707V133.061H103.216V136.119H101.563V133.061H95.0596V131.707H109.474ZM107.61 124.482V130.072H96.9053V124.482H107.61ZM98.54 125.801V128.754H105.958V125.801H98.54ZM107.874 137.807V139.16H96.8525V134.625H98.5225V137.807H107.874ZM116.224 126.1C116.224 128.314 117.647 130.283 120.038 131.057L119.124 132.357C117.393 131.733 116.118 130.521 115.433 128.947C114.747 130.749 113.376 132.146 111.478 132.832L110.581 131.496C113.095 130.635 114.554 128.543 114.571 126.17V124.623H116.224V126.1ZM123.765 123.744V133.043H122.095V128.314H118.772V126.943H122.095V123.744H123.765ZM118.491 133.482C121.796 133.482 123.817 134.572 123.817 136.488C123.817 138.387 121.796 139.477 118.491 139.459C115.187 139.477 113.147 138.387 113.165 136.488C113.147 134.572 115.187 133.482 118.491 133.482ZM118.491 134.783C116.188 134.783 114.817 135.398 114.817 136.488C114.817 137.543 116.188 138.141 118.491 138.141C120.794 138.141 122.165 137.543 122.165 136.488C122.165 135.398 120.794 134.783 118.491 134.783Z" fill="#2D2D2D"/>
<path d="M269.375 151L269.938 147.59H266.967L266.404 151H264.893L265.455 147.59H263.627L263.855 146.096H265.701L266.176 143.178H264.365L264.594 141.666H266.439L266.984 138.273H268.496L267.951 141.666H270.922L271.467 138.273H272.961L272.416 141.666H274.262L274.016 143.178H272.17L271.695 146.096H273.523L273.26 147.59H271.449L270.887 151H269.375ZM267.213 146.096H270.184L270.658 143.178H267.688L267.213 146.096ZM292.473 136.744V152.494H290.785V136.744H292.473ZM287.779 138.432C287.779 143.037 285.811 147.045 280.414 149.629L279.535 148.275C283.728 146.28 285.767 143.441 286.092 139.768H280.291V138.432H287.779ZM299.293 137.465C301.367 137.447 302.967 138.651 303.318 140.418H306.395V136.744H308.064V145.199H306.395V141.789H303.336C302.993 143.6 301.385 144.812 299.293 144.812C296.885 144.812 295.162 143.301 295.162 141.121C295.162 138.977 296.885 137.447 299.293 137.465ZM299.293 138.854C297.799 138.854 296.762 139.768 296.762 141.121C296.762 142.475 297.799 143.406 299.293 143.406C300.752 143.406 301.789 142.475 301.789 141.121C301.789 139.768 300.752 138.854 299.293 138.854ZM299.451 145.955V147.783H306.395V145.955H308.064V152.301H297.799V145.955H299.451ZM299.451 150.93H306.395V149.102H299.451V150.93ZM322.76 136.744V143.02H325.203V144.408H322.76V152.477H321.09V136.744H322.76ZM318.646 138.396C318.629 142.949 316.625 147.01 311.439 149.576L310.508 148.275C314.454 146.307 316.599 143.459 316.941 139.785H311.299V138.396H318.646ZM339.09 136.744V152.494H337.42V136.744H339.09ZM331.971 141.807C331.971 144.32 333.641 146.887 336.084 147.924L335.17 149.207C333.359 148.416 331.909 146.781 331.18 144.795C330.468 146.896 329.044 148.645 327.207 149.471L326.275 148.188C328.719 147.098 330.336 144.443 330.336 141.807V140.77H326.75V139.434H330.318V137.061H331.971V139.434H335.504V140.77H331.971V141.807ZM360.359 144.162V145.516H345.998V144.162H360.359ZM353.17 146.729C356.562 146.729 358.602 147.783 358.602 149.611C358.602 151.439 356.562 152.477 353.17 152.459C349.76 152.477 347.703 151.439 347.703 149.611C347.703 147.783 349.76 146.729 353.17 146.729ZM353.17 148.029C350.762 148.047 349.391 148.592 349.391 149.611C349.391 150.613 350.762 151.141 353.17 151.141C355.543 151.141 356.932 150.613 356.932 149.611C356.932 148.592 355.543 148.047 353.17 148.029ZM359.076 137.518V138.889H354.295C354.479 140.418 356.712 141.719 359.621 142.018L359.023 143.336C356.299 143.02 354.04 141.868 353.188 140.207C352.309 141.868 350.059 143.02 347.334 143.336L346.754 142.018C349.61 141.719 351.86 140.427 352.062 138.889H347.316V137.518H359.076ZM375.072 136.744V152.494H373.473V144.355H371.434V151.686H369.904V137.061H371.434V142.984H373.473V136.744H375.072ZM367.988 138.643V139.996H363.752V147.291C365.686 147.273 367.145 147.186 368.832 146.869L368.955 148.24C367.057 148.627 365.439 148.697 363.137 148.715H362.082V138.643H367.988Z" fill="#5B5B5B"/>
<path d="M208.264 236L208.826 232.59H205.855L205.293 236H203.781L204.344 232.59H202.516L202.744 231.096H204.59L205.064 228.178H203.254L203.482 226.666H205.328L205.873 223.273H207.385L206.84 226.666H209.811L210.355 223.273H211.85L211.305 226.666H213.15L212.904 228.178H211.059L210.584 231.096H212.412L212.148 232.59H210.338L209.775 236H208.264ZM206.102 231.096H209.072L209.547 228.178H206.576L206.102 231.096ZM231.309 221.744V237.529H229.639V221.744H231.309ZM220.814 223.062V227.105H225.051V223.062H226.703V233.75H219.145V223.062H220.814ZM220.814 232.379H225.051V228.424H220.814V232.379ZM248.236 234.084V235.455H233.822V234.084H248.236ZM241.873 225.084C241.873 227.492 244.598 229.619 247.604 230.094L246.936 231.412C244.396 230.938 242.049 229.452 241.012 227.387C240.001 229.47 237.672 230.999 235.176 231.482L234.49 230.146C237.426 229.672 240.133 227.492 240.133 225.084V224.592H235.018V223.238H246.988V224.592H241.873V225.084ZM262.457 221.744V237.494H260.787V221.744H262.457ZM251.998 223.273V232.045C254.292 232.027 256.709 231.843 259.24 231.324L259.469 232.73C256.674 233.293 254.143 233.486 251.664 233.486H250.346V223.273H251.998ZM272.934 223.977C272.934 226.543 275.676 228.969 278.699 229.514L277.926 230.902C275.412 230.357 273.092 228.705 272.072 226.49C271.035 228.688 268.724 230.34 266.201 230.902L265.463 229.514C268.451 228.951 271.176 226.543 271.176 223.977V222.781H272.934V223.977ZM279.35 234.031V235.42H264.936V234.031H279.35ZM287.541 223.273V236H285.607V223.273H287.541ZM289.492 224.943V223.273H299.354V224.943H295.398V236H293.465V224.943H289.492ZM305.4 226.051C305.4 228.564 306.455 231.254 308.564 232.537L307.633 233.82C306.156 232.933 305.154 231.359 304.627 229.531C304.038 231.535 302.957 233.24 301.428 234.172L300.391 232.924C302.623 231.588 303.783 228.811 303.783 226.121V223.186H305.4V226.051ZM314.154 221.744V237.494H312.555V221.744H314.154ZM310.885 222.043V236.721H309.303V228.67H306.859V227.281H309.303V222.043H310.885ZM321.59 224.258C321.59 226.332 323.031 228.248 325.387 229.021L324.49 230.34C322.768 229.733 321.476 228.503 320.799 226.947C320.104 228.714 318.769 230.094 316.932 230.779L316.035 229.443C318.496 228.564 319.92 226.473 319.938 224.117V222.57H321.59V224.258ZM328.533 221.744V225.699H330.818V227.105H328.533V231.254H326.863V221.744H328.533ZM323.453 231.623C326.688 231.623 328.674 232.695 328.674 234.541C328.674 236.404 326.688 237.477 323.453 237.459C320.184 237.477 318.162 236.404 318.162 234.541C318.162 232.695 320.184 231.623 323.453 231.623ZM323.453 232.941C321.168 232.941 319.814 233.539 319.832 234.541C319.814 235.578 321.168 236.141 323.453 236.158C325.721 236.141 327.039 235.578 327.039 234.541C327.039 233.539 325.721 232.941 323.453 232.941ZM348.643 222.729V224.117C348.643 225.611 348.643 227.229 348.203 229.479H350.471V230.85H344.09V237.512H342.402V230.85H336.109V229.479H346.516C346.99 227.237 346.99 225.585 346.99 224.117V224.1H337.867V222.729H348.643ZM366.027 229.619V230.955H359.664V232.607H364.27V237.459H362.582V233.961H353.266V232.607H358.012V230.955H351.666V229.619H366.027ZM359.664 221.691V223.256H364.586V224.574H359.77C359.928 226.139 362.09 227.29 365.236 227.58L364.709 228.828C362.002 228.582 359.805 227.677 358.838 226.191C357.862 227.677 355.665 228.582 352.967 228.828L352.439 227.58C355.568 227.29 357.73 226.139 357.924 224.574H353.107V223.256H358.012V221.691H359.664Z" fill="#5B5B5B"/>
<path d="M164.239 95L164.802 91.5898H161.831L161.269 95H159.757L160.319 91.5898H158.491L158.72 90.0957H160.565L161.04 87.1777H159.229L159.458 85.666H161.304L161.849 82.2734H163.36L162.815 85.666H165.786L166.331 82.2734H167.825L167.28 85.666H169.126L168.88 87.1777H167.034L166.56 90.0957H168.388L168.124 91.5898H166.313L165.751 95H164.239ZM162.077 90.0957H165.048L165.522 87.1777H162.552L162.077 90.0957ZM187.319 81.4824V82.8359H182.521C182.608 84.5674 184.885 86.0967 187.812 86.4395L187.179 87.793C184.48 87.4062 182.266 86.1494 181.413 84.3652C180.561 86.1494 178.354 87.4062 175.665 87.793L175.032 86.4395C177.977 86.0967 180.218 84.5674 180.306 82.8359H175.56V81.4824H187.319ZM186.985 94.8066V96.1602H176.052V91.6777H177.739V94.8066H186.985ZM188.638 89.1465V90.5H174.241V89.1465H180.587V86.6504H182.239V89.1465H188.638ZM203.403 80.7441V96.4941H201.804V88.4082H199.923V95.7207H198.341V81.043H199.923V87.002H201.804V80.7441H203.403ZM194.579 84.9102C194.579 87.7402 195.651 90.3066 197.937 91.4844L196.952 92.7676C195.405 91.9326 194.368 90.4648 193.806 88.6367C193.27 90.7109 192.224 92.3633 190.624 93.3125L189.587 92.0469C191.89 90.7461 192.962 88.0391 192.962 84.9102V83.8906H190.009V82.5371H197.321V83.8906H194.579V84.9102ZM217.729 80.7441V84.4531H220.015V85.8418H217.729V89.6387H216.06V80.7441H217.729ZM213.388 81.7285C213.37 85.7715 210.646 88.6016 205.952 89.8672L205.284 88.5312C209.046 87.5381 211.27 85.5605 211.577 83.0996H206.022V81.7285H213.388ZM217.729 90.3066V96.2832H207.64V90.3066H217.729ZM209.31 91.6953V94.9473H216.077V91.6953H209.31ZM226.378 91.1504C226.378 92.5039 227.046 93.9365 228.47 94.7891C229.92 93.8662 230.632 92.3545 230.632 91.1504V90.3945H232.267V91.1504C232.267 92.7852 233.339 94.3672 235.396 95.0352L234.569 96.2656C233.014 95.7295 231.959 94.6836 231.405 93.3828C230.904 94.6572 229.964 95.8086 228.522 96.4062C227.011 95.835 226.053 94.7188 225.569 93.4355C224.998 94.6748 223.961 95.7207 222.476 96.2656L221.632 95.0352C223.653 94.3145 224.743 92.6797 224.761 91.1504V90.3945H226.378V91.1504ZM233.972 80.7617V89.7266H232.302V80.7617H233.972ZM225.429 81.623C227.837 81.623 229.612 83.1523 229.612 85.3496C229.612 87.5293 227.837 89.041 225.429 89.041C223.021 89.041 221.228 87.5293 221.228 85.3496C221.228 83.1523 223.021 81.623 225.429 81.623ZM225.429 83.0469C223.935 83.0293 222.862 83.9609 222.862 85.3496C222.862 86.7207 223.935 87.6523 225.429 87.6523C226.905 87.6523 227.978 86.7207 227.978 85.3496C227.978 83.9609 226.905 83.0293 225.429 83.0469ZM249.212 85.3496V86.6855H238.366V81.3066H240.019V85.3496H249.212ZM250.864 88.6719V90.0078H236.45V88.6719H250.864ZM249.317 94.7539V96.125H238.243V91.502H239.913V94.7539H249.317ZM259.073 82.2734V95H257.14V82.2734H259.073ZM261.024 83.9434V82.2734H270.886V83.9434H266.931V95H264.997V83.9434H261.024ZM285.229 80.7441V96.4941H283.542V80.7441H285.229ZM280.536 82.4316C280.536 87.0371 278.567 91.0449 273.171 93.6289L272.292 92.2754C276.484 90.2803 278.523 87.4414 278.849 83.7676H273.048V82.4316H280.536ZM292.05 81.4648C294.124 81.4473 295.724 82.6514 296.075 84.418H299.151V80.7441H300.821V89.1992H299.151V85.7891H296.093C295.75 87.5996 294.142 88.8125 292.05 88.8125C289.642 88.8125 287.919 87.3008 287.919 85.1211C287.919 82.9766 289.642 81.4473 292.05 81.4648ZM292.05 82.8535C290.556 82.8535 289.519 83.7676 289.519 85.1211C289.519 86.4746 290.556 87.4062 292.05 87.4062C293.509 87.4062 294.546 86.4746 294.546 85.1211C294.546 83.7676 293.509 82.8535 292.05 82.8535ZM292.208 89.9551V91.7832H299.151V89.9551H300.821V96.3008H290.556V89.9551H292.208ZM292.208 94.9297H299.151V93.1016H292.208V94.9297Z" fill="black"/>
<path d="M59.0967 278L59.6592 274.59H56.6885L56.126 278H54.6143L55.1768 274.59H53.3486L53.5771 273.096H55.4229L55.8975 270.178H54.0869L54.3154 268.666H56.1611L56.7061 265.273H58.2178L57.6729 268.666H60.6436L61.1885 265.273H62.6826L62.1377 268.666H63.9834L63.7373 270.178H61.8916L61.417 273.096H63.2451L62.9814 274.59H61.1709L60.6084 278H59.0967ZM56.9346 273.096H59.9053L60.3799 270.178H57.4092L56.9346 273.096ZM77.1318 264.623C77.1318 266.504 79.6631 268.279 82.6865 268.701L82.0361 270.002C79.5225 269.615 77.2988 268.385 76.2881 266.68C75.2686 268.394 73.0449 269.615 70.5225 270.002L69.8896 268.701C72.9131 268.279 75.4268 266.521 75.4268 264.623V263.955H77.1318V264.623ZM83.46 271.109V272.463H77.0967V274.326H81.7021V279.494H80.0146V275.662H70.6982V274.326H75.4443V272.463H69.0986V271.109H83.46ZM92.1611 264.852V269.598H86.958V271.936C89.5771 271.927 91.1328 271.848 92.9873 271.531L93.1631 272.885C91.124 273.236 89.4365 273.289 86.4482 273.289H85.2881V268.314H90.4736V266.188H85.2529V264.852H92.1611ZM97.7861 263.762V275.346H96.1162V271.215H93.1807V269.844H96.1162V267.664H93.1807V266.328H96.1162V263.762H97.7861ZM98.2432 277.736V279.107H87.4326V274.484H89.1025V277.736H98.2432ZM109.388 268.789V270.143H106.312V272.129C107.709 272.067 109.098 271.971 110.39 271.83L110.513 273.061C107.155 273.518 103.464 273.605 100.511 273.605L100.282 272.27C101.627 272.261 103.13 272.243 104.659 272.199V270.143H101.688V264.746H109.247V266.1H103.358V268.789H109.388ZM113.272 263.744V275.557H111.603V263.744H113.272ZM113.765 277.807V279.16H102.884V274.713H104.554V277.807H113.765ZM133.259 263.744V279.494H131.571V263.744H133.259ZM128.565 265.432C128.565 270.037 126.597 274.045 121.2 276.629L120.321 275.275C124.514 273.28 126.553 270.441 126.878 266.768H121.077V265.432H128.565ZM143.753 264.342C143.753 266.152 146.249 267.664 149.325 268.016L148.745 269.281C146.161 268.974 143.902 267.884 142.892 266.275C141.872 267.884 139.613 268.974 137.056 269.281L136.476 268.016C139.552 267.664 142.048 266.152 142.048 264.342V263.814H143.753V264.342ZM150.081 270.195V271.531H143.718V272.938H148.271V276.664H139.095V278.053H148.71V279.336H137.46V275.451H146.618V274.221H137.442V272.938H142.048V271.531H135.72V270.195H150.081ZM164.337 263.762V275.205H162.667V263.762H164.337ZM164.812 277.807V279.16H154.036V274.045H155.724V277.807H164.812ZM155.794 264.816C158.167 264.816 159.978 266.434 159.978 268.719C159.978 271.039 158.167 272.639 155.794 272.639C153.421 272.639 151.593 271.039 151.593 268.719C151.593 266.434 153.421 264.816 155.794 264.816ZM155.794 266.275C154.317 266.275 153.228 267.277 153.228 268.719C153.228 270.195 154.317 271.18 155.794 271.18C157.235 271.18 158.343 270.195 158.343 268.719C158.343 267.277 157.235 266.275 155.794 266.275ZM174.339 264.693V269.281H169.136V271.461C171.878 271.47 173.372 271.408 175.147 271.074L175.306 272.428C173.39 272.762 171.772 272.814 168.626 272.814H167.483V268.016H172.669V266.029H167.466V264.693H174.339ZM179.964 263.762V273.447H178.294V270.67H175.341V269.334H178.294V267.383H175.341V266.047H178.294V263.762H179.964ZM179.964 274.238V279.512H178.294V275.592H169.276V274.238H179.964Z" fill="black"/>
<path d="M94.4414 192L95.2891 186.887H91.0234L90.1758 192H87.4688L88.3164 186.887H85.5273L85.9648 184.207H88.7539L89.4375 179.996H86.6758L87.1133 177.316H89.9023L90.7227 172.203H93.4297L92.6094 177.316H96.875L97.6953 172.203H100.375L99.5547 177.316H102.344L101.879 179.996H99.0898L98.4062 184.207H101.195L100.758 186.887H97.9688L97.1211 192H94.4414ZM91.4609 184.207H95.7266L96.4102 179.996H92.1445L91.4609 184.207ZM130.207 171.984V174.363C130.18 177.426 130.18 180.871 129.223 186.039L126.16 185.711C127.117 180.898 127.117 177.385 127.145 174.418H112.379V171.984H130.207ZM132.559 188.746V191.234H110.027V188.746H118.34V180.16H121.348V188.746H132.559ZM155.363 169.742V184.234H152.465V178.082H149.867V184.125H146.996V170.207H149.867V175.594H152.465V169.742H155.363ZM155.363 185.246V194.434H152.328V187.707H138.328V185.246H155.363ZM145 171.465C145.027 177.59 141.91 181.855 135.539 184.453L134.09 182.184C138.902 180.352 141.418 177.549 141.91 173.926H135.211V171.465H145ZM187.602 181.062V183.523H177.812V185.574C182.242 185.875 184.84 187.406 184.867 189.977C184.84 192.82 181.641 194.406 176.309 194.406C170.922 194.406 167.695 192.82 167.695 189.977C167.695 187.406 170.32 185.861 174.805 185.574V183.523H165.07V181.062H187.602ZM176.309 187.871C172.699 187.898 170.758 188.609 170.785 189.977C170.758 191.344 172.699 192.082 176.309 192.082C179.836 192.082 181.805 191.344 181.832 189.977C181.805 188.609 179.836 187.898 176.309 187.871ZM185.578 170.809V173.242H178.469C178.947 175.279 181.9 177.111 186.535 177.535L185.469 179.941C180.984 179.49 177.648 177.699 176.309 175.184C174.969 177.686 171.688 179.49 167.203 179.941L166.164 177.535C170.703 177.111 173.656 175.252 174.176 173.242H167.121V170.809H185.578ZM209.859 169.742V183.715H206.797V169.742H209.859ZM209.859 184.945V194.133H193.453V184.945H209.859ZM196.461 187.352V191.672H206.879V187.352H196.461ZM198.484 173.078C198.484 176.223 200.59 179.176 204.445 180.406L202.969 182.73C200.111 181.842 198.061 180.023 196.953 177.645C195.818 180.201 193.74 182.238 190.773 183.223L189.27 180.816C193.289 179.531 195.34 176.332 195.34 173.078V170.672H198.484V173.078ZM240.758 169.715V194.434H237.695V169.715H240.758ZM233.375 172.34C233.375 179.695 230.531 185.957 221.863 190.059L220.277 187.625C226.744 184.549 229.752 180.365 230.285 174.746H221.535V172.34H233.375ZM251.176 170.809C254.375 170.781 256.891 172.627 257.52 175.348H261.977V169.715H265.012V182.977H261.977V177.809H257.547C256.932 180.584 254.389 182.457 251.176 182.457C247.375 182.457 244.641 180.023 244.641 176.605C244.641 173.242 247.375 170.781 251.176 170.809ZM251.176 173.352C249.043 173.352 247.539 174.609 247.539 176.605C247.539 178.574 249.043 179.887 251.176 179.887C253.254 179.887 254.73 178.574 254.758 176.605C254.73 174.609 253.254 173.352 251.176 173.352ZM251.723 184.125V186.75H261.977V184.125H265.012V194.133H248.715V184.125H251.723ZM251.723 191.672H261.977V189.102H251.723V191.672Z" fill="#2D2D2D"/>
<defs>
<filter id="filter0_f_107_1059" x="10" y="2" width="360" height="360" filterUnits="userSpaceOnUse" color-interpolation-filters="sRGB">
<feFlood flood-opacity="0" result="BackgroundImageFix"/>
<feBlend mode="normal" in="SourceGraphic" in2="BackgroundImageFix" result="shape"/>
<feGaussianBlur stdDeviation="15" result="effect1_foregroundBlur_107_1059"/>
</filter>
<filter id="filter1_f_107_1059" x="0" y="-8" width="380" height="380" filterUnits="userSpaceOnUse" color-interpolation-filters="sRGB">
<feFlood flood-opacity="0" result="BackgroundImageFix"/>
<feBlend mode="normal" in="SourceGraphic" in2="BackgroundImageFix" result="shape"/>
<feGaussianBlur stdDeviation="20" result="effect1_foregroundBlur_107_1059"/>
</filter>
<linearGradient id="paint0_linear_107_1059" x1="72.1428" y1="87.7143" x2="294.143" y2="332" gradientUnits="userSpaceOnUse">
<stop stop-color="#3869A1"/>
<stop offset="1" stop-color="#00C2FF"/>
</linearGradient>
<linearGradient id="paint1_linear_107_1059" x1="72.1428" y1="87.7143" x2="294.143" y2="332" gradientUnits="userSpaceOnUse">
<stop stop-color="#1A4F8C"/>
<stop offset="1" stop-color="#00C2FF"/>
</linearGradient>
</defs>
</svg>
