<svg width="120" height="120" viewBox="0 0 120 120" fill="none" xmlns="http://www.w3.org/2000/svg">
<rect width="120" height="120" rx="60" fill="#B7EEFF" fill-opacity="0.2"/>
<g clip-path="url(#clip0_21_1897)">
<path d="M73.6409 83.6108H47.2831V73.5398C47.2831 73.0272 46.8716 72.6157 46.359 72.6157C45.8464 72.6157 45.4349 73.0272 45.4349 73.5398V84.5349C45.4349 85.0474 45.8464 85.4589 46.359 85.4589H73.6337C74.1463 85.4589 74.5578 85.0474 74.5578 84.5349C74.5578 84.0223 74.1463 83.6108 73.6337 83.6108H73.6409Z" fill="#1A4F8C"/>
<path d="M86.3037 30H33.6963C31.6604 30 30 31.6604 30 33.6963V72.8107C30 74.8466 31.6604 76.507 33.6963 76.507H40.894V89.0759C40.894 89.5885 41.3055 90 41.8181 90H78.1819C78.6945 90 79.106 89.5885 79.106 89.0759V76.507H86.3037C88.3396 76.507 90 74.8466 90 72.8107V33.6963C90 31.6604 88.3396 30 86.3037 30ZM86.3037 31.8482C87.3216 31.8482 88.1519 32.6784 88.1519 33.6963V37.9918H31.8482V33.6963C31.8482 32.6784 32.6784 31.8482 33.6963 31.8482H86.3037ZM42.7421 88.1519V47.7163H69.8941V54.1632C69.8941 54.6757 70.3056 55.0872 70.8182 55.0872H77.2651V88.1591H42.7421V88.1519ZM75.9511 53.2391H71.7351V49.023L75.9511 53.2391ZM86.3037 74.6661H79.106C79.106 70.6233 79.1132 54.4231 79.0916 54.1054C79.0771 53.896 78.9833 53.665 78.8317 53.5134C71.0276 45.7454 71.3885 45.8753 70.811 45.8753H41.8181C41.3055 45.8753 40.894 46.2868 40.894 46.7994V74.6733H33.6963C32.6784 74.6733 31.8482 73.8431 31.8482 72.8252V39.84H88.1591V72.8107C88.1591 73.8287 87.3288 74.6589 86.3109 74.6589L86.3037 74.6661Z" fill="#1A4F8C"/>
<path d="M36.8079 36.5625C37.7175 36.5625 38.4467 35.8261 38.4467 34.9237C38.4467 34.0213 37.7103 33.2849 36.8079 33.2849C35.9054 33.2849 35.1691 34.0213 35.1691 34.9237C35.1691 35.8261 35.9054 36.5625 36.8079 36.5625Z" fill="#1A4F8C"/>
<path d="M43.3846 36.5625C44.2943 36.5625 45.0234 35.8261 45.0234 34.9237C45.0234 34.0213 44.2871 33.2849 43.3846 33.2849C42.4822 33.2849 41.7458 34.0213 41.7458 34.9237C41.7458 35.8261 42.4822 36.5625 43.3846 36.5625Z" fill="#1A4F8C"/>
<path d="M49.9542 36.5625C50.8639 36.5625 51.593 35.8261 51.593 34.9237C51.593 34.0213 50.8566 33.2849 49.9542 33.2849C49.0518 33.2849 48.3154 34.0213 48.3154 34.9237C48.3154 35.8261 49.0518 36.5625 49.9542 36.5625Z" fill="#1A4F8C"/>
<path d="M59.2528 35.8403H84.831C85.3435 35.8403 85.755 35.4288 85.755 34.9163C85.755 34.4037 85.3435 33.9922 84.831 33.9922H59.2528C58.7402 33.9922 58.3287 34.4037 58.3287 34.9163C58.3287 35.4288 58.7402 35.8403 59.2528 35.8403Z" fill="#1A4F8C"/>
<path d="M66.7537 76.6441C66.3711 76.4492 65.9524 76.3264 65.4976 76.3264C65.0139 76.3264 64.5663 76.4636 64.1692 76.6802L62.7903 75.4746C62.9275 75.1497 63.0069 74.7887 63.0069 74.4133C63.0069 72.89 61.7652 71.6483 60.2419 71.6483C58.7186 71.6483 57.4769 72.89 57.4769 74.4133C57.4769 74.5938 57.4985 74.7671 57.5274 74.9331L53.3691 77.2577C52.8709 76.7524 52.1706 76.442 51.4054 76.442C49.8821 76.442 48.6404 77.6837 48.6404 79.207C48.6404 80.7302 49.8821 81.972 51.4054 81.972C52.9287 81.972 54.1704 80.7302 54.1704 79.207C54.1704 79.1131 54.1487 79.0265 54.1415 78.9398L58.4587 76.5214C58.9424 76.9257 59.556 77.1783 60.2274 77.1783C60.7039 77.1783 61.1443 77.0484 61.5341 76.839L62.9275 78.0591C62.7975 78.384 62.7181 78.7305 62.7181 79.0987C62.7181 80.622 63.9598 81.8637 65.4831 81.8637C67.0064 81.8637 68.2481 80.622 68.2481 79.0987C68.2481 78.7016 68.1615 78.3262 68.0099 77.9869L70.9193 75.2074C71.172 75.2796 71.4319 75.3374 71.7062 75.3374C73.2295 75.3374 74.4712 74.0957 74.4712 72.5724C74.4712 71.0491 73.2295 69.8074 71.7062 69.8074C70.1829 69.8074 68.9412 71.0491 68.9412 72.5724C68.9412 73.1355 69.1145 73.6625 69.4032 74.1029L66.7321 76.6513L66.7537 76.6441ZM51.4054 80.1238C50.9 80.1238 50.4813 79.7123 50.4813 79.1997C50.4813 78.6872 50.8928 78.2757 51.4054 78.2757C51.918 78.2757 52.3295 78.6872 52.3295 79.1997C52.3295 79.7123 51.918 80.1238 51.4054 80.1238ZM59.3178 74.4133C59.3178 73.908 59.7293 73.4892 60.2419 73.4892C60.7544 73.4892 61.1659 73.9007 61.1659 74.4133C61.1659 74.6516 61.0649 74.8681 60.9133 75.0342C60.9133 75.0342 60.9061 75.0342 60.8988 75.0486C60.8988 75.0558 60.8916 75.0631 60.8844 75.0703C60.7183 75.2363 60.4945 75.3374 60.2419 75.3374C59.7365 75.3374 59.3178 74.9259 59.3178 74.4133ZM65.4976 80.0155C64.9922 80.0155 64.5735 79.604 64.5735 79.0915C64.5735 78.8532 64.6673 78.6366 64.8189 78.4706C64.985 78.2901 65.2232 78.1674 65.4903 78.1674C65.9957 78.1674 66.4144 78.5789 66.4144 79.0915C66.4144 79.604 66.0029 80.0155 65.4903 80.0155H65.4976ZM71.7279 71.6483C72.2332 71.6483 72.6519 72.0598 72.6519 72.5724C72.6519 73.085 72.2404 73.4965 71.7279 73.4965C71.2153 73.4965 70.8038 73.085 70.8038 72.5724C70.8038 72.0598 71.2153 71.6483 71.7279 71.6483Z" fill="#1A4F8C"/>
<path d="M55.1306 69.0712C57.549 69.0712 59.8304 68.1255 61.5413 66.4145C61.9023 66.0535 61.9023 65.4688 61.5413 65.1078L56.4373 59.9965L61.5413 54.8924C61.9023 54.5315 61.9023 53.9467 61.5413 53.5857C58.0039 50.0482 52.25 50.0482 48.7126 53.5857C45.1751 57.1232 45.1751 62.877 48.7126 66.4145C50.4235 68.1327 52.7049 69.0712 55.1233 69.0712H55.1306ZM50.0265 54.8924C52.6182 52.3007 56.7116 52.0913 59.5488 54.2788L54.4808 59.3468C54.1198 59.7077 54.1198 60.2925 54.4808 60.6535L59.5488 65.7215C58.2854 66.6961 56.7549 67.2303 55.1378 67.2303C53.2102 67.2303 51.3982 66.4795 50.0265 65.115C47.2109 62.2995 47.2109 57.7152 50.0265 54.8997V54.8924Z" fill="#1A4F8C"/>
<path d="M59.3683 60.6533L64.2485 65.5336C64.6456 65.9306 65.3026 65.8873 65.6419 65.4325C68.0387 62.2343 68.0387 57.7655 65.6419 54.5674C65.3026 54.1126 64.6456 54.0765 64.2485 54.4663L59.3683 59.3466C59.0073 59.7075 59.0073 60.2923 59.3683 60.6533ZM64.7395 56.5816C65.8729 58.7041 65.8729 61.2886 64.7395 63.4111L61.3247 59.9963L64.7395 56.5816Z" fill="#1A4F8C"/>
</g>
<defs>
<clipPath id="clip0_21_1897">
<rect width="60" height="60" fill="white" transform="translate(30 30)"/>
</clipPath>
</defs>
</svg>
