<svg width="120" height="120" viewBox="0 0 120 120" fill="none" xmlns="http://www.w3.org/2000/svg">
<rect width="120" height="120" rx="60" fill="#B7EEFF" fill-opacity="0.2"/>
<g clip-path="url(#clip0_21_1937)">
<path d="M65.2737 30.3899H30.9241C30.4115 30.3899 30 30.8014 30 31.314V55.1378C30 55.6504 30.4115 56.0619 30.9241 56.0619H41.3921V61.3465H39.248C38.7354 61.3465 38.3239 61.758 38.3239 62.2705C38.3239 62.7831 38.7354 63.1946 39.248 63.1946H42.2801C42.2801 63.1946 42.3018 63.2018 42.3162 63.2018H53.8888C53.8888 63.2018 53.9105 63.2018 53.9249 63.1946H56.957C57.4696 63.1946 57.8811 62.7831 57.8811 62.2705C57.8811 61.758 57.4696 61.3465 56.957 61.3465H54.8129V56.0619H65.2809C65.7935 56.0619 66.205 55.6504 66.205 55.1378V31.314C66.205 30.8014 65.7935 30.3899 65.2809 30.3899H65.2737ZM52.9575 61.3392H43.2331V56.0547H52.9575V61.3392ZM64.3497 54.2137H31.8482V32.238H64.3497V54.2137Z" fill="#1A4F8C"/>
<path d="M78.8966 56.0259C72.5652 56.0259 67.786 58.3505 67.786 61.426V84.203C67.786 87.2857 72.558 89.6031 78.8966 89.6031C85.2352 89.6031 89.9999 87.2784 89.9999 84.203V61.426C89.9999 58.3433 85.228 56.0259 78.8966 56.0259ZM88.1518 76.7526C88.1518 78.4347 84.1884 80.3118 78.8894 80.3118C73.5904 80.3118 69.6269 78.4347 69.6269 76.7526V71.5114C71.5834 72.9408 74.9332 73.8505 78.8894 73.8505C82.8456 73.8505 86.1954 72.9408 88.1518 71.5114V76.7526ZM88.1518 68.4432C88.1518 70.1253 84.1884 72.0023 78.8894 72.0023C73.5904 72.0023 69.6269 70.1253 69.6269 68.4432V64.4942C71.5834 65.9236 74.9332 66.8332 78.8894 66.8332C82.8456 66.8332 86.1954 65.9236 88.1518 64.4942V68.4432ZM78.8966 57.874C84.1956 57.874 88.159 59.7511 88.159 61.4332C88.159 63.1153 84.1956 64.9923 78.8966 64.9923C73.5976 64.9923 69.6342 63.1153 69.6342 61.4332C69.6342 59.7511 73.5976 57.874 78.8966 57.874ZM78.8966 87.7621C73.5976 87.7621 69.6342 85.8851 69.6342 84.203V79.8136C71.5906 81.2431 74.9404 82.1527 78.8966 82.1527C82.8528 82.1527 86.2026 81.2431 88.159 79.8136V84.203C88.159 85.8851 84.1956 87.7621 78.8966 87.7621Z" fill="#1A4F8C"/>
<path d="M57.5057 83.9575H49.9904C49.3334 83.9575 48.8064 83.4232 48.8064 82.7735V72.2982L49.8749 73.3667C50.2358 73.7276 50.8206 73.7276 51.1816 73.3667C51.5425 73.0057 51.5425 72.4209 51.1816 72.06L48.5393 69.4177C48.1783 69.0567 47.5936 69.0567 47.2326 69.4177L44.5903 72.06C44.2293 72.4209 44.2293 73.0057 44.5903 73.3667C44.9513 73.7276 45.536 73.7276 45.897 73.3667L46.9655 72.2982V82.7735C46.9655 84.4484 48.3227 85.8056 49.9976 85.8056H57.5129C58.0255 85.8056 58.437 85.3941 58.437 84.8815C58.437 84.369 58.0255 83.9575 57.5129 83.9575H57.5057Z" fill="#1A4F8C"/>
<path d="M70.6377 36.0426H78.1531C78.81 36.0426 79.337 36.5769 79.337 37.2266V47.6947L78.2686 46.6262C77.9076 46.2652 77.3228 46.2652 76.9619 46.6262C76.6009 46.9872 76.6009 47.5719 76.9619 47.9329L79.6041 50.5752C79.9651 50.9361 80.5499 50.9361 80.9108 50.5752L83.5531 47.9329C83.9141 47.5719 83.9141 46.9872 83.5531 46.6262C83.1922 46.2652 82.6074 46.2652 82.2464 46.6262L81.178 47.6947V37.2194C81.178 35.5445 79.8207 34.1873 78.1458 34.1873H70.6305C70.1179 34.1873 69.7064 34.5988 69.7064 35.1113C69.7064 35.6239 70.1179 36.0354 70.6305 36.0354L70.6377 36.0426Z" fill="#1A4F8C"/>
</g>
<defs>
<clipPath id="clip0_21_1937">
<rect width="60" height="59.2203" fill="white" transform="translate(30 30.3899)"/>
</clipPath>
</defs>
</svg>
