<svg width="120" height="120" viewBox="0 0 120 120" fill="none" xmlns="http://www.w3.org/2000/svg">
<rect width="120" height="120" rx="60" fill="#B7EEFF" fill-opacity="0.2"/>
<g clip-path="url(#clip0_21_1978)">
<path d="M88.2792 74.1324H79.1491V66.524C79.1491 66.0191 78.7438 65.6138 78.2389 65.6138H60.9173V59.975H78.2389C78.7438 59.975 79.1491 59.5697 79.1491 59.0648V30.9065C79.1491 30.4016 78.7438 29.9963 78.2389 29.9963H41.7753C41.2704 29.9963 40.8651 30.4016 40.8651 30.9065V59.0648C40.8651 59.5697 41.2704 59.975 41.7753 59.975H59.0969V65.6138H41.7753C41.2704 65.6138 40.8651 66.0191 40.8651 66.524V73.3858L36.812 70.9397C36.6698 70.8544 36.5063 70.8117 36.3427 70.8117H31.7279C30.7751 70.8117 30 71.5868 30 72.5396V88.2756C30 89.2284 30.7751 90.0034 31.7279 90.0034H51.8085C52.7613 90.0034 53.5364 89.2284 53.5364 88.2756V75.8603C53.5364 74.9075 52.7613 74.1324 51.8085 74.1324H42.6855V67.4341H77.3288V73.3858L73.2828 70.9468C73.1406 70.8615 72.977 70.8188 72.8135 70.8188H68.1986C67.2458 70.8188 66.4707 71.5939 66.4707 72.5467V88.2827C66.4707 89.2355 67.2458 90.0106 68.1986 90.0106H88.2792C89.232 90.0106 90.0071 89.2355 90.0071 88.2827V75.8674C90.0071 74.9146 89.232 74.1395 88.2792 74.1395V74.1324ZM42.6784 31.8167H77.3216V36.5879H42.6784V31.8167ZM42.6784 38.4012H77.3216V58.1547H42.6784V38.4012ZM51.716 88.1831H31.8203V72.6249H36.0939L41.1211 75.6612C41.6615 76.23 42.3726 75.8105 51.716 75.9456V88.1831ZM88.1868 88.1831H68.2911V72.6249H72.5646L77.5776 75.6541C78.1252 76.2443 78.9073 75.8105 88.1868 75.9456V88.1831Z" fill="#1A4F8C"/>
<path d="M47.2079 33.0681H44.9396V35.3364H47.2079V33.0681Z" fill="#1A4F8C"/>
<path d="M51.7161 33.0681H49.4478V35.3364H51.7161V33.0681Z" fill="#1A4F8C"/>
<path d="M56.2171 33.0681H53.9488V35.3364H56.2171V33.0681Z" fill="#1A4F8C"/>
<path d="M74.3565 33.2886H60.1707C59.6658 33.2886 59.2605 33.6939 59.2605 34.1987C59.2605 34.7036 59.6658 35.1089 60.1707 35.1089H74.3565C74.8614 35.1089 75.2667 34.7036 75.2667 34.1987C75.2667 33.6939 74.8614 33.2886 74.3565 33.2886Z" fill="#1A4F8C"/>
</g>
<defs>
<clipPath id="clip0_21_1978">
<rect width="60" height="60.0071" fill="white" transform="translate(30 29.9963)"/>
</clipPath>
</defs>
</svg>
