<svg width="120" height="120" viewBox="0 0 120 120" fill="none" xmlns="http://www.w3.org/2000/svg">
<rect width="120" height="120" rx="60" fill="#B7EEFF" fill-opacity="0.2"/>
<g clip-path="url(#clip0_21_1958)">
<path d="M77.0196 79.5753C76.507 79.5753 76.0955 79.9868 76.0955 80.4993V83.351H48.6404C48.8569 82.925 49.0374 82.4919 49.1818 82.0515L50.5751 81.8133C51.0155 81.7411 51.3404 81.3584 51.3476 80.9108L51.3693 77.8787C51.3693 77.4311 51.0588 77.0485 50.6185 76.9619L49.2323 76.702C49.0807 76.1966 48.8786 75.7129 48.6331 75.2364L49.4489 74.0813C49.7088 73.7132 49.6655 73.215 49.3551 72.8974L47.2181 70.7388C46.9077 70.4211 46.4096 70.3706 46.0414 70.6233L44.8719 71.4174C44.4026 71.1719 43.9189 70.9698 43.4208 70.811L43.1825 69.4104C43.1103 68.97 42.7277 68.6452 42.2801 68.6452L39.248 68.6235C38.7932 68.638 38.4178 68.9412 38.3311 69.3815L38.0712 70.7749C37.5875 70.9193 37.1111 71.1142 36.6562 71.3452V31.8482H66.8042V40.2226C66.8042 40.7352 67.2157 41.1467 67.7283 41.1467H76.1028V46.655C76.1028 47.1676 76.5143 47.5791 77.0268 47.5791C77.5394 47.5791 77.9509 47.1676 77.9509 46.655V40.2226C77.9509 39.9771 77.8498 39.7389 77.6838 39.5729L68.3708 30.2743C68.1976 30.1011 67.9593 30 67.7211 30H35.7249C35.2124 30 34.8009 30.4115 34.8009 30.9241V70.4067C34.6059 70.4283 34.4182 70.515 34.2666 70.6594L32.108 72.7891C31.7904 73.1067 31.7399 73.5976 31.9925 73.9658L32.7939 75.1354C32.5412 75.6046 32.3391 76.0883 32.173 76.5937L30.7797 76.8391C30.3393 76.9185 30.0144 77.2939 30.0144 77.7415L30 80.7665C30 81.2141 30.3177 81.5967 30.758 81.6833L32.1441 81.936C32.2958 82.4341 32.4979 82.925 32.7361 83.4015L31.9203 84.5566C31.6605 84.9248 31.7038 85.4157 32.0142 85.7406L34.1439 87.9064C34.4543 88.224 34.9597 88.2746 35.3279 88.0219L36.4974 87.2206C36.9667 87.466 37.4504 87.6682 37.9485 87.827L38.1867 89.2203C38.2589 89.6607 38.6416 89.9856 39.0892 89.9856L42.1213 90.0072C42.5689 90.0072 42.9443 89.6896 43.0309 89.2492L43.2908 87.8559C43.7962 87.7042 44.2799 87.5093 44.7491 87.2639L45.9042 88.0797C46.2724 88.3396 46.7705 88.2962 47.0882 87.9858L49.254 85.8489C49.4345 85.6684 49.5139 85.4374 49.5211 85.1991H77.0196C77.5322 85.1991 77.9437 84.7876 77.9437 84.2751V80.4993C77.9437 79.9868 77.5322 79.5753 77.0196 79.5753ZM68.6452 33.1549L74.7888 39.2985H68.6452V33.1549ZM46.3446 86.1304L45.3483 85.4229C45.0451 85.2064 44.6553 85.1991 44.3376 85.3868C43.7023 85.7695 43.0165 86.051 42.2945 86.2098C41.9336 86.2893 41.6592 86.578 41.5943 86.939L41.3705 88.1446H39.8833L39.6739 86.9246C39.609 86.5636 39.3418 86.2676 38.9809 86.181C38.2662 86.0077 37.5803 85.7189 36.9378 85.3219C36.6274 85.1342 36.2303 85.1414 35.9343 85.3507L34.9236 86.0438L33.8768 84.9826L34.5843 83.9863C34.7936 83.6903 34.8081 83.2932 34.6204 82.9756C34.2305 82.3186 33.949 81.6328 33.7829 80.9181C33.7035 80.5571 33.4148 80.2828 33.0466 80.2106L31.8482 79.9868V78.4996L33.061 78.2902C33.422 78.2252 33.7107 77.9581 33.7974 77.6044C33.9706 76.8897 34.2666 76.2038 34.6637 75.5613C34.8586 75.2509 34.8514 74.8538 34.642 74.5506L33.949 73.5399L35.0102 72.4931L36.0065 73.1934C36.3025 73.4027 36.6996 73.4172 37.01 73.2295C37.6597 72.8396 38.3528 72.5653 39.0603 72.4065C39.4212 72.327 39.7028 72.0383 39.7678 71.6701L39.9916 70.4572H41.4788L41.6881 71.6773C41.7531 72.0383 42.0274 72.3343 42.3884 72.4209C43.1031 72.5869 43.789 72.8757 44.417 73.2656C44.7275 73.4605 45.1245 73.4533 45.4277 73.2439L46.4385 72.5508L47.4853 73.6121L46.7778 74.6084C46.5684 74.9116 46.554 75.3014 46.7417 75.6191C47.1315 76.2688 47.4131 76.9546 47.5719 77.6694C47.6513 78.0303 47.9401 78.3047 48.301 78.3696L49.4995 78.5934V80.0806L48.2794 80.2828C47.9112 80.3477 47.6152 80.6221 47.5358 80.983C47.377 81.6833 47.0882 82.3692 46.6839 83.0189C46.489 83.3293 46.5034 83.7264 46.7056 84.0296L47.3986 85.0331L46.3374 86.0871L46.3446 86.1304Z" fill="#1A4F8C"/>
<path d="M40.6847 73.4387C37.4432 73.4387 34.8081 76.0738 34.8081 79.3153C34.8081 82.5568 37.4432 85.1918 40.6847 85.1918C43.9261 85.1918 46.5612 82.5568 46.5612 79.3153C46.5612 76.0738 43.9261 73.4387 40.6847 73.4387ZM40.6847 83.3509C38.4611 83.3509 36.649 81.5388 36.649 79.3153C36.649 77.0917 38.4611 75.2797 40.6847 75.2797C42.9082 75.2797 44.7203 77.0917 44.7203 79.3153C44.7203 81.5388 42.9082 83.3509 40.6847 83.3509Z" fill="#1A4F8C"/>
<path d="M89.076 72.4499H85.719V55.8742C85.719 55.3617 85.3074 54.9502 84.7949 54.9502H81.3296C80.817 54.9502 80.4055 55.3617 80.4055 55.8742V72.4499H77.5394V62.4655C77.5394 61.9529 77.1279 61.5414 76.6154 61.5414H73.1501C72.6375 61.5414 72.226 61.9529 72.226 62.4655V72.4499H69.3599V57.5419C69.3599 57.0293 68.9484 56.6178 68.4358 56.6178H64.9705C64.458 56.6178 64.0465 57.0293 64.0465 57.5419V72.4499H61.1804V65.18C61.1804 64.6674 60.7689 64.2559 60.2563 64.2559H56.791C56.2785 64.2559 55.867 64.6674 55.867 65.18V72.4499H53.434V45.0813C53.434 44.5687 53.0225 44.1572 52.51 44.1572C51.9974 44.1572 51.5859 44.5687 51.5859 45.0813V73.3739C51.5859 73.8865 51.9974 74.298 52.51 74.298H89.0687C89.5813 74.298 89.9928 73.8865 89.9928 73.3739C89.9928 72.8614 89.5813 72.4499 89.0687 72.4499H89.076ZM57.7223 72.4499V66.104H59.3395V72.4499H57.7223ZM65.9018 72.4499V58.466H67.519V72.4499H65.9018ZM74.0814 72.4499V63.3896H75.6985V72.4499H74.0814ZM82.2609 72.4499V56.7983H83.878V72.4499H82.2609Z" fill="#1A4F8C"/>
<path d="M83.0695 76.0522H58.5309C58.0183 76.0522 57.6068 76.4637 57.6068 76.9763C57.6068 77.4889 58.0183 77.9004 58.5309 77.9004H83.0695C83.582 77.9004 83.9935 77.4889 83.9935 76.9763C83.9935 76.4637 83.582 76.0522 83.0695 76.0522Z" fill="#1A4F8C"/>
<path d="M80.0806 47.0377H82.7085L74.7672 55.7515L67.2591 50.2215C66.8981 49.9544 66.4072 49.9905 66.0823 50.2937L57.9028 57.9823C57.0148 58.8197 58.2782 60.1625 59.1662 59.3251L66.7826 52.1635L74.3413 57.7296C74.7239 58.0112 75.2509 57.9534 75.5685 57.6069L83.8708 48.4961V50.8279C83.8708 51.3405 84.2823 51.752 84.7949 51.752C85.3074 51.752 85.7189 51.3405 85.7189 50.8279V46.1064C85.7189 46.1064 85.7189 46.092 85.7189 46.0848C85.7117 45.6877 85.4518 45.2834 84.932 45.2112C84.8887 45.2112 84.8454 45.1824 84.8021 45.1824H80.0879C79.5753 45.1824 79.1638 45.5939 79.1638 46.1064C79.1638 46.619 79.5753 47.0305 80.0879 47.0305L80.0806 47.0377Z" fill="#1A4F8C"/>
<path d="M45.9764 37.3276H62.8986C63.4112 37.3276 63.8227 36.9161 63.8227 36.4036C63.8227 35.891 63.4112 35.4795 62.8986 35.4795H45.9764C45.4639 35.4795 45.0524 35.891 45.0524 36.4036C45.0524 36.9161 45.4639 37.3276 45.9764 37.3276Z" fill="#1A4F8C"/>
<path d="M43.1464 35.4795H39.8255C39.3129 35.4795 38.9014 35.891 38.9014 36.4036C38.9014 36.9161 39.3129 37.3276 39.8255 37.3276H43.1464C43.659 37.3276 44.0705 36.9161 44.0705 36.4036C44.0705 35.891 43.659 35.4795 43.1464 35.4795Z" fill="#1A4F8C"/>
<path d="M45.9764 41.9768H62.8986C63.4112 41.9768 63.8227 41.5653 63.8227 41.0527C63.8227 40.5402 63.4112 40.1287 62.8986 40.1287H45.9764C45.4639 40.1287 45.0524 40.5402 45.0524 41.0527C45.0524 41.5653 45.4639 41.9768 45.9764 41.9768Z" fill="#1A4F8C"/>
<path d="M43.1464 40.1287H39.8255C39.3129 40.1287 38.9014 40.5402 38.9014 41.0527C38.9014 41.5653 39.3129 41.9768 39.8255 41.9768H43.1464C43.659 41.9768 44.0705 41.5653 44.0705 41.0527C44.0705 40.5402 43.659 40.1287 43.1464 40.1287Z" fill="#1A4F8C"/>
</g>
<defs>
<clipPath id="clip0_21_1958">
<rect width="60" height="60" fill="white" transform="translate(30 30)"/>
</clipPath>
</defs>
</svg>
