<svg width="120" height="120" viewBox="0 0 120 120" fill="none" xmlns="http://www.w3.org/2000/svg">
<rect width="120" height="120" rx="60" fill="#B7EEFF" fill-opacity="0.2"/>
<g clip-path="url(#clip0_21_1877)">
<path d="M89.7326 44.7524L75.2476 30.2747C75.0741 30.1012 74.8356 30 74.5898 30H30.9252C30.412 30 30 30.412 30 30.9252V89.082C30 89.5952 30.412 90.0072 30.9252 90.0072H89.082C89.5952 90.0072 90.0072 89.5952 90.0072 89.082V45.4102C90.0072 45.1717 89.9133 44.9331 89.7326 44.7597V44.7524ZM75.515 33.1587L86.8413 44.485H75.515V33.1587ZM37.1919 85.8872H40.3506C40.8638 85.8872 41.2758 85.4752 41.2758 84.9621C41.2758 84.4489 40.8638 84.0369 40.3506 84.0369H37.1919V80.6614H38.7098C39.223 80.6614 39.635 80.2494 39.635 79.7362C39.635 79.223 39.223 78.811 38.7098 78.811H37.1919V75.4355H40.3506C40.8638 75.4355 41.2758 75.0235 41.2758 74.5103C41.2758 73.9971 40.8638 73.5851 40.3506 73.5851H37.1919V70.2096H38.7098C39.223 70.2096 39.635 69.7976 39.635 69.2844C39.635 68.7712 39.223 68.3592 38.7098 68.3592H37.1919V64.9837H40.3506C40.8638 64.9837 41.2758 64.5717 41.2758 64.0585C41.2758 63.5454 40.8638 63.1334 40.3506 63.1334H37.1919V60.7987H42.8804V88.1352H37.1919V85.8728V85.8872ZM54.6115 88.1568V69.4579H56.5342V88.1568H54.6115ZM51.3516 67.6003L53.6863 62.4178L56.021 67.6003H51.3444H51.3516ZM50.8385 69.4507H52.7611V88.1496H50.8385V69.4507ZM58.3773 88.1568V68.5327C58.3773 68.5327 58.3701 68.5038 58.3701 68.4893C58.3701 68.3954 58.3484 68.2942 58.3123 68.2074C58.3123 68.193 58.305 68.1785 58.2978 68.1641C58.2978 68.1641 58.2978 68.1641 58.2978 68.1568L54.5248 59.8012C54.1995 59.0784 53.1659 59.0784 52.8406 59.8012L49.0748 68.1568C49.0748 68.1568 49.0748 68.1568 49.0748 68.1641C49.0748 68.1785 49.0676 68.193 49.0604 68.2074C49.0242 68.3014 49.0098 68.3954 49.0025 68.4893C49.0025 68.5038 48.9953 68.5183 48.9953 68.5327V88.1568H44.738V59.8952C44.738 59.382 44.326 58.97 43.8128 58.97H36.2739C35.7608 58.97 35.3488 59.382 35.3488 59.8952V88.1568H31.8504V31.8504H73.6718V45.4102C73.6718 45.9234 74.0838 46.3354 74.597 46.3354H88.1568V88.1568H58.3845H58.3773Z" fill="#1A4F8C"/>
<path d="M36.5847 39.0928H68.9302C69.4434 39.0928 69.8554 38.6808 69.8554 38.1676C69.8554 37.6544 69.4434 37.2424 68.9302 37.2424H36.5847C36.0715 37.2424 35.6595 37.6544 35.6595 38.1676C35.6595 38.6808 36.0715 39.0928 36.5847 39.0928Z" fill="#1A4F8C"/>
<path d="M36.5847 46.3355H68.9302C69.4434 46.3355 69.8554 45.9235 69.8554 45.4103C69.8554 44.8971 69.4434 44.4851 68.9302 44.4851H36.5847C36.0715 44.4851 35.6595 44.8971 35.6595 45.4103C35.6595 45.9235 36.0715 46.3355 36.5847 46.3355Z" fill="#1A4F8C"/>
<path d="M83.7333 51.7275H36.5847C36.0715 51.7275 35.6595 52.1395 35.6595 52.6527C35.6595 53.1659 36.0715 53.5779 36.5847 53.5779H83.726C84.2392 53.5779 84.6512 53.1659 84.6512 52.6527C84.6512 52.1395 84.2392 51.7275 83.726 51.7275H83.7333Z" fill="#1A4F8C"/>
<path d="M83.7333 58.97H59.6205C59.1073 58.97 58.6953 59.382 58.6953 59.8952C58.6953 60.4084 59.1073 60.8203 59.6205 60.8203H83.7333C84.2464 60.8203 84.6585 60.4084 84.6585 59.8952C84.6585 59.382 84.2464 58.97 83.7333 58.97Z" fill="#1A4F8C"/>
<path d="M83.8995 71.9805L82.3021 71.6769C82.1287 71.0842 81.8901 70.5132 81.601 69.9567L82.5407 68.6267C82.8009 68.2581 82.7575 67.7593 82.4395 67.4413L80.0759 65.0488C79.7651 64.7308 79.2664 64.6874 78.8977 64.9332L77.5533 65.8511C77.0112 65.5548 76.4402 65.3163 75.8475 65.1356L75.5728 63.5237C75.5005 63.0828 75.1175 62.7575 74.6693 62.7575L71.3083 62.7358C70.8674 62.7575 70.4771 63.0539 70.3903 63.4948L70.094 65.0994C69.5085 65.2729 68.9303 65.5042 68.3809 65.7933L67.051 64.8537C66.6823 64.6007 66.1908 64.6368 65.8728 64.9548L63.4803 67.3184C63.1623 67.6365 63.1117 68.128 63.3647 68.4966L64.2898 69.841C63.9935 70.3903 63.7477 70.9614 63.567 71.5468L61.9624 71.8287C61.5215 71.9082 61.1962 72.2841 61.1962 72.7322L61.1746 76.0933C61.1746 76.5414 61.4926 76.9245 61.9335 77.0112L63.5309 77.3076C63.7044 77.893 63.9357 78.4713 64.232 79.0279L63.2924 80.3506C63.0322 80.7192 63.0755 81.2107 63.3863 81.536L65.7499 83.9357C66.0607 84.2537 66.5595 84.3043 66.9353 84.0513L68.2797 83.1262C68.8291 83.4225 69.4001 83.661 69.9855 83.8417L70.2602 85.4464C70.3325 85.8873 70.7156 86.2125 71.1637 86.2125L74.5248 86.2342C74.9729 86.2342 75.3488 85.9162 75.4355 85.4753L75.7318 83.8706C76.3245 83.6972 76.8956 83.4659 77.4449 83.1768L78.7749 84.1164C79.1435 84.3766 79.6422 84.3332 79.9603 84.0224L82.36 81.6516C82.678 81.3336 82.7286 80.8421 82.4684 80.4735L81.5504 79.1363C81.8468 78.5797 82.0925 78.0087 82.266 77.4305L83.8706 77.1558C84.3115 77.0835 84.6368 76.7004 84.644 76.2523L84.6657 72.8912C84.6657 72.4431 84.3549 72.06 83.914 71.9733L83.8995 71.9805ZM82.7936 75.4644L81.3697 75.703C81.0011 75.768 80.7047 76.0427 80.6252 76.4041C80.4445 77.1847 80.1193 77.9581 79.6711 78.6881C79.476 78.9989 79.4904 79.3965 79.6928 79.7001L80.5024 80.8855L79.2085 82.1648L78.0376 81.3336C77.734 81.124 77.3365 81.1095 77.0257 81.2975C76.3101 81.7311 75.5367 82.0419 74.7271 82.2226C74.3657 82.3022 74.0911 82.5913 74.026 82.9527L73.7658 84.3694L71.9516 84.3549L71.7058 82.931C71.6408 82.5696 71.3733 82.2732 71.0119 82.1865C70.2096 81.9913 69.4362 81.6661 68.7206 81.2252C68.4098 81.0373 68.0123 81.0445 67.7159 81.2469L66.5305 82.0636L65.2584 80.7626L66.0896 79.5916C66.2992 79.2953 66.3137 78.8977 66.1258 78.5797C65.6849 77.8425 65.3668 77.069 65.1934 76.274C65.1138 75.9126 64.8247 75.6379 64.4561 75.5656L63.0394 75.3054L63.0539 73.4912L64.4705 73.2454C64.8319 73.1804 65.1211 72.9129 65.2078 72.5588C65.403 71.7564 65.7355 70.983 66.1836 70.2675C66.3788 69.9567 66.3643 69.5591 66.1619 69.2555L65.3451 68.0701L66.639 66.798L67.8171 67.622C68.1135 67.8316 68.511 67.8461 68.8218 67.6581C69.5519 67.2245 70.3253 66.9136 71.1276 66.7329C71.489 66.6534 71.7709 66.3643 71.8359 65.9957L72.0961 64.5718L73.9104 64.5862L74.1561 66.0101C74.2212 66.3788 74.4958 66.6679 74.85 66.7546C75.6523 66.9498 76.4257 67.2678 77.1341 67.7087C77.4449 67.9039 77.8424 67.8967 78.146 67.687L79.3314 66.8775L80.6108 68.1713L79.7795 69.3423C79.5699 69.6386 79.5555 70.0362 79.7434 70.3542C80.1843 71.0842 80.4951 71.8576 80.6758 72.6599C80.7553 73.0213 81.0445 73.296 81.4059 73.3611L82.8153 73.6285L82.8009 75.4427L82.7936 75.4644Z" fill="#1A4F8C"/>
<path d="M72.9129 68.0701C69.3711 68.0701 66.4944 70.9468 66.4944 74.4886C66.4944 78.0303 69.3711 80.9071 72.9129 80.9071C76.4546 80.9071 79.3314 78.0303 79.3314 74.4886C79.3314 70.9468 76.4546 68.0701 72.9129 68.0701ZM72.9129 79.0567C70.3903 79.0567 68.3448 77.0039 68.3448 74.4886C68.3448 71.9732 70.3975 69.9204 72.9129 69.9204C75.4282 69.9204 77.481 71.9732 77.481 74.4886C77.481 77.0039 75.4282 79.0567 72.9129 79.0567Z" fill="#1A4F8C"/>
</g>
<defs>
<clipPath id="clip0_21_1877">
<rect width="60" height="60" fill="white" transform="translate(30 30)"/>
</clipPath>
</defs>
</svg>
