<svg width="210" height="33" viewBox="0 0 210 33" fill="none" xmlns="http://www.w3.org/2000/svg">
<g clip-path="url(#clip0_1_360)">
<path d="M0 23.4V4.21L7.3 0L23.87 9.57V15.58L5.2 4.8V20.39L21.82 29.98L16.61 32.99L0 23.4Z" fill="white"/>
<path d="M28.0201 0V3.59V6.82V22.76L9.3501 11.98V17.99L25.9701 27.59L28.7301 25.99L28.9701 25.85L33.2201 23.4V3L28.0201 0Z" fill="white"/>
<path d="M166.88 29.42V5.28003H177.81C183.25 5.28003 186.47 8.41003 186.47 12.89C186.47 15.88 184.86 18.43 181.23 20.12L187.27 29.41H182.64L176.89 20.49H170.77V29.42H166.87H166.88ZM170.78 16.78H177.95C181.08 16.78 182.59 14.99 182.59 12.89C182.59 10.79 181.32 9.01003 178.01 9.01003H170.78V16.78Z" fill="white"/>
<path d="M137.05 5.28003C136.49 6.90003 128.46 27.66 128.43 27.74C128.4 27.66 120.37 6.90003 119.81 5.28003H115.31L124.8 29.41H132.04L141.53 5.28003H137.03H137.05Z" fill="white"/>
<path d="M51.5 25.69V18.62H65V14.96H51.5V9.01003H65.8399V5.28003H52.8699H47.45V29.42H64.19L66.1399 25.69H51.5Z" fill="white"/>
<path d="M98.05 25.69V18.62H111.54V14.96H98.05V9.01003H112.39V5.28003H99.42H94V29.42H110.74L112.69 25.69H98.05Z" fill="white"/>
<path d="M148.51 25.69V18.62H162.01V14.96H148.51V9.01003H162.86V5.28003H149.89H144.46V29.42H161.21L163.16 25.69H148.51Z" fill="white"/>
<path d="M199.75 14.9099C196.42 13.8499 194.16 13.3499 194.2 11.3699C194.24 9.36995 196.81 8.32995 200.03 8.61995C202.48 8.83995 204.39 9.60995 206.46 10.9199L208.08 7.82995C205.69 6.19995 203.31 5.16995 200 4.99995C198.19 4.90995 195.79 5.17995 193.85 6.19995C191.91 7.21995 190.19 9.05995 190.09 11.3599C189.9 15.5499 193.43 17.3199 198.84 18.9299C204.09 20.6499 205.3 21.3499 205.12 23.2799C204.93 25.2599 202.24 26.5299 199.04 26.1699C196.11 25.8399 193.27 24.6099 191.14 22.6199L189.41 25.9299C192.66 28.6499 195.8 29.5799 198.97 29.7499C206.2 30.1399 209.08 26.5599 209.23 23.3999C209.42 19.3199 207.1 17.2599 199.76 14.9299L199.75 14.9099Z" fill="white"/>
<path d="M68.9299 5.28003V9.01003H77.7099H77.8999V29.42H81.9499V9.01003H82.1299H90.9099V5.28003H68.9299Z" fill="white"/>
</g>
<defs>
<clipPath id="clip0_1_360">
<rect width="209.22" height="32.99" fill="white"/>
</clipPath>
</defs>
</svg>
