<svg width="120" height="120" viewBox="0 0 120 120" fill="none" xmlns="http://www.w3.org/2000/svg">
<rect width="120" height="120" rx="60" fill="#B7EEFF" fill-opacity="0.2"/>
<path d="M80.089 34.8882H39.9111V85.1112H80.089V34.8882Z" fill="white"/>
<path d="M80.0888 85.1108V88.4192C80.0888 91.3465 77.7162 93.7192 74.7889 93.7192H45.2123C42.285 93.7192 39.9124 91.3451 39.9124 88.4192V85.1108H80.0902H80.0888Z" fill="#86CAFD"/>
<path d="M80.089 31.5797V34.8881H39.9111V31.5797C39.9111 28.6524 42.2852 26.2798 45.2111 26.2798H74.7876C77.7149 26.2798 80.0876 28.6538 80.0876 31.5797H80.089Z" fill="#86CAFD"/>
<path d="M74.7875 95.1562H45.2109C41.4975 95.1562 38.4756 92.1343 38.4756 88.4208V31.5796C38.4756 27.8661 41.4975 24.8442 45.2109 24.8442H74.7875C78.501 24.8442 81.5229 27.8661 81.5229 31.5796V88.4208C81.5229 92.1343 78.501 95.1562 74.7875 95.1562ZM45.2109 27.7137C43.0797 27.7137 41.345 29.4483 41.345 31.5796V88.4208C41.345 90.5521 43.0797 92.2867 45.2109 92.2867H74.7875C76.9188 92.2867 78.6534 90.5521 78.6534 88.4208V31.5796C78.6534 29.4483 76.9188 27.7137 74.7875 27.7137H45.2109Z" fill="#2169AA"/>
<path d="M80.0889 36.3235H39.911C39.1192 36.3235 38.4756 35.6813 38.4756 34.8881C38.4756 34.0948 39.1178 33.4526 39.911 33.4526H80.0889C80.8821 33.4526 81.5243 34.0948 81.5243 34.8881C81.5243 35.6813 80.8821 36.3235 80.0889 36.3235Z" fill="#2169AA"/>
<path d="M80.0889 86.5466H39.911C39.1192 86.5466 38.4756 85.9044 38.4756 85.1112C38.4756 84.318 39.1178 83.6758 39.911 83.6758H80.0889C80.8821 83.6758 81.5243 84.318 81.5243 85.1112C81.5243 85.9044 80.8821 86.5466 80.0889 86.5466Z" fill="#2169AA"/>
<path d="M48.5208 49.2378C48.1539 49.2378 47.7869 49.0981 47.506 48.8172L44.6366 45.9478C44.0762 45.3874 44.0762 44.4785 44.6366 43.9181L47.506 41.0487C48.0663 40.4883 48.9753 40.4883 49.5356 41.0487C50.096 41.609 50.096 42.518 49.5356 43.0783L47.681 44.9329L49.5356 46.7876C50.096 47.3479 50.096 48.2569 49.5356 48.8172C49.2548 49.0981 48.8878 49.2378 48.5208 49.2378Z" fill="#2169AA"/>
<path d="M61.4339 49.2378C61.0669 49.2378 60.6999 49.0981 60.419 48.8172C59.8587 48.2569 59.8587 47.3479 60.419 46.7876L62.2737 44.9329L60.419 43.0783C59.8587 42.518 59.8587 41.609 60.419 41.0487C60.9794 40.4883 61.8883 40.4883 62.4487 41.0487L65.3181 43.9181C65.8785 44.4785 65.8785 45.3874 65.3181 45.9478L62.4487 48.8172C62.1678 49.0981 61.8022 49.2378 61.4339 49.2378Z" fill="#2169AA"/>
<path d="M52.8242 50.6735C52.6083 50.6735 52.3895 50.6241 52.1834 50.5211C51.4749 50.1668 51.187 49.3045 51.5412 48.5959L55.8461 39.9862C56.2004 39.2776 57.0628 38.9897 57.7713 39.344C58.4798 39.6982 58.7678 40.5606 58.4135 41.2692L54.1086 49.8789C53.8574 50.3814 53.3507 50.6721 52.8242 50.6721V50.6735Z" fill="#2169AA"/>
<path d="M64.3048 59.282H47.0853C46.2935 59.282 45.6499 58.6398 45.6499 57.8466C45.6499 57.0533 46.2921 56.4111 47.0853 56.4111H64.3048C65.0966 56.4111 65.7402 57.0533 65.7402 57.8466C65.7402 58.6398 65.098 59.282 64.3048 59.282Z" fill="#2169AA"/>
<path d="M64.3048 65.0222H47.0853C46.2935 65.0222 45.6499 64.38 45.6499 63.5868C45.6499 62.7936 46.2921 62.1514 47.0853 62.1514H64.3048C65.0966 62.1514 65.7402 62.7936 65.7402 63.5868C65.7402 64.38 65.098 65.0222 64.3048 65.0222Z" fill="#2169AA"/>
<path d="M72.9145 70.7625H47.0853C46.2935 70.7625 45.6499 70.1203 45.6499 69.327C45.6499 68.5338 46.2921 67.8916 47.0853 67.8916H72.9145C73.7064 67.8916 74.35 68.5338 74.35 69.327C74.35 70.1203 73.7078 70.7625 72.9145 70.7625Z" fill="#2169AA"/>
<path d="M72.9145 76.5012H47.0853C46.2935 76.5012 45.6499 75.859 45.6499 75.0658C45.6499 74.2726 46.2921 73.6304 47.0853 73.6304H72.9145C73.7064 73.6304 74.35 74.2726 74.35 75.0658C74.35 75.859 73.7078 76.5012 72.9145 76.5012Z" fill="#2169AA"/>
</svg>
