<svg width="120" height="120" viewBox="0 0 120 120" fill="none" xmlns="http://www.w3.org/2000/svg">
<rect width="120" height="120" rx="60" fill="#B7EEFF" fill-opacity="0.2"/>
<path d="M93.6908 77.5781C93.6908 83.2408 89.0994 87.8322 83.4368 87.8322H36.5617C30.899 87.8322 26.3076 83.2422 26.3076 77.5781H93.6894H93.6908Z" fill="white"/>
<path d="M92.2258 37.5484V72.1976C92.2258 75.1687 89.8165 77.578 86.8454 77.578H67.3239V79.0431C67.3239 80.7227 65.9618 82.0833 64.2822 82.0833H55.7162C54.0366 82.0833 52.6746 80.7227 52.6746 79.0431V77.578H33.1531C30.182 77.578 27.7727 75.1687 27.7727 72.1976V37.5484C27.7727 34.5773 30.182 32.168 33.1531 32.168H86.8454C89.8165 32.168 92.2258 34.5773 92.2258 37.5484Z" fill="#89CCFF"/>
<path d="M86.3668 38.0273H33.6328V71.7182H86.3668V38.0273Z" fill="white"/>
<path d="M83.4367 89.2975H36.5617C30.1114 89.2975 24.8425 84.0794 24.8425 77.5783C24.8425 76.7696 25.4988 76.1133 26.3076 76.1133H52.6746C53.4833 76.1133 54.1396 76.7696 54.1396 77.5783V79.0434C54.1396 79.9129 54.8468 80.62 55.7162 80.62H64.2822C65.1516 80.62 65.8588 79.9129 65.8588 79.0434V77.5783C65.8588 76.7696 66.5151 76.1133 67.3238 76.1133H93.6908C94.4995 76.1133 95.1559 76.7696 95.1559 77.5783C95.1559 84.0399 89.8983 89.2975 83.4367 89.2975ZM27.894 79.0434C28.5715 83.1069 32.1156 86.3673 36.5617 86.3673H83.4367C87.784 86.3673 91.4043 83.1944 92.1043 79.0434H68.7889C68.7889 81.5275 66.7677 83.5487 64.2836 83.5487H55.7176C53.2335 83.5487 51.2123 81.5275 51.2123 79.0434H27.894Z" fill="#2169AC"/>
<path d="M86.8454 79.0433C86.0366 79.0433 85.3803 78.387 85.3803 77.5782C85.3803 76.7695 86.0366 76.1131 86.8454 76.1131C89.0049 76.1131 90.7607 74.3573 90.7607 72.1978V37.5486C90.7607 35.3891 89.0049 33.6333 86.8454 33.6333H33.1531C30.9936 33.6333 29.2378 35.3891 29.2378 37.5486V72.1978C29.2378 74.3573 30.9936 76.1131 33.1531 76.1131C33.9618 76.1131 34.6181 76.7695 34.6181 77.5782C34.6181 78.387 33.9632 79.0433 33.1531 79.0433C29.3789 79.0433 26.3076 75.972 26.3076 72.1978V37.5486C26.3076 33.7744 29.3789 30.7031 33.1531 30.7031H86.8454C90.6195 30.7031 93.6908 33.7744 93.6908 37.5486V72.1978C93.6908 75.972 90.6195 79.0433 86.8454 79.0433Z" fill="#2169AC"/>
<path d="M86.367 73.1826H33.633C32.8243 73.1826 32.168 72.5262 32.168 71.7175V38.0266C32.168 37.2178 32.8243 36.5615 33.633 36.5615H86.367C87.1757 36.5615 87.8321 37.2178 87.8321 38.0266V71.7175C87.8321 72.5262 87.1757 73.1826 86.367 73.1826ZM35.0981 70.2538H84.9019V39.4917H35.0981V70.2538Z" fill="#2169AC"/>
<path d="M61.4649 62.9292H39.4917C38.6829 62.9292 38.0266 62.2742 38.0266 61.4641C38.0266 60.6539 38.6829 59.999 39.4917 59.999H61.4649C62.2736 59.999 62.9299 60.6553 62.9299 61.4641C62.9299 62.2728 62.2736 62.9292 61.4649 62.9292Z" fill="#2169AC"/>
<path d="M61.4649 57.0698H39.4917C38.6829 57.0698 38.0266 56.4135 38.0266 55.6047C38.0266 54.796 38.6829 54.1396 39.4917 54.1396H61.4649C62.2736 54.1396 62.9299 54.796 62.9299 55.6047C62.9299 56.4135 62.2736 57.0698 61.4649 57.0698Z" fill="#2169AC"/>
<path d="M61.4649 51.2114H39.4917C38.6829 51.2114 38.0266 50.5565 38.0266 49.7463C38.0266 48.9362 38.6829 48.2812 39.4917 48.2812H61.4649C62.2736 48.2812 62.9299 48.9376 62.9299 49.7463C62.9299 50.5551 62.2736 51.2114 61.4649 51.2114Z" fill="#2169AC"/>
</svg>
