<svg width="120" height="120" viewBox="0 0 120 120" fill="none" xmlns="http://www.w3.org/2000/svg">
<rect width="120" height="120" rx="60" fill="#B7EEFF" fill-opacity="0.2"/>
<path d="M26.3064 45.5598V79.6657C26.3064 82.8569 28.8921 85.4413 32.082 85.4413H87.9168C91.1081 85.4413 93.6924 82.8555 93.6924 79.6657V45.5598L59.3269 41.2959L26.3064 45.5598Z" fill="white"/>
<path d="M81.0521 76.3728C82.8776 65.1266 75.2406 54.5299 63.9945 52.7044C52.7483 50.8789 42.1516 58.5159 40.3261 69.762C38.5006 81.0082 46.1376 91.6049 57.3837 93.4304C68.6299 95.2559 79.2266 87.6189 81.0521 76.3728Z" fill="#89CCFF"/>
<path d="M60.6874 70.3149C62.2061 70.3149 63.4383 71.5457 63.4383 73.0658C63.4383 74.5859 62.2075 75.8167 60.6874 75.8167C59.1673 75.8167 57.9365 74.5845 57.9365 73.0658C57.9365 71.5471 59.1687 70.3149 60.6874 70.3149Z" fill="white"/>
<path d="M87.9183 30.4321H32.0834C28.8922 30.4321 26.3079 33.0179 26.3079 36.2077V45.5599H93.6953V36.2077C93.6953 33.0179 91.1096 30.4321 87.9197 30.4321H87.9183Z" fill="white"/>
<path d="M43.6346 37.3083H38.1328V29.057C38.1328 27.5369 39.3636 26.3062 40.8837 26.3062C42.4038 26.3062 43.6346 27.5383 43.6346 29.057C43.6346 32.0041 43.6346 34.1918 43.6346 37.3083Z" fill="white"/>
<path d="M62.8878 37.3083H57.3875V29.057C57.3875 27.5369 58.6182 26.3062 60.1383 26.3062C61.6584 26.3062 62.8892 27.5383 62.8892 29.057C62.8892 32.0041 62.8892 34.1918 62.8892 37.3083H62.8878Z" fill="white"/>
<path d="M82.1412 37.3083H76.6409V29.057C76.6409 27.5369 77.8716 26.3062 79.3918 26.3062C80.9119 26.3062 82.1426 27.5383 82.1426 29.057C82.1426 32.0041 82.1426 34.1918 82.1426 37.3083H82.1412Z" fill="white"/>
<path d="M87.9182 29.0573H83.5174C83.5174 26.782 81.667 24.9316 79.3918 24.9316C77.1165 24.9316 75.2662 26.782 75.2662 29.0573H64.264C64.264 26.782 62.4136 24.9316 60.1384 24.9316C57.8632 24.9316 56.0128 26.782 56.0128 29.0573H45.0107C45.0107 26.782 43.1603 24.9316 40.8851 24.9316C38.6098 24.9316 36.7594 26.782 36.7594 29.0573H32.0834C28.1398 29.0573 24.9316 32.2654 24.9316 36.209V79.667C24.9316 83.6105 28.1398 86.8187 32.0834 86.8187H43.5259C47.5625 91.8463 53.7559 95.07 60.6889 95.07C67.6218 95.07 73.8166 91.8448 77.8519 86.8187H87.9182C91.8618 86.8187 95.07 83.6105 95.07 79.667V36.2076C95.07 32.264 91.8618 29.0558 87.9182 29.0558V29.0573ZM78.0156 29.0573C78.0156 28.2993 78.6324 27.6825 79.3904 27.6825C80.1483 27.6825 80.7651 28.2993 80.7651 29.0573V35.9338H78.0156V29.0573ZM58.7623 29.0573C58.7623 28.2993 59.3791 27.6825 60.137 27.6825C60.8949 27.6825 61.5117 28.2993 61.5117 29.0573V35.9338H58.7609V29.0573H58.7623ZM39.5089 29.0573C39.5089 28.2993 40.1257 27.6825 40.8837 27.6825C41.6416 27.6825 42.2584 28.2993 42.2584 29.0573V35.9338H39.5075V29.0573H39.5089ZM32.082 31.8067H36.758V35.9323H35.3833C34.6239 35.9323 34.0086 36.5477 34.0086 37.3071C34.0086 38.0664 34.6239 38.6818 35.3833 38.6818H46.3854C47.1448 38.6818 47.7602 38.0664 47.7602 37.3071C47.7602 36.5477 47.1448 35.9323 46.3854 35.9323H45.0107V31.8067H56.0128V35.9323H54.6381C53.8787 35.9323 53.2633 36.5477 53.2633 37.3071C53.2633 38.0664 53.8787 38.6818 54.6381 38.6818H65.6402C66.3995 38.6818 67.0149 38.0664 67.0149 37.3071C67.0149 36.5477 66.3995 35.9323 65.6402 35.9323H64.2654V31.8067H75.2676V35.9323H73.8928C73.1335 35.9323 72.5181 36.5477 72.5181 37.3071C72.5181 38.0664 73.1335 38.6818 73.8928 38.6818H84.8949C85.6543 38.6818 86.2697 38.0664 86.2697 37.3071C86.2697 36.5477 85.6543 35.9323 84.8949 35.9323H83.5202V31.8067H87.9211C90.3473 31.8067 92.3219 33.7813 92.3219 36.2076V44.1836H27.6811V36.2076C27.6811 33.7813 29.6557 31.8067 32.082 31.8067ZM60.6875 92.3191C50.0707 92.3191 41.4341 83.6811 41.4341 73.0657C41.4341 62.4503 50.0707 53.8124 60.6875 53.8124C71.3043 53.8124 79.9408 62.4489 79.9408 73.0657C79.9408 83.6825 71.3043 92.3191 60.6875 92.3191ZM87.9182 84.0664H79.739C81.6162 80.8272 82.6931 77.07 82.6931 73.0643C82.6931 60.9316 72.8215 51.0601 60.6889 51.0601C48.5562 51.0601 38.6846 60.9302 38.6846 73.0643C38.6846 77.07 39.7602 80.8286 41.6388 84.0664H32.0834C29.6571 84.0664 27.6825 82.0918 27.6825 79.6656V46.9345H92.3191V79.6656C92.3191 82.0933 90.3445 84.0664 87.9182 84.0664Z" fill="#2169AC"/>
<path d="M62.0622 69.1759V64.8132C62.0622 64.0539 61.4468 63.4385 60.6875 63.4385C59.9281 63.4385 59.3128 64.0539 59.3128 64.8132V69.1759C58.1427 69.5909 57.214 70.5196 56.799 71.6897H52.4363C51.6769 71.6897 51.0615 72.3051 51.0615 73.0644C51.0615 73.8238 51.6769 74.4392 52.4363 74.4392H56.799C57.3664 76.0397 58.895 77.1901 60.6875 77.1901C62.9627 77.1901 64.8131 75.3397 64.8131 73.0644C64.8131 71.2719 63.6642 69.7433 62.0622 69.1759ZM60.6875 74.4406C59.9296 74.4406 59.3128 73.8238 59.3128 73.0659C59.3128 72.3079 59.9296 71.6911 60.6875 71.6911C61.4454 71.6911 62.0622 72.3079 62.0622 73.0659C62.0622 73.8238 61.4454 74.4406 60.6875 74.4406Z" fill="#2169AC"/>
<path d="M60.6875 60.6877C61.4468 60.6877 62.0622 60.0723 62.0622 59.3129V57.9382C62.0622 57.1789 61.4468 56.5635 60.6875 56.5635C59.9281 56.5635 59.3127 57.1789 59.3127 57.9382V59.3129C59.3127 60.0723 59.9281 60.6877 60.6875 60.6877Z" fill="#2169AC"/>
<path d="M49.9902 64.3119C50.528 64.8496 51.3974 64.8496 51.9352 64.3119C52.4729 63.7755 52.4729 62.9047 51.9352 62.3669L50.9627 61.3944C50.4249 60.8581 49.5541 60.8581 49.0177 61.3944C48.4814 61.9322 48.4814 62.8031 49.0177 63.3394L49.9902 64.3119Z" fill="#2169AC"/>
<path d="M46.9345 71.6895H45.5598C44.8004 71.6895 44.1851 72.3048 44.1851 73.0642C44.1851 73.8235 44.8004 74.4389 45.5598 74.4389H46.9345C47.6939 74.4389 48.3093 73.8235 48.3093 73.0642C48.3093 72.3048 47.6939 71.6895 46.9345 71.6895Z" fill="#2169AC"/>
<path d="M49.9902 81.8164L49.0177 82.7889C48.4814 83.3252 48.4814 84.1975 49.0177 84.7338C49.5555 85.2716 50.4249 85.2716 50.9627 84.7338L51.9352 83.7614C52.4729 83.225 52.4729 82.3527 51.9352 81.8164C51.3988 81.2786 50.5266 81.2786 49.9902 81.8164Z" fill="#2169AC"/>
<path d="M60.6875 85.4424C59.9281 85.4424 59.3127 86.0578 59.3127 86.8171V88.1919C59.3127 88.9512 59.9281 89.5666 60.6875 89.5666C61.4468 89.5666 62.0622 88.9512 62.0622 88.1919V86.8171C62.0622 86.0578 61.4468 85.4424 60.6875 85.4424Z" fill="#2169AC"/>
<path d="M71.3846 81.8164C70.8483 81.2786 69.9774 81.2786 69.4397 81.8164C68.9033 82.3527 68.9019 83.2236 69.4397 83.7614L70.4121 84.7338C70.9485 85.2716 71.8193 85.2716 72.3571 84.7338C72.8948 84.1975 72.8948 83.3266 72.3571 82.7889L71.3846 81.8164Z" fill="#2169AC"/>
<path d="M75.8151 71.6895H74.4404C73.6811 71.6895 73.0657 72.3048 73.0657 73.0642C73.0657 73.8235 73.6811 74.4389 74.4404 74.4389H75.8151C76.5745 74.4389 77.1899 73.8235 77.1899 73.0642C77.1899 72.3048 76.5745 71.6895 75.8151 71.6895Z" fill="#2169AC"/>
<path d="M70.4123 61.396L69.4399 62.3685C68.9035 62.9062 68.9035 63.7757 69.4399 64.3134C69.9776 64.8498 70.8471 64.8498 71.3848 64.3134L72.3573 63.3409C72.895 62.8032 72.895 61.9323 72.3573 61.396C71.8209 60.8582 70.9501 60.8582 70.4123 61.396Z" fill="#2169AC"/>
</svg>
