<svg width="120" height="120" viewBox="0 0 120 120" fill="none" xmlns="http://www.w3.org/2000/svg">
<rect width="120" height="120" rx="60" fill="#B7EEFF" fill-opacity="0.2"/>
<path d="M80.0888 70.7625L59.9999 82.2417L41.2998 71.5557L41.3464 71.4767V26.2798H71.4805L73.6329 33.4541L80.0902 34.8895C80.0902 38.507 80.0902 69.4343 80.0902 70.7625H80.0888Z" fill="#86CAFD"/>
<path d="M41.3451 48.7046V71.4766L41.3 71.5557L29.866 65.0222V57.8478L41.3451 48.7046Z" fill="white"/>
<path d="M90.134 57.8476V65.0219L80.0889 70.7622V49.7163L90.134 57.8476Z" fill="white"/>
<path d="M90.1341 65.022V93.7206H29.866V65.022L41.3 71.5555L60.0001 82.2415L80.089 70.7623L90.1341 65.022Z" fill="white"/>
<path d="M80.0887 34.8881H71.479V26.2798L80.0887 34.8881Z" fill="white"/>
<path d="M90.134 95.1563H29.8658C29.074 95.1563 28.4304 94.5141 28.4304 93.7208V57.8479C28.4304 57.4103 28.6294 56.9982 28.971 56.7258L40.4502 47.5825C41.0698 47.0885 41.9731 47.1916 42.4671 47.8112C42.9611 48.4308 42.8581 49.3341 42.2385 49.8281L31.2999 58.5409V92.2882H88.6972V58.5338L79.1841 50.8331C78.5687 50.3348 78.4728 49.4301 78.971 48.8147C79.4706 48.1979 80.374 48.1033 80.9893 48.6016L91.0345 56.7328C91.3704 57.0053 91.5666 57.416 91.5666 57.8479V93.7208C91.5666 94.5141 90.9244 95.1563 90.1312 95.1563H90.134Z" fill="#2169AA"/>
<path d="M59.9999 83.677C59.7543 83.677 59.5087 83.6135 59.2885 83.4879L29.1544 66.2684C28.4671 65.8746 28.2271 64.9981 28.6209 64.3108C29.0147 63.622 29.8912 63.3834 30.5786 63.7772L59.9999 80.5902L89.4212 63.7772C90.11 63.3834 90.9851 63.6234 91.3789 64.3108C91.7727 64.9995 91.5327 65.876 90.8453 66.2684L60.7113 83.4879C60.4911 83.6135 60.2455 83.677 59.9999 83.677Z" fill="#2169AA"/>
<path d="M41.3451 72.912C40.5519 72.912 39.9097 72.2698 39.9097 71.4766V26.2797C39.9097 25.4864 40.5519 24.8442 41.3451 24.8442H71.4792C71.8603 24.8442 72.2244 24.9953 72.494 25.2648L81.1037 33.8746C81.3733 34.1442 81.5243 34.5083 81.5243 34.8894V70.7624C81.5243 71.5542 80.8821 72.1978 80.0889 72.1978C79.2957 72.1978 78.6535 71.5556 78.6535 70.7624V35.4836L70.8836 27.7137H42.7791V71.4766C42.7791 72.2698 42.1369 72.912 41.3437 72.912H41.3451Z" fill="#2169AA"/>
<path d="M80.0889 36.3234H71.4791C70.6859 36.3234 70.0437 35.6812 70.0437 34.8879V26.2782C70.0437 25.485 70.6859 24.8428 71.4791 24.8428C72.2724 24.8428 72.9146 25.485 72.9146 26.2782V33.4525H80.0889C80.8821 33.4525 81.5243 34.0947 81.5243 34.8879C81.5243 35.6812 80.8821 36.3234 80.0889 36.3234Z" fill="#2169AA"/>
<path d="M74.3486 59.2815H47.0853C46.2935 59.2815 45.6499 58.6393 45.6499 57.8461C45.6499 57.0528 46.2921 56.4106 47.0853 56.4106H74.3486C75.1418 56.4106 75.784 57.0528 75.784 57.8461C75.784 58.6393 75.1418 59.2815 74.3486 59.2815Z" fill="#2169AA"/>
<path d="M74.3486 53.5427H47.0853C46.2935 53.5427 45.6499 52.9005 45.6499 52.1073C45.6499 51.3141 46.2921 50.6719 47.0853 50.6719H74.3486C75.1418 50.6719 75.784 51.3141 75.784 52.1073C75.784 52.9005 75.1418 53.5427 74.3486 53.5427Z" fill="#2169AA"/>
<path d="M74.3486 47.8025H47.0853C46.2935 47.8025 45.6499 47.1603 45.6499 46.3671C45.6499 45.5738 46.2921 44.9316 47.0853 44.9316H74.3486C75.1418 44.9316 75.784 45.5738 75.784 46.3671C75.784 47.1603 75.1418 47.8025 74.3486 47.8025Z" fill="#2169AA"/>
<path d="M59.9999 42.0637H47.0853C46.2935 42.0637 45.6499 41.4215 45.6499 40.6283C45.6499 39.8351 46.2921 39.1929 47.0853 39.1929H59.9999C60.7932 39.1929 61.4354 39.8351 61.4354 40.6283C61.4354 41.4215 60.7932 42.0637 59.9999 42.0637Z" fill="#2169AA"/>
</svg>
