<svg width="120" height="120" viewBox="0 0 120 120" fill="none" xmlns="http://www.w3.org/2000/svg">
<rect width="120" height="120" rx="60" fill="#B7EEFF" fill-opacity="0.2"/>
<path d="M90.6366 45.4331L93.3494 53.7789L86.2188 57.6194C86.2894 58.4041 86.3275 59.1988 86.3275 60.0019C86.3275 60.805 86.2894 61.5982 86.2174 62.3844L93.348 66.2249L90.6366 74.5707L82.614 73.4867C81.7954 74.8572 80.8568 76.1473 79.8109 77.3399L83.324 84.6384L76.2245 89.7972L70.3727 84.2065C68.9246 84.829 67.4073 85.3244 65.8378 85.6801L64.3896 93.6942H55.6133L54.1666 85.6801C52.5957 85.3244 51.0798 84.829 49.6303 84.2065L43.7799 89.7972L36.6804 84.6384L40.1934 77.3399C39.1476 76.1458 38.209 74.8572 37.3889 73.4867L29.3663 74.5707L26.6536 66.2249L33.7841 62.3844C33.6444 60.8191 33.6359 59.2821 33.7841 57.6208L26.6536 53.7803L29.3663 45.4345L37.3889 46.5185C38.2076 45.148 39.1462 43.8579 40.192 42.6638L36.679 35.3653L43.7785 30.2065L49.6289 35.7972C51.0784 35.1748 52.5957 34.6794 54.1652 34.3237L55.6133 26.3096H64.3896L65.8363 34.3237C67.4073 34.6794 68.9231 35.1748 70.3727 35.7972L76.2231 30.2065L83.3226 35.3653L79.8095 42.6638C80.8554 43.8579 81.794 45.1466 82.6126 46.5185L90.6352 45.4345L90.6366 45.4331ZM79.0431 60.0005C79.0431 49.4825 70.5181 40.9574 60.0001 40.9574C49.4821 40.9574 40.957 49.4825 40.957 60.0005C40.957 70.5185 49.4821 79.0435 60.0001 79.0435C70.5181 79.0435 79.0431 70.5185 79.0431 60.0005Z" fill="#89CCFF"/>
<path d="M55.6049 73.1832V67.8C52.1413 66.1556 49.7461 62.6242 49.7461 58.5353C49.7461 52.8726 54.3375 48.2812 60.0002 48.2812C65.6628 48.2812 70.2542 52.8726 70.2542 58.5353C70.2542 62.6256 67.859 66.1556 64.3954 67.8V73.1832H55.6064H55.6049Z" fill="white"/>
<path d="M64.3868 95.1562H55.6105C54.902 95.1562 54.2951 94.6495 54.1695 93.9523L52.8907 86.8739C51.8942 86.6114 50.9119 86.291 49.9521 85.9198L44.7877 90.8556C44.2753 91.3439 43.4863 91.3976 42.9147 90.9812L35.8152 85.8224C35.2422 85.4061 35.0488 84.6396 35.3565 84.0017L38.4574 77.5599C37.8067 76.7624 37.1998 75.9283 36.6423 75.0645L29.5583 76.0214C28.8568 76.116 28.1878 75.6954 27.969 75.0221L25.2563 66.6777C25.0375 66.0045 25.3311 65.2705 25.9549 64.9346L32.2513 61.543C32.2217 61.0235 32.2076 60.507 32.2076 60.0017C32.2076 59.4964 32.2217 58.9798 32.2513 58.459L25.9549 55.0673C25.3311 54.7314 25.0375 53.9988 25.2563 53.3242L27.969 44.9798C28.1878 44.3065 28.8568 43.8859 29.5583 43.9805L36.6423 44.9374C37.1998 44.0737 37.8067 43.2395 38.4574 42.442L35.3565 36.0003C35.0488 35.3623 35.2422 34.5959 35.8152 34.1795L42.9147 29.0207C43.4877 28.6043 44.2767 28.658 44.7877 29.1463L49.9521 34.0821C50.9119 33.7109 51.8942 33.3905 52.8907 33.128L54.1709 26.0497C54.2965 25.3524 54.9034 24.8457 55.6119 24.8457H64.3882C65.0968 24.8457 65.7037 25.3524 65.8293 26.0497L67.1081 33.128C68.1045 33.3919 69.0869 33.7109 70.0467 34.0821L75.2111 29.1463C75.7235 28.658 76.511 28.6043 77.0841 29.0207L84.1836 34.1795C84.7566 34.5959 84.95 35.3623 84.6423 36.0003L81.5414 42.4434C82.192 43.2409 82.799 44.0751 83.3565 44.9389L90.4405 43.9819C91.1419 43.8873 91.811 44.308 92.0297 44.9812L94.7425 53.327C94.9613 54.0003 94.6677 54.7342 94.0438 55.0701L87.7474 58.4604C87.8053 59.4851 87.8067 60.4929 87.7474 61.5444L94.0424 64.9346C94.6663 65.2705 94.9599 66.0031 94.7411 66.6763L92.0297 75.0207C91.811 75.694 91.1419 76.1146 90.4405 76.02L83.3565 75.0631C82.799 75.9269 82.192 76.761 81.5414 77.5585L84.6423 84.0003C84.9486 84.6382 84.7566 85.4046 84.1836 85.821L77.0841 90.9798C76.511 91.3962 75.7235 91.3425 75.2111 90.8542L70.0453 85.9184C69.0869 86.2896 68.1045 86.6086 67.1081 86.8725L65.8293 93.9509C65.7037 94.6481 65.0968 95.1562 64.3882 95.1562H64.3868ZM56.8357 92.2261H63.1631L64.3939 85.4159C64.4983 84.8372 64.9387 84.3771 65.5117 84.2473C66.9782 83.9142 68.4179 83.447 69.7926 82.857C70.3318 82.6255 70.9585 82.7384 71.3833 83.1435L76.3515 87.8902L81.4736 84.1682L78.4913 77.972C78.2372 77.4427 78.3219 76.8132 78.71 76.3715C79.698 75.2423 80.5887 74.0186 81.3579 72.7314C81.6585 72.2275 82.2302 71.9523 82.8117 72.0313L89.6232 72.9516L91.5795 66.9318L85.5244 63.67C85.0079 63.3919 84.7072 62.8316 84.7594 62.2473C84.8286 61.4921 84.8639 60.7356 84.8639 59.9988C84.8639 59.2621 84.8286 58.5084 84.7609 57.7476C84.7086 57.1647 85.0093 56.6058 85.5244 56.3277L91.5781 53.0659L89.6218 47.0461L82.8103 47.9664C82.2316 48.044 81.6571 47.7702 81.3565 47.2663C80.5887 45.9791 79.6981 44.7554 78.7086 43.6262C78.3219 43.1844 78.2358 42.555 78.4899 42.0257L81.4722 35.8295L76.3501 32.1075L71.3833 36.8542C70.9585 37.2607 70.3332 37.3722 69.794 37.1407C68.4179 36.5493 66.9768 36.0821 65.5117 35.749C64.9387 35.6192 64.4983 35.159 64.3939 34.5804L63.1645 27.7702H56.8357L55.6049 34.5804C55.5004 35.159 55.0601 35.6192 54.487 35.749C53.022 36.0807 51.5809 36.5493 50.2048 37.1407C49.6656 37.3722 49.0389 37.2593 48.6141 36.8542L43.6472 32.1075L38.5251 35.8295L41.5075 42.0257C41.7616 42.555 41.6755 43.1844 41.2887 43.6262C40.3007 44.7554 39.4087 45.9791 38.6409 47.2663C38.3403 47.7702 37.7672 48.0454 37.1871 47.9664L30.3755 47.0461L28.4179 53.0659L34.4729 56.3263C34.9895 56.6044 35.2901 57.1633 35.2365 57.7462C35.1688 58.5056 35.1335 59.2635 35.1335 59.9974C35.1335 60.7314 35.1673 61.4893 35.2365 62.2487C35.2887 62.833 34.9881 63.3905 34.4729 63.6686L28.4179 66.9304L30.3755 72.9502L37.1871 72.0299C37.7686 71.9523 38.3403 72.2275 38.6409 72.73C39.4087 74.0172 40.3007 75.2409 41.2887 76.3701C41.6755 76.8118 41.7616 77.4413 41.5061 77.9706L38.5237 84.1668L43.6458 87.8888L48.6127 83.1421C49.0375 82.737 49.6628 82.6241 50.2033 82.8556C51.5795 83.447 53.0206 83.9142 54.4856 84.2473C55.0587 84.3771 55.499 84.8372 55.6035 85.4159L56.8328 92.2261H56.8357Z" fill="#2169AC"/>
<path d="M60.0001 80.5084C48.6917 80.5084 39.4919 71.3087 39.4919 60.0003C39.4919 48.6919 48.6917 39.4922 60.0001 39.4922C71.3085 39.4922 80.5082 48.6919 80.5082 60.0003C80.5082 71.3087 71.3085 80.5084 60.0001 80.5084ZM60.0001 42.4223C50.3077 42.4223 42.4221 50.308 42.4221 60.0003C42.4221 69.6926 50.3077 77.5783 60.0001 77.5783C69.6924 77.5783 77.578 69.6926 77.578 60.0003C77.578 50.308 69.6924 42.4223 60.0001 42.4223Z" fill="#2169AC"/>
<path d="M64.3939 74.6484H55.6049C54.7962 74.6484 54.1399 73.9921 54.1399 73.1834V68.6837C50.552 66.6061 48.281 62.719 48.281 58.5355C48.281 52.074 53.5386 46.8164 60.0001 46.8164C66.4617 46.8164 71.7193 52.0726 71.7193 58.5355C71.7193 62.7204 69.4483 66.6061 65.8604 68.6837V73.1834C65.8604 73.9921 65.2041 74.6484 64.3953 74.6484H64.3939ZM57.07 71.7197H62.9289V67.8016C62.9289 67.2356 63.2549 66.7204 63.7658 66.4791C66.8173 65.0295 68.7891 61.9131 68.7891 58.5369C68.7891 53.6915 64.847 49.748 60.0001 49.748C55.1533 49.748 51.2111 53.6901 51.2111 58.5369C51.2111 61.9131 53.1829 65.0295 56.2344 66.4791C56.7454 66.7218 57.0714 67.237 57.0714 67.8016V71.7197H57.07Z" fill="#2169AC"/>
<path d="M60.0002 64.3937C59.1914 64.3937 58.5351 63.7374 58.5351 62.9286C58.5351 61.3125 57.221 59.9985 55.605 59.9985C54.7962 59.9985 54.1399 59.3422 54.1399 58.5334C54.1399 57.7247 54.7948 57.0684 55.605 57.0684C58.8357 57.0684 61.4638 59.6964 61.4638 62.9272C61.4638 63.736 60.8089 64.3923 59.9988 64.3923L60.0002 64.3937Z" fill="#2169AC"/>
<path d="M60 74.6483C59.1912 74.6483 58.5349 73.992 58.5349 73.1832V62.9292C58.5349 59.6984 61.163 57.0703 64.3938 57.0703C65.2025 57.0703 65.8588 57.7252 65.8588 58.5354C65.8588 59.3455 65.2025 60.0004 64.3938 60.0004C62.7777 60.0004 61.4636 61.3145 61.4636 62.9306V73.1846C61.4636 73.9934 60.8087 74.6497 59.9986 74.6497L60 74.6483Z" fill="#2169AC"/>
</svg>
