<svg width="120" height="120" viewBox="0 0 120 120" fill="none" xmlns="http://www.w3.org/2000/svg">
<rect width="120" height="120" rx="60" fill="#B7EEFF" fill-opacity="0.2"/>
<path d="M43.4565 56.5537V71.7196C43.4565 73.2425 44.6901 74.4775 46.2145 74.4775H86.1947C87.7177 74.4775 88.9527 73.2439 88.9527 71.7196V56.5537H43.4565Z" fill="#89CCFF"/>
<path d="M83.4367 62.0679H75.1643V68.9613H83.4367V62.0679Z" fill="white"/>
<path d="M88.9512 48.2809V51.0388H43.4565V48.2809C43.4565 46.758 44.6901 45.5229 46.2145 45.5229H86.1947C87.7177 45.5229 88.9527 46.7565 88.9527 48.2809H88.9512Z" fill="#89CCFF"/>
<path d="M88.9512 51.0391H43.4565V56.5535H88.9512V51.0391Z" fill="white"/>
<path d="M73.7854 84.126V89.6404C73.7854 91.9256 71.9336 93.7759 69.6499 93.7759H35.1841C32.9004 93.7759 31.0486 91.9241 31.0486 89.6404V84.126H73.7868H73.7854Z" fill="white"/>
<path d="M73.7854 74.4758V84.1258H31.0486V30.3586C31.0486 28.0749 32.9004 26.2231 35.1841 26.2231H42.1918C42.9822 26.2231 43.719 26.6169 44.158 27.2747L45.5115 29.3071C45.9505 29.9649 46.6873 30.3586 47.4777 30.3586H57.3577C58.1481 30.3586 58.8849 29.9649 59.3238 29.3071L60.6774 27.2747C61.1163 26.6169 61.8531 26.2231 62.6435 26.2231H69.6513C71.9364 26.2231 73.7868 28.0749 73.7868 30.3586V45.5245H46.2144C44.6915 45.5245 43.4565 46.7581 43.4565 48.2824V71.7193C43.4565 73.2422 44.6901 74.4772 46.2144 74.4772H73.7868L73.7854 74.4758Z" fill="white"/>
<path d="M73.7854 85.505H31.0486C30.2879 85.505 29.6697 84.8882 29.6697 84.126C29.6697 83.3639 30.2865 82.7471 31.0486 82.7471H73.7868C74.5476 82.7471 75.1658 83.3639 75.1658 84.126C75.1658 84.8882 74.549 85.505 73.7868 85.505H73.7854Z" fill="#2169AC"/>
<path d="M69.6499 95.1547H35.1841C32.1439 95.1547 29.6697 92.6805 29.6697 89.6403V30.3587C29.6697 27.3185 32.1439 24.8442 35.1841 24.8442H42.1919C43.4453 24.8442 44.6097 25.4667 45.3041 26.5097L46.6591 28.5408C46.8426 28.8146 47.1489 28.9797 47.4777 28.9797H57.3563C57.6852 28.9797 57.9915 28.816 58.175 28.5408L59.5299 26.5097C60.2258 25.4667 61.3888 24.8442 62.6436 24.8442H69.6513C72.6916 24.8442 75.1658 27.3185 75.1658 30.3587V45.5231C75.1658 46.2853 74.549 46.9021 73.7868 46.9021C73.0247 46.9021 72.4079 46.2853 72.4079 45.5231V30.3587C72.4079 28.8386 71.1714 27.6022 69.6513 27.6022H62.6436C62.3147 27.6022 62.0084 27.7659 61.8249 28.0411L60.47 30.0722C59.7741 31.1152 58.6111 31.7391 57.3563 31.7391H47.4777C46.2244 31.7391 45.0599 31.1166 44.3641 30.0722L43.0091 28.0411C42.8256 27.7673 42.5194 27.6022 42.1905 27.6022H35.1827C33.6626 27.6022 32.4248 28.8386 32.4248 30.3587V89.6403C32.4248 91.1604 33.6612 92.3982 35.1827 92.3982H69.6485C71.1686 92.3982 72.4064 91.1618 72.4064 89.6403V74.4759C72.4064 73.7151 73.0232 73.0969 73.7854 73.0969C74.5476 73.0969 75.1644 73.7137 75.1644 74.4759V89.6403C75.1644 92.6805 72.6901 95.1547 69.6499 95.1547Z" fill="#2169AC"/>
<path d="M86.1934 75.8548H46.2131C43.9323 75.8548 42.0776 73.9988 42.0776 71.7193V48.2825C42.0776 46.0016 43.9323 44.147 46.2131 44.147H86.1934C88.4743 44.147 90.3289 46.003 90.3289 48.2825V71.7193C90.3289 74.0002 88.4743 75.8548 86.1934 75.8548ZM46.2131 46.9021C45.4524 46.9021 44.8342 47.5203 44.8342 48.2811V71.7179C44.8342 72.4787 45.4524 73.0969 46.2131 73.0969H86.1934C86.9527 73.0969 87.5723 72.4787 87.5723 71.7179V48.2811C87.5723 47.5203 86.9541 46.9021 86.1934 46.9021H46.2131Z" fill="#2169AC"/>
<path d="M88.9513 52.4181H43.4566C42.6958 52.4181 42.0776 51.8013 42.0776 51.0391C42.0776 50.277 42.6944 49.6602 43.4566 49.6602H88.9513C89.7121 49.6602 90.3303 50.277 90.3303 51.0391C90.3303 51.8013 89.7135 52.4181 88.9513 52.4181Z" fill="#2169AC"/>
<path d="M88.9513 57.9323H43.4566C42.6958 57.9323 42.0776 57.3155 42.0776 56.5533C42.0776 55.7911 42.6944 55.1743 43.4566 55.1743H88.9513C89.7121 55.1743 90.3303 55.7911 90.3303 56.5533C90.3303 57.3155 89.7135 57.9323 88.9513 57.9323Z" fill="#2169AC"/>
<path d="M83.4368 70.3403H75.1644C74.4036 70.3403 73.7854 69.7235 73.7854 68.9614V62.0679C73.7854 61.3072 74.4022 60.689 75.1644 60.689H83.4368C84.1975 60.689 84.8157 61.3058 84.8157 62.0679V68.9614C84.8157 69.7221 84.199 70.3403 83.4368 70.3403ZM76.5433 67.5824H82.0578V63.4469H76.5433V67.5824Z" fill="#2169AC"/>
<path d="M58.621 63.4469H48.971C48.2088 63.4469 47.592 62.8301 47.592 62.0679C47.592 61.3058 48.2102 60.689 48.971 60.689H58.621C59.3817 60.689 59.9999 61.3058 59.9999 62.0679C59.9999 62.8301 59.3831 63.4469 58.621 63.4469Z" fill="#2169AC"/>
<path d="M54.4855 70.3405H48.971C48.2088 70.3405 47.592 69.7237 47.592 68.9615C47.592 68.1993 48.2102 67.5825 48.971 67.5825H54.4855C55.2462 67.5825 55.8644 68.1993 55.8644 68.9615C55.8644 69.7237 55.2477 70.3405 54.4855 70.3405Z" fill="#2169AC"/>
</svg>
