<svg width="120" height="120" viewBox="0 0 120 120" fill="none" xmlns="http://www.w3.org/2000/svg">
<rect width="120" height="120" rx="60" fill="#B7EEFF" fill-opacity="0.2"/>
<path d="M93.6909 74.6474H26.3091V40.9565C26.3091 37.7201 28.9329 35.0977 32.1679 35.0977H87.832C91.067 35.0977 93.6909 37.7215 93.6909 40.9565V74.6474Z" fill="white"/>
<path d="M45.3522 32.168V42.422H36.5618V35.0981V32.168H45.3522Z" fill="white"/>
<path d="M55.6046 48.2804L45.3506 42.4215V32.1675L55.6046 26.3086V48.2804Z" fill="#89CCFF"/>
<path d="M61.4651 53.408C61.4651 50.5767 63.7601 48.2803 66.5928 48.2803C68.0085 48.2803 69.2915 48.8547 70.2188 49.782C71.1461 50.7093 71.7206 51.9923 71.7206 53.408V57.0707H61.4665V53.408H61.4651Z" fill="#89CCFF"/>
<path d="M82.7042 48.2803C85.5369 48.2803 87.8305 50.5767 87.8305 53.408V57.0707H77.5764V53.408C77.5764 50.5767 79.8714 48.2803 82.7027 48.2803H82.7042Z" fill="#89CCFF"/>
<path d="M82.7042 40.957C84.7268 40.957 86.3668 42.5971 86.3668 44.6197C86.3668 46.6423 84.7268 48.2824 82.7042 48.2824C80.6816 48.2824 79.0415 46.6423 79.0415 44.6197C79.0415 42.5971 80.6816 40.957 82.7042 40.957Z" fill="white"/>
<path d="M66.5914 40.957C68.614 40.957 70.254 42.5971 70.254 44.6197C70.254 46.6423 68.614 48.2824 66.5914 48.2824C64.5688 48.2824 62.9287 46.6423 62.9287 44.6197C62.9287 42.5971 64.5688 40.957 66.5914 40.957Z" fill="white"/>
<path d="M73.9153 93.6906H46.0833C51.7459 93.6906 56.3373 89.1006 56.3373 83.4365H63.6612C63.6612 89.0992 68.2526 93.6906 73.9153 93.6906Z" fill="#89CCFF"/>
<path d="M93.6909 74.6475V77.5776C93.6909 80.8126 91.067 83.4365 87.832 83.4365H32.1679C28.9329 83.4365 26.3091 80.8126 26.3091 77.5776V74.6475H93.6909Z" fill="#89CCFF"/>
<path d="M87.832 84.9021H32.1679C28.1298 84.9021 24.844 81.6163 24.844 77.5782V40.9572C24.844 36.9191 28.1298 33.6332 32.1679 33.6332H36.5631C37.3719 33.6332 38.0282 34.2896 38.0282 35.0983C38.0282 35.9071 37.3719 36.5634 36.5631 36.5634H32.1679C29.7445 36.5634 27.7741 38.5352 27.7741 40.9586V77.5796C27.7741 80.003 29.7459 81.9734 32.1679 81.9734H87.832C90.2554 81.9734 92.2258 80.0016 92.2258 77.5796V40.9572C92.2258 38.5337 90.254 36.562 87.832 36.562H55.6062C54.7974 36.562 54.1411 35.9057 54.1411 35.0969C54.1411 34.2882 54.7974 33.6318 55.6062 33.6318H87.832C91.8701 33.6318 95.1559 36.9177 95.1559 40.9558V77.5768C95.1559 81.6149 91.8701 84.9007 87.832 84.9007V84.9021Z" fill="#2169AC"/>
<path d="M46.0847 95.1559C45.2759 95.1559 44.6196 94.4996 44.6196 93.6908C44.6196 92.882 45.2759 92.2257 46.0847 92.2257C50.9301 92.2257 54.8737 88.2822 54.8737 83.4367C54.8737 82.628 55.53 81.9717 56.3388 81.9717C57.1475 81.9717 57.8038 82.628 57.8038 83.4367C57.8038 89.8983 52.5462 95.1559 46.0847 95.1559Z" fill="#2169AC"/>
<path d="M73.9153 95.1559H46.0832C45.2745 95.1559 44.6182 94.4996 44.6182 93.6908C44.6182 92.882 45.2745 92.2257 46.0832 92.2257H66.1623C63.6866 90.038 62.1961 86.9018 62.1961 83.4367C62.1961 82.628 62.8525 81.9717 63.6612 81.9717C64.47 81.9717 65.1263 82.628 65.1263 83.4367C65.1263 88.2737 69.0388 92.2257 73.9153 92.2257C74.724 92.2257 75.3803 92.882 75.3803 93.6908C75.3803 94.4996 74.724 95.1559 73.9153 95.1559Z" fill="#2169AC"/>
<path d="M93.6909 76.1128H26.3091C25.5003 76.1128 24.844 75.4564 24.844 74.6477C24.844 73.8389 25.5003 73.1826 26.3091 73.1826H93.6909C94.4996 73.1826 95.1559 73.8389 95.1559 74.6477C95.1559 75.4564 94.4996 76.1128 93.6909 76.1128Z" fill="#2169AC"/>
<path d="M45.3522 43.8873H36.5632C35.7545 43.8873 35.0981 43.2324 35.0981 42.4222V32.1682C35.0981 31.3594 35.7545 30.7031 36.5632 30.7031H45.3522C46.161 30.7031 46.8173 31.3594 46.8173 32.1682C46.8173 32.9769 46.161 33.6333 45.3522 33.6333H38.0283V40.9572H45.3522C46.161 40.9572 46.8173 41.6121 46.8173 42.4222C46.8173 43.2324 46.161 43.8873 45.3522 43.8873Z" fill="#2169AC"/>
<path d="M55.6049 49.7458C55.3536 49.7458 55.1038 49.6808 54.878 49.5524L44.6239 43.6935C44.168 43.4324 43.8857 42.9469 43.8857 42.4218V32.1678C43.8857 31.6427 44.168 31.1572 44.6239 30.8961L54.878 25.0372C55.331 24.7789 55.8886 24.7803 56.3402 25.0429C56.7919 25.3054 57.0699 25.7881 57.0699 26.3103V48.2821C57.0699 48.8043 56.7919 49.287 56.3402 49.5496C56.113 49.6808 55.8589 49.7472 55.6049 49.7472V49.7458ZM46.8159 41.5722L54.1398 45.7571V28.8326L46.8159 33.0175V41.5707V41.5722Z" fill="#2169AC"/>
<path d="M71.7191 58.5346H61.4651C60.6563 58.5346 60 57.8782 60 57.0695V53.4068C60 49.7724 62.957 46.8154 66.5914 46.8154C68.3529 46.8154 70.0085 47.5014 71.2534 48.7463C72.4982 49.9912 73.1842 51.6468 73.1842 53.4068V57.0695C73.1842 57.8782 72.5279 58.5346 71.7191 58.5346ZM62.9287 55.6044H70.2526V53.4068C70.2526 52.4287 69.8716 51.5084 69.18 50.8168C68.4884 50.1252 67.5681 49.7442 66.59 49.7442C64.5702 49.7442 62.9273 51.3871 62.9273 53.4068V55.6044H62.9287Z" fill="#2169AC"/>
<path d="M66.5914 49.7462C63.7643 49.7462 61.4636 47.4456 61.4636 44.6185C61.4636 41.7914 63.7643 39.4922 66.5914 39.4922C69.4185 39.4922 71.7177 41.7928 71.7177 44.6185C71.7177 47.4442 69.4185 49.7462 66.5914 49.7462ZM66.5914 42.4223C65.3804 42.4223 64.3938 43.4075 64.3938 44.6199C64.3938 45.8323 65.3789 46.8175 66.5914 46.8175C67.8038 46.8175 68.789 45.8323 68.789 44.6199C68.789 43.4075 67.8038 42.4223 66.5914 42.4223Z" fill="#2169AC"/>
<path d="M87.8319 58.5346H77.5779C76.7691 58.5346 76.1128 57.8782 76.1128 57.0695V53.4068C76.1128 49.7724 79.0697 46.8154 82.7042 46.8154C84.4657 46.8154 86.1213 47.5014 87.3661 48.7463C88.611 49.9912 89.297 51.6468 89.297 53.4068V57.0695C89.297 57.8782 88.6407 58.5346 87.8319 58.5346ZM79.0429 55.6044H86.3668V53.4068C86.3668 52.4287 85.9858 51.5084 85.2942 50.8168C84.6026 50.1252 83.6823 49.7442 82.7042 49.7442C80.6844 49.7442 79.0415 51.3871 79.0415 53.4068V55.6044H79.0429Z" fill="#2169AC"/>
<path d="M82.7042 49.7462C79.8771 49.7462 77.5779 47.4456 77.5779 44.6185C77.5779 41.7914 79.8771 39.4922 82.7042 39.4922C85.5313 39.4922 87.8305 41.7914 87.8305 44.6185C87.8305 47.4456 85.5299 49.7462 82.7042 49.7462ZM82.7042 42.4223C81.4932 42.4223 80.5066 43.4075 80.5066 44.6199C80.5066 45.8323 81.4918 46.8175 82.7042 46.8175C83.9166 46.8175 84.9018 45.8323 84.9018 44.6199C84.9018 43.4075 83.9166 42.4223 82.7042 42.4223Z" fill="#2169AC"/>
<path d="M93.6908 64.394H61.4636C60.6548 64.394 59.9985 63.7377 59.9985 62.9289C59.9985 62.1202 60.6548 61.4639 61.4636 61.4639H93.6908C94.4996 61.4639 95.1559 62.1202 95.1559 62.9289C95.1559 63.7377 94.4996 64.394 93.6908 64.394Z" fill="#2169AC"/>
<path d="M33.633 55.6049H32.1679C31.3592 55.6049 30.7029 54.9486 30.7029 54.1399C30.7029 53.3311 31.3592 52.6748 32.1679 52.6748H33.633C34.4418 52.6748 35.0981 53.3297 35.0981 54.1399C35.0981 54.95 34.4418 55.6049 33.633 55.6049Z" fill="#2169AC"/>
<path d="M52.6761 55.6049H39.4919C38.6832 55.6049 38.0269 54.9486 38.0269 54.1399C38.0269 53.3311 38.6818 52.6748 39.4919 52.6748H52.6761C53.4849 52.6748 54.1412 53.3297 54.1412 54.1399C54.1412 54.95 53.4849 55.6049 52.6761 55.6049Z" fill="#2169AC"/>
<path d="M33.633 61.4653H32.1679C31.3592 61.4653 30.7029 60.809 30.7029 60.0002C30.7029 59.1915 31.3592 58.5352 32.1679 58.5352H33.633C34.4418 58.5352 35.0981 59.1915 35.0981 60.0002C35.0981 60.809 34.4418 61.4653 33.633 61.4653Z" fill="#2169AC"/>
<path d="M52.6761 61.4653H39.4919C38.6832 61.4653 38.0269 60.809 38.0269 60.0002C38.0269 59.1915 38.6818 58.5352 39.4919 58.5352H52.6761C53.4849 58.5352 54.1412 59.1915 54.1412 60.0002C54.1412 60.809 53.4849 61.4653 52.6761 61.4653Z" fill="#2169AC"/>
<path d="M33.633 67.3237H32.1679C31.3592 67.3237 30.7029 66.6674 30.7029 65.8586C30.7029 65.0499 31.3592 64.3936 32.1679 64.3936H33.633C34.4418 64.3936 35.0981 65.0499 35.0981 65.8586C35.0981 66.6674 34.4418 67.3237 33.633 67.3237Z" fill="#2169AC"/>
<path d="M52.6761 67.3237H39.4919C38.6832 67.3237 38.0269 66.6674 38.0269 65.8586C38.0269 65.0499 38.6818 64.3936 39.4919 64.3936H52.6761C53.4849 64.3936 54.1412 65.0499 54.1412 65.8586C54.1412 66.6674 53.4849 67.3237 52.6761 67.3237Z" fill="#2169AC"/>
</svg>
