<svg width="120" height="120" viewBox="0 0 120 120" fill="none" xmlns="http://www.w3.org/2000/svg">
<rect width="120" height="120" rx="60" fill="#B7EEFF" fill-opacity="0.2"/>
<path d="M90.7608 62.9287H84.9019V93.6909H90.7608V62.9287Z" fill="white"/>
<path d="M90.7608 49.7458H84.9019V62.9286H90.7608V49.7458Z" fill="#89CCFF"/>
<path d="M79.043 68.7889V93.6908H73.2322V73.1827H73.1842V68.7889H79.043Z" fill="white"/>
<path d="M79.0416 61.465H73.1828V68.7889H79.0416V61.465Z" fill="#89CCFF"/>
<path d="M67.3239 55.6047H61.4651V93.6908H67.3239V55.6047Z" fill="white"/>
<path d="M67.3239 43.8871H61.4651V55.6062H67.3239V43.8871Z" fill="#89CCFF"/>
<path d="M55.6048 64.3938V93.6909H49.7459V64.3938H55.6048Z" fill="white"/>
<path d="M55.6048 52.676H49.7459V64.3952H55.6048V52.676Z" fill="#89CCFF"/>
<path d="M43.8871 93.6909H38.0282V71.7191H43.8871V93.6909Z" fill="white"/>
<path d="M43.8857 64.3938H38.0268V71.7177H43.8857V64.3938Z" fill="#89CCFF"/>
<path d="M93.6909 92.2258H92.2258V49.7459C92.2258 48.9371 91.5695 48.2808 90.7608 48.2808H84.9019C84.0931 48.2808 83.4368 48.9371 83.4368 49.7459V92.2258H80.5067V61.4636C80.5067 60.6549 79.8504 59.9985 79.0416 59.9985H73.1828C72.374 59.9985 71.7177 60.6549 71.7177 61.4636V92.2258H68.7876V43.887C68.7876 43.0783 68.1313 42.422 67.3225 42.422H61.4636C60.6549 42.422 59.9986 43.0783 59.9986 43.887V92.2272H57.0685V52.676C57.0685 51.8673 56.4121 51.211 55.6034 51.211H49.7445C48.9358 51.211 48.2795 51.8673 48.2795 52.676V92.2272H45.3493V64.3952C45.3493 63.5864 44.693 62.9301 43.8843 62.9301H38.0254C37.2167 62.9301 36.5603 63.5864 36.5603 64.3952V92.2272H32.1651V26.3091C32.1651 25.5003 31.5088 24.844 30.7001 24.844C29.8913 24.844 29.235 25.5003 29.235 26.3091V29.2392H26.3049C25.4961 29.2392 24.8398 29.8955 24.8398 30.7043C24.8398 31.513 25.4961 32.1693 26.3049 32.1693H29.235V36.5631H26.3049C25.4961 36.5631 24.8398 37.2194 24.8398 38.0282C24.8398 38.8369 25.4961 39.4933 26.3049 39.4933H29.235V43.8885H26.3049C25.4961 43.8885 24.8398 44.5448 24.8398 45.3535C24.8398 46.1623 25.4961 46.8186 26.3049 46.8186H29.235V51.2124H26.3049C25.4961 51.2124 24.8398 51.8687 24.8398 52.6774C24.8398 53.4862 25.4961 54.1425 26.3049 54.1425H29.235V58.5377H26.3049C25.4961 58.5377 24.8398 59.194 24.8398 60.0028C24.8398 60.8115 25.4961 61.4678 26.3049 61.4678H29.235V65.863H26.3049C25.4961 65.863 24.8398 66.5194 24.8398 67.3281C24.8398 68.1369 25.4961 68.7932 26.3049 68.7932H29.235V73.187H26.3049C25.4961 73.187 24.8398 73.8433 24.8398 74.652C24.8398 75.4608 25.4961 76.1171 26.3049 76.1171H29.235V80.5123H26.3049C25.4961 80.5123 24.8398 81.1686 24.8398 81.9774C24.8398 82.7861 25.4961 83.4424 26.3049 83.4424H29.235V87.8376H26.3049C25.4961 87.8376 24.8398 88.494 24.8398 89.3027C24.8398 90.1115 25.4961 90.7678 26.3049 90.7678H29.235V93.6979C29.235 94.5067 29.8913 95.163 30.7001 95.163H93.6881C94.4968 95.163 95.1531 94.5067 95.1531 93.6979C95.1531 92.8892 94.4968 92.2328 93.6881 92.2328L93.6909 92.2258ZM89.2971 51.211V61.465H86.367V51.211H89.2971ZM77.578 62.9287V67.3239H74.6478V62.9287H77.578ZM65.8589 45.3507V54.1397H62.9287V45.3507H65.8589ZM54.1397 54.1397V62.9287H51.2096V54.1397H54.1397ZM42.422 65.8588V70.2526H39.4919V65.8588H42.422ZM39.4919 92.2258V73.1827H42.422V92.2258H39.4919ZM51.211 92.2258V65.8588H54.1411V92.2258H51.211ZM62.9287 92.2258V57.0698H65.8589V92.2258H62.9287ZM74.6478 92.2258V70.2526H77.578V92.2258H74.6478ZM86.367 92.2258V64.3937H89.2971V92.2258H86.367Z" fill="#2169AC"/>
<path d="M93.6909 24.844H87.832C87.0233 24.844 86.367 25.5003 86.367 26.3091C86.367 27.1178 87.0233 27.7741 87.832 27.7741H90.1552L77.5794 40.3514L63.235 26.007C62.6634 25.4354 61.7361 25.4354 61.163 26.007L38.4587 48.7127C37.8871 49.2844 37.8871 50.2117 38.4587 50.7847C38.7452 51.0712 39.1193 51.2138 39.4947 51.2138C39.8701 51.2138 40.2442 51.0712 40.5307 50.7847L62.2004 29.115L76.5448 43.4594C77.1164 44.031 78.0437 44.031 78.6168 43.4594L92.2301 29.8475V32.1707C92.2301 32.9795 92.8864 33.6358 93.6951 33.6358C94.5039 33.6358 95.1602 32.9795 95.1602 32.1707V26.3119C95.1602 25.5031 94.5039 24.8468 93.6951 24.8468L93.6909 24.844Z" fill="#2169AC"/>
</svg>
