<svg width="120" height="120" viewBox="0 0 120 120" fill="none" xmlns="http://www.w3.org/2000/svg">
<rect width="120" height="120" rx="60" fill="#B7EEFF" fill-opacity="0.2"/>
<path d="M65.6479 41.4856C67.2724 40.2675 69.4446 39.5011 71.71 39.5011C77.8667 39.5011 82.7417 44.9225 81.8667 51.2203C81.9598 51.2358 86.5074 50.9083 90.2576 54.6571C92.3832 56.7813 93.6945 59.7044 93.6945 62.938C93.6945 69.4066 88.4439 74.6571 81.9753 74.6571H38.0233C31.5547 74.6571 26.3042 69.408 26.3042 62.938C26.3042 56.468 31.5547 51.2188 38.0233 51.2188H38.3197C36.4764 42.0939 43.4446 33.6409 52.6796 33.6409C58.3042 33.6409 63.1948 36.8124 65.6479 41.4842V41.4856Z" fill="#89CCFF"/>
<path d="M83.4291 49.8285C83.4602 43.2654 78.1475 38.0318 71.71 38.0318C69.6789 38.0318 67.8031 38.5314 66.132 39.4376C63.1638 34.9224 58.132 32.1715 52.6641 32.1715C43.1793 32.1715 35.7269 40.3592 36.6175 49.8271C30.0078 50.5145 24.8363 56.1235 24.8363 62.9365C24.8363 70.187 30.7107 76.1235 38.0233 76.1235H81.9767C89.2428 76.1235 95.1638 70.2011 95.1638 62.9365C95.1482 56.108 89.9923 50.5455 83.4291 49.8271V49.8285ZM81.9598 73.1877H38.0078C32.3677 73.1877 27.758 68.6246 27.758 62.9379C27.758 57.2513 32.3522 52.6881 38.0078 52.6881C38.1334 52.6726 38.8829 52.8137 39.4291 52.1574C39.71 51.813 39.8201 51.3769 39.7255 50.9393C38.0544 42.7206 44.3663 35.1115 52.6472 35.1115C57.1623 35.1115 61.319 37.4079 63.7255 41.1581C62.1941 42.5794 61.0537 44.4086 60.4439 46.4086C60.2096 47.1892 60.6472 48.0021 61.4277 48.2364C62.2096 48.4707 63.0212 48.0177 63.2555 47.2527C64.3494 43.5801 67.7551 40.9718 71.6775 40.9718C76.9436 40.9718 81.1299 45.6281 80.3804 51.0184C80.3183 51.4404 80.4425 51.8624 80.7234 52.1899C81.223 52.7685 81.9104 52.6895 81.9429 52.6895C87.583 52.6895 92.1927 57.2527 92.1927 62.9393C92.2237 68.5794 87.614 73.1892 81.9584 73.1892L81.9598 73.1877Z" fill="#2169AC"/>
<path d="M73.1793 68.7968H46.8038V74.6556H73.1793V68.7968Z" fill="#89CCFF"/>
<path d="M76.101 74.657V86.3761H43.8822V74.657H76.101Z" fill="white"/>
<path d="M76.1009 57.0791V68.7982H43.8666V57.0791H76.1009Z" fill="white"/>
<path d="M76.101 70.2505H73.1638C72.3508 70.2505 71.6945 69.5942 71.6945 68.7812C71.6945 67.9682 72.3508 67.3119 73.1638 67.3119H74.6331V58.5144H45.3515V67.3119H46.8208C47.6338 67.3119 48.2901 67.9682 48.2901 68.7812C48.2901 69.5942 47.6338 70.2505 46.8208 70.2505H43.8836C43.0706 70.2505 42.4143 69.5942 42.4143 68.7812V57.0621C42.4143 56.2491 43.0706 55.5928 43.8836 55.5928H76.1179C76.9309 55.5928 77.5872 56.2491 77.5872 57.0621V68.7812C77.5717 69.5942 76.9154 70.2505 76.1024 70.2505H76.101Z" fill="#2169AC"/>
<path d="M51.2103 64.3917H49.741C48.928 64.3917 48.2717 63.7354 48.2717 62.9224C48.2717 62.1094 48.928 61.4531 49.741 61.4531H51.2103C52.0233 61.4531 52.6796 62.1094 52.6796 62.9224C52.6796 63.7354 52.0078 64.3917 51.2103 64.3917Z" fill="#2169AC"/>
<path d="M57.0706 64.3917H55.6013C54.7883 64.3917 54.132 63.7354 54.132 62.9224C54.132 62.1094 54.7883 61.4531 55.6013 61.4531H57.0706C57.8836 61.4531 58.5399 62.1094 58.5399 62.9224C58.5399 63.7354 57.8681 64.3917 57.0706 64.3917Z" fill="#2169AC"/>
<path d="M76.101 87.8285H43.8822C43.0692 87.8285 42.4129 87.1722 42.4129 86.3592V74.6401C42.4129 73.8271 43.0692 73.1708 43.8822 73.1708H46.8194C47.6324 73.1708 48.2887 73.8271 48.2887 74.6401C48.2887 75.4531 47.6324 76.1094 46.8194 76.1094H45.3501V84.9054H74.6472V76.1094H73.1793C72.3663 76.1094 71.71 75.4531 71.71 74.6401C71.71 73.8271 72.3663 73.1708 73.1793 73.1708H76.1165C76.9295 73.1708 77.5858 73.8271 77.5858 74.6401V86.3592C77.5703 87.1722 76.914 87.8285 76.101 87.8285Z" fill="#2169AC"/>
<path d="M51.2103 81.9683H49.741C48.928 81.9683 48.2717 81.312 48.2717 80.499C48.2717 79.686 48.928 79.0297 49.741 79.0297H51.2103C52.0233 79.0297 52.6796 79.686 52.6796 80.499C52.6796 81.312 52.0078 81.9683 51.2103 81.9683Z" fill="#2169AC"/>
<path d="M57.0706 81.9683H55.6013C54.7883 81.9683 54.132 81.312 54.132 80.499C54.132 79.686 54.7883 79.0297 55.6013 79.0297H57.0706C57.8836 79.0297 58.5399 79.686 58.5399 80.499C58.5399 81.312 57.8681 81.9683 57.0706 81.9683Z" fill="#2169AC"/>
<path d="M73.1793 76.1093H46.8038C45.9908 76.1093 45.3359 75.453 45.3359 74.64V68.7812C45.3359 67.9682 45.9923 67.3119 46.8038 67.3119H73.1793C73.9923 67.3119 74.6472 67.9682 74.6472 68.7812V74.64C74.6472 75.453 73.9908 76.1093 73.1793 76.1093ZM48.2731 73.1877H71.71V70.2505H48.2731V73.1877Z" fill="#2169AC"/>
<path d="M70.2421 81.9683H62.9139C62.101 81.9683 61.4446 81.312 61.4446 80.499C61.4446 79.686 62.101 79.0297 62.9139 79.0297H70.2421C71.0551 79.0297 71.7114 79.686 71.7114 80.499C71.7114 81.312 71.0551 81.9683 70.2421 81.9683Z" fill="#2169AC"/>
<path d="M70.2421 64.3917H62.9139C62.101 64.3917 61.4446 63.7354 61.4446 62.9224C61.4446 62.1094 62.101 61.4531 62.9139 61.4531H70.2421C71.0551 61.4531 71.7114 62.1094 71.7114 62.9224C71.7114 63.7354 71.0551 64.3917 70.2421 64.3917Z" fill="#2169AC"/>
</svg>
