<svg width="120" height="120" viewBox="0 0 120 120" fill="none" xmlns="http://www.w3.org/2000/svg">
<rect width="120" height="120" rx="60" fill="#B7EEFF" fill-opacity="0.2"/>
<path d="M86.8172 60.6874C86.8172 68.2527 83.602 75.0671 78.4643 79.8391C73.801 84.168 67.5526 86.8172 60.6873 86.8172C53.4721 86.8172 46.9386 83.8913 42.2103 79.1645C37.4806 74.4347 34.5575 67.9026 34.5575 60.6874C34.5575 53.4721 37.4806 46.94 42.2103 42.2103L86.8172 60.686V60.6874Z" fill="#89CCFF"/>
<path d="M60.6874 60.6873L42.2103 42.2103C46.9386 37.482 53.4707 34.5575 60.6874 34.5575L63.8349 46.9343L60.6874 60.6873Z" fill="white"/>
<path d="M82.909 46.9343L71.204 48.9286L60.6874 46.9343V40.0578L67.6966 38.6139L76.7255 40.0578C78.6422 41.5497 80.3458 43.3027 81.7827 45.2646C82.1793 45.8051 82.5533 46.3627 82.909 46.9343Z" fill="white"/>
<path d="M93.6936 26.3063H82.6915V33.1828H93.6936V26.3063Z" fill="white"/>
<path d="M93.6936 86.8171H82.6915V93.6936H93.6936V86.8171Z" fill="white"/>
<path d="M37.3084 86.8171H26.3063V93.6936H37.3084V86.8171Z" fill="white"/>
<path d="M86.8172 60.6874H60.6874V53.8109L72.2004 51.1292L85.9026 53.8109C86.4997 56.0014 86.8172 58.3077 86.8172 60.6874Z" fill="white"/>
<path d="M85.9026 53.8108H60.6874V46.9343H82.909C84.2188 49.0458 85.235 51.3563 85.9026 53.8108Z" fill="white"/>
<path d="M76.7255 40.0593H60.6874V34.5575C66.7311 34.5575 72.2992 36.6111 76.7255 40.0593Z" fill="white"/>
<path d="M37.3084 85.4425H26.3063C25.5469 85.4425 24.9315 86.0579 24.9315 86.8172V93.6937C24.9315 94.4531 25.5483 95.0685 26.3063 95.0685H37.3084C38.0677 95.0685 38.6831 94.4517 38.6831 93.6937V86.8172C38.6831 86.0579 38.0677 85.4425 37.3084 85.4425ZM35.9322 92.319H27.681V88.1934H35.9322V92.319Z" fill="#2169AC"/>
<path d="M93.6937 85.4425H82.6916C81.9323 85.4425 81.3169 86.0579 81.3169 86.8172V93.6937C81.3169 94.4531 81.9323 95.0685 82.6916 95.0685H93.6937C94.4531 95.0685 95.0685 94.4517 95.0685 93.6937V86.8172C95.0685 86.0579 94.4531 85.4425 93.6937 85.4425ZM92.3176 92.319H84.0664V88.1934H92.3176V92.319Z" fill="#2169AC"/>
<path d="M93.6937 24.9315H82.6916C81.9323 24.9315 81.3169 25.5469 81.3169 26.3063V33.1828C81.3169 33.9421 81.9323 34.5575 82.6916 34.5575H93.6937C94.4531 34.5575 95.0685 33.9421 95.0685 33.1828V26.3063C95.0685 25.5469 94.4531 24.9315 93.6937 24.9315ZM92.3176 31.8066H84.0664V27.681H92.3176V31.8066Z" fill="#2169AC"/>
<path d="M81.6005 81.0317L80.4079 79.8391C85.2223 74.8821 88.1919 68.1256 88.1919 60.6873C88.1919 55.2434 86.5899 49.9576 83.561 45.4312L89.1644 39.8278C89.7021 39.2914 89.7021 38.4192 89.1644 37.8828C88.628 37.3465 87.7572 37.3465 87.2194 37.8828L81.9026 43.1997C76.8383 37.067 69.187 33.1827 60.6873 33.1827C45.5441 33.1827 33.1827 45.5017 33.1827 60.6873C33.1827 67.777 35.8786 74.2484 40.2992 79.1305L38.398 81.0317C37.8616 81.5695 37.8616 82.4403 38.398 82.9767C38.9357 83.513 39.8066 83.513 40.3429 82.9767L42.2441 81.0755C52.4446 90.3119 67.8645 90.597 78.3952 81.7163L79.6556 82.9767C80.1933 83.513 81.0642 83.513 81.6005 82.9767C82.1369 82.4389 82.1369 81.5695 81.6005 81.0317ZM44.1919 42.247C48.254 38.6083 53.5215 36.2907 59.3126 35.9717V57.3676L44.1919 42.247ZM84.0254 52.4361H62.0621V48.3105H82.1185C82.875 49.616 83.5144 50.995 84.0254 52.4361ZM62.0621 35.9717C65.633 36.1679 69.0063 37.1249 72.0197 38.6831H62.0621V35.9717ZM62.0621 55.187H84.8242C85.1291 56.525 85.3253 57.9026 85.4029 59.3126H62.0621V55.187ZM80.2681 45.5596H62.0635V41.434H76.2286C77.729 42.6478 79.0868 44.0324 80.2681 45.5596ZM44.1919 79.1277L50.6577 72.6619C51.194 72.1256 51.194 71.2533 50.6577 70.717C50.1213 70.1806 49.2491 70.1806 48.7127 70.717L42.247 77.1827C38.3232 72.8002 35.9322 67.0176 35.9322 60.6873C35.9322 54.3571 38.3232 48.573 42.247 44.1919C42.2611 44.206 59.7318 61.6753 59.7177 61.6626C59.9647 61.9082 60.3133 62.0621 60.6845 62.0635C60.6845 62.0635 60.6859 62.0635 60.6873 62.0635H85.4029C85.0656 68.199 82.4827 73.7459 78.4643 77.8955L71.2858 70.717C70.748 70.1806 69.8786 70.1806 69.3408 70.717C68.8045 71.2547 68.8045 72.1242 69.3408 72.6619L76.4446 79.7643C67.0261 87.5582 53.3338 87.314 44.1919 79.1277Z" fill="#2169AC"/>
</svg>
