<svg width="120" height="120" viewBox="0 0 120 120" fill="none" xmlns="http://www.w3.org/2000/svg">
<rect width="120" height="120" rx="60" fill="#B7EEFF" fill-opacity="0.2"/>
<path d="M90.7608 50.4794V59.2684H84.9019V50.4794H90.7608Z" fill="white"/>
<path d="M90.7608 59.2683V90.0305H84.9019V62.1984V59.2683H90.7608Z" fill="#89CCFF"/>
<path d="M84.9019 59.2683V62.1984H79.0431V56.3381V53.4094H84.9019V59.2683Z" fill="white"/>
<path d="M84.9019 62.1985V90.0305H79.0431V65.1272V62.1985H84.9019Z" fill="white"/>
<path d="M73.1828 65.1272V68.0573H67.324V62.1984V59.2683H73.1828V65.1272Z" fill="white"/>
<path d="M73.1828 68.0573V90.0304H67.324V70.9874V68.0573H73.1828Z" fill="white"/>
<path d="M79.0431 62.1984V65.1271H73.1828V59.2683V56.3381H79.0431V62.1984Z" fill="white"/>
<path d="M79.0431 65.1272V90.0305H73.1828V68.0573V65.1272H79.0431Z" fill="#89CCFF"/>
<path d="M67.3239 68.0573V70.9875H61.4651V62.1985H67.3239V68.0573Z" fill="white"/>
<path d="M67.3239 70.9874H61.4651V90.0305H67.3239V70.9874Z" fill="#89CCFF"/>
<path d="M49.746 44.6205H55.6048C55.6048 49.4744 51.6712 53.4095 46.8158 53.4095H40.957C40.957 48.5556 44.8906 44.6205 49.746 44.6205Z" fill="#89CCFF"/>
<path d="M40.957 53.4095H35.0981C30.2442 53.4095 26.3091 49.4744 26.3091 44.6205H32.168C37.0219 44.6205 40.957 48.5556 40.957 53.4095Z" fill="#89CCFF"/>
<path d="M40.957 90.0291C49.0468 90.0291 55.6048 83.471 55.6048 75.3812C55.6048 67.2915 49.0468 60.7334 40.957 60.7334C32.8672 60.7334 26.3091 67.2915 26.3091 75.3812C26.3091 83.471 32.8672 90.0291 40.957 90.0291Z" fill="white"/>
<path d="M43.8871 82.7052H38.0282C37.2195 82.7052 36.5632 82.0489 36.5632 81.2401C36.5632 80.4313 37.2195 79.775 38.0282 79.775H42.422V76.8449H38.0282C37.2195 76.8449 36.5632 76.1886 36.5632 75.3798V69.521C36.5632 68.7122 37.2195 68.0559 38.0282 68.0559H43.8871C44.6958 68.0559 45.3522 68.7122 45.3522 69.521C45.3522 70.3297 44.6958 70.986 43.8871 70.986H39.4919V73.9162H43.8871C44.6958 73.9162 45.3522 74.5725 45.3522 75.3812V81.2401C45.3522 82.0489 44.6958 82.7052 43.8871 82.7052Z" fill="#2169AC"/>
<path d="M40.9569 70.9875C40.1482 70.9875 39.4919 70.3311 39.4919 69.5224V66.5923C39.4919 65.7835 40.1482 65.1272 40.9569 65.1272C41.7657 65.1272 42.422 65.7835 42.422 66.5923V69.5224C42.422 70.3311 41.7657 70.9875 40.9569 70.9875Z" fill="#2169AC"/>
<path d="M40.9569 85.6353C40.1482 85.6353 39.4919 84.979 39.4919 84.1702V81.2401C39.4919 80.4313 40.1482 79.775 40.9569 79.775C41.7657 79.775 42.422 80.4313 42.422 81.2401V84.1702C42.422 84.979 41.7657 85.6353 40.9569 85.6353Z" fill="#2169AC"/>
<path d="M40.957 91.4941C32.072 91.4941 24.8441 84.2662 24.8441 75.3812C24.8441 66.4963 32.072 59.2683 40.957 59.2683C49.8419 59.2683 57.0699 66.4963 57.0699 75.3812C57.0699 84.2662 49.8419 91.4941 40.957 91.4941ZM40.957 62.1984C33.6881 62.1984 27.7728 68.1123 27.7728 75.3826C27.7728 82.6529 33.6867 88.5668 40.957 88.5668C48.2273 88.5668 54.1412 82.6529 54.1412 75.3826C54.1412 68.1123 48.2273 62.1984 40.957 62.1984Z" fill="#2169AC"/>
<path d="M40.9569 62.1984C40.1482 62.1984 39.4919 61.5421 39.4919 60.7333V40.2252C39.4919 39.4164 40.1482 38.7601 40.9569 38.7601C41.7657 38.7601 42.422 39.4164 42.422 40.2252V60.7333C42.422 61.5421 41.7657 62.1984 40.9569 62.1984Z" fill="#2169AC"/>
<path d="M46.8158 54.8731H40.9569C40.1482 54.8731 39.4919 54.2167 39.4919 53.408C39.4919 50.6698 40.5589 48.0954 42.494 46.1575C44.4333 44.221 47.0078 43.1539 49.7459 43.1539H55.6048C56.4135 43.1539 57.0699 43.8102 57.0699 44.619C57.0699 47.3572 56.0042 49.9316 54.0677 51.8695C52.1284 53.806 49.554 54.8731 46.8158 54.8731ZM42.5674 51.9443H46.8158C48.7721 51.9443 50.6111 51.1822 51.9958 49.799C53.0261 48.7672 53.7121 47.4828 53.9944 46.0855H49.7459C47.7897 46.0855 45.9506 46.8477 44.566 48.2309C43.5356 49.2626 42.8497 50.547 42.5674 51.9443Z" fill="#2169AC"/>
<path d="M40.957 54.8731H35.0981C29.4284 54.8731 24.8441 50.2845 24.8441 44.619C24.8441 43.8102 25.5004 43.1539 26.3091 43.1539H32.168C37.8377 43.1539 42.422 47.7425 42.422 53.408C42.422 54.2167 41.7657 54.8731 40.957 54.8731ZM27.9196 46.0841C28.5872 49.3868 31.5117 51.9429 35.0981 51.9429H39.3465C38.6803 48.6402 35.7544 46.0841 32.168 46.0841H27.9196Z" fill="#2169AC"/>
<path d="M61.4651 91.4941C60.6563 91.4941 60 90.8378 60 90.029V62.197C60 61.3883 60.6563 60.7319 61.4651 60.7319H67.3239C68.1327 60.7319 68.789 61.3883 68.789 62.197C68.789 63.0058 68.1327 63.6621 67.3239 63.6621H62.9287V90.029C62.9287 90.8378 62.2738 91.4941 61.4637 91.4941H61.4651Z" fill="#2169AC"/>
<path d="M67.324 91.4942C66.5152 91.4942 65.8589 90.8379 65.8589 90.0291V59.2669C65.8589 58.4582 66.5152 57.8019 67.324 57.8019H73.1828C73.9916 57.8019 74.6479 58.4582 74.6479 59.2669C74.6479 60.0757 73.9916 60.732 73.1828 60.732H68.789V90.0291C68.789 90.8379 68.1327 91.4942 67.324 91.4942Z" fill="#2169AC"/>
<path d="M73.1828 91.4941C72.374 91.4941 71.7177 90.8378 71.7177 90.029V56.3381C71.7177 55.5294 72.374 54.873 73.1828 54.873H79.0416C79.8504 54.873 80.5067 55.5294 80.5067 56.3381C80.5067 57.1469 79.8504 57.8032 79.0416 57.8032H74.6464V90.029C74.6464 90.8378 73.9901 91.4941 73.1814 91.4941H73.1828Z" fill="#2169AC"/>
<path d="M79.0431 91.4941C78.2343 91.4941 77.578 90.8378 77.578 90.029V53.4094C77.578 52.6007 78.2343 51.9443 79.0431 51.9443H84.9019C85.7107 51.9443 86.367 52.6007 86.367 53.4094C86.367 54.2182 85.7107 54.8745 84.9019 54.8745H80.5081V90.0304C80.5081 90.8392 79.8518 91.4955 79.0431 91.4955V91.4941Z" fill="#2169AC"/>
<path d="M90.7608 91.4942C89.952 91.4942 89.2957 90.8379 89.2957 90.0291V51.9444H86.3656V90.0305C86.3656 90.8393 85.7092 91.4956 84.9005 91.4956C84.0917 91.4956 83.4354 90.8407 83.4354 90.0305V50.4793C83.4354 49.6706 84.0917 49.0143 84.9005 49.0143H90.7593C91.5681 49.0143 92.2244 49.6706 92.2244 50.4793V90.0305C92.2244 90.8393 91.5681 91.4956 90.7593 91.4956L90.7608 91.4942Z" fill="#2169AC"/>
<path d="M93.6909 91.4941H26.3091C25.5004 91.4941 24.8441 90.8378 24.8441 90.029C24.8441 89.2203 25.5004 88.564 26.3091 88.564H93.6909C94.4997 88.564 95.156 89.2203 95.156 90.029C95.156 90.8378 94.4997 91.4941 93.6909 91.4941Z" fill="#2169AC"/>
<path d="M61.4665 56.3396C60.9287 56.3396 60.4121 56.0432 60.1552 55.5294C59.7939 54.8053 60.0861 53.926 60.8102 53.5647L78.6972 44.6205H64.3952C63.7304 44.6205 63.1503 44.173 62.9795 43.5308C62.8087 42.8886 63.0924 42.2125 63.6683 41.8837L84.1764 30.1646C84.8793 29.7637 85.7742 30.0079 86.175 30.7094C86.5759 31.4123 86.3331 32.3071 85.6302 32.708L69.9111 41.6903H84.9033C85.5822 41.6903 86.1736 42.1575 86.3289 42.8181C86.4855 43.48 86.1665 44.1603 85.5582 44.4652L62.1214 56.1843C61.9111 56.2888 61.6881 56.3396 61.4679 56.3396H61.4665Z" fill="#2169AC"/>
<path d="M83.0812 38.7164C82.2964 38.5202 81.8194 37.7242 82.0156 36.9394L83.125 32.5005L78.6874 31.3911C77.9027 31.1949 77.4256 30.4003 77.6218 29.6141C77.818 28.8294 78.614 28.3523 79.3988 28.5485L85.2576 30.0135C86.0424 30.2097 86.5195 31.0044 86.3233 31.7905L84.8582 37.6494C84.662 38.4327 83.8688 38.9112 83.0812 38.715V38.7164Z" fill="#2169AC"/>
<path d="M67.3239 72.4511H61.4651C60.6563 72.4511 60 71.7948 60 70.9861C60 70.1773 60.6563 69.521 61.4651 69.521H67.3239C68.1327 69.521 68.789 70.1773 68.789 70.9861C68.789 71.7948 68.1327 72.4511 67.3239 72.4511Z" fill="#2169AC"/>
<path d="M73.1828 69.5224H67.324C66.5152 69.5224 65.8589 68.8661 65.8589 68.0574C65.8589 67.2486 66.5152 66.5923 67.324 66.5923H73.1828C73.9916 66.5923 74.6479 67.2486 74.6479 68.0574C74.6479 68.8661 73.9916 69.5224 73.1828 69.5224Z" fill="#2169AC"/>
<path d="M79.043 66.5922H73.1842C72.3754 66.5922 71.7191 65.9359 71.7191 65.1272C71.7191 64.3184 72.3754 63.6621 73.1842 63.6621H79.043C79.8518 63.6621 80.5081 64.3184 80.5081 65.1272C80.5081 65.9359 79.8518 66.5922 79.043 66.5922Z" fill="#2169AC"/>
<path d="M84.9019 63.6621H79.0431C78.2343 63.6621 77.578 63.0058 77.578 62.197C77.578 61.3883 78.2343 60.7319 79.0431 60.7319H84.9019C85.7107 60.7319 86.367 61.3883 86.367 62.197C86.367 63.0058 85.7107 63.6621 84.9019 63.6621Z" fill="#2169AC"/>
<path d="M90.7608 60.7334H84.902C84.0932 60.7334 83.4369 60.077 83.4369 59.2683C83.4369 58.4595 84.0932 57.8032 84.902 57.8032H90.7608C91.5696 57.8032 92.2259 58.4595 92.2259 59.2683C92.2259 60.077 91.5696 60.7334 90.7608 60.7334Z" fill="#2169AC"/>
</svg>
