<svg width="120" height="120" viewBox="0 0 120 120" fill="none" xmlns="http://www.w3.org/2000/svg">
<rect width="120" height="120" rx="60" fill="#B7EEFF" fill-opacity="0.2"/>
<path d="M39.4913 64.3937C46.7714 64.3937 52.674 70.2963 52.674 77.5765C52.674 84.8566 46.7714 90.7606 39.4913 90.7606C32.2111 90.7606 26.3085 84.858 26.3085 77.5765C26.3085 70.2949 32.2111 64.3937 39.4913 64.3937Z" fill="white"/>
<path d="M84.9013 93.6908H76.1123L70.2534 74.6477C70.2689 74.6421 83.4207 69.8926 83.4362 69.887C89.4376 72.2314 93.6903 78.069 93.6903 84.9018V93.6908H84.9013Z" fill="#89CCFF"/>
<path d="M46.8165 93.6907V88.5404C51.9683 85.0993 53.892 78.6844 51.9118 73.1459C53.3952 71.7542 55.1412 70.6406 57.0706 69.8883C57.0903 69.8954 70.2378 74.642 70.2534 74.6477L64.3945 93.6907H46.8165Z" fill="#89CCFF"/>
<path d="M70.2535 74.6477L76.1123 93.6908H64.3932L70.2535 74.6477Z" fill="white"/>
<path d="M77.5773 68.7888C79.6437 68.7888 81.6197 69.1784 83.4362 69.8869L79.0424 80.5065L70.2534 74.6477L77.5773 68.7888Z" fill="white"/>
<path d="M70.2534 74.6476L61.4644 80.5065L57.0692 69.8883C58.8857 69.1769 60.8617 68.7874 62.9281 68.7874L70.252 74.6462L70.2534 74.6476Z" fill="white"/>
<path d="M48.2802 52.6759L51.2104 57.0697H26.3085V33.6328H48.2802V52.6759Z" fill="white"/>
<path d="M83.4361 46.8157C85.0551 46.8157 86.3663 48.1269 86.3663 49.7458C86.3663 51.3647 85.0536 52.6759 83.4361 52.6759H81.9711V46.8171H83.4361V46.8157Z" fill="#89CCFF"/>
<path d="M58.5342 46.8156V52.6745H57.0692C55.4517 52.6745 54.139 51.3618 54.139 49.7443C54.139 48.1268 55.4503 46.8142 57.0692 46.8142H58.5342V46.8156Z" fill="#89CCFF"/>
<path d="M77.5773 61.8234V68.7888L70.2534 74.6476L62.9294 68.7888V61.8234C67.199 65.2475 73.295 65.2574 77.5773 61.8234Z" fill="#89CCFF"/>
<path d="M70.2534 64.3936C63.758 64.3936 58.5343 59.1233 58.5343 52.6744V41.5425C59.6324 42.1042 60.8773 42.4218 62.1956 42.4218H81.9711V52.6759C81.9711 59.1473 76.7248 64.395 70.252 64.395L70.2534 64.3936Z" fill="white"/>
<path d="M81.9711 40.3231V42.4219H62.1955C60.8772 42.4219 59.6323 42.1057 58.5342 41.5426C57.7791 41.1572 57.0932 40.6548 56.499 40.062C55.0409 38.6039 54.139 36.5898 54.139 34.3654C54.139 29.9152 57.7452 26.309 62.1955 26.309H62.928C62.928 29.544 65.5519 32.1678 68.7883 32.1678H73.8172C78.3211 32.1678 81.9725 35.8178 81.9725 40.3231H81.9711Z" fill="#89CCFF"/>
<path d="M81.9712 48.2807C81.1624 48.2807 80.5061 47.6243 80.5061 46.8156V42.4204C80.5061 41.6116 81.1624 40.9553 81.9712 40.9553C82.7799 40.9553 83.4362 41.6116 83.4362 42.4204V46.8156C83.4362 47.6243 82.7799 48.2807 81.9712 48.2807Z" fill="#2169AC"/>
<path d="M70.2535 65.8587C67.2655 65.8587 64.3381 64.8312 62.0135 62.9653C58.8731 60.4473 57.0707 56.6971 57.0707 52.6745C57.0707 51.8658 57.727 51.2095 58.5357 51.2095C59.3445 51.2095 60.0008 51.8658 60.0008 52.6745C60.0008 55.8023 61.4024 58.7197 63.847 60.6802C65.6818 62.1509 67.8978 62.9286 70.2549 62.9286C72.612 62.9286 74.8279 62.1509 76.6628 60.6802C76.9578 60.4445 77.2415 60.1904 77.5054 59.9251C79.4419 57.9872 80.5089 55.4127 80.5089 52.6745C80.5089 51.8658 81.1652 51.2095 81.974 51.2095C82.7827 51.2095 83.4391 51.8658 83.4391 52.6745C83.4391 56.1947 82.0686 59.5045 79.5788 61.9956C79.2372 62.3372 78.8731 62.6632 78.4962 62.9653C76.1716 64.8298 73.2443 65.8573 70.2563 65.8573L70.2535 65.8587Z" fill="#2169AC"/>
<path d="M58.5343 48.2808C57.7255 48.2808 57.0692 47.6244 57.0692 46.8157V41.5426C57.0692 40.7338 57.7255 40.0775 58.5343 40.0775C59.343 40.0775 59.9993 40.7338 59.9993 41.5426V46.8157C59.9993 47.6244 59.343 48.2808 58.5343 48.2808Z" fill="#2169AC"/>
<path d="M81.9711 43.8869H62.1955C60.6924 43.8869 59.1948 43.527 57.8667 42.8467C56.9803 42.3936 56.1715 41.8051 55.4644 41.0979C53.6662 39.2998 52.6754 36.9088 52.6754 34.3654C52.6754 29.1149 56.9464 24.8439 62.1969 24.8439H62.9295C63.7382 24.8439 64.3945 25.5002 64.3945 26.3089C64.3945 28.7324 66.3663 30.7041 68.7883 30.7041H73.8173C79.1214 30.7041 83.4362 35.0189 83.4362 40.3231V42.4219C83.4362 43.2306 82.7799 43.8869 81.9711 43.8869ZM61.6168 27.798C58.2534 28.093 55.6056 30.9257 55.6056 34.364C55.6056 36.124 56.2915 37.7797 57.5364 39.0245C58.0276 39.5157 58.5879 39.9236 59.2005 40.237C60.132 40.714 61.1398 40.9554 62.1969 40.9554H80.5075V40.3216C80.5075 36.6322 77.5067 33.6315 73.8173 33.6315H68.7883C65.2598 33.6315 62.307 31.1233 61.6168 27.798Z" fill="#2169AC"/>
<path d="M83.4362 54.1396H81.9712C81.1624 54.1396 80.5061 53.4833 80.5061 52.6745V46.8157C80.5061 46.0069 81.1624 45.3506 81.9712 45.3506H83.4362C85.8597 45.3506 87.8314 47.3224 87.8314 49.7444C87.8314 50.9173 87.3741 52.021 86.5442 52.8509C85.7143 53.6809 84.6105 54.1382 83.4376 54.1382L83.4362 54.1396ZM83.4362 48.2807V51.2109C84.245 51.2109 84.9013 50.5545 84.9013 49.7458C84.9013 48.937 84.2436 48.2807 83.4362 48.2807Z" fill="#2169AC"/>
<path d="M58.5343 54.1395H57.0692C55.8963 54.1395 54.7926 53.6822 53.9626 52.8523C53.1327 52.0224 52.6754 50.9186 52.6754 49.7457C52.6754 47.3223 54.6472 45.3519 57.0706 45.3519H58.5357C59.3444 45.3519 60.0008 46.0082 60.0008 46.817V52.6759C60.0008 53.4846 59.3444 54.1409 58.5357 54.1409L58.5343 54.1395ZM57.0692 48.2807C56.2619 48.2807 55.6041 48.9384 55.6041 49.7457C55.6041 50.1367 55.7566 50.5051 56.0332 50.7817C56.3099 51.0584 56.6782 51.2108 57.0692 51.2108V48.2807Z" fill="#2169AC"/>
<path d="M84.9012 95.1543C84.0925 95.1543 83.4362 94.498 83.4362 93.6893V87.8304C83.4362 87.0217 84.0925 86.3654 84.9012 86.3654C85.71 86.3654 86.3663 87.0217 86.3663 87.8304V93.6893C86.3663 94.498 85.71 95.1543 84.9012 95.1543Z" fill="#2169AC"/>
<path d="M55.6041 95.1543C54.7954 95.1543 54.139 94.498 54.139 93.6893V87.8304C54.139 87.0217 54.7954 86.3654 55.6041 86.3654C56.4129 86.3654 57.0692 87.0217 57.0692 87.8304V93.6893C57.0692 94.498 56.4129 95.1543 55.6041 95.1543Z" fill="#2169AC"/>
<path d="M78.2294 81.726L69.4404 75.8672C69.0523 75.6075 68.8095 75.1784 68.7898 74.7112C68.77 74.244 68.9733 73.7966 69.3374 73.5044L76.6613 67.6456C77.2922 67.1403 78.2139 67.2419 78.7206 67.8742C79.2259 68.5051 79.1243 69.4282 78.492 69.9335L72.7319 74.5418L78.3692 78.3005L82.0812 69.328C82.3903 68.5799 83.2471 68.2257 83.9951 68.5348C84.7432 68.8439 85.0975 69.7006 84.7884 70.4487L80.3932 81.0683C80.2252 81.4734 79.885 81.7825 79.4658 81.9095C79.0495 82.0365 78.595 81.9716 78.228 81.7274L78.2294 81.726Z" fill="#2169AC"/>
<path d="M61.0381 81.9081C60.6189 81.7797 60.2788 81.472 60.1108 81.0669L55.7156 70.4487C55.6422 70.2708 55.6041 70.0803 55.6041 69.8883C55.6041 69.0796 56.2604 68.4233 57.0692 68.4233C57.6987 68.4233 58.2336 68.8185 58.4425 69.3746L62.1362 78.2991L67.7735 74.5404L62.0134 69.9321C61.3825 69.4268 61.2795 68.5051 61.7848 67.8728C62.2901 67.2419 63.2118 67.1389 63.8441 67.6442L71.168 73.503C71.5321 73.7952 71.7368 74.244 71.7156 74.7098C71.6959 75.177 71.4531 75.6061 71.065 75.8643L62.276 81.7232C61.9146 81.9646 61.4602 82.0337 61.0367 81.9053L61.0381 81.9081Z" fill="#2169AC"/>
<path d="M63.9626 95.0909C63.1891 94.8524 62.7558 94.0338 62.993 93.2603L68.8518 74.2172C69.0903 73.4438 69.909 73.0105 70.6824 73.2476C71.4559 73.4847 71.8892 74.3048 71.6521 75.0782L65.7932 94.1213C65.5547 94.8962 64.7333 95.3281 63.9626 95.0909Z" fill="#2169AC"/>
<path d="M74.7122 94.1212L68.8533 75.0781C68.6162 74.3047 69.0495 73.4846 69.823 73.2475C70.5964 73.009 71.4165 73.4437 71.6536 74.2172L77.5124 93.2602C77.751 94.0337 77.3163 94.8537 76.5428 95.0908C75.7679 95.3294 74.9493 94.8918 74.7122 94.1212Z" fill="#2169AC"/>
<path d="M73.1821 57.0697H67.3232C66.5145 57.0697 65.8582 56.4133 65.8582 55.6046C65.8582 54.7958 66.5145 54.1395 67.3232 54.1395H73.1821C73.9908 54.1395 74.6471 54.7958 74.6471 55.6046C74.6471 56.4133 73.9908 57.0697 73.1821 57.0697Z" fill="#2169AC"/>
<path d="M51.2104 58.5348H26.3085C25.4997 58.5348 24.8434 57.8785 24.8434 57.0698V33.6329C24.8434 32.8242 25.4997 32.1678 26.3085 32.1678H48.2802C49.089 32.1678 49.7453 32.8242 49.7453 33.6329V52.2314L52.4284 56.2568C52.7276 56.707 52.7559 57.2843 52.5018 57.7614C52.2463 58.237 51.7509 58.5348 51.2104 58.5348ZM27.7735 55.6047H48.4736L47.0622 53.4875C46.9013 53.2462 46.8166 52.9639 46.8166 52.6746V35.0966H27.7735V55.6033V55.6047Z" fill="#2169AC"/>
<path d="M42.4214 52.6759H32.1673C31.3586 52.6759 30.7023 52.0195 30.7023 51.2108C30.7023 50.402 31.3586 49.7457 32.1673 49.7457H42.4214C43.2301 49.7457 43.8865 50.402 43.8865 51.2108C43.8865 52.0195 43.2301 52.6759 42.4214 52.6759Z" fill="#2169AC"/>
<path d="M42.4214 46.8156H38.0276C37.2188 46.8156 36.5625 46.1593 36.5625 45.3506C36.5625 44.5418 37.2188 43.8855 38.0276 43.8855H42.4214C43.2301 43.8855 43.8864 44.5404 43.8864 45.3506C43.8864 46.1607 43.2301 46.8156 42.4214 46.8156Z" fill="#2169AC"/>
<path d="M42.4214 40.9567H38.0276C37.2188 40.9567 36.5625 40.3004 36.5625 39.4917C36.5625 38.6829 37.2188 38.0266 38.0276 38.0266H42.4214C43.2301 38.0266 43.8864 38.6829 43.8864 39.4917C43.8864 40.3004 43.2301 40.9567 42.4214 40.9567Z" fill="#2169AC"/>
<path d="M33.6324 40.9567H32.1673C31.3586 40.9567 30.7023 40.3004 30.7023 39.4917C30.7023 38.6829 31.3586 38.0266 32.1673 38.0266H33.6324C34.4412 38.0266 35.0975 38.6829 35.0975 39.4917C35.0975 40.3004 34.4412 40.9567 33.6324 40.9567Z" fill="#2169AC"/>
<path d="M33.6324 46.8156H32.1673C31.3586 46.8156 30.7023 46.1593 30.7023 45.3506C30.7023 44.5418 31.3586 43.8855 32.1673 43.8855H33.6324C34.4412 43.8855 35.0975 44.5404 35.0975 45.3506C35.0975 46.1607 34.4412 46.8156 33.6324 46.8156Z" fill="#2169AC"/>
<path d="M51.9104 74.6109C51.5195 74.6109 51.1299 74.4557 50.842 74.148C50.2887 73.558 50.3183 72.6307 50.9083 72.0774C52.5526 70.5347 54.4468 69.3392 56.5371 68.5234C58.1193 67.9052 59.7721 67.5227 61.4644 67.383V61.8219C61.4644 61.0132 62.1207 60.3555 62.9295 60.3555C63.7382 60.3555 64.3946 61.0104 64.3946 61.8191V68.7874C64.3946 69.5961 63.7382 70.2524 62.9295 70.2524C61.0918 70.2524 59.2993 70.5884 57.6042 71.2517C55.8625 71.932 54.2845 72.9285 52.914 74.2143C52.6317 74.4797 52.2718 74.6109 51.9119 74.6109H51.9104Z" fill="#2169AC"/>
<path d="M93.6902 95.1543H46.8165C46.0078 95.1543 45.3514 94.498 45.3514 93.6893V88.539C45.3514 87.7302 46.0078 87.0739 46.8165 87.0739C47.6253 87.0739 48.2816 87.7302 48.2816 88.539V92.2242H92.2265V84.9003C92.2265 76.6872 85.6041 70.2524 77.5787 70.2524C76.7699 70.2524 76.1136 69.5961 76.1136 68.7874V61.8219C76.1136 61.0132 76.7699 60.3555 77.5787 60.3555C78.3874 60.3555 79.0437 61.0104 79.0437 61.8191V67.383C80.7361 67.5227 82.3874 67.9038 83.9711 68.522C90.5977 71.1092 95.1567 77.5241 95.1567 84.9003V93.6893C95.1567 94.498 94.5003 95.1543 93.6916 95.1543H93.6902Z" fill="#2169AC"/>
<path d="M39.4912 92.2256C31.3967 92.2256 24.8434 85.678 24.8434 77.5778C24.8434 73.6639 26.3677 69.9843 29.1341 67.2193C31.8991 64.4529 35.5773 62.9299 39.4912 62.9299C43.4051 62.9299 47.0847 64.4543 49.8497 67.2207C51.3811 68.7521 52.571 70.6321 53.2908 72.6575C53.854 74.2313 54.1405 75.8883 54.1405 77.5792C54.1405 81.4945 52.6161 85.1727 49.8497 87.9377C49.1708 88.6166 48.4242 89.2292 47.6296 89.7599C45.2202 91.3731 42.4058 92.227 39.4912 92.227V92.2256ZM39.4912 65.8587C36.3593 65.8587 33.4164 67.0767 31.2047 69.2913C28.9916 71.503 27.7721 74.4458 27.7721 77.5778C27.7721 84.0534 33.0099 89.2969 39.4912 89.2969C41.8229 89.2969 44.0742 88.6152 46.0008 87.3237C46.6373 86.8989 47.2344 86.4077 47.7778 85.8643C49.9909 83.6526 51.2104 80.7097 51.2104 77.5778C51.2104 76.2242 50.9817 74.9003 50.5315 73.6399C49.9556 72.0196 49.0043 70.5164 47.7778 69.2913C45.566 67.0767 42.6232 65.8587 39.4912 65.8587Z" fill="#2169AC"/>
<path d="M39.4912 68.7889C38.6824 68.7889 38.0261 68.1325 38.0261 67.3238V64.3937C38.0261 63.5849 38.6824 62.9286 39.4912 62.9286C40.2999 62.9286 40.9563 63.5849 40.9563 64.3937V67.3238C40.9563 68.1325 40.2999 68.7889 39.4912 68.7889Z" fill="#2169AC"/>
<path d="M39.4912 92.2256C38.6824 92.2256 38.0261 91.5693 38.0261 90.7606V87.8304C38.0261 87.0217 38.6824 86.3654 39.4912 86.3654C40.2999 86.3654 40.9563 87.0217 40.9563 87.8304V90.7606C40.9563 91.5693 40.2999 92.2256 39.4912 92.2256Z" fill="#2169AC"/>
<path d="M52.6755 79.0415H49.7453C48.9366 79.0415 48.2803 78.3851 48.2803 77.5764C48.2803 76.7676 48.9366 76.1113 49.7453 76.1113H52.6755C53.4842 76.1113 54.1405 76.7676 54.1405 77.5764C54.1405 78.3851 53.4842 79.0415 52.6755 79.0415Z" fill="#2169AC"/>
<path d="M29.2386 79.0415H26.3085C25.4997 79.0415 24.8434 78.3851 24.8434 77.5764C24.8434 76.7676 25.4997 76.1113 26.3085 76.1113H29.2386C30.0473 76.1113 30.7037 76.7676 30.7037 77.5764C30.7037 78.3851 30.0473 79.0415 29.2386 79.0415Z" fill="#2169AC"/>
<path d="M46.7432 71.7909C46.3677 71.7909 45.9937 71.6483 45.7072 71.3618C45.1355 70.7902 45.1355 69.8629 45.7072 69.2898L47.7791 67.2193C48.3508 66.6476 49.2781 66.6476 49.8511 67.2193C50.4228 67.7909 50.4228 68.7182 49.8511 69.2912L47.7806 71.3618C47.4955 71.6483 47.12 71.7909 46.7446 71.7909H46.7432Z" fill="#2169AC"/>
<path d="M29.1342 87.9349C28.5625 87.3632 28.5625 86.4359 29.1342 85.8629L31.2047 83.7909C31.7764 83.2193 32.7037 83.2193 33.2767 83.7909C33.8484 84.3625 33.8484 85.2899 33.2767 85.8629L31.2062 87.9349C30.6345 88.5065 29.7072 88.5065 29.1342 87.9349Z" fill="#2169AC"/>
<path d="M48.8137 88.3639C48.4383 88.3639 48.0643 88.22 47.7777 87.9349L45.7072 85.8629C45.1355 85.2913 45.1355 84.3639 45.7072 83.7909C46.2788 83.2193 47.2061 83.2193 47.7791 83.7909L49.8497 85.8629C50.4214 86.4345 50.4214 87.3618 49.8497 87.9349C49.5632 88.22 49.1892 88.3639 48.8137 88.3639Z" fill="#2169AC"/>
<path d="M32.2407 71.7909C31.8653 71.7909 31.4913 71.6483 31.2047 71.3618L29.1342 69.2912C28.5625 68.7196 28.5625 67.7923 29.1342 67.2193C29.7058 66.6476 30.6331 66.6476 31.2062 67.2193L33.2767 69.2898C33.8484 69.8615 33.8484 70.7888 33.2767 71.3618C32.9902 71.6483 32.6162 71.7909 32.2407 71.7909Z" fill="#2169AC"/>
<path d="M42.4213 79.0415H39.4912C38.6824 79.0415 38.0261 78.3851 38.0261 77.5764V73.1826C38.0261 72.3738 38.6824 71.7175 39.4912 71.7175C40.2999 71.7175 40.9563 72.3738 40.9563 73.1826V76.1127H42.4213C43.2301 76.1127 43.8864 76.769 43.8864 77.5778C43.8864 78.3865 43.2301 79.0429 42.4213 79.0429V79.0415Z" fill="#2169AC"/>
</svg>
