<svg width="120" height="120" viewBox="0 0 120 120" fill="none" xmlns="http://www.w3.org/2000/svg">
<rect width="120" height="120" rx="60" fill="#B7EEFF" fill-opacity="0.2"/>
<path d="M74.6516 87.8303H74.6982C74.6671 88.6744 74.6516 89.5184 74.6516 90.361V93.6892H46.8083V87.8303H74.6516Z" fill="#89CCFF"/>
<path d="M81.1202 61.6891C77.2924 69.9234 75.0426 78.783 74.6827 87.8303H46.8083V81.97H42.0433C39.0115 81.97 36.543 79.517 36.543 76.4697V67.3137H27.778L33.6368 54.1267V51.1895C33.6368 37.5494 44.6051 26.4556 58.2141 26.2834C76.1054 26.0956 88.8238 45.1274 81.1202 61.6891Z" fill="white"/>
<path d="M58.1986 24.8465C43.7765 25.0342 32.1675 36.7533 32.1675 51.205V53.8303L26.4329 66.7364C25.9953 67.7047 26.7137 68.7985 27.7765 68.7985H35.1047V76.4852C35.1047 80.3285 38.2296 83.4379 42.0574 83.4379H45.3545V93.6877C45.3545 94.5007 46.0108 95.157 46.8238 95.157H74.6516C75.4646 95.157 76.1209 94.5007 76.1209 93.6877C76.3086 91.6256 74.8393 78.7195 82.4653 62.313C90.8097 44.3285 76.8718 24.6108 58.2 24.8451L58.1986 24.8465ZM73.1823 92.2212H48.2762V89.284H73.1823C73.1668 90.2368 73.1823 90.5501 73.1823 92.2212ZM79.7921 61.0808C75.9953 69.2375 73.8231 77.7371 73.2924 86.3779H48.2776V81.9869C48.2776 81.174 47.6213 80.5176 46.8083 80.5176H42.0433C39.8245 80.5176 38.0122 78.7054 38.0122 76.4866V67.3306C38.0122 66.5176 37.3559 65.8613 36.5429 65.8613H30.0278L34.965 54.7364C35.044 54.5487 35.0906 54.3454 35.0906 54.1422V51.205C35.0906 38.2989 45.6848 27.7682 58.4964 27.7682C75.2303 27.7837 86.965 45.6595 79.7935 61.0808H79.7921Z" fill="#2169AC"/>
<path d="M92.2141 48.2833V54.1422H65.8556V48.2833H92.2141Z" fill="white"/>
<path d="M68.7914 48.2833V36.5642C68.7914 30.8916 73.3856 26.3143 79.0412 26.3143C84.6968 26.3143 89.291 30.9085 89.291 36.5642V48.2833H68.7914Z" fill="#89CCFF"/>
<path d="M79.0412 33.6271C80.6629 33.6271 81.9784 34.9425 81.9784 36.5643C81.9784 38.186 80.6629 39.5015 79.0412 39.5015C77.4194 39.5015 76.104 38.186 76.104 36.5643C76.104 34.9425 77.4194 33.6271 79.0412 33.6271Z" fill="white"/>
<path d="M92.2141 55.6115H65.8556C65.0426 55.6115 64.3863 54.9552 64.3863 54.1422V48.2834C64.3863 47.4704 65.0426 46.8141 65.8556 46.8141H68.7928C69.6058 46.8141 70.2621 47.4704 70.2621 48.2834C70.2621 49.0964 69.6058 49.7527 68.7928 49.7527H67.3235V52.6899H90.7603V49.7527H89.291C88.478 49.7527 87.8217 49.0964 87.8217 48.2834C87.8217 47.4704 88.478 46.8141 89.291 46.8141H92.2282C93.0412 46.8141 93.6975 47.4704 93.6975 48.2834V54.1422C93.682 54.9552 93.0257 55.6115 92.2127 55.6115H92.2141Z" fill="#2169AC"/>
<path d="M89.2924 49.7526H68.7928C67.9798 49.7526 67.3235 49.0963 67.3235 48.2833V36.5642C67.3235 30.0956 72.574 24.8451 79.0426 24.8451C85.5112 24.8451 90.7617 30.0632 90.7617 36.5642V48.2833C90.7617 49.0963 90.1054 49.7526 89.2924 49.7526ZM70.2451 46.814H87.8231V36.5642C87.8231 31.7202 83.9177 27.7837 79.0426 27.7837C74.1675 27.7837 70.2621 31.7216 70.2621 36.5642V46.814H70.2465H70.2451Z" fill="#2169AC"/>
<path d="M79.0412 40.9552C76.6192 40.9552 74.6502 38.9862 74.6502 36.5642C74.6502 34.1422 76.6192 32.1732 79.0412 32.1732C81.4632 32.1732 83.4321 34.1422 83.4321 36.5642C83.4321 38.9862 81.4632 40.9552 79.0412 40.9552ZM79.0412 35.0963C78.2282 35.0963 77.5719 35.7526 77.5719 36.5656C77.5719 37.3786 78.2282 38.0349 79.0412 38.0349C79.8542 38.0349 80.5105 37.3786 80.5105 36.5656C80.5105 35.7526 79.8386 35.0963 79.0412 35.0963Z" fill="#2169AC"/>
<path d="M79.0412 49.7527C78.2282 49.7527 77.5719 49.0964 77.5719 48.2834V39.5029C77.5719 38.6899 78.2282 38.0336 79.0412 38.0336C79.8542 38.0336 80.5105 38.6899 80.5105 39.5029V48.2834C80.5105 49.0964 79.8542 49.7527 79.0412 49.7527Z" fill="#2169AC"/>
</svg>
