<svg width="101" height="100" viewBox="0 0 101 100" fill="none" xmlns="http://www.w3.org/2000/svg">
<g clip-path="url(#clip0_48_369)">
<path d="M100.25 0H0.25V100H100.25V0Z" fill="white"/>
<path d="M92.3635 68.3086V71.696C92.3635 77.9152 87.3229 82.9575 81.1021 82.9575H19.396C13.1751 82.9575 8.13452 77.9169 8.13452 71.696V68.3086H41.0932V75.6322H59.403V68.3086H92.3618H92.3635Z" fill="white"/>
<path d="M88.7009 24.4563V68.3095H81.3773V24.3646H19.1225V68.3095H11.799V24.4563C11.799 20.3596 15.1193 17.041 19.2143 17.041H81.2873C85.384 17.041 88.7026 20.3614 88.7026 24.4563H88.7009Z" fill="white"/>
<path d="M81.3773 24.3633V68.3082H19.1226V24.3633H81.3773ZM55.7422 60.9847V37.1809H48.4186V40.8435H41.095V44.5062H33.7715V48.1689H26.4479V60.9864H55.7439L55.7422 60.9847Z" fill="#89CCFF"/>
<path d="M59.4049 68.3086H41.0951V75.6322H59.4049V68.3086Z" fill="white"/>
<path d="M55.7422 37.1816V60.9855H48.4186V40.8443V37.1816H55.7422Z" fill="white"/>
<path d="M48.4187 40.8438V60.9849H41.0951V44.5047V40.8438H48.4187Z" fill="white"/>
<path d="M41.095 44.5059V60.9861H33.7697V48.1685V44.5059H41.095Z" fill="white"/>
<path d="M33.7697 48.168H26.4462V60.9855H33.7697V48.168Z" fill="white"/>
<path d="M81.1021 84.7883H19.396C12.1765 84.7883 6.30322 78.915 6.30322 71.6973V68.3099C6.30322 67.2989 7.12362 66.4785 8.13456 66.4785H11.7972C12.8082 66.4785 13.6286 67.2989 13.6286 68.3099C13.6286 69.3208 12.8082 70.1412 11.7972 70.1412H9.96589V71.6973C9.96589 76.8967 14.1967 81.1274 19.396 81.1274H81.1021C86.3015 81.1274 90.5322 76.8967 90.5322 71.6973V70.1412H88.7009C87.69 70.1412 86.8696 69.3208 86.8696 68.3099C86.8696 67.2989 87.69 66.4785 88.7009 66.4785H92.3636C93.3745 66.4785 94.1949 67.2989 94.1949 68.3099V71.6973C94.1949 78.9168 88.3216 84.7883 81.1021 84.7883Z" fill="#2169AC"/>
<path d="M88.7008 70.1402H81.3773C80.3663 70.1402 79.5459 69.3198 79.5459 68.3088C79.5459 67.2979 80.3663 66.4775 81.3773 66.4775H86.8713V24.4556C86.8713 21.3769 84.366 18.8717 81.2873 18.8717H19.2142C16.1356 18.8717 13.6303 21.3769 13.6303 24.4556V66.4775H19.1243C20.1352 66.4775 20.9556 67.2979 20.9556 68.3088C20.9556 69.3198 20.1352 70.1402 19.1243 70.1402H11.8007C10.7898 70.1402 9.96936 69.3198 9.96936 68.3088V24.4556C9.96936 19.3568 14.1172 15.209 19.216 15.209H81.289C86.3878 15.209 90.5357 19.3568 90.5357 24.4556V68.3088C90.5357 69.3198 89.7153 70.1402 88.7044 70.1402H88.7008Z" fill="#2169AC"/>
<path d="M59.4048 77.4628H41.095C40.0841 77.4628 39.2637 76.6424 39.2637 75.6315V68.3079C39.2637 67.297 40.0841 66.4766 41.095 66.4766C42.1059 66.4766 42.9263 67.297 42.9263 68.3079V73.8001H57.5752V68.3079C57.5752 67.297 58.3956 66.4766 59.4066 66.4766C60.4175 66.4766 61.2379 67.297 61.2379 68.3079V75.6315C61.2379 76.6424 60.4175 77.4628 59.4066 77.4628H59.4048Z" fill="#2169AC"/>
<path d="M81.3774 70.1408H19.1226C18.1117 70.1408 17.2913 69.3204 17.2913 68.3095V24.3645C17.2913 23.3536 18.1117 22.5332 19.1226 22.5332H81.3774C82.3883 22.5332 83.2087 23.3518 83.2087 24.3645V68.3095C83.2087 69.3204 82.3883 70.1408 81.3774 70.1408ZM20.9522 66.4782H79.546V26.1959H20.9522V66.4782Z" fill="#2169AC"/>
<path d="M33.7697 62.8162H26.4461C25.4351 62.8162 24.6147 61.9958 24.6147 60.9848V48.1673C24.6147 47.1563 25.4351 46.3359 26.4461 46.3359H33.7697C34.7806 46.3359 35.601 47.1563 35.601 48.1673C35.601 49.1782 34.7824 49.9986 33.7697 49.9986H28.2756V59.1535H33.7697C34.7806 59.1535 35.601 59.9739 35.601 60.9848C35.601 61.9958 34.7824 62.8162 33.7697 62.8162Z" fill="#2169AC"/>
<path d="M41.0951 62.8167H33.7715C32.7606 62.8167 31.9402 61.9963 31.9402 60.9854V44.5052C31.9402 43.4942 32.7606 42.6738 33.7715 42.6738H41.0951C42.106 42.6738 42.9264 43.4942 42.9264 44.5052C42.9264 45.5161 42.106 46.3365 41.0951 46.3365H35.6011V59.1541H41.0951C42.106 59.1541 42.9264 59.9745 42.9264 60.9854C42.9264 61.9963 42.106 62.8167 41.0951 62.8167Z" fill="#2169AC"/>
<path d="M48.4186 62.8175H41.095C40.0841 62.8175 39.2637 61.9971 39.2637 60.9862V40.845C39.2637 39.8341 40.0841 39.0137 41.095 39.0137H48.4186C49.4295 39.0137 50.2499 39.8341 50.2499 40.845C50.2499 41.8559 49.4295 42.6763 48.4186 42.6763H42.9246V59.1566H48.4186C49.4295 59.1566 50.2499 59.977 50.2499 60.9879C50.2499 61.9988 49.4295 62.8192 48.4186 62.8192V62.8175Z" fill="#2169AC"/>
<path d="M55.7422 62.8161H48.4186C47.4077 62.8161 46.5873 61.9957 46.5873 60.9848V37.1809C46.5873 36.17 47.4059 35.3496 48.4186 35.3496H55.7422C56.7531 35.3496 57.5735 36.17 57.5735 37.1809V60.9848C57.5735 61.9957 56.7531 62.8161 55.7422 62.8161ZM50.2499 59.1534H53.9126V39.0123H50.2499V59.1534Z" fill="#2169AC"/>
<path d="M74.0538 62.817H63.0675C62.0566 62.817 61.2362 61.9966 61.2362 60.9856C61.2362 59.9747 62.0548 59.1543 63.0675 59.1543H74.0538C75.0647 59.1543 75.8851 59.9747 75.8851 60.9856C75.8851 61.9966 75.0647 62.817 74.0538 62.817Z" fill="#2169AC"/>
<path d="M74.0538 55.4908H63.0675C62.0566 55.4908 61.2362 54.6704 61.2362 53.6595C61.2362 52.6485 62.0548 51.8281 63.0675 51.8281H74.0538C75.0647 51.8281 75.8851 52.6485 75.8851 53.6595C75.8851 54.6704 75.0647 55.4908 74.0538 55.4908Z" fill="#2169AC"/>
<path d="M74.0538 48.1685H63.0675C62.0566 48.1685 61.2362 47.3481 61.2362 46.3372C61.2362 45.3263 62.0548 44.5059 63.0675 44.5059H74.0538C75.0647 44.5059 75.8851 45.3263 75.8851 46.3372C75.8851 47.3481 75.0647 48.1685 74.0538 48.1685Z" fill="#2169AC"/>
</g>
<defs>
<clipPath id="clip0_48_369">
<rect width="100" height="100" fill="white" transform="translate(0.25)"/>
</clipPath>
</defs>
</svg>
