<svg width="78" height="70" viewBox="0 0 78 70" fill="none" xmlns="http://www.w3.org/2000/svg">
<g clip-path="url(#clip0_48_563)">
<path d="M17.1666 51.7335H12.86V44.2668C12.86 42.9335 12.1933 41.7335 11.1133 40.9335C12.1933 40.1335 12.86 38.9335 12.86 37.6001C12.86 35.3335 10.98 33.4668 8.68663 33.4668C6.3933 33.4668 4.5133 35.3335 4.5133 37.6001C4.5133 38.9335 5.17997 40.1335 6.25997 40.9335C5.17997 41.7335 4.5133 42.9335 4.5133 44.2668V54.4001C4.5133 57.4668 7.0733 60.0001 10.1666 60.0001H14.6066V62.5335H1.1533C0.753299 62.5335 0.339966 62.9335 0.339966 63.3335C0.339966 63.7335 0.739966 64.1335 1.1533 64.1335H14.62V65.8668C14.62 68.1335 16.5 70.0001 18.7933 70.0001C21.0866 70.0001 22.9666 68.1335 22.9666 65.8668V57.4668C22.9666 54.2668 20.4066 51.7335 17.18 51.7335H17.1666ZM6.12663 37.6001C6.12663 36.2668 7.20663 35.0668 8.68663 35.0668C10.1666 35.0668 11.2466 36.1335 11.2466 37.6001C11.2466 39.0668 10.1666 40.1335 8.68663 40.1335C7.20663 40.1335 6.12663 38.9335 6.12663 37.6001ZM21.34 65.8668C21.34 67.2001 20.26 68.4001 18.78 68.4001C17.3 68.4001 16.22 67.3335 16.22 65.8668V59.2001C16.22 58.8001 15.82 58.4001 15.4066 58.4001H10.1533C7.9933 58.4001 6.1133 56.6668 6.1133 54.4001V44.1335C6.1133 42.8001 7.1933 41.6001 8.6733 41.6001C10.1533 41.6001 11.2333 42.6668 11.2333 44.1335V52.5335C11.2333 52.9335 11.6333 53.3335 12.0466 53.3335H17.1666C19.46 53.3335 21.34 55.2001 21.34 57.4668V65.8668Z" fill="#00C2FF"/>
<path d="M16.2333 24.9333H23.9133V26.8C23.9133 29.0667 25.7933 30.9333 28.0866 30.9333H52.1933L54.3533 35.4667C54.4866 35.7333 54.7533 36 55.1666 36C55.4333 36 55.8333 35.8667 55.98 35.6L58.2733 31.0667H61.2333C63.5266 31.0667 65.4066 29.2 65.4066 26.9333V15.2C65.4066 12.9333 63.5266 11.0667 61.2333 11.0667H53.5533V9.2C53.5533 6.93333 51.6733 5.06667 49.38 5.06667H25.0066L22.8466 0.533333C22.7133 0.266667 22.4466 0 22.0333 0C21.7666 0 21.3666 0.133333 21.22 0.4L19.06 5.06667H16.1C13.8066 5.06667 11.9266 6.93333 11.9266 9.2V20.9333C12.06 23.2 13.94 24.9333 16.2333 24.9333ZM63.3533 15.0667V26.8C63.3533 28.1333 62.2733 29.2 60.9266 29.2H57.42C57.1533 29.2 56.7533 29.3333 56.6066 29.6L54.86 33.0667L53.2466 29.6C53.1133 29.3333 52.8466 29.0667 52.4333 29.0667H27.9266C26.58 29.0667 25.5 28 25.5 26.6667V14.9333C25.5 13.6 26.58 12.5333 27.9266 12.5333H60.9133C62.26 12.6667 63.34 13.7333 63.34 15.0667H63.3533ZM13.8066 9.2C13.8066 7.86667 14.8866 6.8 16.2333 6.8H19.74C20.0066 6.8 20.4066 6.66667 20.5533 6.4L22.3 2.93333L23.9133 6.4C24.0466 6.66667 24.3133 6.93333 24.7266 6.93333H49.3666C50.7133 6.93333 51.7933 8 51.7933 9.33333V11.2H27.9666C25.6733 11.2 23.7933 13.0667 23.7933 15.3333V23.6H16.1133C14.7666 23.6 13.6866 22.5333 13.6866 21.2V9.2H13.82H13.8066Z" fill="black"/>
<path d="M28.8867 15.8664C28.8867 16.2664 29.2867 16.6664 29.7 16.6664H59.1933C59.5933 16.6664 60.0067 16.2664 60.0067 15.8664C60.0067 15.4664 59.6067 15.0664 59.1933 15.0664H29.7C29.3 15.0664 28.8867 15.4664 28.8867 15.8664Z" fill="#00C2FF"/>
<path d="M59.18 18.4004H29.6866C29.2866 18.4004 28.8733 18.8004 28.8733 19.2004C28.8733 19.6004 29.2733 20.0004 29.6866 20.0004H59.18C59.58 20.0004 59.9933 19.6004 59.9933 19.2004C59.9933 18.8004 59.5933 18.4004 59.18 18.4004Z" fill="black"/>
<path d="M59.18 21.7334H29.6866C29.2866 21.7334 28.8733 22.1334 28.8733 22.5334C28.8733 22.9334 29.2733 23.3334 29.6866 23.3334H59.18C59.58 23.3334 59.9933 22.9334 59.9933 22.5334C59.9933 22.1334 59.5933 21.7334 59.18 21.7334Z" fill="#00C2FF"/>
<path d="M42.3533 25.0664H29.7C29.3 25.0664 28.8867 25.4664 28.8867 25.8664C28.8867 26.2664 29.2867 26.6664 29.7 26.6664H42.3533C42.7533 26.6664 43.1667 26.2664 43.1667 25.8664C43.1667 25.4664 42.7667 25.0664 42.3533 25.0664Z" fill="black"/>
<path d="M43.1666 68.4005H42.3533V48.4005H58.5133C60.8067 48.4005 62.6866 46.5338 62.6866 44.2671C62.6866 42.0005 60.8067 40.1338 58.5133 40.1338H19.86C17.5666 40.1338 15.6866 42.0005 15.6866 44.2671C15.6866 46.5338 17.5666 48.4005 19.86 48.4005H35.7533V68.4005H34.94C34.54 68.4005 34.1266 68.8005 34.1266 69.2005C34.1266 69.6005 34.5266 70.0005 34.94 70.0005H43.42C43.82 70.0005 44.2333 69.6005 44.2333 69.2005C44.1 68.8005 43.7 68.4005 43.1533 68.4005H43.1666ZM37.3666 59.7338L40.7266 57.4671V59.6005L37.3666 61.8671V59.7338ZM17.3133 44.2671C17.3133 42.9338 18.3933 41.7338 19.8733 41.7338H58.66C60.0067 41.7338 61.22 42.8005 61.22 44.2671C61.22 45.7338 60.14 46.8005 58.66 46.8005H19.86C18.38 46.8005 17.3 45.6005 17.3 44.2671H17.3133ZM40.74 48.4005V55.4671L37.38 57.7338V48.4005H40.74ZM37.3666 68.4005V63.8671L40.7266 61.6005V68.4005H37.3666Z" fill="black"/>
<path d="M76.8199 62.533H63.3533V59.9997H67.7933C70.8866 59.9997 73.4466 57.4663 73.4466 54.3997V44.133C73.4466 42.7997 72.7799 41.5997 71.6999 40.7997C72.7799 39.9997 73.4466 38.7997 73.4466 37.4663C73.4466 35.1997 71.5666 33.333 69.2733 33.333C66.9799 33.333 65.0999 35.1997 65.0999 37.4663C65.0999 38.7997 65.7666 39.9997 66.8466 40.7997C65.7666 41.5997 65.0999 42.7997 65.0999 44.133V51.733H60.7933C57.5666 51.733 55.0066 54.2663 55.0066 57.4663V65.8663C55.0066 68.133 56.8866 69.9997 59.1799 69.9997C61.4733 69.9997 63.3533 68.133 63.3533 65.8663V64.133H76.8199C77.2199 64.133 77.6333 63.733 77.6333 63.333C77.7666 62.933 77.3666 62.533 76.8199 62.533ZM66.7266 37.5997C66.7266 36.2663 67.8066 35.0663 69.2866 35.0663C70.7666 35.0663 71.8466 36.133 71.8466 37.5997C71.8466 39.0663 70.7666 40.133 69.2866 40.133C67.8066 40.133 66.7266 38.933 66.7266 37.5997ZM61.7399 65.8663C61.7399 67.1997 60.6599 68.3997 59.1799 68.3997C57.6999 68.3997 56.6199 67.333 56.6199 65.8663V57.4663C56.6199 55.1997 58.4999 53.333 60.7933 53.333H65.9133C66.3133 53.333 66.7266 52.933 66.7266 52.533V44.133C66.7266 42.7997 67.8066 41.5997 69.2866 41.5997C70.7666 41.5997 71.8466 42.6663 71.8466 44.133V54.3997C71.8466 56.533 70.0999 58.3997 67.8066 58.3997H62.5533C62.1533 58.3997 61.7399 58.7997 61.7399 59.1997V65.8663Z" fill="black"/>
</g>
<defs>
<clipPath id="clip0_48_563">
<rect width="77.32" height="70" fill="white" transform="translate(0.339966)"/>
</clipPath>
</defs>
</svg>
