<svg width="50" height="70" viewBox="0 0 50 70" fill="none" xmlns="http://www.w3.org/2000/svg">
<g clip-path="url(#clip0_48_430)">
<path d="M31.0774 6.78567C31.9387 6.78567 32.6369 6.09278 32.6369 5.23805C32.6369 4.38332 31.9387 3.69043 31.0774 3.69043C30.2161 3.69043 29.5179 4.38332 29.5179 5.23805C29.5179 6.09278 30.2161 6.78567 31.0774 6.78567Z" fill="black"/>
<path d="M11.4702 35C12.3393 35 13.0298 35.6905 13.0298 36.5476C13.0298 37.4048 12.3274 38.0952 11.4702 38.0952C10.6131 38.0952 9.91072 37.4048 9.91072 36.5476C9.91072 35.6905 10.6131 35 11.4702 35Z" fill="black"/>
<path d="M19.0536 6.78567C19.9149 6.78567 20.6131 6.09278 20.6131 5.23805C20.6131 4.38332 19.9149 3.69043 19.0536 3.69043C18.1923 3.69043 17.494 4.38332 17.494 5.23805C17.494 6.09278 18.1923 6.78567 19.0536 6.78567Z" fill="black"/>
<path d="M44.8988 0H5.10119C2.33929 0 0.172623 2.14286 0.172623 4.88095V65.119C0.172623 67.8571 2.33929 70 5.10119 70H44.8988C47.6607 70 49.8274 67.8571 49.8274 65.119V4.88095C49.8274 2.2619 47.6607 0 44.8988 0ZM7.74405 14.1667H42.375V62.5H7.74405V14.1667ZM42.375 12.7381H7.74405V7.5H13.756V9.7619C13.756 10.119 14.1131 10.4762 14.4821 10.4762H35.5179C35.875 10.4762 36.244 10.119 36.244 9.7619V7.5H42.256V12.7381H42.375ZM34.8036 8.92857H15.3274V1.42857H34.9226V8.92857H34.8036ZM48.3869 65.119C48.3869 67.0238 46.8274 68.4524 45.0179 68.4524H5.10119C3.17262 68.4524 1.73215 66.9048 1.73215 65.119V4.88095C1.73215 2.97619 3.29167 1.54762 5.10119 1.54762H13.756V6.07143H7.01786C6.66072 6.07143 6.29167 6.42857 6.29167 6.78571V63.3333C6.29167 63.6905 6.64881 64.0476 7.01786 64.0476H43.0893C43.4464 64.0476 43.8155 63.6905 43.8155 63.3333V6.78571C43.8155 6.42857 43.4583 6.07143 43.0893 6.07143H36.3512V1.54762H45.006C46.9345 1.54762 48.375 3.09524 48.375 4.88095V65.119H48.3869Z" fill="black"/>
<path d="M18.0893 23.214C18.8155 22.6188 19.1726 21.6664 19.1726 20.714C19.1726 18.8092 17.6131 17.1426 15.5655 17.1426C13.6369 17.1426 11.9583 18.6902 11.9583 20.714C11.9583 21.6664 12.3155 22.6188 13.0417 23.214C10.756 24.1664 9.07739 26.4283 9.07739 29.0473C9.07739 29.8807 9.19644 30.8331 9.55358 31.5473C9.67263 31.7854 9.91073 32.0235 10.2798 32.0235H20.7441C21.1012 32.0235 21.3393 31.7854 21.4703 31.5473C21.7083 30.8331 21.9464 29.8807 21.9464 29.0473C22.0655 26.4283 20.3869 24.1664 18.1012 23.214H18.0893ZM15.6845 25.4759L16.1607 26.7854L15.6845 27.2616L15.2083 26.7854L15.6845 25.4759ZM13.5179 20.714C13.5179 19.6426 14.4822 18.6902 15.5655 18.6902C16.6488 18.6902 17.6131 19.6426 17.6131 20.714C17.6131 21.7854 16.6488 22.7378 15.5655 22.7378C14.4822 22.7378 13.5179 21.7854 13.5179 20.714ZM20.375 30.595H19.2917V29.0473C19.2917 28.6902 18.9345 28.3331 18.5655 28.3331C18.1964 28.3331 17.8393 28.6902 17.8393 29.0473V30.4759H13.756V29.0473C13.756 28.6902 13.3988 28.3331 13.0298 28.3331C12.6607 28.3331 12.3036 28.6902 12.3036 29.0473V30.4759H11.2202C11.1012 29.9997 10.9822 29.5235 10.9822 29.0473C10.9822 26.7854 12.5417 24.8807 14.7083 24.2854L13.7441 26.6664C13.625 26.9045 13.7441 27.2616 13.8631 27.4997L15.3036 28.9283C15.5417 29.1664 16.0298 29.1664 16.3869 28.9283L17.8274 27.4997C18.0655 27.2616 18.0655 27.0235 17.9464 26.6664L16.9822 24.2854C19.1488 24.7616 20.7083 26.6664 20.7083 29.0473C20.4703 29.5235 20.4703 30.1188 20.3512 30.595H20.375Z" fill="#00C2FF"/>
<path d="M40.0893 19.4043H24.3393C23.9821 19.4043 23.6131 19.7614 23.6131 20.1186V27.6186C23.6131 27.9757 23.9702 28.3329 24.3393 28.3329H40.0893C40.4464 28.3329 40.8155 27.9757 40.8155 27.6186V20.1186C40.8155 19.7614 40.4583 19.4043 40.0893 19.4043ZM39.3631 26.7853H25.0536V20.8329H39.3631V26.7853Z" fill="black"/>
<path d="M39.3631 35.7139H22.7679C22.4107 35.7139 22.0417 36.071 22.0417 36.4282C22.0417 36.7853 22.3988 37.1424 22.7679 37.1424H39.3631C39.7202 37.1424 40.0893 36.7853 40.0893 36.4282C40.0893 36.071 39.7321 35.7139 39.3631 35.7139Z" fill="black"/>
<path d="M19.7679 35.7139H16.0417C15.6845 35.7139 15.3155 36.071 15.3155 36.4282C15.3155 36.7853 15.6726 37.1424 16.0417 37.1424H19.7679C20.125 37.1424 20.494 36.7853 20.494 36.4282C20.494 36.071 20.1369 35.7139 19.7679 35.7139Z" fill="black"/>
<path d="M11.4702 40.1191C12.3393 40.1191 13.0298 40.8096 13.0298 41.6668C13.0298 42.5239 12.3274 43.2144 11.4702 43.2144C10.6131 43.2144 9.91072 42.5239 9.91072 41.6668C9.91072 40.8096 10.6131 40.1191 11.4702 40.1191Z" fill="black"/>
<path d="M39.3631 40.9521H22.7679C22.4107 40.9521 22.0417 41.3093 22.0417 41.6664C22.0417 42.0236 22.3988 42.3807 22.7679 42.3807H39.3631C39.7202 42.3807 40.0893 42.0236 40.0893 41.6664C40.0893 41.3093 39.7321 40.9521 39.3631 40.9521Z" fill="black"/>
<path d="M19.7679 40.9521H16.0417C15.6845 40.9521 15.3155 41.3093 15.3155 41.6664C15.3155 42.0236 15.6726 42.3807 16.0417 42.3807H19.7679C20.125 42.3807 20.494 42.0236 20.494 41.6664C20.494 41.3093 20.1369 40.9521 19.7679 40.9521Z" fill="black"/>
<path d="M11.4702 45.3574C12.3393 45.3574 13.0298 46.0479 13.0298 46.905C13.0298 47.7622 12.3274 48.4527 11.4702 48.4527C10.6131 48.4527 9.91072 47.7622 9.91072 46.905C9.91072 46.0479 10.6131 45.3574 11.4702 45.3574Z" fill="black"/>
<path d="M39.3631 46.1904H22.7679C22.4107 46.1904 22.0417 46.5476 22.0417 46.9047C22.0417 47.2619 22.3988 47.619 22.7679 47.619H39.3631C39.7202 47.619 40.0893 47.2619 40.0893 46.9047C40.0893 46.5476 39.7321 46.1904 39.3631 46.1904Z" fill="black"/>
<path d="M19.7679 46.1904H16.0417C15.6845 46.1904 15.3155 46.5476 15.3155 46.9047C15.3155 47.2619 15.6726 47.619 16.0417 47.619H19.7679C20.125 47.619 20.494 47.2619 20.494 46.9047C20.494 46.5476 20.1369 46.1904 19.7679 46.1904Z" fill="black"/>
<path d="M11.4702 50.5957C12.3393 50.5957 13.0298 51.2862 13.0298 52.1433C13.0298 53.0005 12.3274 53.6909 11.4702 53.6909C10.6131 53.6909 9.91072 53.0005 9.91072 52.1433C9.91072 51.2862 10.6131 50.5957 11.4702 50.5957Z" fill="black"/>
<path d="M39.3631 51.4287H22.7679C22.4107 51.4287 22.0417 51.7859 22.0417 52.143C22.0417 52.5001 22.3988 52.8573 22.7679 52.8573H39.3631C39.7202 52.8573 40.0893 52.5001 40.0893 52.143C40.0893 51.6668 39.7321 51.4287 39.3631 51.4287Z" fill="black"/>
<path d="M19.7679 51.4287H16.0417C15.6845 51.4287 15.3155 51.7859 15.3155 52.143C15.3155 52.5001 15.6726 52.8573 16.0417 52.8573H19.7679C20.125 52.8573 20.494 52.5001 20.494 52.143C20.494 51.6668 20.1369 51.4287 19.7679 51.4287Z" fill="black"/>
<path d="M11.4702 55.833C12.3393 55.833 13.0298 56.5235 13.0298 57.3806C13.0298 58.2378 12.3274 58.9282 11.4702 58.9282C10.6131 58.9282 9.91072 58.2378 9.91072 57.3806C9.91072 56.5235 10.6131 55.833 11.4702 55.833Z" fill="black"/>
<path d="M39.3631 56.5479H22.7679C22.4107 56.5479 22.0417 56.905 22.0417 57.2621C22.0417 57.6193 22.3988 57.9764 22.7679 57.9764H39.3631C39.7202 57.9764 40.0893 57.6193 40.0893 57.2621C40.0893 56.905 39.7321 56.5479 39.3631 56.5479Z" fill="black"/>
<path d="M19.7679 56.5479H16.0417C15.6845 56.5479 15.3155 56.905 15.3155 57.2621C15.3155 57.6193 15.6726 57.9764 16.0417 57.9764H19.7679C20.125 57.9764 20.494 57.6193 20.494 57.2621C20.494 56.905 20.1369 56.5479 19.7679 56.5479Z" fill="black"/>
</g>
<defs>
<clipPath id="clip0_48_430">
<rect width="49.6548" height="70" fill="white" transform="translate(0.172623)"/>
</clipPath>
</defs>
</svg>
