<svg width="101" height="100" viewBox="0 0 101 100" fill="none" xmlns="http://www.w3.org/2000/svg">
<g clip-path="url(#clip0_48_225)">
<path d="M100.25 0H0.25V100H100.25V0Z" fill="white"/>
<path d="M66.7284 84.7891V92.1127H8.13635V15.209H15.4599L66.7284 84.7891Z" fill="#89CCFF"/>
<path d="M74.0538 20.7025V68.3102L48.4187 84.7904H15.46V7.88672H61.2363L64.8989 17.0416L74.0538 20.7025Z" fill="white"/>
<path d="M92.3637 60.9863H48.4187V84.7901H92.3637V60.9863Z" fill="white"/>
<path d="M92.3636 55.4922V60.9844C92.3636 65.0282 89.0855 68.308 85.04 68.308H55.744C51.6985 68.308 48.4204 65.0282 48.4204 60.9844V55.4922H92.3654H92.3636Z" fill="white"/>
<path d="M83.2088 68.3086V71.9713C83.2088 73.9949 81.5697 75.6339 79.5461 75.6339C77.5225 75.6339 75.8834 73.9949 75.8834 71.9713V68.3086H83.207H83.2088Z" fill="#89CCFF"/>
<path d="M74.0538 20.7025H61.2362V7.88672L74.0538 20.7025Z" fill="#89CCFF"/>
<path d="M64.8989 68.3086V71.9713C64.8989 73.9949 63.2599 75.6339 61.2363 75.6339C59.2126 75.6339 57.5736 73.9949 57.5736 71.9713V68.3086H64.8972H64.8989Z" fill="#89CCFF"/>
<path d="M48.4187 86.621H15.46C14.4491 86.621 13.6287 85.8006 13.6287 84.7897V7.88602C13.6287 6.87508 14.4491 6.05469 15.46 6.05469H61.2363C61.7215 6.05469 62.1872 6.247 62.5313 6.59103L75.3489 19.4086C75.6929 19.7526 75.8852 20.2184 75.8852 20.7036V48.1701C75.8852 49.181 75.0648 50.0014 74.0539 50.0014C73.0429 50.0014 72.2225 49.181 72.2225 48.1701V21.4605L60.4776 9.71559H17.2913V82.9566H48.4187C49.4296 82.9566 50.25 83.777 50.25 84.7879C50.25 85.7989 49.4296 86.6193 48.4187 86.6193V86.621Z" fill="#2169AC"/>
<path d="M66.7285 93.9452H8.13639C7.12545 93.9452 6.30505 93.1248 6.30505 92.1139V15.2102C6.30505 14.1993 7.12545 13.3789 8.13639 13.3789H15.46C16.4709 13.3789 17.2913 14.1993 17.2913 15.2102C17.2913 16.2212 16.4709 17.0416 15.46 17.0416H9.96772V90.2826H64.8989V84.7903C64.8989 83.7794 65.7175 82.959 66.7302 82.959C67.743 82.959 68.5616 83.7794 68.5616 84.7903V92.1139C68.5616 93.1248 67.7412 93.9452 66.7302 93.9452H66.7285Z" fill="#2169AC"/>
<path d="M74.0538 22.5332H61.2362C60.2253 22.5332 59.4049 21.7128 59.4049 20.7018V7.88602C59.4049 6.87508 60.2253 6.05469 61.2362 6.05469C62.2472 6.05469 63.0676 6.87508 63.0676 7.88602V18.8723H74.0538C75.0648 18.8723 75.8851 19.6927 75.8851 20.7036C75.8851 21.7145 75.0648 22.5349 74.0538 22.5349V22.5332Z" fill="#2169AC"/>
<path d="M92.3637 86.6208H48.4187C47.4078 86.6208 46.5874 85.8004 46.5874 84.7895V55.4934C46.5874 54.4825 47.406 53.6621 48.4187 53.6621H61.2363C62.2472 53.6621 63.0676 54.4825 63.0676 55.4934C63.0676 56.5044 62.2472 57.3248 61.2363 57.3248H50.2501V82.9599H90.5324V57.3248H79.5461C78.5352 57.3248 77.7148 56.5044 77.7148 55.4934C77.7148 54.4825 78.5352 53.6621 79.5461 53.6621H92.3637C93.3746 53.6621 94.195 54.4825 94.195 55.4934V84.7895C94.195 85.8004 93.3746 86.6208 92.3637 86.6208Z" fill="#2169AC"/>
<path d="M79.5461 57.3241H61.2362C60.2253 57.3241 59.4049 56.5037 59.4049 55.4928V51.5567C59.4049 48.6791 61.7461 46.3379 64.6237 46.3379H76.1586C79.0362 46.3379 81.3774 48.6791 81.3774 51.5567V55.4928C81.3774 56.5037 80.557 57.3241 79.5461 57.3241ZM63.0676 53.6615H77.7165V51.5567C77.7165 50.6975 77.0178 50.0006 76.1604 50.0006H64.6237C63.7662 50.0006 63.0676 50.6992 63.0676 51.5567V53.6615Z" fill="#2169AC"/>
<path d="M57.5736 70.1405H55.7423C50.6947 70.1405 46.5874 66.0333 46.5874 60.9856C46.5874 59.9747 47.406 59.1543 48.4187 59.1543C49.4314 59.1543 50.2501 59.9747 50.2501 60.9856C50.2501 64.0149 52.7148 66.4779 55.7441 66.4779H57.5754C58.5863 66.4779 59.4067 67.2983 59.4067 68.3092C59.4067 69.3201 58.5863 70.1405 57.5754 70.1405H57.5736Z" fill="#2169AC"/>
<path d="M75.8852 70.1412H64.899C63.888 70.1412 63.0676 69.3208 63.0676 68.3099C63.0676 67.2989 63.888 66.4785 64.899 66.4785H75.8852C76.8961 66.4785 77.7165 67.2989 77.7165 68.3099C77.7165 69.3208 76.8961 70.1412 75.8852 70.1412Z" fill="#2169AC"/>
<path d="M85.0401 70.1405H83.2088C82.1978 70.1405 81.3774 69.3201 81.3774 68.3092C81.3774 67.2983 82.1978 66.4779 83.2088 66.4779H85.0401C88.0694 66.4779 90.5323 64.0132 90.5323 60.9856C90.5323 59.9747 91.3527 59.1543 92.3637 59.1543C93.3746 59.1543 94.195 59.9747 94.195 60.9856C94.195 66.0333 90.0877 70.1405 85.0401 70.1405Z" fill="#2169AC"/>
<path d="M61.2362 77.4648C58.2069 77.4648 55.7422 75.0018 55.7422 71.9725V68.3099C55.7422 67.2989 56.5626 66.4785 57.5735 66.4785H64.8971C65.908 66.4785 66.7284 67.2989 66.7284 68.3099V71.9725C66.7284 75.0018 64.2637 77.4648 61.2362 77.4648ZM59.4049 70.1412V71.9725C59.4049 72.9817 60.227 73.8039 61.2362 73.8039C62.2454 73.8039 63.0675 72.9817 63.0675 71.9725V70.1412H59.4049Z" fill="#2169AC"/>
<path d="M79.546 77.4648C76.5167 77.4648 74.052 75.0018 74.052 71.9725V68.3099C74.052 67.2989 74.8724 66.4785 75.8833 66.4785H83.2069C84.2178 66.4785 85.0382 67.2989 85.0382 68.3099V71.9725C85.0382 75.0018 82.5735 77.4648 79.5442 77.4648H79.546ZM77.7147 70.1412V71.9725C77.7147 72.9817 78.5368 73.8039 79.546 73.8039C80.5552 73.8039 81.3773 72.9817 81.3773 71.9725V70.1412H77.7147Z" fill="#2169AC"/>
<path d="M24.6148 18.8717H22.7835C21.7725 18.8717 20.9521 18.0513 20.9521 17.0403C20.9521 16.0294 21.7725 15.209 22.7835 15.209H24.6148C25.6258 15.209 26.4461 16.0294 26.4461 17.0403C26.4461 18.0513 25.6258 18.8717 24.6148 18.8717Z" fill="#2169AC"/>
<path d="M46.5873 18.8717H31.9384C30.9275 18.8717 30.1071 18.0513 30.1071 17.0403C30.1071 16.0294 30.9275 15.209 31.9384 15.209H46.5873C47.5982 15.209 48.4186 16.0294 48.4186 17.0403C48.4186 18.0513 47.5982 18.8717 46.5873 18.8717Z" fill="#2169AC"/>
<path d="M24.6148 26.1959H22.7835C21.7725 26.1959 20.9521 25.3755 20.9521 24.3645C20.9521 23.3536 21.7725 22.5332 22.7835 22.5332H24.6148C25.6258 22.5332 26.4461 23.3536 26.4461 24.3645C26.4461 25.3755 25.6258 26.1959 24.6148 26.1959Z" fill="#2169AC"/>
<path d="M46.5873 26.1959H31.9384C30.9275 26.1959 30.1071 25.3755 30.1071 24.3645C30.1071 23.3536 30.9275 22.5332 31.9384 22.5332H46.5873C47.5982 22.5332 48.4186 23.3536 48.4186 24.3645C48.4186 25.3755 47.5982 26.1959 46.5873 26.1959Z" fill="#2169AC"/>
<path d="M24.6148 33.5201H22.7835C21.7725 33.5201 20.9521 32.6997 20.9521 31.6888C20.9521 30.6778 21.7725 29.8574 22.7835 29.8574H24.6148C25.6258 29.8574 26.4461 30.6778 26.4461 31.6888C26.4461 32.6997 25.6258 33.5201 24.6148 33.5201Z" fill="#2169AC"/>
<path d="M53.9109 33.5201H31.9384C30.9275 33.5201 30.1071 32.6997 30.1071 31.6888C30.1071 30.6778 30.9275 29.8574 31.9384 29.8574H53.9109C54.9218 29.8574 55.7422 30.6778 55.7422 31.6888C55.7422 32.6997 54.9218 33.5201 53.9109 33.5201Z" fill="#2169AC"/>
<path d="M24.6148 40.8443H22.7835C21.7725 40.8443 20.9521 40.0239 20.9521 39.013C20.9521 38.002 21.7725 37.1816 22.7835 37.1816H24.6148C25.6258 37.1816 26.4461 38.002 26.4461 39.013C26.4461 40.0239 25.6258 40.8443 24.6148 40.8443Z" fill="#2169AC"/>
<path d="M53.9109 40.8443H31.9384C30.9275 40.8443 30.1071 40.0239 30.1071 39.013C30.1071 38.002 30.9275 37.1816 31.9384 37.1816H53.9109C54.9218 37.1816 55.7422 38.002 55.7422 39.013C55.7422 40.0239 54.9218 40.8443 53.9109 40.8443Z" fill="#2169AC"/>
<path d="M24.6148 48.1685H22.7835C21.7725 48.1685 20.9521 47.3481 20.9521 46.3372C20.9521 45.3263 21.7725 44.5059 22.7835 44.5059H24.6148C25.6258 44.5059 26.4461 45.3263 26.4461 46.3372C26.4461 47.3481 25.6258 48.1685 24.6148 48.1685Z" fill="#2169AC"/>
<path d="M53.9109 48.1685H31.9384C30.9275 48.1685 30.1071 47.3481 30.1071 46.3372C30.1071 45.3263 30.9275 44.5059 31.9384 44.5059H53.9109C54.9218 44.5059 55.7422 45.3263 55.7422 46.3372C55.7422 47.3481 54.9218 48.1685 53.9109 48.1685Z" fill="#2169AC"/>
</g>
<defs>
<clipPath id="clip0_48_225">
<rect width="100" height="100" fill="white" transform="translate(0.25)"/>
</clipPath>
</defs>
</svg>
