<svg width="101" height="100" viewBox="0 0 101 100" fill="none" xmlns="http://www.w3.org/2000/svg">
<g clip-path="url(#clip0_48_301)">
<path d="M100.75 0H0.75V100H100.75V0Z" fill="white"/>
<path d="M46.9963 29.8278C47.9919 19.7647 40.6412 10.7998 30.5781 9.80427C20.515 8.8087 11.5501 16.1594 10.5546 26.2225C9.55902 36.2856 16.9097 45.2504 26.9728 46.246C37.0359 47.2415 46.0007 39.8909 46.9963 29.8278Z" fill="#89CCFF"/>
<path d="M92.8636 17.041V24.3646H59.9049V17.041H87.3714H92.8636Z" fill="white"/>
<path d="M92.8636 31.6895V39.013H59.9049V31.6895H92.8636Z" fill="white"/>
<path d="M92.8636 46.3379V53.6615H59.9049V46.3379H92.8636Z" fill="white"/>
<path d="M92.8636 60.9863V68.3099H59.9049V60.9863H92.8636Z" fill="white"/>
<path d="M92.8636 75.6348V82.9583H59.9049V75.6348H92.8636Z" fill="white"/>
<path d="M45.256 75.6348V82.9583H41.5951H12.2972V75.6348H41.5951H45.256Z" fill="white"/>
<path d="M47.0873 60.9863V68.3099H41.595H14.1285V60.9863H41.595H47.0873Z" fill="white"/>
<path d="M45.256 46.3379V53.6615H12.2972V46.3379H45.256Z" fill="white"/>
<path d="M87.3713 9.7168V17.0421H54.4126V9.7168H87.3713Z" fill="#89CCFF"/>
<path d="M92.8636 24.3652H59.9049V31.6888H92.8636V24.3652Z" fill="#89CCFF"/>
<path d="M87.3714 39.0137V46.3372H59.9049H54.4109V39.0137H59.9049H87.3714Z" fill="#89CCFF"/>
<path d="M89.2009 53.6602V60.9855H59.9049H56.2422V53.6602H59.9049H89.2009Z" fill="#89CCFF"/>
<path d="M87.3713 68.3105V75.6359H54.4126V68.3105H87.3713Z" fill="#89CCFF"/>
<path d="M89.2009 82.959V90.2826H56.2422V82.959H89.2009Z" fill="#89CCFF"/>
<path d="M41.5951 82.959V90.2826H8.63635V82.959H41.5951Z" fill="#89CCFF"/>
<path d="M41.5951 68.3105V75.6359H12.2973H8.63635V68.3105H14.1286H41.5951Z" fill="#89CCFF"/>
<path d="M41.5951 53.6602V60.9855H14.1286H8.63635V53.6602H12.2973H41.5951Z" fill="#89CCFF"/>
<path d="M32.4384 37.1827H25.1148C24.1038 37.1827 23.2834 36.3623 23.2834 35.3513C23.2834 34.3404 24.1038 33.52 25.1148 33.52H30.6088V29.8573H25.1148C24.1038 29.8573 23.2834 29.0387 23.2834 28.026V20.7024C23.2834 19.6915 24.1038 18.8711 25.1148 18.8711H32.4384C33.4493 18.8711 34.2697 19.6915 34.2697 20.7024C34.2697 21.7134 33.4493 22.5338 32.4384 22.5338H26.9461V26.1964H32.4384C33.4493 26.1964 34.2697 27.0151 34.2697 28.0278V35.3513C34.2697 36.3623 33.4493 37.1827 32.4384 37.1827Z" fill="#2169AC"/>
<path d="M28.7775 22.5343C27.7666 22.5343 26.9462 21.7139 26.9462 20.703V17.0403C26.9462 16.0294 27.7666 15.209 28.7775 15.209C29.7884 15.209 30.6088 16.0294 30.6088 17.0403V20.703C30.6088 21.7139 29.7884 22.5343 28.7775 22.5343Z" fill="#2169AC"/>
<path d="M28.7775 40.8449C27.7666 40.8449 26.9462 40.0245 26.9462 39.0135V35.3509C26.9462 34.3399 27.7666 33.5195 28.7775 33.5195C29.7884 33.5195 30.6088 34.3399 30.6088 35.3509V39.0135C30.6088 40.0245 29.7884 40.8449 28.7775 40.8449Z" fill="#2169AC"/>
<path d="M28.7775 48.169C17.6713 48.169 8.63635 39.1341 8.63635 28.0279C8.63635 16.9217 17.6713 7.88672 28.7775 7.88672C39.8837 7.88672 48.9186 16.9217 48.9186 28.0279C48.9186 39.1341 39.8837 48.169 28.7775 48.169ZM28.7775 11.5476C19.6914 11.5476 12.2973 18.94 12.2973 28.0261C12.2973 37.1122 19.6896 44.5046 28.7775 44.5046C37.8654 44.5046 45.2577 37.1122 45.2577 28.0261C45.2577 18.94 37.8654 11.5476 28.7775 11.5476Z" fill="#2169AC"/>
<path d="M45.256 55.4919H41.5933C40.5824 55.4919 39.762 54.6715 39.762 53.6606C39.762 52.6496 40.5824 51.8292 41.5933 51.8292H43.4247V48.1666H14.1286V53.6588C14.1286 54.6698 13.3082 55.4901 12.2973 55.4901C11.2863 55.4901 10.4659 54.6698 10.4659 53.6588V46.3352C10.4659 45.3243 11.2863 44.5039 12.2973 44.5039H45.256C46.2669 44.5039 47.0873 45.3243 47.0873 46.3352V53.6588C47.0873 54.6698 46.2669 55.4901 45.256 55.4901V55.4919Z" fill="#2169AC"/>
<path d="M41.595 62.8183C40.584 62.8183 39.7636 61.9979 39.7636 60.9869V55.4929H10.4658V59.1556H14.1285C15.1394 59.1556 15.9598 59.976 15.9598 60.9869C15.9598 61.9979 15.1394 62.8183 14.1285 62.8183H8.63627C7.62533 62.8183 6.80493 61.9979 6.80493 60.9869V53.6634C6.80493 52.6524 7.62533 51.832 8.63627 51.832H41.595C42.6059 51.832 43.4263 52.6524 43.4263 53.6634V60.9869C43.4263 61.9979 42.6059 62.8183 41.595 62.8183Z" fill="#2169AC"/>
<path d="M47.0873 70.1405H41.5951C40.5841 70.1405 39.7637 69.3201 39.7637 68.3092C39.7637 67.2983 40.5841 66.4779 41.5951 66.4779H45.2577V62.8152H15.9599V68.3092C15.9599 69.3201 15.1395 70.1405 14.1286 70.1405C13.1176 70.1405 12.2972 69.3201 12.2972 68.3092V60.9856C12.2972 59.9747 13.1176 59.1543 14.1286 59.1543H47.0873C48.0982 59.1543 48.9186 59.9747 48.9186 60.9856V68.3092C48.9186 69.3201 48.0982 70.1405 47.0873 70.1405Z" fill="#2169AC"/>
<path d="M41.595 77.4646C40.5841 77.4646 39.7637 76.6442 39.7637 75.6332V70.1392H10.4659V73.8019H12.2972C13.3082 73.8019 14.1286 74.6223 14.1286 75.6332C14.1286 76.6442 13.3082 77.4646 12.2972 77.4646H8.63456C7.62362 77.4646 6.80322 76.6442 6.80322 75.6332V68.3079C6.80322 67.297 7.62362 66.4766 8.63456 66.4766H41.5933C42.6042 66.4766 43.4246 67.297 43.4246 68.3079V75.6332C43.4246 76.6442 42.6042 77.4646 41.5933 77.4646H41.595Z" fill="#2169AC"/>
<path d="M45.256 84.7909H41.5933C40.5824 84.7909 39.762 83.9705 39.762 82.9596C39.762 81.9487 40.5824 81.1283 41.5933 81.1283H43.4247V77.4656H14.1286V82.9596C14.1286 83.9705 13.3082 84.7909 12.2973 84.7909C11.2863 84.7909 10.4659 83.9705 10.4659 82.9596V75.636C10.4659 74.6251 11.2863 73.8047 12.2973 73.8047H45.256C46.2669 73.8047 47.0873 74.6251 47.0873 75.636V82.9596C47.0873 83.9705 46.2669 84.7909 45.256 84.7909Z" fill="#2169AC"/>
<path d="M41.595 92.1132H8.63627C7.62533 92.1132 6.80493 91.2928 6.80493 90.2819V82.9583C6.80493 81.9473 7.62533 81.127 8.63627 81.127H41.595C42.6059 81.127 43.4263 81.9473 43.4263 82.9583V90.2819C43.4263 91.2928 42.6059 92.1132 41.595 92.1132ZM10.4658 88.4505H39.7619V84.7879H10.4658V88.4505Z" fill="#2169AC"/>
<path d="M59.9048 55.4921C58.8939 55.4921 58.0735 54.6717 58.0735 53.6608V46.3372C58.0735 45.3263 58.8939 44.5059 59.9048 44.5059C60.9158 44.5059 61.7362 45.3263 61.7362 46.3372V53.6608C61.7362 54.6717 60.9158 55.4921 59.9048 55.4921Z" fill="#2169AC"/>
<path d="M92.8635 55.4919H89.2009C88.1899 55.4919 87.3695 54.6715 87.3695 53.6606C87.3695 52.6496 88.1899 51.8292 89.2009 51.8292H91.0322V48.1666H87.3695C86.3586 48.1666 85.5382 47.3462 85.5382 46.3352C85.5382 45.3243 86.3586 44.5039 87.3695 44.5039H92.8635C93.8745 44.5039 94.6949 45.3243 94.6949 46.3352V53.6588C94.6949 54.6698 93.8745 55.4901 92.8635 55.4901V55.4919Z" fill="#2169AC"/>
<path d="M89.2009 62.8183C88.19 62.8183 87.3696 61.9979 87.3696 60.9869V55.4929H58.0736V59.1556H59.9049C60.9158 59.1556 61.7362 59.976 61.7362 60.9869C61.7362 61.9979 60.9158 62.8183 59.9049 62.8183H56.2422C55.2313 62.8183 54.4109 61.9979 54.4109 60.9869V53.6634C54.4109 52.6524 55.2313 51.832 56.2422 51.832H89.2009C90.2119 51.832 91.0323 52.6524 91.0323 53.6634V60.9869C91.0323 61.9979 90.2119 62.8183 89.2009 62.8183Z" fill="#2169AC"/>
<path d="M92.8635 70.1405H87.3695C86.3586 70.1405 85.5382 69.3201 85.5382 68.3092C85.5382 67.2983 86.3586 66.4779 87.3695 66.4779H91.0322V62.8152H61.7362V68.3092C61.7362 69.3201 60.9158 70.1405 59.9048 70.1405C58.8939 70.1405 58.0735 69.3201 58.0735 68.3092V60.9856C58.0735 59.9747 58.8939 59.1543 59.9048 59.1543H92.8635C93.8745 59.1543 94.6949 59.9747 94.6949 60.9856V68.3092C94.6949 69.3201 93.8745 70.1405 92.8635 70.1405Z" fill="#2169AC"/>
<path d="M87.3713 77.4646C86.3604 77.4646 85.54 76.6442 85.54 75.6332V70.1392H56.244V73.8019H59.9066C60.9176 73.8019 61.738 74.6223 61.738 75.6332C61.738 76.6442 60.9176 77.4646 59.9066 77.4646H54.4126C53.4017 77.4646 52.5813 76.6442 52.5813 75.6332V68.3079C52.5813 67.297 53.4017 66.4766 54.4126 66.4766H87.3713C88.3823 66.4766 89.2027 67.297 89.2027 68.3079V75.6332C89.2027 76.6442 88.3823 77.4646 87.3713 77.4646Z" fill="#2169AC"/>
<path d="M92.8635 26.1972C91.8526 26.1972 91.0322 25.3768 91.0322 24.3658V18.8736H87.3695C86.3586 18.8736 85.5382 18.0532 85.5382 17.0423C85.5382 16.0313 86.3586 15.2109 87.3695 15.2109H92.8635C93.8745 15.2109 94.6949 16.0313 94.6949 17.0423V24.3658C94.6949 25.3768 93.8745 26.1972 92.8635 26.1972Z" fill="#2169AC"/>
<path d="M59.9048 26.1972C58.8939 26.1972 58.0735 25.3768 58.0735 24.3658V17.0423C58.0735 16.0313 58.8939 15.2109 59.9048 15.2109C60.9158 15.2109 61.7362 16.0313 61.7362 17.0423V24.3658C61.7362 25.3768 60.9158 26.1972 59.9048 26.1972Z" fill="#2169AC"/>
<path d="M87.3713 18.8728H54.4126C53.4017 18.8728 52.5813 18.0524 52.5813 17.0414V9.7161C52.5813 8.70516 53.4017 7.88477 54.4126 7.88477H87.3713C88.3823 7.88477 89.2027 8.7034 89.2027 9.7161V17.0414C89.2027 18.0524 88.3823 18.8728 87.3713 18.8728ZM56.2422 15.2101H85.5382V11.5474H56.2422V15.2101Z" fill="#2169AC"/>
<path d="M92.8635 33.5194C91.8526 33.5194 91.0322 32.699 91.0322 31.6881V26.1941H61.7362V31.6881C61.7362 32.699 60.9158 33.5194 59.9048 33.5194C58.8939 33.5194 58.0735 32.699 58.0735 31.6881V24.3645C58.0735 23.3536 58.8939 22.5332 59.9048 22.5332H92.8635C93.8745 22.5332 94.6949 23.3536 94.6949 24.3645V31.6881C94.6949 32.699 93.8745 33.5194 92.8635 33.5194Z" fill="#2169AC"/>
<path d="M92.8635 40.8454H87.3695C86.3586 40.8454 85.5382 40.025 85.5382 39.0141C85.5382 38.0032 86.3586 37.1828 87.3695 37.1828H91.0322V33.5201H61.7362V39.0123C61.7362 40.0233 60.9158 40.8437 59.9048 40.8437C58.8939 40.8437 58.0735 40.0233 58.0735 39.0123V31.6888C58.0735 30.6778 58.8939 29.8574 59.9048 29.8574H92.8635C93.8745 29.8574 94.6949 30.6778 94.6949 31.6888V39.0123C94.6949 40.0233 93.8745 40.8437 92.8635 40.8437V40.8454Z" fill="#2169AC"/>
<path d="M87.3713 48.1696H54.4126C53.4017 48.1696 52.5813 47.3492 52.5813 46.3383V39.013C52.5813 38.002 53.4017 37.1816 54.4126 37.1816H87.3713C88.3823 37.1816 89.2027 38.0003 89.2027 39.013V46.3383C89.2027 47.3492 88.3823 48.1696 87.3713 48.1696ZM56.2422 44.507H85.5382V40.8443H56.2422V44.507Z" fill="#2169AC"/>
<path d="M92.8635 84.7909H89.2009C88.1899 84.7909 87.3695 83.9705 87.3695 82.9596C87.3695 81.9487 88.1899 81.1283 89.2009 81.1283H91.0322V77.4656H61.7362V82.9596C61.7362 83.9705 60.9158 84.7909 59.9048 84.7909C58.8939 84.7909 58.0735 83.9705 58.0735 82.9596V75.636C58.0735 74.6251 58.8939 73.8047 59.9048 73.8047H92.8635C93.8745 73.8047 94.6949 74.6251 94.6949 75.636V82.9596C94.6949 83.9705 93.8745 84.7909 92.8635 84.7909Z" fill="#2169AC"/>
<path d="M89.2009 92.1132H56.2422C55.2313 92.1132 54.4109 91.2928 54.4109 90.2819V82.9583C54.4109 81.9473 55.2313 81.127 56.2422 81.127H89.2009C90.2119 81.127 91.0323 81.9473 91.0323 82.9583V90.2819C91.0323 91.2928 90.2119 92.1132 89.2009 92.1132ZM58.0736 88.4505H87.3696V84.7879H58.0736V88.4505Z" fill="#2169AC"/>
</g>
<defs>
<clipPath id="clip0_48_301">
<rect width="100" height="100" fill="white" transform="translate(0.75)"/>
</clipPath>
</defs>
</svg>
