<svg width="101" height="100" viewBox="0 0 101 100" fill="none" xmlns="http://www.w3.org/2000/svg">
<g clip-path="url(#clip0_48_409)">
<path d="M100.75 0H0.75V100H100.75V0Z" fill="white"/>
<path d="M85.5401 73.8027H58.0736V82.9576H85.5401V73.8027Z" fill="#89CCFF"/>
<path d="M85.5401 55.4922H58.0736V64.6471H85.5401V55.4922Z" fill="#89CCFF"/>
<path d="M43.4264 73.8027H15.96V82.9576H43.4264V73.8027Z" fill="#89CCFF"/>
<path d="M43.4264 55.4922H15.96V64.6471H43.4264V55.4922Z" fill="#89CCFF"/>
<path d="M85.5401 82.959H58.0736V92.1139H85.5401V82.959Z" fill="white"/>
<path d="M85.5401 64.6465H58.0736V73.8014H85.5401V64.6465Z" fill="white"/>
<path d="M85.5401 39.0137H58.0736V55.4939H85.5401V39.0137Z" fill="white"/>
<path d="M43.4264 82.959H15.96V92.1139H43.4264V82.959Z" fill="white"/>
<path d="M43.4264 64.6465H15.96V73.8014H43.4264V64.6465Z" fill="white"/>
<path d="M43.4264 39.0137H15.96V55.4939H43.4264V39.0137Z" fill="white"/>
<path d="M58.0736 92.1135H43.4247V39.0137H58.0736V92.1135Z" fill="white"/>
<path d="M92.8636 24.3652V39.0141H8.63641V24.3652H92.8636Z" fill="#89CCFF"/>
<path d="M92.8636 22.533H66.7521C68.1936 20.7899 69.0598 18.5563 69.0598 16.1233C69.0598 10.5711 64.5415 6.05273 58.9892 6.05273C54.9631 6.05273 51.4822 8.42923 49.8714 11.852C48.4088 10.5252 46.4663 9.71364 44.3403 9.71364C37.7401 9.71364 33.8552 17.1078 37.4931 22.5312H8.63639C7.62545 22.5312 6.80505 23.3516 6.80505 24.3625V39.0115C6.80505 40.0224 7.62545 40.8428 8.63639 40.8428H14.1286V92.1113C14.1286 93.1223 14.949 93.9426 15.96 93.9426H85.5401C86.551 93.9426 87.3714 93.1223 87.3714 92.1113V40.8445H92.8654C93.8763 40.8445 94.6967 40.0242 94.6967 39.0132V24.3643C94.6967 23.3534 93.8763 22.533 92.8654 22.533H92.8636ZM52.5813 16.1251C52.5813 12.5912 55.4571 9.7154 58.991 9.7154C62.5249 9.7154 65.3989 12.5912 65.3989 16.1251C65.3989 19.6589 62.5231 22.5347 58.9892 22.5347H52.5796V16.1251H52.5813ZM39.7638 17.9564C39.7638 15.4317 41.8174 13.3781 44.3421 13.3781C46.8668 13.3781 48.9204 15.4317 48.9204 17.9564V22.5347H44.3421C41.8174 22.5347 39.7638 20.4811 39.7638 17.9564ZM41.5951 71.9719H17.7913V66.4779H41.5951V71.9719ZM41.5951 62.817H17.7913V57.3248H41.5951V62.817ZM17.7913 75.6346H41.5951V81.1268H17.7913V75.6346ZM41.5951 53.6604H17.7913V40.8428H41.5951V53.6604ZM17.7913 84.7895H41.5951V90.2835H17.7913V84.7895ZM45.256 90.2817V40.8445H56.2422V90.2835H45.256V90.2817ZM59.9049 66.4779H83.7087V71.9719H59.9049V66.4779ZM59.9049 75.6346H83.7087V81.1268H59.9049V75.6346ZM83.7087 62.817H59.9049V57.3248H83.7087V62.817ZM59.9049 90.2817V84.7877H83.7087V90.2817H59.9049ZM83.7087 53.6604H59.9049V40.8428H83.7087V53.6604ZM91.0323 37.1819H10.466V26.1956H91.0323V37.1819Z" fill="#2169AC"/>
</g>
<defs>
<clipPath id="clip0_48_409">
<rect width="100" height="100" fill="white" transform="translate(0.75)"/>
</clipPath>
</defs>
</svg>
