<svg width="68" height="80" viewBox="0 0 68 80" fill="none" xmlns="http://www.w3.org/2000/svg">
<g clip-path="url(#clip0_48_582)">
<path d="M36.6598 50.3252C36.3863 50.0517 35.8256 50.0517 35.4154 50.3252C34.7316 51.009 33.6239 51.009 32.9265 50.3252C32.653 50.0517 32.0923 50.0517 31.6821 50.3252C31.4086 50.5987 31.4086 51.1458 31.6821 51.556C33.0633 52.9235 35.2786 52.9235 36.6598 51.556C36.9333 51.1458 36.9333 50.5987 36.6598 50.3252Z" fill="black"/>
<path d="M51.0189 65.5042L44.5232 62.7692C43.4155 62.2222 42.3078 61.6752 41.3505 60.8547C40.5163 60.1709 40.1061 59.7606 39.4223 58.8034H39.2856L39.1488 58.6666H38.6018V57.2991C41.9112 55.6581 44.2633 52.2393 44.2633 48.4102V44.5812C44.4001 44.7179 44.5368 44.7179 44.6736 44.8547H45.0839C45.2206 44.7179 45.3574 44.5812 45.4941 44.4444V44.3077C46.6018 38.9743 46.1779 34.735 43.9762 31.7265C42.3215 29.4017 40.2428 28.7179 40.1061 28.7179C39.5591 28.5812 38.9984 28.9914 38.9984 29.5384V30.0854C37.6172 29.6752 35.1283 29.1282 32.2292 29.1282C28.2223 29.2649 22.6975 30.7692 19.6616 37.6068C19.5249 38.0171 19.6616 38.4273 20.0719 38.5641C20.7557 38.8376 22.424 39.3846 23.8052 39.6581V48.2735C23.8052 52.1025 26.0206 55.5213 29.33 57.1624V58.5299H28.9198C28.783 58.5299 28.9198 58.5299 28.783 58.6666C28.236 59.4871 27.5386 60.0341 26.5676 60.8547C25.7334 61.5384 24.6394 62.0854 23.6685 62.6324L17.1727 65.3675C13.3027 67.0085 11.101 73.1624 11.101 76.8547V79.1795C11.101 79.5897 11.5112 80 11.9351 80H55.9967C56.4069 80 56.8309 79.5897 56.8309 79.1795V76.9914C57.1044 73.2991 54.9027 67.1453 51.0326 65.5042H51.0189ZM29.6172 60.7179L29.7539 60.8547L32.9266 64L30.5745 67.0085L28.3591 61.9487C28.7693 61.5384 29.1933 61.1282 29.6035 60.7179H29.6172ZM38.7249 60.5812C39.1351 60.9914 39.5591 61.4017 39.9693 61.8119L37.6172 66.8718L35.4018 63.8632L38.7112 60.5812H38.7249ZM32.5163 30.6324C36.2497 30.4957 39.5591 31.8632 39.6958 31.8632H40.1061C40.1061 31.8632 40.2428 31.8632 40.2428 31.7265C40.2428 31.7265 40.3796 31.7265 40.3796 31.5897V31.453V31.1794V30.7692C41.8975 31.8632 44.3864 34.4615 43.8257 40.6153C43.4155 39.7948 43.5522 39.9316 43.5522 39.7948H43.0052L42.0343 40.2051L42.3078 39.1111C42.4445 38.4273 41.7608 37.8803 41.2001 38.1538L38.3009 38.7008L38.4377 38.0171C38.4377 37.7436 38.301 37.3333 38.0274 37.1965C37.7539 37.0598 37.33 37.0598 37.0565 37.1965C37.0565 37.1965 32.3659 40.6153 21.8633 37.1965C24.0787 33.094 27.6616 30.9059 32.5027 30.6324H32.5163ZM25.8839 48.2735V40.0683C31.2719 41.0256 34.718 40.3418 36.6599 39.5213V39.9316C36.5232 40.6153 37.2069 41.0256 37.7676 40.8889L40.3933 39.9316L40.1198 41.0256C39.983 41.7094 40.6668 42.2564 41.2274 41.9829L42.6086 41.5726V48.4102C42.6086 52.923 38.8753 56.6153 34.3215 56.6153C29.6309 56.4786 25.8975 52.7863 25.8975 48.2735H25.8839ZM36.7967 57.8461V60.0341L34.171 62.6324L31.4086 59.8974V57.8461C33.2001 58.3931 34.9916 58.3931 36.7967 57.8461ZM13.0428 76.9914C13.0428 73.4359 15.2582 68.2393 18.0206 67.1453L24.5163 64.4102C25.3505 64 26.171 63.5897 27.0052 63.0427L29.7676 69.0598C30.0411 69.6068 30.8753 69.7435 31.2856 69.1965L32.53 67.6923L29.9044 78.6324H20.3727V73.5726C20.3727 73.1624 19.9625 72.7521 19.5386 72.7521C19.1146 72.7521 18.7044 73.1624 18.7044 73.5726V78.6324H13.0428V76.9914ZM34.171 67.5555L36.9334 78.6324H31.4086L34.171 67.5555ZM55.2992 78.4957H49.9112V73.4359C49.9112 73.0256 49.5009 72.6153 49.077 72.6153C48.6531 72.6153 48.2428 73.0256 48.2428 73.4359V78.4957H38.7112L36.0856 67.829L37.0565 69.1965C37.4668 69.7435 38.301 69.6068 38.5745 69.0598L41.4736 63.0427C42.3078 63.5897 43.1283 64 43.9625 64.4102L50.4582 67.1453C53.2206 68.376 55.436 73.4359 55.436 76.9914L55.2992 78.4957Z" fill="black"/>
<path d="M18.9778 11.3504L26.9915 17.094L23.9556 26.3932C23.8188 26.8034 23.9556 27.0769 24.2291 27.3504C24.5026 27.6239 24.9128 27.6239 25.2 27.3504L33.2137 21.6068L41.2274 27.3504C41.5009 27.6239 41.9111 27.6239 42.1983 27.3504C42.4718 27.0769 42.6086 26.8034 42.4718 26.3932L39.4359 17.094L47.4496 11.3504C47.7231 11.0769 47.8598 10.8034 47.7231 10.3932C47.5863 9.98291 47.3128 9.84615 46.8889 9.84615H36.947L34.171 0.547009C34.0342 0.136752 33.7607 0 33.3368 0C32.9128 0 32.653 0.273504 32.5026 0.547009L29.4667 9.84615H19.5248C19.1145 9.84615 18.841 10.1197 18.6906 10.3932C18.5539 10.8034 18.6906 11.0769 18.9641 11.3504H18.9778ZM30.0274 11.4872C30.4376 11.4872 30.7111 11.2137 30.8616 10.9402L33.3504 3.55556L35.8393 10.9402C35.9761 11.3504 36.2496 11.4872 36.6735 11.4872H44.5504L38.1915 16.1368C37.918 16.4103 37.7812 16.6838 37.918 17.094L40.4069 24.4786L34.0479 19.8291C33.7744 19.5556 33.3641 19.5556 33.0769 19.8291L26.718 24.4786L29.2069 17.094C29.3436 16.6838 29.2069 16.4103 28.9333 16.1368L22.5744 11.4872H30.0274Z" fill="#00C2FF"/>
<path d="M45.2205 17.6414C45.0838 18.0516 45.2205 18.3251 45.494 18.5987L50.7453 22.291L48.8171 28.3081C48.6803 28.7183 48.8171 28.9918 49.0906 29.2653C49.3641 29.5388 49.7744 29.5388 50.0615 29.2653L55.3128 25.573L60.5641 29.2653C60.7009 29.4021 60.8376 29.4021 61.1111 29.4021C61.6581 29.4021 62.0821 28.8551 61.9453 28.3081L59.8667 22.291L65.118 18.5987C65.3915 18.3251 65.5282 18.0516 65.3915 17.6414C65.2547 17.2311 64.9812 17.0944 64.5573 17.0944H58.0615L56.1333 11.0773C55.9966 10.667 55.7231 10.5303 55.2991 10.5303C54.8752 10.5303 54.6154 10.8038 54.465 11.0773L52.5368 17.0944H46.041C45.6308 16.9576 45.3573 17.2311 45.2068 17.6414H45.2205ZM53.0838 18.7354C53.494 18.7354 53.7675 18.4619 53.918 18.1884L55.2991 14.0858L56.6803 18.1884C56.8171 18.5986 57.0906 18.7354 57.5145 18.7354H61.9316L58.335 21.3337C58.0615 21.6072 57.9248 21.8807 58.0615 22.291L59.4427 26.3935L55.8462 23.7952C55.5727 23.5217 55.1624 23.5217 54.8752 23.7952L51.1419 26.3935L52.5231 22.291C52.6598 21.8807 52.5231 21.6072 52.2496 21.3337L48.653 18.7354H53.0701H53.0838Z" fill="black"/>
<path d="M1.29578 18.5987L6.54706 22.291L4.61886 28.3081C4.48211 28.7183 4.61886 28.9918 4.89236 29.2653C5.16587 29.5388 5.57612 29.5388 5.8633 29.2653L11.1146 25.573L16.3659 29.2653C16.5026 29.4021 16.6394 29.4021 16.9129 29.4021C17.4599 29.4021 17.8838 28.8551 17.7471 28.3081L15.6821 22.291L20.9334 18.5987C21.2069 18.3251 21.3436 18.0516 21.2069 17.6414C21.0701 17.2311 20.7966 17.0944 20.3727 17.0944H13.877L11.9488 11.0773C11.812 10.667 11.5385 10.5303 11.1146 10.5303C10.6907 10.5303 10.4308 10.8038 10.2804 11.0773L8.35219 17.0944H1.85646C1.44621 17.0944 1.1727 17.3679 1.02228 17.6414C0.885524 17.9149 1.02228 18.3251 1.29578 18.5987ZM8.8992 18.7354C9.30946 18.7354 9.58296 18.4619 9.73339 18.1884L11.1146 14.0858L12.4958 18.1884C12.6325 18.5986 12.906 18.7354 13.33 18.7354H17.7471L14.1505 21.3337C13.877 21.6072 13.7402 21.8807 13.877 22.291L15.2582 26.3935L11.6616 23.7952C11.3881 23.5217 10.9778 23.5217 10.6907 23.7952L7.09407 26.3935L8.47527 22.291C8.61202 21.8807 8.47527 21.6072 8.20176 21.3337L4.61886 18.7354H8.8992Z" fill="black"/>
</g>
<defs>
<clipPath id="clip0_48_582">
<rect width="66.065" height="80" fill="white" transform="translate(0.967529)"/>
</clipPath>
</defs>
</svg>
