<svg width="80" height="70" viewBox="0 0 80 70" fill="none" xmlns="http://www.w3.org/2000/svg">
<g clip-path="url(#clip0_48_550)">
<path d="M40.0702 49.9395C41.0942 49.9395 41.9078 50.7531 41.9078 51.7631C41.9078 52.7731 41.0802 53.5868 40.0702 53.5868C39.0601 53.5868 38.2325 52.7731 38.2325 51.7631C38.2325 50.7531 39.0601 49.9395 40.0702 49.9395Z" fill="black"/>
<path d="M74.495 0H5.64532C2.67137 0 0.258545 2.38477 0.258545 5.33066V52.4649C0.258545 55.4108 2.67137 57.7956 5.64532 57.7956H31.99C31.5692 59.7595 29.7175 61.3026 27.5992 61.3026C25.1864 61.3026 23.2084 63.2665 23.2084 65.6513C23.2084 68.0361 25.1864 70 27.5992 70H52.3868C54.7996 70 56.7776 68.0361 56.7776 65.6513C56.7776 63.2665 54.7996 61.3026 52.3868 61.3026C50.2686 61.3026 48.4169 59.7595 47.996 57.7956H74.3407C77.3147 57.7956 79.7275 55.4108 79.7275 52.4649V5.33066C79.8678 2.38477 77.4549 0 74.481 0H74.495ZM18.8177 9.67936H61.3227V40.4008H18.8177V9.67936ZM17.1203 41.2425C17.1203 41.6633 17.5411 42.0842 17.976 42.0842H62.3187C62.7395 42.0842 63.1744 41.6633 63.1744 41.2425V7.01403H72.9519V45.5912H7.34271V7.01403H17.1203V41.2425ZM61.3227 1.68337V7.85571H18.8177V1.68337H61.3227ZM52.5411 63.1263C53.9579 63.1263 55.2345 64.2485 55.2345 65.7916C55.2345 67.3347 54.0982 68.4569 52.5411 68.4569H27.7535C26.3367 68.4569 25.0601 67.3347 25.0601 65.7916C25.0601 64.2485 26.1964 63.1263 27.7535 63.1263C30.8678 63.1263 33.4209 60.8818 33.8417 57.7956H46.3127C46.7335 60.7415 49.2866 63.1263 52.5411 63.1263ZM78.1844 52.4649C78.1844 54.4289 76.487 56.1122 74.509 56.1122H5.64532C3.66736 56.1122 1.95594 54.4289 1.95594 52.4649V5.33066C1.95594 3.36673 3.65333 1.68337 5.64532 1.68337H16.98V5.19038H6.36075C5.93991 5.19038 5.50504 5.61122 5.50504 6.03206V46.4329C5.50504 46.8537 5.92588 47.2745 6.36075 47.2745H73.6533C74.0742 47.2745 74.509 46.8537 74.509 46.4329V6.17234C74.509 5.7515 74.0882 5.33066 73.6533 5.33066H63.0341V1.82365H74.3688C76.3467 1.82365 78.0581 3.50701 78.0581 5.47094V52.4649H78.1984H78.1844Z" fill="black"/>
<path d="M31.008 18.5166C31.8637 17.8152 32.2846 16.693 32.2846 15.5707C32.2846 13.3262 30.4469 11.3623 28.0341 11.3623C25.7615 11.3623 23.7836 13.186 23.7836 15.5707C23.7836 16.693 24.2044 17.8152 25.0601 18.5166C22.3667 19.6389 20.3888 22.3042 20.3888 25.3904C20.3888 26.3723 20.5291 27.4946 20.9499 28.3363C21.0902 28.6168 21.3708 28.8974 21.8056 28.8974H34.1363C34.5571 28.8974 34.8377 28.6168 34.992 28.3363C35.2726 27.4946 35.5531 26.3723 35.5531 25.3904C35.6934 22.3042 33.7154 19.6389 31.0221 18.5166H31.008ZM28.1744 21.1819L28.7355 22.725L28.1744 23.2862L27.6132 22.725L28.1744 21.1819ZM25.6213 15.5707C25.6213 14.3082 26.7575 13.186 28.0341 13.186C29.3106 13.186 30.4469 14.3082 30.4469 15.5707C30.4469 16.8332 29.3106 17.9555 28.0341 17.9555C26.7575 17.9555 25.6213 16.8332 25.6213 15.5707ZM33.6874 27.214H32.4108V25.5306C32.4108 25.1098 31.99 24.689 31.5551 24.689C31.1203 24.689 30.6994 25.1098 30.6994 25.5306V27.214H25.8878V25.5306C25.8878 25.1098 25.4669 24.689 25.0321 24.689C24.5972 24.689 24.1764 25.1098 24.1764 25.5306V27.214H22.8998C22.7595 26.6529 22.6193 26.0918 22.6193 25.5306C22.6193 22.8653 24.4569 20.6208 27.01 19.9194L25.8738 22.725C25.7335 23.0056 25.8738 23.4264 26.014 23.707L27.7114 25.3904C27.992 25.6709 28.5671 25.6709 28.988 25.3904L30.6854 23.707C30.9659 23.4264 30.9659 23.1459 30.8257 22.725L29.6894 19.9194C32.2425 20.4805 34.0802 22.725 34.0802 25.5306C33.7996 25.9515 33.7996 26.6529 33.6593 27.214H33.6874Z" fill="#00C2FF"/>
<path d="M57.7736 21.8838H42.7635C42.3427 21.8838 41.9078 22.3046 41.9078 22.7255C41.9078 23.1463 42.3287 23.5672 42.7635 23.5672H57.7736C58.1944 23.5672 58.6293 23.1463 58.6293 22.7255C58.6293 22.3046 58.2084 21.8838 57.7736 21.8838Z" fill="black"/>
<path d="M57.7736 25.3906H42.7635C42.3427 25.3906 41.9078 25.8115 41.9078 26.2323C41.9078 26.6532 42.3287 27.074 42.7635 27.074H57.7736C58.1944 27.074 58.6293 26.6532 58.6293 26.2323C58.6293 25.8115 58.2084 25.3906 57.7736 25.3906Z" fill="black"/>
<path d="M57.7736 12.2041H42.7635C42.3427 12.2041 41.9078 12.6249 41.9078 13.0458C41.9078 13.4666 42.3287 13.8875 42.7635 13.8875H57.7736C58.1944 13.8875 58.6293 13.4666 58.6293 13.0458C58.6293 12.6249 58.2084 12.2041 57.7736 12.2041Z" fill="black"/>
<path d="M57.7736 15.7109H42.7635C42.3427 15.7109 41.9078 16.1318 41.9078 16.5526C41.9078 16.9735 42.3287 17.3943 42.7635 17.3943H57.7736C58.1944 17.3943 58.6293 16.9735 58.6293 16.5526C58.6293 16.1318 58.2084 15.7109 57.7736 15.7109Z" fill="black"/>
<path d="M57.7736 28.8975H42.7635C42.3427 28.8975 41.9078 29.3183 41.9078 29.7391C41.9078 30.16 42.3287 30.5808 42.7635 30.5808H57.7736C58.1944 30.5808 58.6293 30.16 58.6293 29.7391C58.6293 29.3183 58.2084 28.8975 57.7736 28.8975Z" fill="black"/>
<path d="M57.7736 32.4053H42.7635C42.3427 32.4053 41.9078 32.8261 41.9078 33.247C41.9078 33.6678 42.3287 34.0886 42.7635 34.0886H57.7736C58.1944 34.0886 58.6293 33.6678 58.6293 33.247C58.6293 32.8261 58.2084 32.4053 57.7736 32.4053Z" fill="black"/>
<path d="M57.7736 35.9121H42.7635C42.3427 35.9121 41.9078 36.333 41.9078 36.7538C41.9078 37.1746 42.3287 37.5955 42.7635 37.5955H57.7736C58.1944 37.5955 58.6293 37.1746 58.6293 36.7538C58.6293 36.333 58.2084 35.9121 57.7736 35.9121Z" fill="black"/>
</g>
<defs>
<clipPath id="clip0_48_550">
<rect width="79.483" height="70" fill="white" transform="translate(0.258545)"/>
</clipPath>
</defs>
</svg>
