<svg width="159" height="42" viewBox="0 0 159 42" fill="none" xmlns="http://www.w3.org/2000/svg">
<g clip-path="url(#clip0_4_473)">
<path d="M147.577 8H145.521V20.3794H147.577V8Z" fill="white"/>
<path d="M158.617 8V10.0526H155.16V20.3794H153.105V10.0526H149.664V8H158.617Z" fill="white"/>
<path d="M141.825 29.4492V33.634H123.551V8.36597H127.742V29.4492H141.825Z" fill="white"/>
<path d="M106.839 8C99.6696 8 93.8226 13.8397 93.8226 21C93.8226 28.1603 99.6537 34 106.839 34C114.024 34 119.855 28.1763 119.855 21C119.855 13.8237 114.008 8 106.839 8ZM106.839 29.7993C101.98 29.7993 98.0127 25.8531 98.0127 20.9841C98.0127 16.1151 101.964 12.1689 106.839 12.1689C111.714 12.1689 115.665 16.1151 115.665 20.9841C115.665 25.8531 111.714 29.7993 106.839 29.7993Z" fill="white"/>
<path d="M92.7552 29.4492V33.634H74.4655V19.2656H89.5051V23.4504H78.6715V29.4492H92.7552Z" fill="white"/>
<path d="M15.2627 18.8996H4.19008V8.36597H0V33.634H4.19008V23.1004H15.2627V33.634H19.4528V8.36597H15.2627V18.8996Z" fill="white"/>
<path d="M75.9312 8.36597C70.4666 8.36597 66.0534 12.7895 66.0534 18.2313V25.9963L55.2038 8.36597H50.7907V33.634H54.9808V15.9878L65.8304 33.634H70.2435V18.2313C70.2435 15.0967 72.7926 12.5508 75.9312 12.5508H92.7393V8.36597H75.9312Z" fill="white"/>
<path d="M32.485 8.36597L21.5877 33.634H26.1601L35.1297 12.8213L44.0834 33.634H48.6559L37.7585 8.36597H32.485Z" fill="white"/>
</g>
<defs>
<clipPath id="clip0_4_473">
<rect width="158.617" height="42" fill="white"/>
</clipPath>
</defs>
</svg>
