<svg width="159" height="26" viewBox="0 0 159 26" fill="none" xmlns="http://www.w3.org/2000/svg">
<g id="Logo_w">
<g id="Vector">
<path d="M147.577 0H145.521V12.3794H147.577V0Z" fill="#0C2848"/>
<path d="M158.617 0V2.05263H155.16V12.3794H153.105V2.05263H149.664V0H158.617Z" fill="#0C2848"/>
<path d="M141.825 21.4492V25.634H123.551V0.365973H127.742V21.4492H141.825Z" fill="#0C2848"/>
<path d="M106.839 0C99.6696 0 93.8226 5.83966 93.8226 13C93.8226 20.1603 99.6537 26 106.839 26C114.024 26 119.855 20.1763 119.855 13C119.855 5.82374 114.008 0 106.839 0ZM106.839 21.7993C101.98 21.7993 98.0127 17.8531 98.0127 12.9841C98.0127 8.11506 101.964 4.16891 106.839 4.16891C111.714 4.16891 115.665 8.11506 115.665 12.9841C115.665 17.8531 111.714 21.7993 106.839 21.7993Z" fill="#0C2848"/>
<path d="M92.7552 21.4492V25.634H74.4655V11.2656H89.5051V15.4504H78.6715V21.4492H92.7552Z" fill="#0C2848"/>
<path d="M15.2627 10.8996H4.19008V0.365973H0V25.634H4.19008V15.1004H15.2627V25.634H19.4528V0.365973H15.2627V10.8996Z" fill="#0C2848"/>
<path d="M75.9312 0.365973C70.4666 0.365973 66.0534 4.78947 66.0534 10.2313V17.9963L55.2038 0.365973H50.7907V25.634H54.9808V7.98776L65.8304 25.634H70.2435V10.2313C70.2435 7.09669 72.7926 4.5508 75.9312 4.5508H92.7393V0.365973H75.9312Z" fill="#0C2848"/>
<path d="M32.485 0.365973L21.5877 25.634H26.1601L35.1297 4.8213L44.0834 25.634H48.6559L37.7585 0.365973H32.485Z" fill="#0C2848"/>
</g>
</g>
</svg>
