<svg width="48" height="48" viewBox="0 0 48 48" fill="none" xmlns="http://www.w3.org/2000/svg">
<g clip-path="url(#clip0_1_395)">
<path d="M4.23872 14.1924L14.2019 4.22929C19.6112 -1.18007 28.4006 -1.18714 33.817 4.2293L43.7801 14.1924C49.1895 19.6018 49.1966 28.3911 43.7801 33.8076L33.817 43.7707C28.4076 49.1801 19.6183 49.1871 14.2019 43.7707L4.23872 33.8076C-1.17064 28.3982 -1.17771 19.6089 4.23872 14.1924Z" fill="#E60012"/>
<path d="M18.09 38.6299C17.3 38.6299 16.65 38.0099 16.62 37.2199C16.6 36.8299 16.74 36.4499 17.01 36.1599C17.28 35.8699 17.64 35.6999 18.03 35.6899C18.84 35.6499 19.53 36.2899 19.56 37.0999C19.59 37.9099 18.96 38.5999 18.15 38.6299C18.13 38.6299 18.11 38.6299 18.09 38.6299Z" fill="white"/>
<path d="M23.45 11.4399C22.64 11.4399 21.99 11.6899 21.47 12.2099C20.34 13.3299 19.75 15.6499 19.8 18.7399C19.86 22.5399 20.77 30.0099 23.76 33.8499C24.24 34.4699 24.77 34.9699 25.31 35.3299C25.84 35.6799 26.43 36.0199 27.35 36.0199C27.6 36.0199 27.87 35.9899 28.15 35.9399C29.87 35.5299 32.01 33.6199 33.61 31.0799C33.85 30.6899 34.2701 30.4599 34.73 30.4599C34.98 30.4599 35.2201 30.5299 35.43 30.6599C35.73 30.8499 35.9401 31.1399 36.0201 31.4899C36.1 31.8299 36.04 32.1899 35.85 32.4899C33.83 35.6999 31.16 37.9599 28.71 38.5299C28.71 38.5299 28.68 38.5299 28.65 38.5399C28.2 38.6199 27.76 38.6599 27.34 38.6599C25.76 38.6599 24.65 38.0599 23.85 37.5299C23.07 37.0099 22.33 36.3199 21.67 35.4699C17.46 30.0599 17.17 19.9199 17.15 18.7799C17.1 16.0799 17.49 12.4299 19.6 10.3299C20.63 9.30992 21.92 8.78992 23.43 8.78992H23.68C25.2 8.78992 26.49 9.30992 27.52 10.3299C29.63 12.4199 30.02 16.0799 29.97 18.7799C29.92 21.5899 29.41 27.0399 26.49 31.9199C26.25 32.3199 25.82 32.5599 25.35 32.5599C25.11 32.5599 24.88 32.4999 24.67 32.3699C24.05 31.9999 23.84 31.1799 24.21 30.5599C26.25 27.1399 27.24 23.3899 27.31 18.7299C27.36 15.6399 26.77 13.3299 25.64 12.1999C25.12 11.6799 24.47 11.4299 23.66 11.4299H23.43L23.45 11.4399Z" fill="white"/>
</g>
<defs>
<clipPath id="clip0_1_395">
<rect width="47.62" height="47.62" fill="white" transform="translate(0.189941 0.189941)"/>
</clipPath>
</defs>
</svg>
