<svg width="218" height="48" viewBox="0 0 218 48" fill="none" xmlns="http://www.w3.org/2000/svg">
<g clip-path="url(#clip0_55_1288)">
<path d="M4.11861 14.1924L14.0817 4.22929C19.4911 -1.18007 28.2804 -1.18714 33.6969 4.2293L43.66 14.1924C49.0694 19.6018 49.0765 28.3911 43.66 33.8076L33.6969 43.7707C28.2875 49.1801 19.4982 49.1871 14.0817 43.7707L4.11861 33.8076C-1.29076 28.3982 -1.29783 19.6089 4.11861 14.1924Z" fill="#E60012"/>
<path d="M17.9699 38.6303C17.1799 38.6303 16.5299 38.0103 16.4999 37.2203C16.4799 36.8303 16.6199 36.4503 16.8899 36.1603C17.1599 35.8703 17.5199 35.7003 17.9099 35.6903C18.7199 35.6503 19.4099 36.2903 19.4399 37.1003C19.4699 37.9103 18.8399 38.6003 18.0299 38.6303C18.0099 38.6303 17.9899 38.6303 17.9699 38.6303Z" fill="white"/>
<path d="M23.3299 11.44C22.5199 11.44 21.8699 11.69 21.3499 12.21C20.2199 13.33 19.6299 15.65 19.6799 18.74C19.7399 22.54 20.6499 30.01 23.6399 33.85C24.1199 34.47 24.6499 34.97 25.1899 35.33C25.7199 35.68 26.3099 36.02 27.2299 36.02C27.4799 36.02 27.7499 35.99 28.0299 35.94C29.7499 35.53 31.8899 33.62 33.4899 31.08C33.7299 30.69 34.1499 30.46 34.6099 30.46C34.8599 30.46 35.0999 30.53 35.3099 30.66C35.6099 30.85 35.8199 31.14 35.8999 31.49C35.9799 31.83 35.9199 32.19 35.7299 32.49C33.7099 35.7 31.0399 37.96 28.5899 38.53C28.5899 38.53 28.5599 38.53 28.5299 38.54C28.0799 38.62 27.6399 38.66 27.2199 38.66C25.6399 38.66 24.5299 38.06 23.7299 37.53C22.9499 37.01 22.2099 36.32 21.5499 35.47C17.3399 30.06 17.0499 19.92 17.0299 18.78C16.9799 16.08 17.3699 12.43 19.4799 10.33C20.5099 9.31004 21.7999 8.79004 23.3099 8.79004H23.5599C25.0799 8.79004 26.3699 9.31004 27.3999 10.33C29.5099 12.42 29.8999 16.08 29.8499 18.78C29.7999 21.59 29.2899 27.04 26.3699 31.92C26.1299 32.32 25.6999 32.56 25.2299 32.56C24.9899 32.56 24.7599 32.5 24.5499 32.37C23.9299 32 23.7199 31.18 24.0899 30.56C26.1299 27.14 27.1199 23.39 27.1899 18.73C27.2399 15.64 26.6499 13.33 25.5199 12.2C24.9999 11.68 24.3499 11.43 23.5399 11.43H23.3099L23.3299 11.44Z" fill="white"/>
<path d="M98.7399 13.7305V34.2105H101.8V13.7305H98.7399ZM93.8399 21.1205H90.0099V22.9505H93.8399V27.2605C93.0899 27.5505 92.4199 27.7105 91.4299 27.7105H87.0799C86.6699 27.7105 86.3399 27.3805 86.3399 26.9705V16.7705H91.9299V15.3005H83.1699V27.7105C83.1699 28.5205 83.8299 29.1805 84.6399 29.1805H91.4399C92.4799 29.1805 93.3099 29.0005 93.8499 28.6605V34.2105H96.9099V13.7305H93.8499V21.1205H93.8399Z" fill="#E60012"/>
<path d="M71.1598 24.5405V22.5205H77.8898V21.0505H65.1998C64.7898 21.0505 64.4598 20.7205 64.4598 20.3105V19.0205H77.6198V14.0605H61.2998V15.5305H74.4498V17.5405H61.2998V21.0405C61.2998 21.8505 61.9598 22.5105 62.7698 22.5105H67.9798V24.5305H59.5898V26.0105H79.5998V24.5305H71.1498L71.1598 24.5405ZM71.2498 26.9605H67.6998C66.7598 30.8505 62.1498 32.8105 60.4598 33.0605L61.3398 34.3705C63.0698 34.1605 67.0098 32.7405 69.4698 30.0505C71.9398 32.7405 75.8698 34.1605 77.5998 34.3705L78.4798 33.0605C76.7898 32.8205 72.1698 30.8505 71.2398 26.9605H71.2498Z" fill="#E60012"/>
<path d="M111.96 14.2607C113 14.2607 113.91 14.4407 114.69 14.8107C115.47 15.1807 116.11 15.6707 116.62 16.2907C117.13 16.9107 117.51 17.6407 117.76 18.4807C118.01 19.3207 118.14 20.2107 118.14 21.1407C118.14 22.0707 118.01 22.9507 117.76 23.7707C117.51 24.5907 117.13 25.3207 116.62 25.9507C116.11 26.5807 115.46 27.0707 114.69 27.4407C113.91 27.8107 113 27.9907 111.96 27.9907C110.92 27.9907 109.99 27.8107 109.21 27.4407C108.43 27.0707 107.79 26.5807 107.27 25.9507C106.76 25.3207 106.37 24.6007 106.11 23.7707C105.85 22.9507 105.72 22.0707 105.72 21.1407C105.72 20.2107 105.85 19.3207 106.11 18.4807C106.37 17.6407 106.75 16.9107 107.27 16.2907C107.78 15.6707 108.43 15.1807 109.21 14.8107C109.99 14.4407 110.9 14.2607 111.96 14.2607ZM111.96 26.4707C112.43 26.4707 112.86 26.3307 113.24 26.0507C113.62 25.7707 113.95 25.3907 114.22 24.9107C114.5 24.4307 114.7 23.8607 114.85 23.2207C115 22.5707 115.07 21.8807 115.07 21.1507C115.07 20.4207 115 19.7007 114.85 19.0407C114.7 18.3807 114.5 17.8207 114.22 17.3307C113.95 16.8507 113.62 16.4707 113.24 16.2007C112.86 15.9307 112.43 15.7907 111.96 15.7907C111.49 15.7907 111.03 15.9307 110.64 16.2007C110.25 16.4707 109.92 16.8507 109.64 17.3307C109.37 17.8107 109.15 18.3807 109 19.0407C108.85 19.7007 108.77 20.4007 108.77 21.1507C108.77 21.9007 108.85 22.5707 109 23.2207C109.15 23.8707 109.37 24.4307 109.64 24.9107C109.91 25.3907 110.25 25.7707 110.64 26.0507C111.03 26.3307 111.47 26.4707 111.96 26.4707ZM121.41 13.7607H124.48V34.4407H121.41V13.7607Z" fill="#E60012"/>
<path d="M128.51 30.2704V28.7604H137.14V24.4304H132.54C132.05 24.4304 131.67 24.2904 131.4 24.0104C131.12 23.7304 130.99 23.3604 130.99 22.9004V14.3604H134.04V22.2604C134.04 22.4604 134.07 22.6204 134.13 22.7404C134.19 22.8604 134.35 22.9204 134.61 22.9204H146.49V24.4304H140.33V28.7604H149.26V30.2704H128.51Z" fill="#E60012"/>
<path d="M153.7 28.4807C153.07 28.4807 152.6 28.3107 152.28 27.9807C151.96 27.6407 151.8 27.1907 151.8 26.6307V14.4707H154.85V19.3207H157.9V14.4707H160.95V20.0807H163.15V13.7607H166.13V34.2307H163.15V21.6107H160.95V28.4807H153.71H153.7ZM154.85 26.4207C154.85 26.5907 154.89 26.7207 154.96 26.8107C155.04 26.9007 155.18 26.9507 155.39 26.9507H157.89V20.8607H154.84V26.4207H154.85ZM167.9 13.7607H170.88V34.2307H167.9V13.7607Z" fill="#E60012"/>
<path d="M180.65 14.2607C181.69 14.2607 182.6 14.4407 183.37 14.8107C184.15 15.1807 184.79 15.6707 185.3 16.2907C185.81 16.9107 186.19 17.6407 186.44 18.4807C186.69 19.3207 186.82 20.2107 186.82 21.1407C186.82 22.0707 186.69 22.9507 186.44 23.7707C186.19 24.5907 185.81 25.3207 185.3 25.9507C184.79 26.5807 184.14 27.0707 183.37 27.4407C182.59 27.8107 181.68 27.9907 180.65 27.9907C179.62 27.9907 178.68 27.8107 177.9 27.4407C177.12 27.0707 176.48 26.5807 175.97 25.9507C175.46 25.3207 175.07 24.6007 174.81 23.7707C174.55 22.9507 174.42 22.0707 174.42 21.1407C174.42 20.2107 174.55 19.3207 174.81 18.4807C175.07 17.6407 175.45 16.9107 175.97 16.2907C176.48 15.6707 177.13 15.1807 177.9 14.8107C178.68 14.4407 179.59 14.2607 180.65 14.2607ZM180.65 26.4707C181.12 26.4707 181.55 26.3307 181.93 26.0507C182.31 25.7707 182.64 25.3907 182.91 24.9107C183.18 24.4307 183.39 23.8607 183.54 23.2207C183.69 22.5707 183.76 21.8807 183.76 21.1507C183.76 20.4207 183.69 19.7007 183.54 19.0407C183.4 18.3807 183.19 17.8207 182.91 17.3307C182.64 16.8507 182.31 16.4707 181.93 16.2007C181.55 15.9307 181.12 15.7907 180.65 15.7907C180.18 15.7907 179.72 15.9307 179.33 16.2007C178.94 16.4707 178.61 16.8507 178.33 17.3307C178.06 17.8107 177.84 18.3807 177.69 19.0407C177.54 19.7007 177.46 20.4007 177.46 21.1507C177.46 21.9007 177.54 22.5707 177.69 23.2207C177.84 23.8707 178.06 24.4307 178.33 24.9107C178.6 25.3907 178.94 25.7707 179.33 26.0507C179.72 26.3307 180.16 26.4707 180.65 26.4707ZM190.11 13.7607H193.18V34.4407H190.11V13.7607Z" fill="#E60012"/>
<path d="M217.93 28.9909V30.4809H197.21V28.9909H217.93ZM215.11 14.3809V15.8709H202.68V19.0809H215.11V20.5709H202.68V23.1309C202.68 23.3609 202.74 23.5409 202.86 23.6809C202.98 23.8209 203.17 23.8909 203.43 23.8909H215.45V25.3609H201.18C200.69 25.3609 200.32 25.2209 200.06 24.9509C199.8 24.6809 199.67 24.3309 199.67 23.9209V14.3909H215.1L215.11 14.3809Z" fill="#E60012"/>
</g>
<defs>
<clipPath id="clip0_55_1288">
<rect width="217.86" height="47.62" fill="white" transform="translate(0.0698242 0.19043)"/>
</clipPath>
</defs>
</svg>
