<svg width="20" height="23" viewBox="0 0 20 23" fill="none" xmlns="http://www.w3.org/2000/svg">
<path d="M17.7778 2.61089H13.1333C12.6667 1.32201 11.4444 0.388672 10 0.388672C8.55556 0.388672 7.33333 1.32201 6.86667 2.61089H2.22222C1 2.61089 0 3.61089 0 4.83312V20.3887C0 21.6109 1 22.6109 2.22222 22.6109H17.7778C19 22.6109 20 21.6109 20 20.3887V4.83312C20 3.61089 19 2.61089 17.7778 2.61089ZM10 2.61089C10.6111 2.61089 11.1111 3.11089 11.1111 3.722C11.1111 4.33312 10.6111 4.83312 10 4.83312C9.38889 4.83312 8.88889 4.33312 8.88889 3.722C8.88889 3.11089 9.38889 2.61089 10 2.61089ZM10 7.05534C11.8444 7.05534 13.3333 8.54423 13.3333 10.3887C13.3333 12.2331 11.8444 13.722 10 13.722C8.15556 13.722 6.66667 12.2331 6.66667 10.3887C6.66667 8.54423 8.15556 7.05534 10 7.05534ZM16.6667 20.3887H3.33333V18.8331C3.33333 16.6109 7.77778 15.3887 10 15.3887C12.2222 15.3887 16.6667 16.6109 16.6667 18.8331V20.3887Z" fill="#ACACAC"/>
</svg>
