<svg width="44" height="44" viewBox="0 0 44 44" fill="none" xmlns="http://www.w3.org/2000/svg">
<path d="M14.8267 20.3867C16.7467 24.16 19.84 27.24 23.6133 29.1733L26.5467 26.24C26.9067 25.88 27.44 25.76 27.9067 25.92C29.4 26.4133 31.0133 26.68 32.6667 26.68C33.4 26.68 34 27.28 34 28.0133V32.6667C34 33.4 33.4 34 32.6667 34C20.1467 34 10 23.8533 10 11.3333C10 10.6 10.6 10 11.3333 10H16C16.7333 10 17.3333 10.6 17.3333 11.3333C17.3333 13 17.6 14.6 18.0933 16.0933C18.24 16.56 18.1333 17.08 17.76 17.4533L14.8267 20.3867Z" fill="#ACACAC"/>
</svg>
