<svg width="100" height="100" viewBox="0 0 100 100" fill="none" xmlns="http://www.w3.org/2000/svg">
<path d="M70.1412 7.88653V92.1138H11.5474V20.7023L20.7023 17.4666L24.3649 7.88477H70.1412V7.88653Z" fill="white"/>
<path d="M88.4511 50V84.7901L82.9588 92.1136L77.4648 84.7901V50H88.4511Z" fill="white"/>
<path d="M88.4511 40.8452H77.4648V50.0001H88.4511V40.8452Z" fill="#89CCFF"/>
<path d="M88.4511 33.5199V40.8435H77.4648V33.5199C77.4648 30.4853 79.9243 28.0259 82.9571 28.0259C84.4726 28.0259 85.847 28.6416 86.8403 29.6349C87.8336 30.6282 88.4493 32.0026 88.4493 33.5181L88.4511 33.5199Z" fill="white"/>
<path d="M59.1551 62.8174V84.7899H51.8315V73.8036V62.8174H59.1551Z" fill="white"/>
<path d="M51.8297 73.8037H44.5061V84.7899H51.8297V73.8037Z" fill="#89CCFF"/>
<path d="M44.5062 73.8038V84.79H37.1826V70.1411H44.5062V73.8038Z" fill="white"/>
<path d="M24.3649 7.88623V20.702H11.5474L24.3649 7.88623Z" fill="#89CCFF"/>
<path d="M37.1827 86.6211C36.1717 86.6211 35.3513 85.8007 35.3513 84.7898V70.1409C35.3513 69.13 36.1717 68.3096 37.1827 68.3096H44.5062C45.5172 68.3096 46.3376 69.13 46.3376 70.1409V73.8036C46.3376 74.8145 45.5172 75.6349 44.5062 75.6349C43.4953 75.6349 42.6749 74.8145 42.6749 73.8036V71.9722H39.0122V84.7898C39.0122 85.8007 38.1936 86.6211 37.1809 86.6211H37.1827Z" fill="#2169AC"/>
<path d="M44.5061 86.6216C43.4952 86.6216 42.6748 85.8012 42.6748 84.7902V73.804C42.6748 72.7931 43.4952 71.9727 44.5061 71.9727H51.8297C52.8406 71.9727 53.661 72.7931 53.661 73.804C53.661 74.8149 52.8406 75.6353 51.8297 75.6353H46.3375V84.7902C46.3375 85.8012 45.5171 86.6216 44.5061 86.6216Z" fill="#2169AC"/>
<path d="M59.155 86.6215C58.144 86.6215 57.3236 85.8011 57.3236 84.7901V64.649H53.661V84.7901C53.661 85.8011 52.8406 86.6215 51.8296 86.6215C50.8187 86.6215 49.9983 85.8011 49.9983 84.7901V62.8177C49.9983 61.8067 50.8187 60.9863 51.8296 60.9863H59.1532C60.1641 60.9863 60.9845 61.8067 60.9845 62.8177V84.7901C60.9845 85.8011 60.1641 86.6215 59.1532 86.6215H59.155Z" fill="#2169AC"/>
<path d="M62.8176 86.6212H33.5215C32.5106 86.6212 31.6902 85.8008 31.6902 84.7898C31.6902 83.7789 32.5106 82.9585 33.5215 82.9585H62.8176C63.8285 82.9585 64.6489 83.7789 64.6489 84.7898C64.6489 85.8008 63.8285 86.6212 62.8176 86.6212Z" fill="#2169AC"/>
<path d="M70.1413 93.9449H11.5474C10.5365 93.9449 9.71606 93.1245 9.71606 92.1136V20.7021C9.71606 20.2169 9.90837 19.7512 10.2524 19.4071L23.07 6.58957C23.414 6.24553 23.8798 6.05322 24.365 6.05322H70.1413C71.1522 6.05322 71.9726 6.87362 71.9726 7.88456V92.1118C71.9726 93.1227 71.1522 93.9431 70.1413 93.9431V93.9449ZM13.3787 90.2822H68.3099V9.71589H25.1236L13.3787 21.4608V90.2822Z" fill="#2169AC"/>
<path d="M24.365 22.5335H11.5474C10.5365 22.5335 9.71606 21.7131 9.71606 20.7021C9.71606 19.6912 10.5365 18.8708 11.5474 18.8708H22.5336V7.88456C22.5336 6.87362 23.354 6.05322 24.365 6.05322C25.3759 6.05322 26.1963 6.87362 26.1963 7.88456V20.7021C26.1963 21.7131 25.3759 22.5335 24.365 22.5335Z" fill="#2169AC"/>
<path d="M82.9589 93.9451C82.382 93.9451 81.8403 93.6734 81.4945 93.2129L76.0005 85.8893C75.7623 85.5717 75.6335 85.1871 75.6335 84.7901V33.5199C75.6335 29.4814 78.9187 26.1963 82.9571 26.1963C86.9956 26.1963 90.2807 29.4726 90.2807 33.5199V84.7884C90.2807 85.1853 90.1519 85.57 89.9137 85.8875L84.4197 93.2111C84.0739 93.6716 83.5305 93.9433 82.9554 93.9433L82.9589 93.9451ZM79.2962 84.1797L82.9589 89.0633L86.6215 84.1797V33.5199C86.6215 32.5424 86.2405 31.6232 85.5489 30.9316C84.8573 30.24 83.9381 29.859 82.9606 29.859C80.9405 29.859 79.298 31.5015 79.298 33.5216V84.1797H79.2962Z" fill="#2169AC"/>
<path d="M88.4511 42.6744H77.4649C76.4539 42.6744 75.6335 41.854 75.6335 40.8431C75.6335 39.8321 76.4539 39.0117 77.4649 39.0117H88.4511C89.4621 39.0117 90.2825 39.8321 90.2825 40.8431C90.2825 41.854 89.4621 42.6744 88.4511 42.6744Z" fill="#2169AC"/>
<path d="M88.4511 51.8311H77.4649C76.4539 51.8311 75.6335 51.0107 75.6335 49.9998C75.6335 48.9889 76.4539 48.1685 77.4649 48.1685H88.4511C89.4621 48.1685 90.2825 48.9889 90.2825 49.9998C90.2825 51.0107 89.4621 51.8311 88.4511 51.8311Z" fill="#2169AC"/>
<path d="M28.0277 71.9722H20.7041C19.6932 71.9722 18.8728 71.1518 18.8728 70.1409C18.8728 69.13 19.6932 68.3096 20.7041 68.3096H28.0277C29.0386 68.3096 29.859 69.13 29.859 70.1409C29.859 71.1518 29.0404 71.9722 28.0277 71.9722Z" fill="#2169AC"/>
<path d="M28.0277 64.649H20.7041C19.6932 64.649 18.8728 63.8286 18.8728 62.8177C18.8728 61.8067 19.6932 60.9863 20.7041 60.9863H28.0277C29.0386 60.9863 29.859 61.8067 29.859 62.8177C29.859 63.8286 29.0404 64.649 28.0277 64.649Z" fill="#2169AC"/>
<path d="M60.9862 50.0001H20.7022C19.6912 50.0001 18.8708 49.1797 18.8708 48.1687C18.8708 47.1578 19.6912 46.3374 20.7022 46.3374H60.9845C61.9954 46.3374 62.8158 47.156 62.8158 48.1687C62.8158 49.1814 61.9954 50.0001 60.9845 50.0001H60.9862Z" fill="#2169AC"/>
<path d="M60.9862 42.6744H20.7022C19.6912 42.6744 18.8708 41.854 18.8708 40.8431C18.8708 39.8321 19.6912 39.0117 20.7022 39.0117H60.9845C61.9954 39.0117 62.8158 39.8321 62.8158 40.8431C62.8158 41.854 61.9954 42.6744 60.9845 42.6744H60.9862Z" fill="#2169AC"/>
<path d="M60.9862 35.3511H20.7022C19.6912 35.3511 18.8708 34.5325 18.8708 33.5198C18.8708 32.5071 19.6912 31.6885 20.7022 31.6885H60.9845C61.9954 31.6885 62.8158 32.5089 62.8158 33.5198C62.8158 34.5307 61.9954 35.3511 60.9845 35.3511H60.9862Z" fill="#2169AC"/>
<path d="M60.9862 57.3233H20.7022C19.6912 57.3233 18.8708 56.5029 18.8708 55.492C18.8708 54.481 19.6912 53.6606 20.7022 53.6606H60.9845C61.9954 53.6606 62.8158 54.481 62.8158 55.492C62.8158 56.5029 61.9954 57.3233 60.9845 57.3233H60.9862Z" fill="#2169AC"/>
</svg>
