<svg width="100" height="100" viewBox="0 0 100 100" fill="none" xmlns="http://www.w3.org/2000/svg">
<path d="M88.4528 76.8013H62.8176V92.1135H88.4528V76.8013Z" fill="white"/>
<path d="M88.4528 53.8284H62.8176V69.1424H88.4528V53.8284Z" fill="#89CCFF"/>
<path d="M88.4528 30.8574H62.8176V46.1697H88.4528V30.8574Z" fill="white"/>
<path d="M88.4528 7.88623H62.8176V23.2003H88.4528V7.88623Z" fill="#89CCFF"/>
<path d="M50.0001 7.88623C52.0219 7.88623 53.6627 9.52526 53.6627 11.5489C53.6627 13.5725 52.0237 15.2116 50.0001 15.2116C47.9764 15.2116 46.3374 13.5725 46.3374 11.5489C46.3374 9.52526 47.9764 7.88623 50.0001 7.88623Z" fill="white"/>
<path d="M50.0001 33.5198C52.0219 33.5198 53.6627 35.1588 53.6627 37.1824C53.6627 39.2061 52.0237 40.8451 50.0001 40.8451C47.9764 40.8451 46.3374 39.2061 46.3374 37.1824C46.3374 35.1588 47.9764 33.5198 50.0001 33.5198Z" fill="white"/>
<path d="M50.0001 59.1548C52.0219 59.1548 53.6627 60.7938 53.6627 62.8174C53.6627 64.8411 52.0237 66.4801 50.0001 66.4801C47.9764 66.4801 46.3374 64.8411 46.3374 62.8174C46.3374 60.7938 47.9764 59.1548 50.0001 59.1548Z" fill="white"/>
<path d="M50.0001 84.79C52.0219 84.79 53.6627 86.4291 53.6627 88.4527C53.6627 90.4763 52.0237 92.1154 50.0001 92.1154C47.9764 92.1154 46.3374 90.4763 46.3374 88.4527C46.3374 86.4291 47.9764 84.79 50.0001 84.79Z" fill="white"/>
<path d="M36.5555 60.3588C42.2762 54.6381 42.2762 45.3629 36.5555 39.6421C30.8347 33.9214 21.5596 33.9214 15.8388 39.6421C10.1181 45.3629 10.1181 54.6381 15.8388 60.3588C21.5596 66.0796 30.8347 66.0796 36.5555 60.3588Z" fill="#89CCFF"/>
<path d="M26.1963 66.4784C17.1102 66.4784 9.71606 59.0861 9.71606 50C9.71606 40.9139 17.1084 33.5215 26.1963 33.5215C35.2842 33.5215 42.6748 40.9139 42.6748 50C42.6748 59.0861 35.2824 66.4784 26.1963 66.4784ZM26.1963 37.1824C19.1286 37.1824 13.3787 42.9322 13.3787 50C13.3787 57.0677 19.1286 62.8175 26.1963 62.8175C33.2641 62.8175 39.0139 57.0677 39.0139 50C39.0139 42.9322 33.2641 37.1824 26.1963 37.1824Z" fill="#2169AC"/>
<path d="M26.1962 51.8313H20.7022C19.6912 51.8313 18.8708 51.0109 18.8708 49.9999C18.8708 48.989 19.6912 48.1686 20.7022 48.1686H25.4375L30.3952 43.211C31.1097 42.4964 32.2689 42.4964 32.9852 43.211C33.7015 43.9255 33.6997 45.0846 32.9852 45.8009L27.4929 51.2949C27.1489 51.6372 26.6831 51.8313 26.198 51.8313H26.1962Z" fill="#2169AC"/>
<path d="M50.0001 17.0412C46.9708 17.0412 44.5061 14.5765 44.5061 11.5472C44.5061 8.51794 46.9708 6.05322 50.0001 6.05322C53.0294 6.05322 55.4941 8.51794 55.4941 11.5472C55.4941 14.5765 53.0294 17.0412 50.0001 17.0412ZM50.0001 9.71589C48.9909 9.71589 48.1688 10.538 48.1688 11.5472C48.1688 12.5564 48.9892 13.3786 50.0001 13.3786C51.011 13.3786 51.8314 12.5564 51.8314 11.5472C51.8314 10.538 51.011 9.71589 50.0001 9.71589Z" fill="#2169AC"/>
<path d="M50.0001 42.6747C46.9708 42.6747 44.5061 40.21 44.5061 37.1825C44.5061 34.155 46.9708 31.6885 50.0001 31.6885C53.0294 31.6885 55.4941 34.1532 55.4941 37.1825C55.4941 40.2118 53.0294 42.6747 50.0001 42.6747ZM50.0001 35.3511C48.9909 35.3511 48.1688 36.1715 48.1688 37.1825C48.1688 38.1934 48.9892 39.0138 50.0001 39.0138C51.011 39.0138 51.8314 38.1934 51.8314 37.1825C51.8314 36.1715 51.011 35.3511 50.0001 35.3511Z" fill="#2169AC"/>
<path d="M50.0001 68.3097C46.9708 68.3097 44.5061 65.845 44.5061 62.8157C44.5061 59.7864 46.9708 57.3235 50.0001 57.3235C53.0294 57.3235 55.4941 59.7882 55.4941 62.8157C55.4941 65.8432 53.0294 68.3097 50.0001 68.3097ZM50.0001 60.9862C48.9909 60.9862 48.1688 61.8083 48.1688 62.8175C48.1688 63.8267 48.9892 64.6488 50.0001 64.6488C51.011 64.6488 51.8314 63.8267 51.8314 62.8175C51.8314 61.8083 51.011 60.9862 50.0001 60.9862Z" fill="#2169AC"/>
<path d="M50.0001 93.945C46.9708 93.945 44.5061 91.4803 44.5061 88.4527C44.5061 85.4252 46.9708 82.9587 50.0001 82.9587C53.0294 82.9587 55.4941 85.4235 55.4941 88.4527C55.4941 91.482 53.0294 93.945 50.0001 93.945ZM50.0001 86.6214C48.9909 86.6214 48.1688 87.4436 48.1688 88.4527C48.1688 89.4619 48.9892 90.2841 50.0001 90.2841C51.011 90.2841 51.8314 89.4619 51.8314 88.4527C51.8314 87.4436 51.011 86.6214 50.0001 86.6214Z" fill="#2169AC"/>
<path d="M50 86.6214C48.9891 86.6214 48.1687 85.801 48.1687 84.7901V66.4803C48.1687 65.4693 48.9891 64.6489 50 64.6489C51.011 64.6489 51.8314 65.4693 51.8314 66.4803V84.7901C51.8314 85.801 51.011 86.6214 50 86.6214Z" fill="#2169AC"/>
<path d="M50 60.9862C48.9891 60.9862 48.1687 60.1658 48.1687 59.1548V40.845C48.1687 39.8341 48.9891 39.0137 50 39.0137C51.011 39.0137 51.8314 39.8341 51.8314 40.845V59.1548C51.8314 60.1658 51.011 60.9862 50 60.9862Z" fill="#2169AC"/>
<path d="M50 35.3511C48.9891 35.3511 48.1687 34.5307 48.1687 33.5198V15.21C48.1687 14.1991 48.9891 13.3787 50 13.3787C51.011 13.3787 51.8314 14.1991 51.8314 15.21V33.5198C51.8314 34.5307 51.011 35.3511 50 35.3511Z" fill="#2169AC"/>
<path d="M88.4511 25.0316H62.816C61.805 25.0316 60.9846 24.213 60.9846 23.2003V7.88627C60.9846 6.87533 61.805 6.05493 62.816 6.05493H88.4511C89.462 6.05493 90.2824 6.87533 90.2824 7.88627V23.2003C90.2824 24.2112 89.462 25.0316 88.4511 25.0316ZM64.6473 21.369H86.6198V9.71584H64.6473V21.369Z" fill="#2169AC"/>
<path d="M81.1274 17.3746H70.1411C69.1302 17.3746 68.3098 16.5542 68.3098 15.5432C68.3098 14.5323 69.1302 13.7119 70.1411 13.7119H81.1274C82.1383 13.7119 82.9587 14.5323 82.9587 15.5432C82.9587 16.5542 82.1401 17.3746 81.1274 17.3746Z" fill="#2169AC"/>
<path d="M88.4511 48.0028H62.816C61.805 48.0028 60.9846 47.1824 60.9846 46.1714V30.8592C60.9846 29.8482 61.805 29.0278 62.816 29.0278H88.4511C89.462 29.0278 90.2824 29.8482 90.2824 30.8592V46.1714C90.2824 47.1824 89.462 48.0028 88.4511 48.0028ZM64.6473 44.3401H86.6198V32.6887H64.6473V44.3401Z" fill="#2169AC"/>
<path d="M81.1274 40.3441H70.1411C69.1302 40.3441 68.3098 39.5237 68.3098 38.5127C68.3098 37.5018 69.1302 36.6814 70.1411 36.6814H81.1274C82.1383 36.6814 82.9587 37.5018 82.9587 38.5127C82.9587 39.5237 82.1401 40.3441 81.1274 40.3441Z" fill="#2169AC"/>
<path d="M88.4511 70.9738H62.816C61.805 70.9738 60.9846 70.1534 60.9846 69.1424V53.8284C60.9846 52.8175 61.805 51.9971 62.816 51.9971H88.4511C89.462 51.9971 90.2824 52.8175 90.2824 53.8284V69.1424C90.2824 70.1534 89.462 70.9738 88.4511 70.9738ZM64.6473 67.3111H86.6198V55.658H64.6473V67.3111Z" fill="#2169AC"/>
<path d="M81.1274 63.3167H70.1411C69.1302 63.3167 68.3098 62.4963 68.3098 61.4854C68.3098 60.4744 69.1302 59.6541 70.1411 59.6541H81.1274C82.1383 59.6541 82.9587 60.4744 82.9587 61.4854C82.9587 62.4963 82.1401 63.3167 81.1274 63.3167Z" fill="#2169AC"/>
<path d="M88.4511 93.9449H62.816C61.805 93.9449 60.9846 93.1245 60.9846 92.1136V76.8013C60.9846 75.7904 61.805 74.97 62.816 74.97H88.4511C89.462 74.97 90.2824 75.7904 90.2824 76.8013V92.1136C90.2824 93.1245 89.462 93.9449 88.4511 93.9449ZM64.6473 90.2823H86.6198V78.6309H64.6473V90.2823Z" fill="#2169AC"/>
<path d="M81.1274 86.2879H70.1411C69.1302 86.2879 68.3098 85.4675 68.3098 84.4566C68.3098 83.4456 69.1302 82.6252 70.1411 82.6252H81.1274C82.1383 82.6252 82.9587 83.4456 82.9587 84.4566C82.9587 85.4675 82.1401 86.2879 81.1274 86.2879Z" fill="#2169AC"/>
<path d="M26.1963 37.1824C25.1854 37.1824 24.365 36.362 24.365 35.3511V24.2731C24.365 20.2858 27.6095 17.0413 31.5986 17.0413H37.1843C38.1953 17.0413 39.0157 17.8617 39.0157 18.8726C39.0157 19.8835 38.197 20.7039 37.1843 20.7039H31.5986C29.6296 20.7039 28.0277 22.3059 28.0277 24.2749V35.3528C28.0277 36.3638 27.2073 37.1842 26.1963 37.1842V37.1824Z" fill="#2169AC"/>
<path d="M37.1824 82.9588H31.5966C27.6093 82.9588 24.363 79.7142 24.363 75.7269V64.649C24.363 63.638 25.1834 62.8176 26.1944 62.8176C27.2053 62.8176 28.0257 63.638 28.0257 64.649V75.7269C28.0257 77.6959 29.6277 79.2979 31.5966 79.2979H37.1824C38.1933 79.2979 39.0137 80.1183 39.0137 81.1292C39.0137 82.1401 38.1951 82.9605 37.1824 82.9605V82.9588Z" fill="#2169AC"/>
</svg>
