<svg width="100" height="100" viewBox="0 0 100 100" fill="none" xmlns="http://www.w3.org/2000/svg">
<path d="M92.1135 68.3097H7.88623V26.1961C7.88623 22.1506 11.166 18.8726 15.2098 18.8726H84.7899C88.8337 18.8726 92.1135 22.1524 92.1135 26.1961V68.3097Z" fill="white"/>
<path d="M31.6902 15.21V28.0275H20.7021V18.8726V15.21H31.6902Z" fill="white"/>
<path d="M44.5058 35.3509L31.6882 28.0274V15.2098L44.5058 7.88623V35.3509Z" fill="#89CCFF"/>
<path d="M51.8313 41.7607C51.8313 38.2216 54.7 35.3511 58.241 35.3511C60.0105 35.3511 61.6143 36.0691 62.7734 37.2283C63.9326 38.3874 64.6506 39.9912 64.6506 41.7607V46.3391H51.8331V41.7607H51.8313Z" fill="#89CCFF"/>
<path d="M78.3804 35.3511C81.9213 35.3511 84.7883 38.2216 84.7883 41.7607V46.3391H71.9707V41.7607C71.9707 38.2216 74.8394 35.3511 78.3786 35.3511H78.3804Z" fill="#89CCFF"/>
<path d="M78.3803 26.1963C80.9086 26.1963 82.9587 28.2464 82.9587 30.7746C82.9587 33.3029 80.9086 35.353 78.3803 35.353C75.8521 35.353 73.802 33.3029 73.802 30.7746C73.802 28.2464 75.8521 26.1963 78.3803 26.1963Z" fill="white"/>
<path d="M58.2392 26.1963C60.7675 26.1963 62.8176 28.2464 62.8176 30.7746C62.8176 33.3029 60.7675 35.353 58.2392 35.353C55.711 35.353 53.6609 33.3029 53.6609 30.7746C53.6609 28.2464 55.711 26.1963 58.2392 26.1963Z" fill="white"/>
<path d="M67.3941 92.1135H32.604C39.6823 92.1135 45.4216 86.376 45.4216 79.2959H54.5765C54.5765 86.3742 60.3157 92.1135 67.3941 92.1135Z" fill="#89CCFF"/>
<path d="M92.1135 68.3101V71.9727C92.1135 76.0165 88.8337 79.2963 84.7899 79.2963H15.2098C11.166 79.2963 7.88623 76.0165 7.88623 71.9727V68.3101H92.1135Z" fill="#89CCFF"/>
<path d="M84.7899 81.1274H15.2098C10.1622 81.1274 6.05493 77.0201 6.05493 71.9725V26.1962C6.05493 21.1486 10.1622 17.0413 15.2098 17.0413H20.7038C21.7148 17.0413 22.5352 17.8617 22.5352 18.8726C22.5352 19.8836 21.7148 20.704 20.7038 20.704H15.2098C12.1805 20.704 9.7176 23.1687 9.7176 26.198V71.9743C9.7176 75.0036 12.1823 77.4665 15.2098 77.4665H84.7899C87.8192 77.4665 90.2822 75.0018 90.2822 71.9743V26.1962C90.2822 23.1669 87.8175 20.7022 84.7899 20.7022H44.5077C43.4967 20.7022 42.6763 19.8818 42.6763 18.8709C42.6763 17.8599 43.4967 17.0396 44.5077 17.0396H84.7899C89.8376 17.0396 93.9448 21.1468 93.9448 26.1945V71.9707C93.9448 77.0184 89.8376 81.1256 84.7899 81.1256V81.1274Z" fill="#2169AC"/>
<path d="M32.6057 93.9451C31.5948 93.9451 30.7744 93.1247 30.7744 92.1137C30.7744 91.1028 31.5948 90.2824 32.6057 90.2824C38.6626 90.2824 43.592 85.353 43.592 79.2962C43.592 78.2852 44.4124 77.4648 45.4233 77.4648C46.4343 77.4648 47.2547 78.2852 47.2547 79.2962C47.2547 87.3731 40.6827 93.9451 32.6057 93.9451Z" fill="#2169AC"/>
<path d="M67.3941 93.9451H32.604C31.5931 93.9451 30.7727 93.1247 30.7727 92.1137C30.7727 91.1028 31.5931 90.2824 32.604 90.2824H57.7028C54.6083 87.5478 52.7452 83.6275 52.7452 79.2962C52.7452 78.2852 53.5656 77.4648 54.5765 77.4648C55.5875 77.4648 56.4079 78.2852 56.4079 79.2962C56.4079 85.3424 61.2985 90.2824 67.3941 90.2824C68.405 90.2824 69.2254 91.1028 69.2254 92.1137C69.2254 93.1247 68.405 93.9451 67.3941 93.9451Z" fill="#2169AC"/>
<path d="M92.1135 70.1412H7.88627C6.87533 70.1412 6.05493 69.3208 6.05493 68.3099C6.05493 67.2989 6.87533 66.4785 7.88627 66.4785H92.1135C93.1244 66.4785 93.9448 67.2989 93.9448 68.3099C93.9448 69.3208 93.1244 70.1412 92.1135 70.1412Z" fill="#2169AC"/>
<path d="M31.6901 29.8587H20.7039C19.693 29.8587 18.8726 29.04 18.8726 28.0273V15.2098C18.8726 14.1988 19.693 13.3784 20.7039 13.3784H31.6901C32.7011 13.3784 33.5215 14.1988 33.5215 15.2098C33.5215 16.2207 32.7011 17.0411 31.6901 17.0411H22.5352V26.196H31.6901C32.7011 26.196 33.5215 27.0146 33.5215 28.0273C33.5215 29.04 32.7011 29.8587 31.6901 29.8587Z" fill="#2169AC"/>
<path d="M44.5058 37.1824C44.1918 37.1824 43.8795 37.1013 43.5972 36.9407L30.7797 29.6172C30.2098 29.2908 29.8569 28.6839 29.8569 28.0275V15.21C29.8569 14.5536 30.2098 13.9467 30.7797 13.6203L43.5972 6.29677C44.1636 5.9739 44.8605 5.97567 45.425 6.30383C45.9896 6.63198 46.3372 7.23537 46.3372 7.88816V35.3529C46.3372 36.0057 45.9896 36.609 45.425 36.9372C45.141 37.1013 44.8234 37.1842 44.5058 37.1842V37.1824ZM33.5196 26.9654L42.6745 32.1966V11.0409L33.5196 16.2721V26.9637V26.9654Z" fill="#2169AC"/>
<path d="M64.6489 48.1689H51.8313C50.8204 48.1689 50 47.3485 50 46.3376V41.7593C50 37.2162 53.6962 33.52 58.2392 33.52C60.4411 33.52 62.5106 34.3775 64.0667 35.9336C65.6228 37.4897 66.4802 39.5592 66.4802 41.7593V46.3376C66.4802 47.3485 65.6598 48.1689 64.6489 48.1689ZM53.6609 44.5063H62.8158V41.7593C62.8158 40.5366 62.3395 39.3863 61.4749 38.5218C60.6104 37.6573 59.4601 37.1809 58.2375 37.1809C55.7128 37.1809 53.6591 39.2346 53.6591 41.7593V44.5063H53.6609Z" fill="#2169AC"/>
<path d="M58.239 37.1823C54.7051 37.1823 51.8293 34.3065 51.8293 30.7726C51.8293 27.2388 54.7051 24.3647 58.239 24.3647C61.7729 24.3647 64.6469 27.2405 64.6469 30.7726C64.6469 34.3048 61.7729 37.1823 58.239 37.1823ZM58.239 28.0274C56.7253 28.0274 55.492 29.2589 55.492 30.7744C55.492 32.2899 56.7235 33.5214 58.239 33.5214C59.7545 33.5214 60.986 32.2899 60.986 30.7744C60.986 29.2589 59.7545 28.0274 58.239 28.0274Z" fill="#2169AC"/>
<path d="M84.79 48.1689H71.9724C70.9615 48.1689 70.1411 47.3485 70.1411 46.3376V41.7593C70.1411 37.2162 73.8373 33.52 78.3804 33.52C80.5822 33.52 82.6517 34.3775 84.2078 35.9336C85.7639 37.4897 86.6214 39.5592 86.6214 41.7593V46.3376C86.6214 47.3485 85.801 48.1689 84.79 48.1689ZM73.8038 44.5063H82.9587V41.7593C82.9587 40.5366 82.4823 39.3863 81.6178 38.5218C80.7533 37.6573 79.603 37.1809 78.3804 37.1809C75.8557 37.1809 73.802 39.2346 73.802 41.7593V44.5063H73.8038Z" fill="#2169AC"/>
<path d="M78.3803 37.1823C74.8464 37.1823 71.9724 34.3065 71.9724 30.7726C71.9724 27.2388 74.8464 24.3647 78.3803 24.3647C81.9142 24.3647 84.7882 27.2388 84.7882 30.7726C84.7882 34.3065 81.9124 37.1823 78.3803 37.1823ZM78.3803 28.0274C76.8666 28.0274 75.6333 29.2589 75.6333 30.7744C75.6333 32.2899 76.8648 33.5214 78.3803 33.5214C79.8958 33.5214 81.1273 32.2899 81.1273 30.7744C81.1273 29.2589 79.8958 28.0274 78.3803 28.0274Z" fill="#2169AC"/>
<path d="M92.1134 55.4923H51.8294C50.8184 55.4923 49.998 54.6719 49.998 53.6609C49.998 52.65 50.8184 51.8296 51.8294 51.8296H92.1134C93.1244 51.8296 93.9448 52.65 93.9448 53.6609C93.9448 54.6719 93.1244 55.4923 92.1134 55.4923Z" fill="#2169AC"/>
<path d="M17.0411 44.5059H15.2098C14.1988 44.5059 13.3784 43.6855 13.3784 42.6746C13.3784 41.6637 14.1988 40.8433 15.2098 40.8433H17.0411C18.052 40.8433 18.8724 41.6619 18.8724 42.6746C18.8724 43.6873 18.052 44.5059 17.0411 44.5059Z" fill="#2169AC"/>
<path d="M40.845 44.5059H24.3648C23.3538 44.5059 22.5334 43.6855 22.5334 42.6746C22.5334 41.6637 23.3521 40.8433 24.3648 40.8433H40.845C41.856 40.8433 42.6764 41.6619 42.6764 42.6746C42.6764 43.6873 41.856 44.5059 40.845 44.5059Z" fill="#2169AC"/>
<path d="M17.0411 51.8311H15.2098C14.1988 51.8311 13.3784 51.0107 13.3784 49.9998C13.3784 48.9889 14.1988 48.1685 15.2098 48.1685H17.0411C18.052 48.1685 18.8724 48.9889 18.8724 49.9998C18.8724 51.0107 18.052 51.8311 17.0411 51.8311Z" fill="#2169AC"/>
<path d="M40.845 51.8311H24.3648C23.3538 51.8311 22.5334 51.0107 22.5334 49.9998C22.5334 48.9889 23.3521 48.1685 24.3648 48.1685H40.845C41.856 48.1685 42.6764 48.9889 42.6764 49.9998C42.6764 51.0107 41.856 51.8311 40.845 51.8311Z" fill="#2169AC"/>
<path d="M17.0411 59.1549H15.2098C14.1988 59.1549 13.3784 58.3345 13.3784 57.3235C13.3784 56.3126 14.1988 55.4922 15.2098 55.4922H17.0411C18.052 55.4922 18.8724 56.3126 18.8724 57.3235C18.8724 58.3345 18.052 59.1549 17.0411 59.1549Z" fill="#2169AC"/>
<path d="M40.845 59.1549H24.3648C23.3538 59.1549 22.5334 58.3345 22.5334 57.3235C22.5334 56.3126 23.3521 55.4922 24.3648 55.4922H40.845C41.856 55.4922 42.6764 56.3126 42.6764 57.3235C42.6764 58.3345 41.856 59.1549 40.845 59.1549Z" fill="#2169AC"/>
</svg>
