<svg width="100" height="100" viewBox="0 0 100 100" fill="none" xmlns="http://www.w3.org/2000/svg">
<path d="M92.1505 20.4041V85.2347C92.1505 89.0526 89.0524 92.1507 85.2344 92.1507H14.7651C10.9472 92.1507 7.84912 89.0526 7.84912 85.2347V14.7654C7.84912 10.9475 10.9472 7.84937 14.7651 7.84937H43.7224C43.7489 7.85642 92.1328 20.4005 92.1522 20.4058L92.1505 20.4041Z" fill="white"/>
<path d="M83.1827 81.3886H16.8171V31.1663H83.1827C83.1827 36.1663 83.1827 75.4111 83.1827 81.3886Z" fill="#86CAFD"/>
<path d="M49.1036 65.2451C50.5892 65.2451 51.7942 64.0401 51.7942 62.5546C51.7942 61.069 50.5892 59.864 49.1036 59.864C47.6181 59.864 46.4131 61.069 46.4131 62.5546C46.4131 64.0401 47.6181 65.2451 49.1036 65.2451ZM61.6583 52.6904V61.6583C61.6583 68.592 56.0373 74.2148 49.1019 74.2148C42.1664 74.2148 36.5454 68.5938 36.5454 61.6583V52.6904H61.6566H61.6583Z" fill="white"/>
<path d="M92.1505 14.7654V20.4041H56.2772L43.7207 7.84766H85.2327C89.0506 7.84766 92.1487 10.9458 92.1487 14.7637L92.1505 14.7654Z" fill="#86CAFD"/>
<path d="M32.9603 15.0229C34.9416 15.0229 36.5471 16.6285 36.5471 18.6098C36.5471 20.5911 34.9416 22.1966 32.9603 22.1966C30.979 22.1966 29.3735 20.5911 29.3735 18.6098C29.3735 16.6285 30.979 15.0229 32.9603 15.0229Z" fill="#86CAFD"/>
<path d="M18.6095 15.0229C20.5908 15.0229 22.1963 16.6285 22.1963 18.6098C22.1963 20.5911 20.5908 22.1966 18.6095 22.1966C16.6282 22.1966 15.0227 20.5911 15.0227 18.6098C15.0227 16.6285 16.6282 15.0229 18.6095 15.0229Z" fill="#86CAFD"/>
<path d="M85.2345 93.9448H14.7652C9.96284 93.9448 6.05493 90.0369 6.05493 85.2345V14.7652C6.05493 9.96284 9.96284 6.05493 14.7652 6.05493H85.2345C90.0369 6.05493 93.9448 9.96284 93.9448 14.7652V85.2345C93.9448 90.0369 90.0369 93.9448 85.2345 93.9448ZM14.7652 9.64174C11.9406 9.64174 9.64174 11.9388 9.64174 14.7652V85.2345C9.64174 88.0592 11.9406 90.358 14.7652 90.358H85.2345C88.0592 90.358 90.358 88.0592 90.358 85.2345V14.7652C90.358 11.9406 88.0609 9.64174 85.2345 9.64174H14.7652Z" fill="#2169AA"/>
<path d="M92.1506 22.1983H56.2773C55.8009 22.1983 55.3458 22.0095 55.0088 21.6725L42.4523 9.11608C41.7519 8.41566 41.7519 7.27945 42.4523 6.57903C43.1527 5.87861 44.2889 5.87861 44.9894 6.57903L57.0201 18.6097H92.1506C93.1422 18.6097 93.9449 19.4125 93.9449 20.404C93.9449 21.3955 93.1422 22.1983 92.1506 22.1983Z" fill="#2169AA"/>
<path d="M83.1826 83.1827H16.817C15.8255 83.1827 15.0227 82.3799 15.0227 81.3884V31.1661C15.0227 30.1763 15.8255 29.3718 16.817 29.3718H83.1826C84.1741 29.3718 84.9768 30.1746 84.9768 31.1661V81.3884C84.9768 82.3782 84.1741 83.1827 83.1826 83.1827ZM18.6095 79.5959H81.3883V32.9604H18.6095V79.5959Z" fill="#2169AA"/>
<path d="M83.1826 67.0395H74.2147C73.2249 67.0395 72.4204 66.2367 72.4204 65.2452C72.4204 64.2537 73.2232 63.4509 74.2147 63.4509H83.1826C84.1724 63.4509 84.9769 64.2537 84.9769 65.2452C84.9769 66.2367 84.1741 67.0395 83.1826 67.0395Z" fill="#2169AA"/>
<path d="M83.1826 59.8642H74.2147C73.2249 59.8642 72.4204 59.0615 72.4204 58.0699C72.4204 57.0784 73.2232 56.2756 74.2147 56.2756H83.1826C84.1724 56.2756 84.9769 57.0784 84.9769 58.0699C84.9769 59.0615 84.1741 59.8642 83.1826 59.8642Z" fill="#2169AA"/>
<path d="M83.1826 52.6906H74.2147C73.2249 52.6906 72.4204 51.8879 72.4204 50.8963C72.4204 49.9048 73.2232 49.1021 74.2147 49.1021H83.1826C84.1724 49.1021 84.9769 49.9048 84.9769 50.8963C84.9769 51.8879 84.1741 52.6906 83.1826 52.6906Z" fill="#2169AA"/>
<path d="M83.1826 45.5151H74.2147C73.2249 45.5151 72.4204 44.7123 72.4204 43.7208C72.4204 42.7293 73.2232 41.9265 74.2147 41.9265H83.1826C84.1724 41.9265 84.9769 42.7293 84.9769 43.7208C84.9769 44.7123 84.1741 45.5151 83.1826 45.5151Z" fill="#2169AA"/>
<path d="M25.7849 67.0395H16.817C15.8255 67.0395 15.0227 66.2367 15.0227 65.2452C15.0227 64.2537 15.8255 63.4509 16.817 63.4509H25.7849C26.7746 63.4509 27.5792 64.2537 27.5792 65.2452C27.5792 66.2367 26.7764 67.0395 25.7866 67.0395H25.7849Z" fill="#2169AA"/>
<path d="M25.7849 59.8642H16.817C15.8255 59.8642 15.0227 59.0615 15.0227 58.0699C15.0227 57.0784 15.8255 56.2756 16.817 56.2756H25.7849C26.7746 56.2756 27.5792 57.0784 27.5792 58.0699C27.5792 59.0615 26.7764 59.8642 25.7866 59.8642H25.7849Z" fill="#2169AA"/>
<path d="M25.7849 52.6906H16.817C15.8255 52.6906 15.0227 51.8879 15.0227 50.8963C15.0227 49.9048 15.8255 49.1021 16.817 49.1021H25.7849C26.7746 49.1021 27.5792 49.9048 27.5792 50.8963C27.5792 51.8879 26.7764 52.6906 25.7866 52.6906H25.7849Z" fill="#2169AA"/>
<path d="M25.7849 45.5151H16.817C15.8255 45.5151 15.0227 44.7123 15.0227 43.7208C15.0227 42.7293 15.8255 41.9265 16.817 41.9265H25.7849C26.7746 41.9265 27.5792 42.7293 27.5792 43.7208C27.5792 44.7123 26.7764 45.5151 25.7866 45.5151H25.7849Z" fill="#2169AA"/>
<path d="M18.6096 23.9909C15.6421 23.9909 13.2285 21.5774 13.2285 18.6098C13.2285 15.6423 15.6421 13.2288 18.6096 13.2288C21.5771 13.2288 23.9907 15.6423 23.9907 18.6098C23.9907 21.5774 21.5771 23.9909 18.6096 23.9909ZM18.6096 16.8173C17.6198 16.8173 16.8153 17.6218 16.8153 18.6116C16.8153 19.6014 17.6198 20.4059 18.6096 20.4059C19.5994 20.4059 20.4039 19.6014 20.4039 18.6116C20.4039 17.6218 19.5994 16.8173 18.6096 16.8173Z" fill="#2169AA"/>
<path d="M32.9604 23.9909C29.9929 23.9909 27.5793 21.5774 27.5793 18.6098C27.5793 15.6423 29.9929 13.2288 32.9604 13.2288C35.928 13.2288 38.3415 15.6423 38.3415 18.6098C38.3415 21.5774 35.928 23.9909 32.9604 23.9909ZM32.9604 16.8173C31.9724 16.8173 31.1661 17.6218 31.1661 18.6116C31.1661 19.6014 31.9707 20.4059 32.9604 20.4059C33.9502 20.4059 34.7547 19.6014 34.7547 18.6116C34.7547 17.6218 33.9502 16.8173 32.9604 16.8173Z" fill="#2169AA"/>
<path d="M49.1036 76.0074C41.1908 76.0074 34.7546 69.5695 34.7546 61.6584V52.6905C34.7546 51.7008 35.5574 50.8962 36.5489 50.8962H41.93C42.9215 50.8962 43.7243 51.699 43.7243 52.6905C43.7243 53.6821 42.9215 54.4848 41.93 54.4848H38.3432V61.6602C38.3432 67.5935 43.1703 72.4223 49.1054 72.4223C55.0405 72.4223 59.8675 67.5935 59.8675 61.6602V54.4848H56.2808C55.291 54.4848 54.4865 53.6821 54.4865 52.6905C54.4865 51.699 55.2892 50.8962 56.2808 50.8962H61.6618C62.6534 50.8962 63.4561 51.699 63.4561 52.6905V61.6584C63.4561 69.5713 57.0182 76.0074 49.1071 76.0074H49.1036Z" fill="#2169AA"/>
<path d="M56.2773 54.483H41.9283C40.9385 54.483 40.134 53.6802 40.134 52.6887V45.5133C40.134 40.568 44.1566 36.5454 49.1019 36.5454C51.4961 36.5454 53.7491 37.4787 55.4428 39.1724C57.1365 40.8644 58.0698 43.1174 58.0698 45.5133V52.6887C58.0698 53.6784 57.2671 54.483 56.2755 54.483H56.2773ZM43.7226 50.8962H54.4848V45.5151C54.4848 44.0772 53.9255 42.7275 52.9093 41.7113C51.8913 40.6933 50.5416 40.134 49.1037 40.134C46.1362 40.134 43.7226 42.5475 43.7226 45.5151V50.8962Z" fill="#2169AA"/>
<path d="M49.1036 69.6471C48.1121 69.6471 47.3093 68.8444 47.3093 67.8528V65.2452C47.3093 64.2554 48.1121 63.4509 49.1036 63.4509C50.0951 63.4509 50.8979 64.2537 50.8979 65.2452V67.8528C50.8979 68.8426 50.0951 69.6471 49.1036 69.6471Z" fill="#2169AA"/>
<path d="M46.7588 62.1753C46.9687 60.8803 48.1896 60 49.4846 60.2099C50.7796 60.4199 51.66 61.6407 51.45 62.9357C51.2401 64.2307 50.0192 65.1111 48.7224 64.9012C47.4275 64.6912 46.5471 63.4703 46.757 62.1753H46.7588Z" fill="#86CAFD"/>
<path d="M49.1037 67.0395C46.6302 67.0395 44.6189 65.0282 44.6189 62.5546C44.6189 60.0811 46.6302 58.0698 49.1037 58.0698C51.5773 58.0698 53.5886 60.0811 53.5886 62.5546C53.5886 65.0282 51.5773 67.0395 49.1037 67.0395ZM49.1037 61.6584C48.6097 61.6584 48.2075 62.0606 48.2075 62.5546C48.2075 63.0487 48.6097 63.4509 49.1037 63.4509C49.5977 63.4509 50 63.0487 50 62.5546C50 62.0606 49.5977 61.6584 49.1037 61.6584Z" fill="#2169AA"/>
</svg>
