<svg width="100" height="100" viewBox="0 0 100 100" fill="none" xmlns="http://www.w3.org/2000/svg">
<path d="M61.2013 71.7134H38.7983V88.6012H61.2013V71.7134Z" fill="#89CCFF"/>
<path d="M92.2211 7.77881V64.6472H7.77856V7.77881H92.2193H92.2211Z" fill="white"/>
<path d="M85.3279 14.6719V64.6472H14.6716V14.6719H85.3262H85.3279Z" fill="#89CCFF"/>
<path d="M59.4777 25.0124V28.458H49.1389V21.5649H59.4777V25.0124Z" fill="white"/>
<path d="M50.861 50.8613V57.7544H40.5222V54.3088V50.8613H50.861Z" fill="white"/>
<path d="M78.435 36.2139V43.107H68.0945V39.6595V36.2139H73.2639H78.435Z" fill="white"/>
<path d="M31.9052 39.6595V43.107H26.7358H21.5647V36.2139H31.9052V39.6595Z" fill="white"/>
<path d="M66.3707 85.3267C68.2744 85.3267 69.8181 86.8687 69.8181 88.7741C69.8181 89.725 69.4318 90.5878 68.809 91.2106C68.1844 91.8351 67.3234 92.2197 66.3725 92.2197H33.6308C31.7253 92.2197 30.1833 90.6778 30.1833 88.7741C30.1833 87.8231 30.5697 86.9604 31.1925 86.3376C31.8171 85.713 32.6781 85.3284 33.629 85.3284H66.3707V85.3267Z" fill="white"/>
<path d="M92.2211 64.6475V74.988H61.2013H38.7983H7.77856V64.6475H14.6716H85.328H92.2211Z" fill="white"/>
<path d="M92.2211 6.05518H7.77864C6.82769 6.05518 6.05493 6.82617 6.05493 7.77889V74.9878C6.05493 75.9387 6.82593 76.7115 7.77864 76.7115H37.0747V83.6046H33.6273C30.7762 83.6046 28.4579 85.9229 28.4579 88.7739C28.4579 91.625 30.7762 93.9433 33.6273 93.9433H66.369C69.2201 93.9433 71.5383 91.625 71.5383 88.7739C71.5383 85.9229 69.2183 83.6046 66.369 83.6046H62.9216V76.7115H92.2176C93.1685 76.7115 93.9413 75.9405 93.9413 74.9878V7.77889C93.9413 6.82794 93.1703 6.05518 92.2176 6.05518H92.2211ZM90.4974 9.5026V62.9253H87.0518V14.672C87.0518 13.721 86.279 12.9483 85.328 12.9483H14.6717C13.7208 12.9483 12.948 13.7193 12.948 14.672V62.9236H9.50236V9.5026H90.4974ZM83.6043 62.9253H16.3954V16.3957H83.6043V62.9253ZM68.0944 88.7739C68.0944 89.7231 67.3217 90.4977 66.3707 90.4977H33.629C32.6781 90.4977 31.9053 89.7249 31.9053 88.7739C31.9053 87.823 32.6781 87.0502 33.629 87.0502H66.3707C67.3199 87.0502 68.0944 87.823 68.0944 88.7739ZM59.4777 83.6046H40.5221V76.7115H59.4777V83.6046ZM9.50236 73.2641V66.371H90.4974V73.2641H9.50236Z" fill="#2169AC"/>
<path d="M21.5648 44.829H25.0122V54.3067C25.0122 55.2577 25.7832 56.0304 26.7359 56.0304H38.7984V57.7542C38.7984 58.7051 39.5694 59.4779 40.5221 59.4779H50.8626C51.8135 59.4779 52.5863 58.7069 52.5863 57.7542V50.8611C52.5863 49.9101 51.8153 49.1374 50.8626 49.1374H40.5221C39.5711 49.1374 38.7984 49.9084 38.7984 50.8611V52.5848H28.4596V44.8307H31.9053C32.8562 44.8307 33.629 44.0597 33.629 43.107V41.3833H66.3707V43.107C66.3707 44.058 67.1417 44.8307 68.0944 44.8307H78.4349C79.3859 44.8307 80.1586 44.0597 80.1586 43.107V36.2139C80.1586 35.2612 79.3876 34.4902 78.4349 34.4902H74.9875V25.0124C74.9875 24.0615 74.2147 23.2887 73.2638 23.2887H61.2013V21.565C61.2013 20.6141 60.4303 19.8413 59.4776 19.8413H49.1371C48.1862 19.8413 47.4134 20.6123 47.4134 21.565V28.4581C47.4134 29.4091 48.1844 30.1818 49.1371 30.1818H59.4776C60.4286 30.1818 61.2013 29.4108 61.2013 28.4581V26.7344H71.5418V34.4885H68.0944C67.1435 34.4885 66.3707 35.2594 66.3707 36.2122V37.9359H33.629V36.2122C33.629 35.2612 32.858 34.4885 31.9053 34.4885H21.5648C20.6138 34.4885 19.8411 35.2594 19.8411 36.2122V43.1052C19.8411 44.0562 20.6121 44.829 21.5648 44.829ZM42.244 52.5848H49.1371V56.0322H42.244V52.5848ZM57.7539 26.7362H50.8608V23.2887H57.7539V26.7362ZM69.8181 37.9359H76.7112V41.3833H69.8181V37.9359ZM23.2885 37.9359H30.1816V41.3833H23.2885V37.9359Z" fill="#2169AC"/>
</svg>
