<svg width="100" height="100" viewBox="0 0 100 100" fill="none" xmlns="http://www.w3.org/2000/svg">
<path d="M92.1505 20.4038V85.2344C92.1505 89.0524 89.0524 92.1505 85.2344 92.1505H14.7651C10.9472 92.1505 7.84912 89.0524 7.84912 85.2344V14.7651C7.84912 10.9472 10.9472 7.84912 14.7651 7.84912H43.7224C43.7489 7.85618 92.1328 20.4003 92.1522 20.4056L92.1505 20.4038Z" fill="white"/>
<path d="M83.1827 81.3883H16.8171V31.166H83.1827C83.1827 36.166 83.1827 75.4109 83.1827 81.3883Z" fill="#86CAFD"/>
<path d="M49.1036 65.2451C50.5892 65.2451 51.7942 64.0401 51.7942 62.5546C51.7942 61.069 50.5892 59.864 49.1036 59.864C47.6181 59.864 46.4131 61.069 46.4131 62.5546C46.4131 64.0401 47.6181 65.2451 49.1036 65.2451ZM61.6583 52.6904V61.6583C61.6583 68.592 56.0373 74.2148 49.1019 74.2148C42.1664 74.2148 36.5454 68.5938 36.5454 61.6583V52.6904H61.6566H61.6583Z" fill="white"/>
<path d="M92.1505 14.7654V20.4041H56.2772L43.7207 7.84766H85.2327C89.0506 7.84766 92.1487 10.9458 92.1487 14.7637L92.1505 14.7654Z" fill="#86CAFD"/>
<path d="M32.9603 15.0229C34.9416 15.0229 36.5471 16.6285 36.5471 18.6098C36.5471 20.5911 34.9416 22.1966 32.9603 22.1966C30.979 22.1966 29.3735 20.5911 29.3735 18.6098C29.3735 16.6285 30.979 15.0229 32.9603 15.0229Z" fill="#86CAFD"/>
<path d="M18.6095 15.0229C20.5908 15.0229 22.1963 16.6285 22.1963 18.6098C22.1963 20.5911 20.5908 22.1966 18.6095 22.1966C16.6282 22.1966 15.0227 20.5911 15.0227 18.6098C15.0227 16.6285 16.6282 15.0229 18.6095 15.0229Z" fill="#86CAFD"/>
<path d="M85.2345 93.9451H14.7652C9.96284 93.9451 6.05493 90.0372 6.05493 85.2348V14.7655C6.05493 9.96308 9.96284 6.05518 14.7652 6.05518H85.2345C90.0369 6.05518 93.9448 9.96308 93.9448 14.7655V85.2348C93.9448 90.0372 90.0369 93.9451 85.2345 93.9451ZM14.7652 9.64198C11.9406 9.64198 9.64174 11.9391 9.64174 14.7655V85.2348C9.64174 88.0594 11.9406 90.3583 14.7652 90.3583H85.2345C88.0592 90.3583 90.358 88.0594 90.358 85.2348V14.7655C90.358 11.9409 88.0609 9.64198 85.2345 9.64198H14.7652Z" fill="#2169AA"/>
<path d="M92.1506 22.1983H56.2773C55.8009 22.1983 55.3458 22.0095 55.0088 21.6725L42.4523 9.11608C41.7519 8.41566 41.7519 7.27945 42.4523 6.57903C43.1527 5.87861 44.2889 5.87861 44.9894 6.57903L57.0201 18.6097H92.1506C93.1422 18.6097 93.9449 19.4125 93.9449 20.404C93.9449 21.3955 93.1422 22.1983 92.1506 22.1983Z" fill="#2169AA"/>
<path d="M83.1826 83.1829H16.817C15.8255 83.1829 15.0227 82.3802 15.0227 81.3887V31.1664C15.0227 30.1766 15.8255 29.3721 16.817 29.3721H83.1826C84.1741 29.3721 84.9768 30.1748 84.9768 31.1664V81.3887C84.9768 82.3784 84.1741 83.1829 83.1826 83.1829ZM18.6095 79.5961H81.3883V32.9606H18.6095V79.5961Z" fill="#2169AA"/>
<path d="M83.1826 67.0397H74.2147C73.2249 67.0397 72.4204 66.237 72.4204 65.2455C72.4204 64.2539 73.2232 63.4512 74.2147 63.4512H83.1826C84.1724 63.4512 84.9769 64.2539 84.9769 65.2455C84.9769 66.237 84.1741 67.0397 83.1826 67.0397Z" fill="#2169AA"/>
<path d="M83.1826 59.864H74.2147C73.2249 59.864 72.4204 59.0612 72.4204 58.0697C72.4204 57.0781 73.2232 56.2754 74.2147 56.2754H83.1826C84.1724 56.2754 84.9769 57.0781 84.9769 58.0697C84.9769 59.0612 84.1741 59.864 83.1826 59.864Z" fill="#2169AA"/>
<path d="M83.1826 52.6906H74.2147C73.2249 52.6906 72.4204 51.8879 72.4204 50.8963C72.4204 49.9048 73.2232 49.1021 74.2147 49.1021H83.1826C84.1724 49.1021 84.9769 49.9048 84.9769 50.8963C84.9769 51.8879 84.1741 52.6906 83.1826 52.6906Z" fill="#2169AA"/>
<path d="M83.1826 45.5153H74.2147C73.2249 45.5153 72.4204 44.7126 72.4204 43.721C72.4204 42.7295 73.2232 41.9268 74.2147 41.9268H83.1826C84.1724 41.9268 84.9769 42.7295 84.9769 43.721C84.9769 44.7126 84.1741 45.5153 83.1826 45.5153Z" fill="#2169AA"/>
<path d="M25.7849 67.0397H16.817C15.8255 67.0397 15.0227 66.237 15.0227 65.2455C15.0227 64.2539 15.8255 63.4512 16.817 63.4512H25.7849C26.7746 63.4512 27.5792 64.2539 27.5792 65.2455C27.5792 66.237 26.7764 67.0397 25.7866 67.0397H25.7849Z" fill="#2169AA"/>
<path d="M25.7849 59.864H16.817C15.8255 59.864 15.0227 59.0612 15.0227 58.0697C15.0227 57.0781 15.8255 56.2754 16.817 56.2754H25.7849C26.7746 56.2754 27.5792 57.0781 27.5792 58.0697C27.5792 59.0612 26.7764 59.864 25.7866 59.864H25.7849Z" fill="#2169AA"/>
<path d="M25.7849 52.6906H16.817C15.8255 52.6906 15.0227 51.8879 15.0227 50.8963C15.0227 49.9048 15.8255 49.1021 16.817 49.1021H25.7849C26.7746 49.1021 27.5792 49.9048 27.5792 50.8963C27.5792 51.8879 26.7764 52.6906 25.7866 52.6906H25.7849Z" fill="#2169AA"/>
<path d="M25.7849 45.5153H16.817C15.8255 45.5153 15.0227 44.7126 15.0227 43.721C15.0227 42.7295 15.8255 41.9268 16.817 41.9268H25.7849C26.7746 41.9268 27.5792 42.7295 27.5792 43.721C27.5792 44.7126 26.7764 45.5153 25.7866 45.5153H25.7849Z" fill="#2169AA"/>
<path d="M18.6096 23.9907C15.6421 23.9907 13.2285 21.5771 13.2285 18.6096C13.2285 15.6421 15.6421 13.2285 18.6096 13.2285C21.5771 13.2285 23.9907 15.6421 23.9907 18.6096C23.9907 21.5771 21.5771 23.9907 18.6096 23.9907ZM18.6096 16.8171C17.6198 16.8171 16.8153 17.6216 16.8153 18.6114C16.8153 19.6011 17.6198 20.4057 18.6096 20.4057C19.5994 20.4057 20.4039 19.6011 20.4039 18.6114C20.4039 17.6216 19.5994 16.8171 18.6096 16.8171Z" fill="#2169AA"/>
<path d="M32.9604 23.9907C29.9929 23.9907 27.5793 21.5771 27.5793 18.6096C27.5793 15.6421 29.9929 13.2285 32.9604 13.2285C35.928 13.2285 38.3415 15.6421 38.3415 18.6096C38.3415 21.5771 35.928 23.9907 32.9604 23.9907ZM32.9604 16.8171C31.9724 16.8171 31.1661 17.6216 31.1661 18.6114C31.1661 19.6011 31.9707 20.4057 32.9604 20.4057C33.9502 20.4057 34.7547 19.6011 34.7547 18.6114C34.7547 17.6216 33.9502 16.8171 32.9604 16.8171Z" fill="#2169AA"/>
<path d="M49.1036 76.0076C41.1908 76.0076 34.7546 69.5697 34.7546 61.6587V52.6908C34.7546 51.701 35.5574 50.8965 36.5489 50.8965H41.93C42.9215 50.8965 43.7243 51.6992 43.7243 52.6908C43.7243 53.6823 42.9215 54.4851 41.93 54.4851H38.3432V61.6604C38.3432 67.5937 43.1703 72.4226 49.1054 72.4226C55.0405 72.4226 59.8675 67.5937 59.8675 61.6604V54.4851H56.2808C55.291 54.4851 54.4865 53.6823 54.4865 52.6908C54.4865 51.6992 55.2892 50.8965 56.2808 50.8965H61.6618C62.6534 50.8965 63.4561 51.6992 63.4561 52.6908V61.6587C63.4561 69.5715 57.0182 76.0076 49.1071 76.0076H49.1036Z" fill="#2169AA"/>
<path d="M56.2773 54.483H41.9283C40.9385 54.483 40.134 53.6802 40.134 52.6887V45.5133C40.134 40.568 44.1566 36.5454 49.1019 36.5454C51.4961 36.5454 53.7491 37.4787 55.4428 39.1724C57.1365 40.8644 58.0698 43.1174 58.0698 45.5133V52.6887C58.0698 53.6784 57.2671 54.483 56.2755 54.483H56.2773ZM43.7226 50.8962H54.4848V45.5151C54.4848 44.0772 53.9255 42.7275 52.9093 41.7113C51.8913 40.6933 50.5416 40.134 49.1037 40.134C46.1362 40.134 43.7226 42.5475 43.7226 45.5151V50.8962Z" fill="#2169AA"/>
<path d="M49.1036 69.6474C48.1121 69.6474 47.3093 68.8446 47.3093 67.8531V65.2455C47.3093 64.2557 48.1121 63.4512 49.1036 63.4512C50.0951 63.4512 50.8979 64.2539 50.8979 65.2455V67.8531C50.8979 68.8428 50.0951 69.6474 49.1036 69.6474Z" fill="#2169AA"/>
<path d="M46.7588 62.1756C46.9687 60.8806 48.1896 60.0002 49.4846 60.2102C50.7796 60.4201 51.66 61.641 51.45 62.936C51.2401 64.231 50.0192 65.1114 48.7224 64.9014C47.4275 64.6914 46.5471 63.4706 46.757 62.1756H46.7588Z" fill="#86CAFD"/>
<path d="M49.1037 67.0395C46.6302 67.0395 44.6189 65.0282 44.6189 62.5546C44.6189 60.0811 46.6302 58.0698 49.1037 58.0698C51.5773 58.0698 53.5886 60.0811 53.5886 62.5546C53.5886 65.0282 51.5773 67.0395 49.1037 67.0395ZM49.1037 61.6584C48.6097 61.6584 48.2075 62.0606 48.2075 62.5546C48.2075 63.0487 48.6097 63.4509 49.1037 63.4509C49.5977 63.4509 50 63.0487 50 62.5546C50 62.0606 49.5977 61.6584 49.1037 61.6584Z" fill="#2169AA"/>
</svg>
