<svg width="100" height="100" viewBox="0 0 100 100" fill="none" xmlns="http://www.w3.org/2000/svg">
<path d="M92.1135 7.88672V26.1965H73.8037V7.88672H92.1135Z" fill="white"/>
<path d="M82.9586 73.8037C88.0151 73.8037 92.1135 77.9022 92.1135 82.9586C92.1135 88.0151 88.0151 92.1135 82.9586 92.1135C77.9022 92.1135 73.8037 88.0151 73.8037 82.9586C73.8037 77.9022 77.9022 73.8037 82.9586 73.8037Z" fill="#89CCFF"/>
<path d="M66.4782 37.5494V70.1412H33.5195V29.8589H58.7877C61.7923 32.8617 63.4754 34.5466 66.4782 37.5494Z" fill="#89CCFF"/>
<path d="M26.196 92.1135H7.88623V73.8037H26.196V92.1135Z" fill="white"/>
<path d="M26.196 40.8452V59.155H7.88623V40.8452H26.196Z" fill="white"/>
<path d="M17.0411 26.1965C22.0972 26.1965 26.196 22.0977 26.196 17.0416C26.196 11.9855 22.0972 7.88672 17.0411 7.88672C11.985 7.88672 7.88623 11.9855 7.88623 17.0416C7.88623 22.0977 11.985 26.1965 17.0411 26.1965Z" fill="#89CCFF"/>
<path d="M66.4783 71.9728H33.5196C32.5086 71.9728 31.6882 71.1524 31.6882 70.1415V29.8592C31.6882 28.8482 32.5086 28.0278 33.5196 28.0278H58.7877C59.2729 28.0278 59.7387 28.2201 60.0827 28.5642C62.0429 30.5243 63.2849 31.7664 67.7733 36.2547C68.1173 36.5988 68.3096 37.0645 68.3096 37.5497V70.1415C68.3096 71.1524 67.4892 71.9728 66.4783 71.9728ZM35.3509 68.3101H64.6469V38.3066C61.3089 34.9686 59.714 33.3719 58.0291 31.6887H35.3491V68.3101H35.3509Z" fill="#2169AC"/>
<path d="M26.1961 93.9451H7.88627C6.87533 93.9451 6.05493 93.1247 6.05493 92.1138V73.804C6.05493 72.7931 6.87533 71.9727 7.88627 71.9727H26.1961C27.207 71.9727 28.0274 72.7931 28.0274 73.804V92.1138C28.0274 93.1247 27.207 93.9451 26.1961 93.9451ZM9.71584 90.2825H24.3647V75.6336H9.71584V90.2825Z" fill="#2169AC"/>
<path d="M18.8724 84.7901H15.2098C14.1988 84.7901 13.3784 83.9697 13.3784 82.9588C13.3784 81.9478 14.1988 81.1274 15.2098 81.1274H18.8724C19.8834 81.1274 20.7038 81.9478 20.7038 82.9588C20.7038 83.9697 19.8851 84.7901 18.8724 84.7901Z" fill="#2169AC"/>
<path d="M26.1961 60.9862H7.88627C6.87533 60.9862 6.05493 60.1658 6.05493 59.1548V40.845C6.05493 39.8341 6.87533 39.0137 7.88627 39.0137H26.1961C27.207 39.0137 28.0274 39.8341 28.0274 40.845V59.1548C28.0274 60.1658 27.207 60.9862 26.1961 60.9862ZM9.71584 57.3235H24.3647V42.6746H9.71584V57.3235Z" fill="#2169AC"/>
<path d="M18.8724 51.8316H15.2098C14.1988 51.8316 13.3784 51.0112 13.3784 50.0003C13.3784 48.9893 14.1988 48.1689 15.2098 48.1689H18.8724C19.8834 48.1689 20.7038 48.9893 20.7038 50.0003C20.7038 51.0112 19.8851 51.8316 18.8724 51.8316Z" fill="#2169AC"/>
<path d="M92.1136 28.0277H73.8037C72.7928 28.0277 71.9724 27.2073 71.9724 26.1963V7.88651C71.9724 6.87557 72.7928 6.05518 73.8037 6.05518H92.1136C93.1245 6.05518 93.9449 6.87557 93.9449 7.88651V26.1963C93.9449 27.2073 93.1245 28.0277 92.1136 28.0277ZM75.6351 24.365H90.284V9.71608H75.6351V24.365Z" fill="#2169AC"/>
<path d="M84.7899 18.8726H81.1272C80.1163 18.8726 79.2959 18.0522 79.2959 17.0413C79.2959 16.0304 80.1163 15.21 81.1272 15.21H84.7899C85.8008 15.21 86.6212 16.0304 86.6212 17.0413C86.6212 18.0522 85.8008 18.8726 84.7899 18.8726Z" fill="#2169AC"/>
<path d="M59.1548 64.649H40.845C39.8341 64.649 39.0137 63.8286 39.0137 62.8177C39.0137 61.8067 39.8341 60.9863 40.845 60.9863H59.1548C60.1658 60.9863 60.9862 61.8067 60.9862 62.8177C60.9862 63.8286 60.1658 64.649 59.1548 64.649Z" fill="#2169AC"/>
<path d="M59.1548 57.3238H40.845C39.8341 57.3238 39.0137 56.5034 39.0137 55.4925C39.0137 54.4815 39.8341 53.6611 40.845 53.6611H59.1548C60.1658 53.6611 60.9862 54.4815 60.9862 55.4925C60.9862 56.5034 60.1658 57.3238 59.1548 57.3238Z" fill="#2169AC"/>
<path d="M59.1548 50.0001H40.845C39.8341 50.0001 39.0137 49.1797 39.0137 48.1687C39.0137 47.1578 39.8341 46.3374 40.845 46.3374H59.1548C60.1658 46.3374 60.9862 47.156 60.9862 48.1687C60.9862 49.1814 60.1658 50.0001 59.1548 50.0001Z" fill="#2169AC"/>
<path d="M53.6609 42.6749H40.8433C39.8324 42.6749 39.012 41.8545 39.012 40.8435C39.012 39.8326 39.8324 39.0122 40.8433 39.0122H53.6609C54.6718 39.0122 55.4922 39.8326 55.4922 40.8435C55.4922 41.8545 54.6718 42.6749 53.6609 42.6749Z" fill="#2169AC"/>
<path d="M17.0412 28.0277C10.9826 28.0277 6.05493 23.1 6.05493 17.0414C6.05493 10.9828 10.9826 6.05518 17.0412 6.05518C23.0997 6.05518 28.0274 10.9828 28.0274 17.0414C28.0274 23.1 23.0997 28.0277 17.0412 28.0277ZM17.0412 9.71608C13.0027 9.71608 9.71584 13.0012 9.71584 17.0397C9.71584 21.0781 13.0009 24.3632 17.0412 24.3632C21.0814 24.3632 24.3647 21.0781 24.3647 17.0397C24.3647 13.0012 21.0796 9.71608 17.0412 9.71608Z" fill="#2169AC"/>
<path d="M18.8724 18.8726H15.2098C14.1988 18.8726 13.3784 18.0522 13.3784 17.0413C13.3784 16.0304 14.1988 15.21 15.2098 15.21H18.8724C19.8834 15.21 20.7038 16.0304 20.7038 17.0413C20.7038 18.0522 19.8851 18.8726 18.8724 18.8726Z" fill="#2169AC"/>
<path d="M82.9586 93.9451C76.9001 93.9451 71.9724 89.0175 71.9724 82.9589C71.9724 76.9003 76.9001 71.9727 82.9586 71.9727C89.0172 71.9727 93.9449 76.9003 93.9449 82.9589C93.9449 89.0175 89.0155 93.9451 82.9586 93.9451ZM82.9586 75.6353C78.9202 75.6353 75.6351 78.9204 75.6351 82.9589C75.6351 86.9974 78.9202 90.2825 82.9586 90.2825C86.9971 90.2825 90.2822 86.9974 90.2822 82.9589C90.2822 78.9204 86.9971 75.6353 82.9586 75.6353Z" fill="#2169AC"/>
<path d="M84.7899 84.7901H81.1272C80.1163 84.7901 79.2959 83.9697 79.2959 82.9588C79.2959 81.9478 80.1163 81.1274 81.1272 81.1274H84.7899C85.8008 81.1274 86.6212 81.9478 86.6212 82.9588C86.6212 83.9697 85.8008 84.7901 84.7899 84.7901Z" fill="#2169AC"/>
<path d="M17.0411 42.6749C16.0301 42.6749 15.2097 41.8545 15.2097 40.8435V26.1946C15.2097 25.1837 16.0301 24.3633 17.0411 24.3633C18.052 24.3633 18.8724 25.1837 18.8724 26.1946V40.8435C18.8724 41.8545 18.052 42.6749 17.0411 42.6749Z" fill="#2169AC"/>
<path d="M17.0411 75.6353C16.0301 75.6353 15.2097 74.8149 15.2097 73.804V59.1551C15.2097 58.1441 16.0301 57.3237 17.0411 57.3237C18.052 57.3237 18.8724 58.1441 18.8724 59.1551V73.804C18.8724 74.8149 18.052 75.6353 17.0411 75.6353Z" fill="#2169AC"/>
<path d="M64.647 84.7901H26.1961C25.1851 84.7901 24.3647 83.9697 24.3647 82.9588C24.3647 81.9478 25.1851 81.1274 26.1961 81.1274H64.647C65.658 81.1274 66.4784 81.9478 66.4784 82.9588C66.4784 83.9697 65.658 84.7901 64.647 84.7901Z" fill="#2169AC"/>
<path d="M59.6912 87.9146C58.9766 87.2001 58.9766 86.0409 59.6912 85.3246L62.0589 82.9569L59.6912 80.5893C58.9766 79.8747 58.9766 78.7156 59.6912 77.9993C60.4057 77.2847 61.5649 77.2847 62.2812 77.9993L65.9438 81.6619C66.6584 82.3765 66.6584 83.5356 65.9438 84.2519L62.2812 87.9146C61.5666 88.6309 60.4075 88.6291 59.6912 87.9146Z" fill="#2169AC"/>
<path d="M82.9585 75.6354C81.9476 75.6354 81.1272 74.815 81.1272 73.8041V35.3514C81.1272 34.3404 81.9476 33.52 82.9585 33.52C83.9695 33.52 84.7899 34.3404 84.7899 35.3514V73.8041C84.7899 74.815 83.9695 75.6354 82.9585 75.6354Z" fill="#2169AC"/>
<path d="M86.6213 40.8454C86.152 40.8454 85.6845 40.6672 85.3263 40.3091L82.9586 37.9414L80.591 40.3091C79.8764 41.0236 78.7173 41.0236 78.001 40.3091C77.2865 39.5945 77.2865 38.4354 78.001 37.7191L81.6637 34.0564C82.3782 33.3419 83.5373 33.3419 84.2536 34.0564L87.9163 37.7191C88.6308 38.4336 88.6308 39.5928 87.9163 40.3091C87.5582 40.6672 87.0906 40.8454 86.6213 40.8454Z" fill="#2169AC"/>
<path d="M73.8036 18.8726H35.3509C34.3399 18.8726 33.5195 18.0522 33.5195 17.0413C33.5195 16.0304 34.3399 15.21 35.3509 15.21H73.8036C74.8145 15.21 75.6349 16.0304 75.6349 17.0413C75.6349 18.0522 74.8145 18.8726 73.8036 18.8726Z" fill="#2169AC"/>
<path d="M39.0136 22.5335C38.546 22.5335 38.0767 22.3553 37.7186 21.9971L34.0559 18.3344C33.3414 17.6199 33.3414 16.4608 34.0559 15.7445L37.7186 12.0818C38.4331 11.3673 39.5923 11.3673 40.3086 12.0818C41.0231 12.7963 41.0231 13.9555 40.3086 14.6718L37.9409 17.0395L40.3086 19.4071C41.0231 20.1217 41.0231 21.2808 40.3086 21.9971C39.9504 22.3553 39.4829 22.5335 39.0136 22.5335Z" fill="#2169AC"/>
</svg>
