<svg width="100" height="100" viewBox="0 0 100 100" fill="none" xmlns="http://www.w3.org/2000/svg">
<path d="M91.1981 78.3802C91.1981 81.7924 89.9507 84.9169 87.89 87.3181C85.2348 84.6258 81.5456 82.9585 77.4666 82.9585C80.5012 82.9585 82.9606 80.4991 82.9606 77.4645C82.9606 74.43 80.5012 71.9723 77.4666 71.9723C74.432 71.9723 71.9726 74.4317 71.9726 77.4645C71.9726 80.4974 74.432 82.9585 77.4666 82.9585C73.3875 82.9585 69.6966 84.6276 67.0432 87.3181C64.9807 84.9169 63.7351 81.7941 63.7351 78.3802C63.7351 70.7955 69.8837 64.647 77.4683 64.647C85.053 64.647 91.2016 70.7955 91.2016 78.3802H91.1981Z" fill="white"/>
<path d="M87.8898 87.3181C85.374 90.2538 81.6372 92.1134 77.4664 92.1134C73.2956 92.1134 69.5588 90.2538 67.043 87.3181C69.6982 84.6258 73.3874 82.9585 77.4664 82.9585C81.5454 82.9585 85.2363 84.6275 87.8898 87.3181Z" fill="white"/>
<path d="M77.4647 71.9727C80.4975 71.9727 82.9587 74.4321 82.9587 77.4649C82.9587 80.4977 80.4993 82.9589 77.4647 82.9589C74.4301 82.9589 71.9707 80.4995 71.9707 77.4649C71.9707 74.4303 74.4301 71.9727 77.4647 71.9727Z" fill="#89CCFF"/>
<path d="M65.1536 13.9927L69.7319 21.9215L66.0022 24.0739C66.3145 25.3407 66.4803 26.6656 66.4803 28.0277C66.4803 29.3897 66.3145 30.7147 66.0022 31.9814L69.7319 34.1339L65.1536 42.0626L61.4203 39.9084C59.5202 41.7362 57.1825 43.1124 54.5784 43.8639V48.1706H45.4235V43.8639C42.8194 43.1124 40.4817 41.7362 38.5816 39.9084L34.8484 42.0626L30.27 34.1339L33.9997 31.9814C33.6892 30.7147 33.5216 29.3915 33.5216 28.0277C33.5216 26.6639 33.6875 25.3424 33.9997 24.0739L30.27 21.9215L34.8484 13.9927L38.5816 16.1469C40.4817 14.3191 42.8194 12.943 45.4235 12.1914V7.88477H54.5784V12.1914C57.1825 12.943 59.5202 14.3191 61.4203 16.1469L65.1536 13.9927ZM57.3237 28.0277C57.3237 23.9839 54.0438 20.7041 50.0001 20.7041C45.9563 20.7041 42.6765 23.9839 42.6765 28.0277C42.6765 32.0714 45.9563 35.3512 50.0001 35.3512C54.0438 35.3512 57.3237 32.0714 57.3237 28.0277Z" fill="#89CCFF"/>
<path d="M36.2667 78.3802C36.2667 81.7924 35.0194 84.9169 32.9569 87.3181C30.3016 84.6258 26.6125 82.9585 22.5335 82.9585C25.5681 82.9585 28.0275 80.4991 28.0275 77.4645C28.0275 74.43 25.5681 71.9723 22.5335 71.9723C19.4989 71.9723 17.0412 74.4317 17.0412 77.4645C17.0412 80.4974 19.5007 82.9585 22.5335 82.9585C18.4544 82.9585 14.7653 84.6276 12.11 87.3181C10.0476 84.9169 8.802 81.7941 8.802 78.3802C8.802 70.7955 14.9506 64.647 22.5352 64.647C30.1199 64.647 36.2685 70.7955 36.2685 78.3802H36.2667Z" fill="white"/>
<path d="M32.9587 87.3181C27.4788 93.7101 17.5918 93.7136 12.1101 87.3181C14.7654 84.6258 18.4545 82.9585 22.5335 82.9585C26.6126 82.9585 30.3035 84.6275 32.957 87.3181H32.9587Z" fill="white"/>
<path d="M22.5335 71.9727C25.5681 71.9727 28.0275 74.4321 28.0275 77.4649C28.0275 80.4977 25.5681 82.9589 22.5335 82.9589C19.4989 82.9589 17.0413 80.4995 17.0413 77.4649C17.0413 74.4303 19.5007 71.9727 22.5335 71.9727Z" fill="#89CCFF"/>
<path d="M77.4647 93.9451C72.9181 93.9451 68.6115 91.9638 65.651 88.5093C63.2339 85.6952 61.9019 82.0979 61.9019 78.3805C61.9019 69.799 68.8832 62.8159 77.4664 62.8159C86.0497 62.8159 93.031 69.799 93.031 78.3805C93.031 82.0979 91.699 85.6952 89.2801 88.511C86.3214 91.9638 82.0148 93.9451 77.4664 93.9451H77.4647ZM77.4647 66.4786C70.9015 66.4786 65.5628 71.8173 65.5628 78.3805C65.5628 81.2228 66.5808 83.9733 68.4297 86.1257C70.6951 88.7686 73.9873 90.2824 77.4647 90.2824C80.9421 90.2824 84.2342 88.7669 86.4978 86.1257C88.3486 83.9715 89.3648 81.221 89.3648 78.3805C89.3648 71.8173 84.0261 66.4786 77.4629 66.4786H77.4647Z" fill="#2169AC"/>
<path d="M87.89 89.1497C87.4172 89.1497 86.9443 88.968 86.5862 88.6045C84.1603 86.1451 80.9211 84.7901 77.4648 84.7901C74.0086 84.7901 70.7711 86.1451 68.3434 88.6045C67.6342 89.3243 66.4733 89.3314 65.7534 88.6222C65.0336 87.9129 65.0248 86.7538 65.7358 86.0322C68.8551 82.8688 73.0206 81.1274 77.463 81.1274C81.9055 81.1274 86.071 82.8688 89.1903 86.0322C89.9013 86.752 89.8925 87.9111 89.1726 88.6222C88.8162 88.9732 88.3522 89.1497 87.8865 89.1497H87.89Z" fill="#2169AC"/>
<path d="M77.4647 84.79C73.4262 84.79 70.1411 81.5049 70.1411 77.4647C70.1411 73.4245 73.4262 70.1411 77.4647 70.1411C81.5031 70.1411 84.7883 73.4262 84.7883 77.4647C84.7883 81.5031 81.5031 84.79 77.4647 84.79ZM77.4647 73.8038C75.4446 73.8038 73.802 75.4463 73.802 77.4664C73.802 79.4866 75.4446 81.1291 77.4647 81.1291C79.4848 81.1291 81.1273 79.4866 81.1273 77.4664C81.1273 75.4463 79.4848 73.8038 77.4647 73.8038Z" fill="#2169AC"/>
<path d="M22.5335 93.9451C17.9852 93.9451 13.6803 91.9638 10.7198 88.5093C8.30274 85.6952 6.9707 82.0979 6.9707 78.3805C6.9707 69.799 13.952 62.8159 22.5353 62.8159C31.1186 62.8159 38.0981 69.799 38.0981 78.3805C38.0981 82.0979 36.766 85.6952 34.3472 88.511C31.3885 91.9638 27.0819 93.9451 22.5335 93.9451ZM22.5335 66.4786C15.9704 66.4786 10.6316 71.8173 10.6316 78.3805C10.6316 84.9437 15.9562 90.2824 22.5335 90.2824C26.0109 90.2824 29.3031 88.7669 31.5684 86.1257C33.4192 83.9715 34.4372 81.221 34.4372 78.3805C34.4372 71.8173 29.0984 66.4786 22.5353 66.4786H22.5335Z" fill="#2169AC"/>
<path d="M32.9586 89.1497C32.4858 89.1497 32.0129 88.968 31.6548 88.6045C29.2289 86.1451 25.9897 84.7901 22.5334 84.7901C19.0772 84.7901 15.8397 86.1451 13.4138 88.6045C12.7046 89.3243 11.5436 89.3314 10.8238 88.6222C10.104 87.9129 10.0969 86.7538 10.8062 86.0322C13.9272 82.8688 18.0909 81.1274 22.5334 81.1274C26.9759 81.1274 31.1414 82.8688 34.2607 86.0322C34.9699 86.752 34.9628 87.9111 34.243 88.6222C33.8866 88.9732 33.4226 89.1497 32.9568 89.1497H32.9586Z" fill="#2169AC"/>
<path d="M22.5335 84.79C18.4951 84.79 15.21 81.5049 15.21 77.4647C15.21 73.4245 18.4951 70.1411 22.5335 70.1411C26.572 70.1411 29.8571 73.4262 29.8571 77.4647C29.8571 81.5031 26.572 84.79 22.5335 84.79ZM22.5335 73.8038C20.5152 73.8038 18.8709 75.4463 18.8709 77.4664C18.8709 79.4866 20.5134 81.1291 22.5335 81.1291C24.5536 81.1291 26.1962 79.4866 26.1962 77.4664C26.1962 75.4463 24.5536 73.8038 22.5335 73.8038Z" fill="#2169AC"/>
<path d="M54.5765 49.9999H45.4216C44.4107 49.9999 43.5903 49.1795 43.5903 48.1686V45.1834C41.6954 44.4742 39.917 43.4456 38.3503 42.1524L35.7604 43.6467C34.8853 44.1531 33.7649 43.8514 33.2586 42.9763L28.6803 35.0476C28.4368 34.6277 28.3715 34.1266 28.4968 33.6573C28.622 33.188 28.929 32.7875 29.3489 32.5458L31.9354 31.0532C31.7695 30.0529 31.6849 29.0402 31.6849 28.0257C31.6849 27.0112 31.7695 25.9985 31.9354 24.9982L29.3489 23.5056C28.929 23.2621 28.622 22.8634 28.4968 22.3941C28.3715 21.9248 28.4368 21.4255 28.6803 21.0038L33.2586 13.0751C33.7649 12.2 34.8835 11.9001 35.7604 12.4047L38.3503 13.899C39.9188 12.6058 41.6954 11.579 43.5903 10.8697V7.88456C43.5903 6.87362 44.4107 6.05322 45.4216 6.05322H54.5765C55.5875 6.05322 56.4079 6.87362 56.4079 7.88456V10.8697C58.3027 11.579 60.0811 12.6076 61.6478 13.899L64.2378 12.4047C65.1129 11.8983 66.2332 12.2 66.7378 13.0751L71.3161 21.0038C71.5596 21.4237 71.6249 21.9248 71.4996 22.3941C71.3743 22.8634 71.0674 23.2621 70.6457 23.5056L68.0592 24.9982C68.2251 25.9968 68.3098 27.0112 68.3098 28.0257C68.3098 29.0402 68.2251 30.0546 68.0592 31.0532L70.6457 32.5458C71.0656 32.7893 71.3726 33.188 71.4996 33.6573C71.6249 34.1266 71.5596 34.6259 71.3161 35.0476L66.7378 42.9763C66.2314 43.8514 65.1129 44.1513 64.236 43.6467L61.646 42.1524C60.0776 43.4456 58.3009 44.4724 56.4061 45.1834V48.1686C56.4061 49.1795 55.5875 49.9999 54.5748 49.9999H54.5765ZM47.253 46.3373H52.747V43.862C52.747 43.0451 53.2868 42.3288 54.0702 42.103C56.3355 41.4502 58.4386 40.2346 60.1517 38.5867C60.7392 38.0222 61.6302 37.9128 62.3359 38.3203L64.483 39.5606L67.23 34.8041L65.0864 33.5656C64.3807 33.158 64.0296 32.3341 64.2237 31.5437C64.506 30.3951 64.6489 29.2131 64.6489 28.0275C64.6489 26.8419 64.506 25.6598 64.2237 24.5112C64.0296 23.7208 64.3807 22.8951 65.0864 22.4894L67.23 21.2508L64.483 16.4943L62.3359 17.7346C61.6302 18.1421 60.7392 18.0345 60.1517 17.4682C58.4386 15.8221 56.3355 14.6065 54.0702 13.952C53.2868 13.7261 52.747 13.0081 52.747 12.193V9.71765H47.2547V12.193C47.2547 13.0098 46.7148 13.7261 45.9315 13.952C43.6662 14.6047 41.5631 15.8203 39.85 17.4682C39.2625 18.0328 38.3715 18.1421 37.6658 17.7346L35.5187 16.4943L32.7717 21.2508L34.9153 22.4894C35.621 22.8969 35.9721 23.7208 35.778 24.5112C35.4957 25.6598 35.3528 26.8419 35.3528 28.0275C35.3528 29.2131 35.4957 30.3951 35.778 31.5437C35.9721 32.3341 35.621 33.158 34.9153 33.5656L32.7717 34.8041L35.5187 39.5606L37.6658 38.3203C38.3715 37.9128 39.2625 38.0204 39.85 38.5867C41.5631 40.2328 43.6662 41.4502 45.9315 42.103C46.7148 42.3288 47.2547 43.0469 47.2547 43.862V46.3373H47.253Z" fill="#2169AC"/>
<path d="M49.9999 37.1824C44.9522 37.1824 40.845 33.0751 40.845 28.0275C40.845 22.9798 44.9522 18.8726 49.9999 18.8726C55.0475 18.8726 59.1548 22.9798 59.1548 28.0275C59.1548 33.0751 55.0475 37.1824 49.9999 37.1824ZM49.9999 22.5335C46.9706 22.5335 44.5076 24.9964 44.5076 28.0257C44.5076 31.055 46.9724 33.5197 49.9999 33.5197C53.0274 33.5197 55.4939 31.055 55.4939 28.0257C55.4939 24.9964 53.0292 22.5335 49.9999 22.5335Z" fill="#2169AC"/>
<path d="M77.4647 66.4784C76.4537 66.4784 75.6333 65.658 75.6333 64.6471V59.1531H24.3648V64.6471C24.3648 65.658 23.5444 66.4784 22.5335 66.4784C21.5225 66.4784 20.7021 65.658 20.7021 64.6471V57.3235C20.7021 56.3126 21.5208 55.4922 22.5335 55.4922H77.4647C78.4756 55.4922 79.296 56.3126 79.296 57.3235V64.6471C79.296 65.658 78.4756 66.4784 77.4647 66.4784Z" fill="#2169AC"/>
<path d="M50 59.155C48.9891 59.155 48.1687 58.3346 48.1687 57.3236V48.1687C48.1687 47.1578 48.9873 46.3374 50 46.3374C51.0127 46.3374 51.8314 47.156 51.8314 48.1687V57.3236C51.8314 58.3346 51.011 59.155 50 59.155Z" fill="#2169AC"/>
</svg>
