<svg width="100" height="100" viewBox="0 0 100 100" fill="none" xmlns="http://www.w3.org/2000/svg">
<path d="M68.0944 7.77881V43.9679H31.9053V7.77881H68.0944Z" fill="white"/>
<path d="M61.2013 25.8734C61.2013 32.0607 56.1872 37.0748 49.9998 37.0748C43.8125 37.0748 38.7983 32.0607 38.7983 25.8734C38.7983 19.686 43.8125 14.6719 49.9998 14.6719C50.0192 14.6913 61.1819 25.8539 61.2013 25.8734Z" fill="#89CCFF"/>
<path d="M61.2015 25.8734H50V14.6719C56.1874 14.6719 61.2015 19.686 61.2015 25.8734Z" fill="white"/>
<path d="M43.1067 81.8809V92.2196H24.1494V81.8809H33.6289H43.1067Z" fill="#89CCFF"/>
<path d="M75.8486 81.8809V92.2196H56.8931V81.8809H66.3708H75.8486Z" fill="#89CCFF"/>
<path d="M92.2212 57.7544V68.0949H73.2639V57.7544H82.7417H92.2212Z" fill="#89CCFF"/>
<path d="M59.4778 57.7544V68.0949H50H40.5222V57.7544H50H59.4778Z" fill="white"/>
<path d="M26.7359 57.7544V68.0949H7.77856V57.7544H17.2563H26.7359Z" fill="#89CCFF"/>
<path d="M62.9251 25.8734C62.9251 18.7475 57.1276 12.9482 49.9999 12.9482C42.8722 12.9482 37.0747 18.7457 37.0747 25.8734C37.0747 33.0012 42.8722 38.7986 49.9999 38.7986C57.1276 38.7986 62.9251 33.0012 62.9251 25.8734ZM59.3171 24.1497H51.7218V16.5545C55.568 17.2637 58.6061 20.3036 59.3171 24.1497ZM40.5221 25.8734C40.5221 21.2351 43.8708 17.3678 48.2762 16.5545V25.8734C48.2762 26.8244 49.0472 27.5971 49.9999 27.5971H59.3189C58.5055 32.0026 54.6382 35.3512 49.9999 35.3512C44.7741 35.3512 40.5221 31.0993 40.5221 25.8734Z" fill="#2169AC"/>
<path d="M92.2211 56.0322H84.4671V50.8629C84.4671 49.9119 83.6961 49.1392 82.7434 49.1392H51.7236V45.6917H68.0944C69.0454 45.6917 69.8182 44.9207 69.8182 43.968V7.77889C69.8182 6.82794 69.0472 6.05518 68.0944 6.05518H31.9053C30.9544 6.05518 30.1816 6.82617 30.1816 7.77889V43.968C30.1816 44.919 30.9526 45.6917 31.9053 45.6917H48.2762V49.1392H17.2564C16.3055 49.1392 15.5327 49.9102 15.5327 50.8629V56.0322H7.77864C6.82769 56.0322 6.05493 56.8032 6.05493 57.7559V68.0965C6.05493 69.0492 6.82593 69.8202 7.77864 69.8202H26.7342C27.6851 69.8202 28.4579 69.0492 28.4579 68.0965V57.7559C28.4579 56.805 27.6869 56.0322 26.7342 56.0322H18.9801V52.5848H48.2762V56.0322H40.5221C39.5712 56.0322 38.7984 56.8032 38.7984 57.7559V68.0965C38.7984 69.0492 39.5694 69.8202 40.5221 69.8202H48.2762V73.2658H33.629C32.6781 73.2658 31.9053 74.0368 31.9053 74.9895V80.1589H24.1513C23.2003 80.1589 22.4276 80.9299 22.4276 81.8826V92.2231C22.4276 93.1741 23.1985 93.9468 24.1513 93.9468H43.1068C44.0578 93.9468 44.8305 93.1758 44.8305 92.2231V81.8826C44.8305 80.9299 44.0595 80.1589 43.1068 80.1589H35.3527V76.7115H64.6488V80.1589H56.8947C55.942 80.1589 55.171 80.9299 55.171 81.8826V92.2231C55.171 93.1741 55.9438 93.9468 56.8947 93.9468H75.8503C76.8012 93.9468 77.574 93.1758 77.574 92.2231V81.8826C77.574 80.9299 76.803 80.1589 75.8503 80.1589H68.0944V74.9895C68.0944 74.0386 67.3235 73.2658 66.3707 73.2658H51.7236V69.8202H59.4777C60.4286 69.8202 61.2014 69.0492 61.2014 68.0965V57.7559C61.2014 56.805 60.4304 56.0322 59.4777 56.0322H51.7236V52.5848H81.0196V56.0322H73.2656C72.3146 56.0322 71.5419 56.8032 71.5419 57.7559V68.0965C71.5419 69.0492 72.3129 69.8202 73.2656 69.8202H92.2211C93.1721 69.8202 93.9448 69.0492 93.9448 68.0965V57.7559C93.9448 56.805 93.1739 56.0322 92.2211 56.0322ZM33.629 9.5026H66.3725V42.2443H33.629V9.5026ZM25.0122 66.371H9.50236V59.4779H25.0122V66.371ZM41.3831 90.4977H25.8732V83.6046H41.3831V90.4977ZM74.1248 90.4977H58.6149V83.6046H74.1248V90.4977ZM57.7539 66.371H42.2441V59.4779H57.7539V66.371ZM90.4974 66.371H74.9875V59.4779H90.4974V66.371Z" fill="#2169AC"/>
</svg>
