<svg width="100" height="100" viewBox="0 0 100 100" fill="none" xmlns="http://www.w3.org/2000/svg">
<path d="M92.1505 71.5244C92.1505 78.4581 86.5295 84.0809 79.5941 84.0809H20.4039C13.4543 84.0809 7.84741 78.4457 7.84741 71.5244H92.1505Z" fill="#86CAFD"/>
<path d="M83.7685 15.9192H16.2297C12.5917 15.9192 9.64185 18.8691 9.64185 22.5071V64.9347C9.64185 68.5727 12.5917 71.5226 16.2297 71.5226H40.1341V73.3169C40.1341 75.374 41.7996 77.0395 43.8585 77.0395H56.1415C58.1987 77.0395 59.8659 75.3723 59.8659 73.3169V71.5226H83.7703C87.4083 71.5226 90.3582 68.5727 90.3582 64.9347V22.5088C90.3582 18.8708 87.4065 15.921 83.7703 15.921L83.7685 15.9192Z" fill="white"/>
<path d="M83.1827 23.0945V64.3489H16.8171V23.0945H83.1827Z" fill="#86CAFD"/>
<path d="M59.864 35.6511V57.1737H52.6904V39.2379V35.6511H59.864Z" fill="white"/>
<path d="M45.5152 42.8247V57.1737H38.3416V46.4133V42.8247H45.5152Z" fill="white"/>
<path d="M67.0394 32.0625V57.1737H59.864V35.6511V32.0625H67.0394Z" fill="white"/>
<path d="M52.6905 39.2378V57.1736H45.5151V42.8246V39.2378H52.6905Z" fill="white"/>
<path d="M38.3414 46.4133H31.166V57.1755H38.3414V46.4133Z" fill="white"/>
<path d="M83.1826 66.1433H16.817C15.8255 66.1433 15.0227 65.3405 15.0227 64.349V23.0946C15.0227 22.103 15.8255 21.3003 16.817 21.3003H83.1826C84.1741 21.3003 84.9768 22.103 84.9768 23.0946V64.349C84.9768 65.3388 84.1741 66.1433 83.1826 66.1433ZM18.6095 62.5547H81.3883V24.8871H18.6095V62.5547Z" fill="#2169AA"/>
<path d="M83.7684 73.3169C82.7768 73.3169 81.9741 72.5141 81.9741 71.5226C81.9741 70.5311 82.7768 69.7283 83.7684 69.7283C86.4113 69.7283 88.562 67.5777 88.562 64.933V22.5089C88.562 19.8659 86.4113 17.7153 83.7684 17.7153H16.2296C13.5867 17.7153 11.436 19.8659 11.436 22.5089V64.9365C11.436 67.5794 13.5867 69.7301 16.2296 69.7301C17.2193 69.7301 18.0238 70.5328 18.0238 71.5244C18.0238 72.5159 17.2211 73.3187 16.2296 73.3187C11.6071 73.3187 7.84741 69.559 7.84741 64.9365V22.5089C7.84741 17.8864 11.6071 14.1267 16.2296 14.1267H83.7684C88.3908 14.1267 92.1505 17.8864 92.1505 22.5089V64.9365C92.1505 69.559 88.3908 73.3187 83.7684 73.3187V73.3169Z" fill="#2169AA"/>
<path d="M79.5959 85.8732H20.4039C16.5701 85.8732 12.9674 84.3806 10.2575 81.6707C7.54752 78.959 6.05493 75.3563 6.05493 71.5243C6.05493 70.5345 6.85768 69.73 7.84922 69.73H40.1357C41.1255 69.73 41.93 70.5327 41.93 71.5243V73.3185C41.93 74.3824 42.7963 75.2487 43.8602 75.2487H56.1431C57.207 75.2487 58.0733 74.3824 58.0733 73.3185V71.5243C58.0733 70.5345 58.876 69.73 59.8676 69.73H92.1541C93.1456 69.73 93.9484 70.5327 93.9484 71.5243C93.9484 79.4371 87.5105 85.8732 79.5994 85.8732H79.5959ZM9.78994 73.3168C10.1551 75.508 11.1908 77.5299 12.7945 79.1336C14.827 81.1643 17.5299 82.2847 20.4039 82.2847H79.5959C84.9187 82.2847 89.3524 78.3997 90.2081 73.3168H61.6583C61.6583 76.3584 59.183 78.8337 56.1414 78.8337H43.8584C40.8167 78.8337 38.3415 76.3584 38.3415 73.3168H9.78994Z" fill="#2169AA"/>
<path d="M31.1661 58.9679C30.1763 58.9679 29.3718 58.1652 29.3718 57.1736V46.4115C29.3718 45.4217 30.1746 44.6172 31.1661 44.6172H38.3415C39.3312 44.6172 40.1358 45.4199 40.1358 46.4115C40.1358 47.403 39.333 48.2058 38.3415 48.2058H32.9604V57.1736C32.9604 58.1652 32.1576 58.9679 31.1661 58.9679Z" fill="#2169AA"/>
<path d="M38.3414 58.9678C37.3499 58.9678 36.5471 58.1651 36.5471 57.1735V42.8246C36.5471 41.833 37.3499 41.0303 38.3414 41.0303H45.5168C46.5065 41.0303 47.3111 41.833 47.3111 42.8246C47.3111 43.8161 46.5083 44.6188 45.5168 44.6188H40.1357V57.1753C40.1357 58.1668 39.3329 58.9696 38.3414 58.9696V58.9678Z" fill="#2169AA"/>
<path d="M45.515 58.968C44.5252 58.968 43.7207 58.1652 43.7207 57.1737V39.2379C43.7207 38.2464 44.5235 37.4436 45.515 37.4436H52.6904C53.6819 37.4436 54.4846 38.2464 54.4846 39.2379C54.4846 40.2294 53.6819 41.0322 52.6904 41.0322H47.3093V57.1754C47.3093 58.167 46.5065 58.9697 45.515 58.9697V58.968Z" fill="#2169AA"/>
<path d="M52.6905 58.9679C51.7008 58.9679 50.8962 58.1651 50.8962 57.1736V35.6493C50.8962 34.6577 51.699 33.855 52.6905 33.855H59.8659C60.8557 33.855 61.6602 34.6577 61.6602 35.6493C61.6602 36.6408 60.8574 37.4435 59.8659 37.4435H54.4848V57.1736C54.4848 58.1634 53.6821 58.9661 52.6905 58.9661V58.9679Z" fill="#2169AA"/>
<path d="M67.0395 58.968C66.0479 58.968 65.2452 58.1652 65.2452 57.1737V33.8568H61.6584V57.1755C61.6584 58.1652 60.8556 58.9697 59.8641 58.9697C58.8726 58.9697 58.0698 58.167 58.0698 57.1755V32.0643C58.0698 31.0728 58.8726 30.27 59.8641 30.27H67.0395C68.0292 30.27 68.8338 31.0728 68.8338 32.0643V57.1755C68.8338 58.167 68.031 58.9697 67.0395 58.9697V58.968Z" fill="#2169AA"/>
<path d="M70.6262 58.968H27.5775C26.5877 58.968 25.7832 58.1652 25.7832 57.1737C25.7832 56.1821 26.586 55.3794 27.5775 55.3794H70.6262C71.6159 55.3794 72.4205 56.1821 72.4205 57.1737C72.4205 58.1652 71.6177 58.968 70.6262 58.968Z" fill="#2169AA"/>
</svg>
