<svg width="100" height="100" viewBox="0 0 100 100" fill="none" xmlns="http://www.w3.org/2000/svg">
<path d="M68.0505 7.88281H9.60303V92.1171H68.0505V7.88281Z" fill="white"/>
<path d="M19.917 42.2637V59.4549H49.2201L49.4442 59.4973L57.7363 47.0431V42.2637H19.917Z" fill="#89CCFF"/>
<path d="M47.4222 26.7925V33.6679H40.545L39.3506 30.2311L40.545 26.7925H47.4222Z" fill="white"/>
<path d="M40.5451 33.668H33.6697L32.3606 28.7122L33.6697 23.354H40.5451V33.668Z" fill="white"/>
<path d="M33.6698 33.6682H26.7926L25.5981 28.6823L26.7926 19.9155H33.6698V33.6682Z" fill="white"/>
<path d="M26.7924 33.6683H19.917V16.4771H26.7924V33.6683Z" fill="white"/>
<path d="M81.4221 49.5222C74.9683 43.0649 65.0442 42.2727 57.7365 47.0434C52.5336 50.4326 49.1409 56.2882 49.1409 62.8937C49.1409 73.3366 57.6059 81.8034 68.0505 81.8034C78.4951 81.8034 86.9602 73.3366 86.9602 62.8937C86.9602 57.6714 84.8431 52.9449 81.4221 49.5222Z" fill="white"/>
<path d="M76.5599 71.4021C81.2596 66.7024 81.2596 59.0828 76.5599 54.3831C71.8603 49.6834 64.2406 49.6834 59.541 54.3831C54.8413 59.0828 54.8413 66.7024 59.541 71.4021C64.2406 76.1017 71.8603 76.1017 76.5599 71.4021Z" fill="#89CCFF"/>
<path d="M68.0503 57.7349C70.8979 57.7349 73.2074 60.0443 73.2074 62.8919C73.2074 65.7395 70.8979 68.0489 68.0503 68.0489C65.2028 68.0489 62.8933 65.7395 62.8933 62.8919C62.8933 60.0443 65.2028 57.7349 68.0503 57.7349Z" fill="white"/>
<path d="M19.9154 35.3882H47.4207C48.3699 35.3882 49.1391 34.619 49.1391 33.6698V26.7926C49.1391 25.8434 48.3699 25.0742 47.4207 25.0742H42.2637V23.3558C42.2637 22.4066 41.4944 21.6373 40.5452 21.6373H35.3882V19.9189C35.3882 18.9697 34.619 18.2005 33.6698 18.2005H28.5128V16.4821C28.5128 15.5329 27.7435 14.7637 26.7944 14.7637H19.9171C18.968 14.7637 18.1987 15.5329 18.1987 16.4821V33.6733C18.1987 34.6225 18.9697 35.3935 19.9189 35.3935L19.9154 35.3882ZM45.7023 28.511V31.9496H42.2637V28.511H45.7023ZM38.8251 25.0742V31.9496H35.3865V25.0742H38.8251ZM31.9496 21.6356V31.9496H28.511V21.6356H31.9496ZM21.6356 18.197H25.0742V31.9496H21.6356V18.197Z" fill="#2169AC"/>
<path d="M38.8249 66.3306H19.9152C18.966 66.3306 18.1968 67.0998 18.1968 68.049C18.1968 68.9982 18.966 69.7674 19.9152 69.7674H38.8249C39.7741 69.7674 40.5433 68.9982 40.5433 68.049C40.5433 67.0998 39.7741 66.3306 38.8249 66.3306Z" fill="#2169AC"/>
<path d="M38.8249 74.9258H19.9152C18.966 74.9258 18.1968 75.695 18.1968 76.6442C18.1968 77.5934 18.966 78.3626 19.9152 78.3626H38.8249C39.7741 78.3626 40.5433 77.5934 40.5433 76.6442C40.5433 75.695 39.7741 74.9258 38.8249 74.9258Z" fill="#2169AC"/>
<path d="M90.3969 43.9821H86.9583V40.5435C86.9583 39.5943 86.1891 38.8251 85.2399 38.8251C84.2907 38.8251 83.5215 39.5943 83.5215 40.5435V44.9895L81.362 47.1473C78.1775 44.4497 74.1655 42.6995 69.7688 42.3343V7.88297C69.7688 6.93378 68.9996 6.16455 68.0504 6.16455H9.60123C8.65204 6.16455 7.88281 6.93378 7.88281 7.88297V92.1173C7.88281 93.0665 8.65204 93.8357 9.60123 93.8357H68.0487C68.9978 93.8357 69.7671 93.0665 69.7671 92.1173V83.4493C80.3405 82.5725 88.6767 73.6893 88.6767 62.8936C88.6767 57.823 86.8366 53.1758 83.7914 49.5802L85.9509 47.4225H90.3952C91.3444 47.4225 92.1136 46.6533 92.1136 45.7041C92.1136 44.7549 91.3444 43.9857 90.3952 43.9857L90.3969 43.9821ZM11.3214 90.3988V9.60139H66.332V42.336C63.8955 42.5372 61.579 43.1653 59.4548 44.1427V42.2655C59.4548 41.3163 58.6856 40.5471 57.7364 40.5471H19.9153C18.9661 40.5471 18.1969 41.3163 18.1969 42.2655V59.4567C18.1969 60.4059 18.9661 61.1751 19.9153 61.1751H47.4929C46.5402 72.6677 55.1535 82.5231 66.3302 83.4511V90.3988H11.3214ZM48.0734 57.7348H21.6355V43.9821H56.0162V46.1469C52.1595 48.9274 49.296 53.0047 48.0734 57.7348ZM85.2399 62.8918C85.2399 72.3713 77.5282 80.083 68.0487 80.083C58.5691 80.083 50.8574 72.3713 50.8574 62.8918C50.8574 53.4123 58.5691 45.7005 68.0487 45.7005C72.17 45.7005 75.958 47.1596 78.922 49.5873L76.4749 52.0343C74.1443 50.2224 71.2226 49.1391 68.0487 49.1391C60.4657 49.1391 54.296 55.3089 54.296 62.8918C54.296 70.4747 60.4657 76.6444 68.0487 76.6444C75.6316 76.6444 81.8013 70.4747 81.8013 62.8918C81.8013 59.7196 80.718 56.7962 78.9061 54.4655L81.3532 52.0185C83.7808 54.9825 85.2399 58.7704 85.2399 62.8918ZM78.3645 62.8918C78.3645 68.5799 73.7367 73.2058 68.0504 73.2058C62.3641 73.2058 57.7364 68.5799 57.7364 62.8918C57.7364 57.2037 62.3641 52.5778 68.0504 52.5778C70.2752 52.5778 72.3341 53.287 74.0208 54.4902L71.5402 56.9708C70.5169 56.3639 69.3225 56.0163 68.0504 56.0163C64.259 56.0163 61.1732 59.1003 61.1732 62.8918C61.1732 66.6833 64.259 69.769 68.0504 69.769C71.8419 69.769 74.9259 66.6833 74.9259 62.8918C74.9259 61.618 74.5765 60.4253 73.9714 59.402L76.452 56.9214C77.6535 58.6081 78.3645 60.6688 78.3645 62.8918ZM68.0504 66.3304C66.1556 66.3304 64.6118 64.7884 64.6118 62.8918C64.6118 60.6706 66.7184 58.9804 68.9361 59.5732L68.5532 59.956C67.8828 60.6264 67.8828 61.715 68.5532 62.3872C69.2254 63.0594 70.3122 63.0576 70.9844 62.3872L71.3673 62.0044C71.9601 64.2185 70.2734 66.3286 68.0487 66.3286L68.0504 66.3304Z" fill="#2169AC"/>
<path d="M45.7021 49.1411H26.7924C25.8432 49.1411 25.074 49.9103 25.074 50.8595C25.074 51.8087 25.8432 52.578 26.7924 52.578H45.7021C46.6513 52.578 47.4205 51.8087 47.4205 50.8595C47.4205 49.9103 46.6513 49.1411 45.7021 49.1411Z" fill="#2169AC"/>
</svg>
