<svg width="100" height="100" viewBox="0 0 100 100" fill="none" xmlns="http://www.w3.org/2000/svg">
<path d="M61.2013 71.7129H38.7983V88.6007H61.2013V71.7129Z" fill="#89CCFF"/>
<path d="M92.2211 7.77856V64.647H7.77856V7.77856H92.2193H92.2211Z" fill="white"/>
<path d="M85.3279 14.6716V64.6469H14.6716V14.6716H85.3262H85.3279Z" fill="#89CCFF"/>
<path d="M59.4777 25.0121V28.4578H49.1389V21.5647H59.4777V25.0121Z" fill="white"/>
<path d="M50.861 50.8608V57.7539H40.5222V54.3083V50.8608H50.861Z" fill="white"/>
<path d="M78.435 36.2136V43.1067H68.0945V39.6593V36.2136H73.2639H78.435Z" fill="white"/>
<path d="M31.9052 39.6593V43.1067H26.7358H21.5647V36.2136H31.9052V39.6593Z" fill="white"/>
<path d="M66.3707 85.3262C68.2744 85.3262 69.8181 86.8682 69.8181 88.7736C69.8181 89.7246 69.4318 90.5873 68.809 91.2101C68.1844 91.8346 67.3234 92.2193 66.3725 92.2193H33.6308C31.7253 92.2193 30.1833 90.6773 30.1833 88.7736C30.1833 87.8226 30.5697 86.9599 31.1925 86.3371C31.8171 85.7125 32.6781 85.3279 33.629 85.3279H66.3707V85.3262Z" fill="white"/>
<path d="M92.2211 64.647V74.9875H61.2013H38.7983H7.77856V64.647H14.6716H85.328H92.2211Z" fill="white"/>
<path d="M92.2211 6.05493H7.77864C6.82769 6.05493 6.05493 6.82593 6.05493 7.77864V74.9875C6.05493 75.9385 6.82593 76.7112 7.77864 76.7112H37.0747V83.6043H33.6273C30.7762 83.6043 28.4579 85.9226 28.4579 88.7737C28.4579 91.6248 30.7762 93.9431 33.6273 93.9431H66.369C69.2201 93.9431 71.5383 91.6248 71.5383 88.7737C71.5383 85.9226 69.2183 83.6043 66.369 83.6043H62.9216V76.7112H92.2176C93.1685 76.7112 93.9413 75.9403 93.9413 74.9875V7.77864C93.9413 6.82769 93.1703 6.05493 92.2176 6.05493H92.2211ZM90.4974 9.50236V62.9251H87.0518V14.6717C87.0518 13.7208 86.279 12.948 85.328 12.948H14.6717C13.7208 12.948 12.948 13.719 12.948 14.6717V62.9233H9.50236V9.50236H90.4974ZM83.6043 62.9251H16.3954V16.3954H83.6043V62.9251ZM68.0944 88.7737C68.0944 89.7229 67.3217 90.4974 66.3707 90.4974H33.629C32.6781 90.4974 31.9053 89.7247 31.9053 88.7737C31.9053 87.8228 32.6781 87.05 33.629 87.05H66.3707C67.3199 87.05 68.0944 87.8228 68.0944 88.7737ZM59.4777 83.6043H40.5221V76.7112H59.4777V83.6043ZM9.50236 73.2638V66.3707H90.4974V73.2638H9.50236Z" fill="#2169AC"/>
<path d="M21.5648 44.8287H25.0122V54.3065C25.0122 55.2574 25.7832 56.0302 26.7359 56.0302H38.7984V57.7539C38.7984 58.7049 39.5694 59.4776 40.5221 59.4776H50.8626C51.8135 59.4776 52.5863 58.7066 52.5863 57.7539V50.8608C52.5863 49.9099 51.8153 49.1371 50.8626 49.1371H40.5221C39.5711 49.1371 38.7984 49.9081 38.7984 50.8608V52.5845H28.4596V44.8305H31.9053C32.8562 44.8305 33.629 44.0595 33.629 43.1068V41.3831H66.3707V43.1068C66.3707 44.0577 67.1417 44.8305 68.0944 44.8305H78.4349C79.3859 44.8305 80.1586 44.0595 80.1586 43.1068V36.2137C80.1586 35.261 79.3876 34.49 78.4349 34.49H74.9875V25.0122C74.9875 24.0612 74.2147 23.2885 73.2638 23.2885H61.2013V21.5648C61.2013 20.6138 60.4303 19.8411 59.4776 19.8411H49.1371C48.1862 19.8411 47.4134 20.6121 47.4134 21.5648V28.4579C47.4134 29.4088 48.1844 30.1816 49.1371 30.1816H59.4776C60.4286 30.1816 61.2013 29.4106 61.2013 28.4579V26.7341H71.5418V34.4882H68.0944C67.1435 34.4882 66.3707 35.2592 66.3707 36.2119V37.9356H33.629V36.2119C33.629 35.261 32.858 34.4882 31.9053 34.4882H21.5648C20.6138 34.4882 19.8411 35.2592 19.8411 36.2119V43.105C19.8411 44.056 20.6121 44.8287 21.5648 44.8287ZM42.244 52.5845H49.1371V56.032H42.244V52.5845ZM57.7539 26.7359H50.8608V23.2885H57.7539V26.7359ZM69.8181 37.9356H76.7112V41.3831H69.8181V37.9356ZM23.2885 37.9356H30.1816V41.3831H23.2885V37.9356Z" fill="#2169AC"/>
</svg>
