<svg width="50" height="50" viewBox="0 0 50 50" fill="none" xmlns="http://www.w3.org/2000/svg">
<g clip-path="url(#clip0_450_1419)">
<path d="M43.3333 41.6667H13.3333C12.0073 41.6667 10.7355 41.1399 9.7978 40.2022C8.86012 39.2645 8.33333 37.9927 8.33333 36.6667V6.66667C8.33333 6.22464 8.15774 5.80072 7.84518 5.48816C7.53262 5.17559 7.10869 5 6.66667 5C6.22464 5 5.80072 5.17559 5.48816 5.48816C5.17559 5.80072 5 6.22464 5 6.66667V36.6667C5.00265 38.876 5.88147 40.9941 7.4437 42.5563C9.00593 44.1185 11.124 44.9974 13.3333 45H43.3333C43.7754 45 44.1993 44.8244 44.5118 44.5118C44.8244 44.1993 45 43.7754 45 43.3333C45 42.8913 44.8244 42.4674 44.5118 42.1548C44.1993 41.8423 43.7754 41.6667 43.3333 41.6667Z" fill="#00C2FF"/>
<path d="M15.0006 38.334C15.4427 38.334 15.8666 38.1584 16.1792 37.8458C16.4917 37.5333 16.6673 37.1093 16.6673 36.6673V25.0007C16.6673 24.5586 16.4917 24.1347 16.1792 23.8221C15.8666 23.5096 15.4427 23.334 15.0006 23.334C14.5586 23.334 14.1347 23.5096 13.8221 23.8221C13.5096 24.1347 13.334 24.5586 13.334 25.0007V36.6673C13.334 37.1093 13.5096 37.5333 13.8221 37.8458C14.1347 38.1584 14.5586 38.334 15.0006 38.334Z" fill="#00C2FF"/>
<path d="M21.666 21.6667V36.6666C21.666 37.1087 21.8416 37.5326 22.1542 37.8452C22.4667 38.1577 22.8907 38.3333 23.3327 38.3333C23.7747 38.3333 24.1986 38.1577 24.5112 37.8452C24.8238 37.5326 24.9994 37.1087 24.9994 36.6666V21.6667C24.9994 21.2246 24.8238 20.8007 24.5112 20.4882C24.1986 20.1756 23.7747 20 23.3327 20C22.8907 20 22.4667 20.1756 22.1542 20.4882C21.8416 20.8007 21.666 21.2246 21.666 21.6667Z" fill="#00C2FF"/>
<path d="M30 26.6667V36.6666C30 37.1087 30.1756 37.5326 30.4882 37.8452C30.8007 38.1577 31.2246 38.3333 31.6667 38.3333C32.1087 38.3333 32.5326 38.1577 32.8452 37.8452C33.1578 37.5326 33.3334 37.1087 33.3334 36.6666V26.6667C33.3334 26.2246 33.1578 25.8007 32.8452 25.4882C32.5326 25.1756 32.1087 25 31.6667 25C31.2246 25 30.8007 25.1756 30.4882 25.4882C30.1756 25.8007 30 26.2246 30 26.6667Z" fill="#00C2FF"/>
<path d="M38.334 20.0007V36.6673C38.334 37.1093 38.5096 37.5333 38.8221 37.8458C39.1347 38.1584 39.5586 38.334 40.0007 38.334C40.4427 38.334 40.8666 38.1584 41.1792 37.8458C41.4917 37.5333 41.6673 37.1093 41.6673 36.6673V20.0007C41.6673 19.5586 41.4917 19.1347 41.1792 18.8221C40.8666 18.5096 40.4427 18.334 40.0007 18.334C39.5586 18.334 39.1347 18.5096 38.8221 18.8221C38.5096 19.1347 38.334 19.5586 38.334 20.0007Z" fill="#00C2FF"/>
<path d="M14.9993 19.9991C15.4413 19.999 15.8652 19.8233 16.1777 19.5107L22.1543 13.5341C22.472 13.2314 22.8939 13.0626 23.3327 13.0626C23.7714 13.0626 24.1933 13.2314 24.511 13.5341L28.131 17.1541C29.0686 18.0914 30.3402 18.618 31.666 18.618C32.9918 18.618 34.2633 18.0914 35.201 17.1541L44.511 7.84405C44.8146 7.52971 44.9826 7.10871 44.9788 6.67172C44.975 6.23472 44.7997 5.8167 44.4907 5.50769C44.1817 5.19867 43.7636 5.02339 43.3267 5.01959C42.8897 5.0158 42.4687 5.18379 42.1543 5.48738L32.8443 14.7957C32.5318 15.1082 32.1079 15.2837 31.666 15.2837C31.224 15.2837 30.8002 15.1082 30.4877 14.7957L26.8677 11.1774C25.93 10.24 24.6585 9.71345 23.3327 9.71345C22.0068 9.71345 20.7353 10.24 19.7977 11.1774L13.821 17.1541C13.588 17.3871 13.4293 17.6841 13.365 18.0073C13.3007 18.3306 13.3337 18.6656 13.4599 18.9701C13.586 19.2746 13.7995 19.5349 14.0736 19.7181C14.3476 19.9012 14.6697 19.999 14.9993 19.9991Z" fill="#00C2FF"/>
</g>
<defs>
<clipPath id="clip0_450_1419">
<rect width="40" height="40" fill="white" transform="translate(5 5)"/>
</clipPath>
</defs>
</svg>
