<svg width="50" height="50" viewBox="0 0 50 50" fill="none" xmlns="http://www.w3.org/2000/svg">
<g clip-path="url(#clip0_450_1321)">
<path d="M36.6667 6.66602H13.3333C11.124 6.66866 9.00593 7.54749 7.4437 9.10972C5.88147 10.6719 5.00265 12.79 5 14.9993L5 34.9993C5.00265 37.2087 5.88147 39.3268 7.4437 40.889C9.00593 42.4512 11.124 43.33 13.3333 43.3327H36.6667C38.876 43.33 40.9941 42.4512 42.5563 40.889C44.1185 39.3268 44.9974 37.2087 45 34.9993V14.9993C44.9974 12.79 44.1185 10.6719 42.5563 9.10972C40.9941 7.54749 38.876 6.66866 36.6667 6.66602ZM13.3333 9.99935H36.6667C37.9927 9.99935 39.2645 10.5261 40.2022 11.4638C41.1399 12.4015 41.6667 13.6733 41.6667 14.9993V16.666H8.33333V14.9993C8.33333 13.6733 8.86012 12.4015 9.7978 11.4638C10.7355 10.5261 12.0073 9.99935 13.3333 9.99935ZM36.6667 39.9993H13.3333C12.0073 39.9993 10.7355 39.4726 9.7978 38.5349C8.86012 37.5972 8.33333 36.3254 8.33333 34.9993V19.9993H41.6667V34.9993C41.6667 36.3254 41.1399 37.5972 40.2022 38.5349C39.2645 39.4726 37.9927 39.9993 36.6667 39.9993ZM36.6667 26.666C36.6667 27.108 36.4911 27.532 36.1785 27.8445C35.866 28.1571 35.442 28.3327 35 28.3327H15C14.558 28.3327 14.134 28.1571 13.8215 27.8445C13.5089 27.532 13.3333 27.108 13.3333 26.666C13.3333 26.224 13.5089 25.8001 13.8215 25.4875C14.134 25.1749 14.558 24.9993 15 24.9993H35C35.442 24.9993 35.866 25.1749 36.1785 25.4875C36.4911 25.8001 36.6667 26.224 36.6667 26.666ZM30 33.3327C30 33.7747 29.8244 34.1986 29.5118 34.5112C29.1993 34.8238 28.7754 34.9993 28.3333 34.9993H15C14.558 34.9993 14.134 34.8238 13.8215 34.5112C13.5089 34.1986 13.3333 33.7747 13.3333 33.3327C13.3333 32.8907 13.5089 32.4667 13.8215 32.1542C14.134 31.8416 14.558 31.666 15 31.666H28.3333C28.7754 31.666 29.1993 31.8416 29.5118 32.1542C29.8244 32.4667 30 32.8907 30 33.3327ZM10 13.3327C10 13.003 10.0977 12.6808 10.2809 12.4067C10.464 12.1326 10.7243 11.919 11.0289 11.7929C11.3334 11.6667 11.6685 11.6337 11.9918 11.698C12.3151 11.7623 12.6121 11.9211 12.8452 12.1542C13.0783 12.3873 13.237 12.6842 13.3013 13.0075C13.3656 13.3308 13.3326 13.6659 13.2065 13.9705C13.0803 14.275 12.8667 14.5353 12.5926 14.7185C12.3185 14.9016 11.9963 14.9993 11.6667 14.9993C11.2246 14.9993 10.8007 14.8238 10.4882 14.5112C10.1756 14.1986 10 13.7747 10 13.3327ZM15 13.3327C15 13.003 15.0977 12.6808 15.2809 12.4067C15.464 12.1326 15.7243 11.919 16.0289 11.7929C16.3334 11.6667 16.6685 11.6337 16.9918 11.698C17.3151 11.7623 17.6121 11.9211 17.8452 12.1542C18.0783 12.3873 18.237 12.6842 18.3013 13.0075C18.3656 13.3308 18.3326 13.6659 18.2065 13.9705C18.0803 14.275 17.8667 14.5353 17.5926 14.7185C17.3185 14.9016 16.9963 14.9993 16.6667 14.9993C16.2246 14.9993 15.8007 14.8238 15.4882 14.5112C15.1756 14.1986 15 13.7747 15 13.3327ZM20 13.3327C20 13.003 20.0977 12.6808 20.2809 12.4067C20.464 12.1326 20.7243 11.919 21.0289 11.7929C21.3334 11.6667 21.6685 11.6337 21.9918 11.698C22.3151 11.7623 22.6121 11.9211 22.8452 12.1542C23.0783 12.3873 23.237 12.6842 23.3013 13.0075C23.3656 13.3308 23.3326 13.6659 23.2065 13.9705C23.0803 14.275 22.8667 14.5353 22.5926 14.7185C22.3185 14.9016 21.9963 14.9993 21.6667 14.9993C21.2246 14.9993 20.8007 14.8238 20.4882 14.5112C20.1756 14.1986 20 13.7747 20 13.3327Z" fill="#00C2FF"/>
</g>
<defs>
<clipPath id="clip0_450_1321">
<rect width="40" height="40" fill="white" transform="translate(5 5)"/>
</clipPath>
</defs>
</svg>
