<svg width="50" height="50" viewBox="0 0 50 50" fill="none" xmlns="http://www.w3.org/2000/svg">
<g clip-path="url(#clip0_450_1314)">
<path d="M26.6673 38.3334C28.8766 38.3307 30.9947 37.4519 32.557 35.8897C34.1192 34.3274 34.998 32.2094 35.0007 30V15.405C35.0032 14.529 34.8319 13.6611 34.4966 12.8517C34.1613 12.0424 33.6687 11.3076 33.0473 10.69L29.3107 6.95336C28.6931 6.33199 27.9583 5.83937 27.149 5.50406C26.3396 5.16876 25.4717 4.99744 24.5957 5.00003H16.6673C14.458 5.00268 12.3399 5.8815 10.7777 7.44373C9.21545 9.00596 8.33663 11.124 8.33398 13.3334V30C8.33663 32.2094 9.21545 34.3274 10.7777 35.8897C12.3399 37.4519 14.458 38.3307 16.6673 38.3334H26.6673ZM11.6673 30V13.3334C11.6673 12.0073 12.1941 10.7355 13.1318 9.79783C14.0695 8.86015 15.3412 8.33336 16.6673 8.33336C16.6673 8.33336 24.8657 8.3567 25.0007 8.37336V11.6667C25.0007 12.5508 25.3518 13.3986 25.977 14.0237C26.6021 14.6488 27.4499 15 28.334 15H31.6273C31.644 15.135 31.6673 30 31.6673 30C31.6673 31.3261 31.1405 32.5979 30.2029 33.5356C29.2652 34.4732 27.9934 35 26.6673 35H16.6673C15.3412 35 14.0695 34.4732 13.1318 33.5356C12.1941 32.5979 11.6673 31.3261 11.6673 30V30ZM41.6673 18.3334V36.6667C41.6647 38.876 40.7859 40.9941 39.2236 42.5563C37.6614 44.1186 35.5433 44.9974 33.334 45H18.334C17.892 45 17.468 44.8244 17.1555 44.5119C16.8429 44.1993 16.6673 43.7754 16.6673 43.3334C16.6673 42.8913 16.8429 42.4674 17.1555 42.1548C17.468 41.8423 17.892 41.6667 18.334 41.6667H33.334C34.6601 41.6667 35.9318 41.1399 36.8695 40.2022C37.8072 39.2645 38.334 37.9928 38.334 36.6667V18.3334C38.334 17.8913 38.5096 17.4674 38.8221 17.1549C39.1347 16.8423 39.5586 16.6667 40.0007 16.6667C40.4427 16.6667 40.8666 16.8423 41.1792 17.1549C41.4917 17.4674 41.6673 17.8913 41.6673 18.3334Z" fill="#00C2FF"/>
</g>
<defs>
<clipPath id="clip0_450_1314">
<rect width="40" height="40" fill="white" transform="translate(5 5)"/>
</clipPath>
</defs>
</svg>
