<svg width="50" height="50" viewBox="0 0 50 50" fill="none" xmlns="http://www.w3.org/2000/svg">
<g clip-path="url(#clip0_450_1431)">
<path d="M25.0007 18.334C23.6821 18.334 22.3932 18.725 21.2969 19.4575C20.2005 20.1901 19.346 21.2313 18.8415 22.4494C18.3369 23.6676 18.2049 25.008 18.4621 26.3013C18.7193 27.5945 19.3543 28.7823 20.2866 29.7147C21.219 30.647 22.4068 31.282 23.7001 31.5392C24.9933 31.7965 26.3337 31.6644 27.5519 31.1598C28.7701 30.6553 29.8112 29.8008 30.5438 28.7045C31.2763 27.6081 31.6673 26.3192 31.6673 25.0007C31.6673 23.2325 30.9649 21.5368 29.7147 20.2866C28.4645 19.0364 26.7688 18.334 25.0007 18.334ZM25.0007 28.334C24.3414 28.334 23.6969 28.1385 23.1488 27.7722C22.6006 27.4059 22.1733 26.8853 21.9211 26.2763C21.6688 25.6672 21.6028 24.997 21.7314 24.3503C21.86 23.7037 22.1775 23.1098 22.6436 22.6436C23.1098 22.1775 23.7038 21.86 24.3504 21.7314C24.997 21.6027 25.6672 21.6688 26.2763 21.9211C26.8854 22.1733 27.4059 22.6006 27.7722 23.1488C28.1385 23.6969 28.334 24.3414 28.334 25.0007C28.334 25.8847 27.9828 26.7326 27.3577 27.3577C26.7326 27.9828 25.8847 28.334 25.0007 28.334Z" fill="#00C2FF"/>
<path d="M40.4903 28.1667L39.7503 27.74C40.0835 25.9274 40.0835 24.0693 39.7503 22.2567L40.4903 21.83C41.0594 21.5017 41.5582 21.0645 41.9583 20.5434C42.3584 20.0224 42.652 19.4276 42.8222 18.793C42.9925 18.1585 43.036 17.4966 42.9505 16.8453C42.865 16.1939 42.652 15.5657 42.3237 14.9967C41.9953 14.4276 41.5582 13.9288 41.0371 13.5287C40.516 13.1286 39.9212 12.835 39.2867 12.6648C38.6521 12.4945 37.9903 12.4509 37.3389 12.5365C36.6875 12.622 36.0594 12.835 35.4903 13.1633L34.7487 13.5917C33.3479 12.3949 31.7381 11.4671 30.0003 10.855V10C30.0003 8.67392 29.4735 7.40215 28.5359 6.46447C27.5982 5.52678 26.3264 5 25.0003 5C23.6742 5 22.4025 5.52678 21.4648 6.46447C20.5271 7.40215 20.0003 8.67392 20.0003 10V10.855C18.2626 11.4693 16.6534 12.3993 15.2536 13.5983L14.5086 13.1667C13.3594 12.5036 11.9938 12.3243 10.7123 12.6681C9.43079 13.0119 8.33836 13.8507 7.67532 15C7.01227 16.1493 6.83294 17.5149 7.17675 18.7964C7.52057 20.0779 8.35938 21.1703 9.50865 21.8333L10.2486 22.26C9.9155 24.0726 9.9155 25.9307 10.2486 27.7433L9.50865 28.17C8.35938 28.833 7.52057 29.9255 7.17675 31.207C6.83294 32.4885 7.01227 33.8541 7.67532 35.0033C8.33836 36.1526 9.43079 36.9914 10.7123 37.3352C11.9938 37.679 13.3594 37.4997 14.5086 36.8367L15.2503 36.4083C16.6516 37.6053 18.262 38.5331 20.0003 39.145V40C20.0003 41.3261 20.5271 42.5979 21.4648 43.5355C22.4025 44.4732 23.6742 45 25.0003 45C26.3264 45 27.5982 44.4732 28.5359 43.5355C29.4735 42.5979 30.0003 41.3261 30.0003 40V39.145C31.738 38.5307 33.3472 37.6007 34.747 36.4017L35.492 36.8317C36.6413 37.4947 38.0068 37.674 39.2883 37.3302C40.5698 36.9864 41.6623 36.1476 42.3253 34.9983C42.9884 33.8491 43.1677 32.4835 42.8239 31.202C42.4801 29.9205 41.6413 28.828 40.492 28.165L40.4903 28.1667ZM36.2437 21.8733C36.8081 23.9184 36.8081 26.0782 36.2437 28.1233C36.1451 28.4793 36.1676 28.8579 36.3076 29.1997C36.4475 29.5415 36.6971 29.8271 37.017 30.0117L38.8237 31.055C39.2067 31.276 39.4862 31.6401 39.6008 32.0672C39.7153 32.4944 39.6555 32.9495 39.4345 33.3325C39.2135 33.7155 38.8494 33.995 38.4222 34.1096C37.9951 34.2242 37.54 34.1643 37.157 33.9433L35.347 32.8967C35.0268 32.7112 34.654 32.6376 34.2874 32.6874C33.9208 32.7372 33.5811 32.9076 33.322 33.1717C31.8385 34.6861 29.9696 35.7666 27.917 36.2967C27.5587 36.3888 27.2413 36.5975 27.0146 36.8899C26.788 37.1823 26.6651 37.5417 26.6653 37.9117V40C26.6653 40.442 26.4897 40.866 26.1772 41.1785C25.8646 41.4911 25.4407 41.6667 24.9986 41.6667C24.5566 41.6667 24.1327 41.4911 23.8201 41.1785C23.5076 40.866 23.332 40.442 23.332 40V37.9133C23.3322 37.5434 23.2093 37.1839 22.9827 36.8915C22.756 36.5991 22.4386 36.3904 22.0803 36.2983C20.0276 35.7661 18.1592 34.6833 16.677 33.1667C16.4179 32.9026 16.0782 32.7322 15.7116 32.6824C15.3449 32.6326 14.9722 32.7062 14.652 32.8917L12.8453 33.9367C12.6557 34.0478 12.446 34.1204 12.2282 34.1502C12.0104 34.1799 11.7889 34.1663 11.5764 34.1102C11.3639 34.054 11.1646 33.9563 10.99 33.8228C10.8154 33.6893 10.6689 33.5226 10.559 33.3322C10.4491 33.1419 10.378 32.9317 10.3496 32.7137C10.3213 32.4957 10.3364 32.2743 10.394 32.0622C10.4516 31.8501 10.5505 31.6514 10.6852 31.4777C10.8199 31.304 10.9876 31.1586 11.1786 31.05L12.9853 30.0067C13.3052 29.8221 13.5548 29.5365 13.6947 29.1947C13.8347 28.8529 13.8572 28.4743 13.7586 28.1183C13.1942 26.0732 13.1942 23.9134 13.7586 21.8683C13.8554 21.5131 13.8319 21.1359 13.6917 20.7955C13.5515 20.4551 13.3025 20.1707 12.9836 19.9867L11.177 18.9433C10.794 18.7223 10.5144 18.3582 10.3999 17.9311C10.2853 17.504 10.3451 17.0488 10.5661 16.6658C10.7872 16.2828 11.1513 16.0033 11.5784 15.8887C12.0055 15.7742 12.4606 15.834 12.8436 16.055L14.6536 17.1017C14.9729 17.2875 15.345 17.362 15.7112 17.3134C16.0774 17.2649 16.4172 17.096 16.677 16.8333C18.1605 15.3189 20.0294 14.2384 22.082 13.7083C22.4414 13.6159 22.7596 13.4063 22.9864 13.1125C23.2131 12.8188 23.3353 12.4577 23.3337 12.0867V10C23.3337 9.55797 23.5092 9.13405 23.8218 8.82149C24.1344 8.50893 24.5583 8.33333 25.0003 8.33333C25.4423 8.33333 25.8663 8.50893 26.1788 8.82149C26.4914 9.13405 26.667 9.55797 26.667 10V12.0867C26.6668 12.4566 26.7897 12.8161 27.0163 13.1085C27.2429 13.4009 27.5604 13.6096 27.9187 13.7017C29.972 14.2336 31.841 15.3165 33.3236 16.8333C33.5828 17.0974 33.9224 17.2678 34.2891 17.3176C34.6557 17.3674 35.0285 17.2938 35.3487 17.1083L37.1553 16.0633C37.3449 15.9522 37.5547 15.8796 37.7724 15.8498C37.9902 15.8201 38.2117 15.8337 38.4242 15.8898C38.6367 15.946 38.836 16.0437 39.0106 16.1772C39.1852 16.3107 39.3317 16.4774 39.4416 16.6678C39.5515 16.8581 39.6227 17.0683 39.651 17.2863C39.6793 17.5043 39.6643 17.7257 39.6067 17.9378C39.5491 18.1499 39.4501 18.3486 39.3154 18.5223C39.1808 18.696 39.0131 18.8414 38.822 18.95L37.0153 19.9933C36.6971 20.1778 36.4488 20.4625 36.3092 20.8028C36.1696 21.1432 36.1466 21.5202 36.2437 21.875V21.8733Z" fill="#00C2FF"/>
</g>
<defs>
<clipPath id="clip0_450_1431">
<rect width="40" height="40" fill="white" transform="translate(5 5)"/>
</clipPath>
</defs>
</svg>
