<svg width="50" height="50" viewBox="0 0 50 50" fill="none" xmlns="http://www.w3.org/2000/svg">
<g clip-path="url(#clip0_450_1353)">
<path d="M38.1667 10.1518C37.9618 9.27118 37.5799 8.44148 37.0442 7.71312C36.5086 6.98477 35.8304 6.37297 35.0509 5.91494C34.2714 5.45691 33.4069 5.16221 32.5099 5.04878C31.613 4.93534 30.7023 5.00553 29.8333 5.25509L26.96 6.07676C26.2321 6.28596 25.5617 6.65879 25 7.16676C24.4383 6.65879 23.7679 6.28596 23.04 6.07676L20.1667 5.25509C19.2982 5.00683 18.3884 4.93764 17.4924 5.05171C16.5964 5.16578 15.7329 5.46072 14.9544 5.91865C14.1758 6.37658 13.4985 6.98794 12.9634 7.71561C12.4283 8.44329 12.0467 9.2721 11.8417 10.1518C9.92466 10.5005 8.19048 11.51 6.94055 13.0048C5.69063 14.4995 5.00399 16.385 5 18.3334L5 30.0001C5.00265 32.2094 5.88147 34.3275 7.4437 35.8897C9.00593 37.452 11.124 38.3308 13.3333 38.3334H23.3333V41.6668H18.3333C17.8913 41.6668 17.4674 41.8424 17.1548 42.1549C16.8423 42.4675 16.6667 42.8914 16.6667 43.3334C16.6667 43.7754 16.8423 44.1994 17.1548 44.5119C17.4674 44.8245 17.8913 45.0001 18.3333 45.0001H31.6667C32.1087 45.0001 32.5326 44.8245 32.8452 44.5119C33.1577 44.1994 33.3333 43.7754 33.3333 43.3334C33.3333 42.8914 33.1577 42.4675 32.8452 42.1549C32.5326 41.8424 32.1087 41.6668 31.6667 41.6668H26.6667V38.3334H36.6667C38.876 38.3308 40.9941 37.452 42.5563 35.8897C44.1185 34.3275 44.9974 32.2094 45 30.0001V18.3334C44.9964 16.3861 44.3109 14.5016 43.0626 13.0071C41.8144 11.5125 40.0821 10.5023 38.1667 10.1518ZM26.6667 10.8851C26.6668 10.5231 26.7848 10.171 27.0028 9.88207C27.2208 9.5931 27.527 9.38297 27.875 9.28342L30.75 8.46176C31.2461 8.31985 31.7684 8.29507 32.2758 8.38936C32.7831 8.48366 33.2617 8.69447 33.6737 9.00517C34.0857 9.31588 34.4199 9.718 34.6501 10.1799C34.8802 10.6417 35 11.1507 35 11.6668V18.2301C34.9977 18.9533 34.7609 19.6563 34.3252 20.2336C33.8894 20.8109 33.2783 21.2313 32.5833 21.4318L26.6667 23.1218V10.8851ZM16.3333 9.00009C16.7445 8.69051 17.2221 8.48074 17.7282 8.38731C18.2344 8.29389 18.7554 8.31937 19.25 8.46176L22.125 9.28342C22.473 9.38297 22.7792 9.5931 22.9972 9.88207C23.2152 10.171 23.3332 10.5231 23.3333 10.8851V23.1218L17.4167 21.4318C16.7217 21.2313 16.1106 20.8109 15.6748 20.2336C15.2391 19.6563 15.0023 18.9533 15 18.2301V11.6668C14.9983 11.149 15.118 10.638 15.3496 10.1749C15.5812 9.71177 15.9181 9.3094 16.3333 9.00009ZM41.6667 30.0001C41.6667 31.3262 41.1399 32.5979 40.2022 33.5356C39.2645 34.4733 37.9927 35.0001 36.6667 35.0001H13.3333C12.0073 35.0001 10.7355 34.4733 9.7978 33.5356C8.86012 32.5979 8.33333 31.3262 8.33333 30.0001V18.3334C8.3376 17.303 8.66014 16.299 9.25681 15.4589C9.85349 14.6188 10.6952 13.9836 11.6667 13.6401V18.2301C11.6707 19.6773 12.144 21.0842 13.0155 22.2396C13.887 23.3951 15.1096 24.2368 16.5 24.6384L22.2517 26.2834C24.0492 26.7958 25.9541 26.7958 27.7517 26.2834L33.5033 24.6384C34.8931 24.2362 36.115 23.3942 36.9858 22.2388C37.8567 21.0835 38.3295 19.6769 38.3333 18.2301V13.6401C39.3048 13.9836 40.1465 14.6188 40.7432 15.4589C41.3399 16.299 41.6624 17.303 41.6667 18.3334V30.0001Z" fill="#00C2FF"/>
</g>
<defs>
<clipPath id="clip0_450_1353">
<rect width="40" height="40" fill="white" transform="translate(5 5)"/>
</clipPath>
</defs>
</svg>
