<svg width="50" height="50" viewBox="0 0 50 50" fill="none" xmlns="http://www.w3.org/2000/svg">
<g clip-path="url(#clip0_450_1452)">
<path d="M44.9999 23.7459C44.7589 19.846 43.3819 16.1018 41.0386 12.975C38.6953 9.84817 35.4883 7.47543 31.8128 6.14926C28.1373 4.8231 24.1541 4.6015 20.3542 5.51177C16.5543 6.42204 13.1038 8.42439 10.4282 11.272C7.75253 14.1196 5.96866 17.6879 5.2965 21.537C4.62433 25.3862 5.09326 29.3479 6.64545 32.9338C8.19765 36.5197 10.7653 39.5729 14.0318 41.7172C17.2983 43.8614 21.1209 45.0029 25.0283 45.0009H36.6666C38.8761 44.9987 40.9944 44.1201 42.5567 42.5577C44.119 40.9954 44.9977 38.8771 44.9999 36.6676V23.7459ZM41.6666 36.6676C41.6666 37.9937 41.1398 39.2655 40.2021 40.2031C39.2644 41.1408 37.9927 41.6676 36.6666 41.6676H25.0283C22.6765 41.6665 20.3513 41.1698 18.2044 40.2098C16.0575 39.2498 14.1371 37.848 12.5683 36.0959C10.9919 34.3447 9.80815 32.2767 9.09642 30.0306C8.38469 27.7844 8.16143 25.4121 8.4416 23.0726C8.88399 19.3825 10.5419 15.9446 13.154 13.3008C15.7661 10.657 19.1838 8.95779 22.8683 8.47094C23.587 8.38086 24.3106 8.33522 25.0349 8.33427C28.9191 8.32368 32.6829 9.68078 35.6666 12.1676C37.4091 13.6158 38.8394 15.4029 39.8708 17.4203C40.9022 19.4378 41.5131 21.6437 41.6666 23.9043V36.6676Z" fill="#00C2FF"/>
<path d="M18.3327 19.9993H24.9993C25.4414 19.9993 25.8653 19.8237 26.1779 19.5112C26.4904 19.1986 26.666 18.7747 26.666 18.3327C26.666 17.8907 26.4904 17.4667 26.1779 17.1542C25.8653 16.8416 25.4414 16.666 24.9993 16.666H18.3327C17.8907 16.666 17.4667 16.8416 17.1542 17.1542C16.8416 17.4667 16.666 17.8907 16.666 18.3327C16.666 18.7747 16.8416 19.1986 17.1542 19.5112C17.4667 19.8237 17.8907 19.9993 18.3327 19.9993Z" fill="#00C2FF"/>
<path d="M31.666 23.334H18.3327C17.8907 23.334 17.4667 23.5096 17.1542 23.8221C16.8416 24.1347 16.666 24.5586 16.666 25.0007C16.666 25.4427 16.8416 25.8666 17.1542 26.1792C17.4667 26.4917 17.8907 26.6673 18.3327 26.6673H31.666C32.108 26.6673 32.532 26.4917 32.8445 26.1792C33.1571 25.8666 33.3327 25.4427 33.3327 25.0007C33.3327 24.5586 33.1571 24.1347 32.8445 23.8221C32.532 23.5096 32.108 23.334 31.666 23.334Z" fill="#00C2FF"/>
<path d="M31.666 30H18.3327C17.8907 30 17.4667 30.1756 17.1542 30.4882C16.8416 30.8007 16.666 31.2246 16.666 31.6667C16.666 32.1087 16.8416 32.5326 17.1542 32.8452C17.4667 33.1578 17.8907 33.3334 18.3327 33.3334H31.666C32.108 33.3334 32.532 33.1578 32.8445 32.8452C33.1571 32.5326 33.3327 32.1087 33.3327 31.6667C33.3327 31.2246 33.1571 30.8007 32.8445 30.4882C32.532 30.1756 32.108 30 31.666 30Z" fill="#00C2FF"/>
</g>
<defs>
<clipPath id="clip0_450_1452">
<rect width="40" height="40" fill="white" transform="translate(5 5)"/>
</clipPath>
</defs>
</svg>
