<svg width="50" height="50" viewBox="0 0 50 50" fill="none" xmlns="http://www.w3.org/2000/svg">
<g clip-path="url(#clip0_450_1388)">
<path d="M8.33333 23.3333H26.6667C27.5507 23.3333 28.3986 22.9821 29.0237 22.357C29.6488 21.7319 30 20.8841 30 20V8.33333C30 7.44928 29.6488 6.60143 29.0237 5.97631C28.3986 5.35119 27.5507 5 26.6667 5H8.33333C7.44928 5 6.60143 5.35119 5.97631 5.97631C5.35119 6.60143 5 7.44928 5 8.33333L5 20C5 20.8841 5.35119 21.7319 5.97631 22.357C6.60143 22.9821 7.44928 23.3333 8.33333 23.3333ZM8.33333 8.33333H26.6667V20H8.33333V8.33333Z" fill="#00C2FF"/>
<path d="M41.6673 5H36.6673C35.7833 5 34.9354 5.35119 34.3103 5.97631C33.6852 6.60143 33.334 7.44928 33.334 8.33333V20C33.334 20.8841 33.6852 21.7319 34.3103 22.357C34.9354 22.9821 35.7833 23.3333 36.6673 23.3333H41.6673C42.5514 23.3333 43.3992 22.9821 44.0243 22.357C44.6495 21.7319 45.0007 20.8841 45.0007 20V8.33333C45.0007 7.44928 44.6495 6.60143 44.0243 5.97631C43.3992 5.35119 42.5514 5 41.6673 5V5ZM41.6673 20H36.6673V8.33333H41.6673V20Z" fill="#00C2FF"/>
<path d="M13.3333 26.668H8.33333C7.44928 26.668 6.60143 27.0192 5.97631 27.6443C5.35119 28.2694 5 29.1172 5 30.0013L5 41.6679C5 42.552 5.35119 43.3998 5.97631 44.025C6.60143 44.6501 7.44928 45.0013 8.33333 45.0013H13.3333C14.2174 45.0013 15.0652 44.6501 15.6904 44.025C16.3155 43.3998 16.6667 42.552 16.6667 41.6679V30.0013C16.6667 29.1172 16.3155 28.2694 15.6904 27.6443C15.0652 27.0192 14.2174 26.668 13.3333 26.668ZM13.3333 41.6679H8.33333V30.0013H13.3333V41.6679Z" fill="#00C2FF"/>
<path d="M41.6667 26.668H23.3333C22.4493 26.668 21.6014 27.0192 20.9763 27.6443C20.3512 28.2694 20 29.1172 20 30.0013V41.6679C20 42.552 20.3512 43.3998 20.9763 44.025C21.6014 44.6501 22.4493 45.0013 23.3333 45.0013H41.6667C42.5507 45.0013 43.3986 44.6501 44.0237 44.025C44.6488 43.3998 45 42.552 45 41.6679V30.0013C45 29.1172 44.6488 28.2694 44.0237 27.6443C43.3986 27.0192 42.5507 26.668 41.6667 26.668ZM41.6667 41.6679H23.3333V30.0013H41.6667V41.6679Z" fill="#00C2FF"/>
</g>
<defs>
<clipPath id="clip0_450_1388">
<rect width="40" height="40" fill="white" transform="translate(5 5)"/>
</clipPath>
</defs>
</svg>
