<svg width="50" height="50" viewBox="0 0 50 50" fill="none" xmlns="http://www.w3.org/2000/svg">
<g clip-path="url(#clip0_450_1412)">
<path d="M44.9999 24.9711C44.9964 23.6143 44.5783 22.291 43.8018 21.1785C43.0252 20.0659 41.9273 19.2172 40.6549 18.7461L40.5916 18.5944C38.9382 14.5501 35.7729 11.31 31.7683 9.56275L31.2199 9.32275C30.7479 8.05427 29.8991 6.96051 28.7877 6.18819C27.6762 5.41588 26.3551 5.00195 25.0016 5.00195C23.6481 5.00195 22.327 5.41588 21.2155 6.18819C20.104 6.96051 19.2553 8.05427 18.7833 9.32275L18.0866 9.63608C14.1175 11.4388 10.9936 14.6988 9.3616 18.7411C8.08717 19.2054 6.98572 20.0492 6.20568 21.1589C5.42565 22.2685 5.00453 23.5906 4.99908 24.947C4.99363 26.3034 5.40411 27.6288 6.17521 28.7447C6.9463 29.8605 8.04094 30.7132 9.31159 31.1877L9.52493 31.6877C11.1972 35.5692 14.2683 38.6797 18.1283 40.4011L18.7833 40.6944C19.2567 41.9611 20.1057 43.0529 21.2167 43.8237C22.3277 44.5946 23.6477 45.0076 24.9999 45.0076C26.3522 45.0076 27.6721 44.5946 28.7831 43.8237C29.8942 43.0529 30.7432 41.9611 31.2166 40.6944L31.8283 40.4227C35.8659 38.6173 39.0402 35.3085 40.6766 31.1994C41.9446 30.7233 43.0375 29.8723 43.8099 28.7597C44.5822 27.647 44.9973 26.3255 44.9999 24.9711ZM24.9999 8.33275C25.6592 8.33275 26.3037 8.52824 26.8518 8.89451C27.4 9.26079 27.8272 9.78138 28.0795 10.3905C28.3318 10.9996 28.3978 11.6698 28.2692 12.3164C28.1406 12.963 27.8231 13.5569 27.357 14.0231C26.8908 14.4893 26.2968 14.8067 25.6502 14.9354C25.0036 15.064 24.3334 14.998 23.7243 14.7457C23.1152 14.4934 22.5946 14.0661 22.2284 13.518C21.8621 12.9698 21.6666 12.3254 21.6666 11.6661C21.6666 10.782 22.0178 9.93418 22.6429 9.30906C23.268 8.68394 24.1159 8.33275 24.9999 8.33275ZM11.6466 21.6411L11.7833 21.6927L11.7999 21.6511C12.6351 21.7258 13.4072 22.1267 13.9487 22.7668C14.4903 23.407 14.7578 24.2348 14.6931 25.0708C14.6285 25.9068 14.2369 26.6836 13.6034 27.2329C12.9698 27.7821 12.1453 28.0595 11.3086 28.005C10.4718 27.9504 9.69033 27.5683 9.13347 26.9414C8.57661 26.3145 8.28928 25.4934 8.33376 24.656C8.37823 23.8187 8.75094 23.0327 9.37107 22.4683C9.99121 21.9039 10.8088 21.6067 11.6466 21.6411ZM24.9999 41.6661C24.3407 41.6661 23.6962 41.4706 23.148 41.1043C22.5999 40.738 22.1726 40.2174 21.9203 39.6084C21.668 38.9993 21.602 38.3291 21.7306 37.6824C21.8593 37.0358 22.1767 36.4419 22.6429 35.9757C23.1091 35.5096 23.703 35.1921 24.3496 35.0635C24.9962 34.9348 25.6665 35.0009 26.2755 35.2531C26.8846 35.5054 27.4052 35.9327 27.7715 36.4808C28.1378 37.029 28.3333 37.6735 28.3333 38.3327C28.3333 39.2168 27.9821 40.0646 27.357 40.6898C26.7318 41.3149 25.884 41.6661 24.9999 41.6661ZM31.4883 36.8561C31.1565 35.3828 30.3332 34.0662 29.1539 33.1229C27.9745 32.1796 26.5093 31.6657 24.9991 31.6657C23.4889 31.6657 22.0237 32.1796 20.8443 33.1229C19.665 34.0662 18.8417 35.3828 18.5099 36.8561C16.2342 35.6142 14.3646 33.7429 13.1249 31.4661C14.5936 31.1342 15.9063 30.3139 16.8482 29.1392C17.7902 27.9646 18.3057 26.505 18.3106 24.9993C18.3154 23.4936 17.8093 22.0308 16.8749 20.8501C15.9405 19.6694 14.6331 18.8407 13.1666 18.4994C14.4109 16.2546 16.2628 14.4062 18.5099 13.1661C18.8431 14.6377 19.6667 15.9524 20.8456 16.8942C22.0245 17.836 23.4885 18.3491 24.9974 18.3491C26.5063 18.3491 27.9704 17.836 29.1493 16.8942C30.3281 15.9524 31.1518 14.6377 31.4849 13.1661C33.7304 14.4048 35.5834 16.2485 36.8333 18.4877C35.3622 18.8237 34.0492 19.6499 33.1096 20.8306C32.17 22.0113 31.6598 23.4763 31.6627 24.9852C31.6656 26.4941 32.1815 27.9572 33.1256 29.1343C34.0697 30.3113 35.386 31.1324 36.8583 31.4627C35.6145 33.7323 33.7524 35.6025 31.4883 36.8561ZM38.3333 28.3044C37.674 28.3044 37.0295 28.1089 36.4814 27.7426C35.9332 27.3764 35.506 26.8558 35.2537 26.2467C35.0014 25.6376 34.9354 24.9674 35.064 24.3208C35.1926 23.6742 35.5101 23.0802 35.9762 22.6141C36.4424 22.1479 37.0364 21.8304 37.683 21.7018C38.3296 21.5732 38.9998 21.6392 39.6089 21.8915C40.218 22.1438 40.7386 22.571 41.1048 23.1192C41.4711 23.6673 41.6666 24.3118 41.6666 24.9711C41.6666 25.8551 41.3154 26.703 40.6903 27.3281C40.0652 27.9532 39.2173 28.3044 38.3333 28.3044Z" fill="#00C2FF"/>
</g>
<defs>
<clipPath id="clip0_450_1412">
<rect width="40" height="40" fill="white" transform="translate(5 5)"/>
</clipPath>
</defs>
</svg>
