<svg width="50" height="50" viewBox="0 0 50 50" fill="none" xmlns="http://www.w3.org/2000/svg">
<g clip-path="url(#clip0_450_1368)">
<path d="M36.6663 19.04V16.6667C36.6663 13.5725 35.4372 10.605 33.2493 8.41709C31.0613 6.22916 28.0939 5 24.9997 5C21.9055 5 18.938 6.22916 16.7501 8.41709C14.5622 10.605 13.333 13.5725 13.333 16.6667V19.04C11.8486 19.6878 10.5852 20.7542 9.69717 22.1087C8.80918 23.4632 8.33514 25.0471 8.33301 26.6667V36.6667C8.33565 38.876 9.21448 40.9941 10.7767 42.5563C12.3389 44.1185 14.457 44.9974 16.6663 45H33.333C35.5423 44.9974 37.6604 44.1185 39.2226 42.5563C40.7849 40.9941 41.6637 38.876 41.6663 36.6667V26.6667C41.6642 25.0471 41.1902 23.4632 40.3022 22.1087C39.4142 20.7542 38.1507 19.6878 36.6663 19.04ZM16.6663 16.6667C16.6663 14.4565 17.5443 12.3369 19.1071 10.7741C20.6699 9.21131 22.7895 8.33333 24.9997 8.33333C27.2098 8.33333 29.3294 9.21131 30.8922 10.7741C32.455 12.3369 33.333 14.4565 33.333 16.6667V18.3333H16.6663V16.6667ZM38.333 36.6667C38.333 37.9927 37.8062 39.2645 36.8685 40.2022C35.9309 41.1399 34.6591 41.6667 33.333 41.6667H16.6663C15.3403 41.6667 14.0685 41.1399 13.1308 40.2022C12.1931 39.2645 11.6663 37.9927 11.6663 36.6667V26.6667C11.6663 25.3406 12.1931 24.0688 13.1308 23.1311C14.0685 22.1934 15.3403 21.6667 16.6663 21.6667H33.333C34.6591 21.6667 35.9309 22.1934 36.8685 23.1311C37.8062 24.0688 38.333 25.3406 38.333 26.6667V36.6667Z" fill="#00C2FF"/>
<path d="M24.9997 28.332C24.5577 28.332 24.1337 28.5076 23.8212 28.8202C23.5086 29.1327 23.333 29.5567 23.333 29.9987V33.332C23.333 33.774 23.5086 34.198 23.8212 34.5105C24.1337 34.8231 24.5577 34.9987 24.9997 34.9987C25.4417 34.9987 25.8656 34.8231 26.1782 34.5105C26.4908 34.198 26.6664 33.774 26.6664 33.332V29.9987C26.6664 29.5567 26.4908 29.1327 26.1782 28.8202C25.8656 28.5076 25.4417 28.332 24.9997 28.332Z" fill="#00C2FF"/>
</g>
<defs>
<clipPath id="clip0_450_1368">
<rect width="40" height="40" fill="white" transform="translate(5 5)"/>
</clipPath>
</defs>
</svg>
