<svg width="50" height="50" viewBox="0 0 50 50" fill="none" xmlns="http://www.w3.org/2000/svg">
<g clip-path="url(#clip0_450_1376)">
<path d="M36.6667 41.6673H13.3333C11.124 41.6647 9.00593 40.7858 7.4437 39.2236C5.88147 37.6614 5.00265 35.5433 5 33.334L5 16.6673C5.00265 14.458 5.88147 12.3399 7.4437 10.7777C9.00593 9.21545 11.124 8.33663 13.3333 8.33398H36.6667C38.876 8.33663 40.9941 9.21545 42.5563 10.7777C44.1185 12.3399 44.9974 14.458 45 16.6673V33.334C44.9974 35.5433 44.1185 37.6614 42.5563 39.2236C40.9941 40.7858 38.876 41.6647 36.6667 41.6673ZM13.3333 11.6673C12.0073 11.6673 10.7355 12.1941 9.7978 13.1318C8.86012 14.0695 8.33333 15.3412 8.33333 16.6673V33.334C8.33333 34.6601 8.86012 35.9318 9.7978 36.8695C10.7355 37.8072 12.0073 38.334 13.3333 38.334H36.6667C37.9927 38.334 39.2645 37.8072 40.2022 36.8695C41.1399 35.9318 41.6667 34.6601 41.6667 33.334V16.6673C41.6667 15.3412 41.1399 14.0695 40.2022 13.1318C39.2645 12.1941 37.9927 11.6673 36.6667 11.6673H13.3333Z" fill="#00C2FF"/>
<path d="M36.666 26.6673H23.3327C22.8907 26.6673 22.4667 26.4917 22.1542 26.1792C21.8416 25.8666 21.666 25.4427 21.666 25.0007C21.666 24.5586 21.8416 24.1347 22.1542 23.8221C22.4667 23.5096 22.8907 23.334 23.3327 23.334H36.666C37.108 23.334 37.532 23.5096 37.8445 23.8221C38.1571 24.1347 38.3327 24.5586 38.3327 25.0007C38.3327 25.4427 38.1571 25.8666 37.8445 26.1792C37.532 26.4917 37.108 26.6673 36.666 26.6673Z" fill="#00C2FF"/>
<path d="M16.667 26.6673H13.3337C12.8916 26.6673 12.4677 26.4917 12.1551 26.1792C11.8426 25.8666 11.667 25.4427 11.667 25.0007C11.667 24.5586 11.8426 24.1347 12.1551 23.8221C12.4677 23.5096 12.8916 23.334 13.3337 23.334H16.667C17.109 23.334 17.5329 23.5096 17.8455 23.8221C18.1581 24.1347 18.3336 24.5586 18.3336 25.0007C18.3336 25.4427 18.1581 25.8666 17.8455 26.1792C17.5329 26.4917 17.109 26.6673 16.667 26.6673Z" fill="#00C2FF"/>
<path d="M26.667 34.9994H13.3337C12.8916 34.9994 12.4677 34.8238 12.1551 34.5112C11.8426 34.1986 11.667 33.7747 11.667 33.3327C11.667 32.8907 11.8426 32.4667 12.1551 32.1542C12.4677 31.8416 12.8916 31.666 13.3337 31.666H26.667C27.109 31.666 27.5329 31.8416 27.8455 32.1542C28.1581 32.4667 28.3337 32.8907 28.3337 33.3327C28.3337 33.7747 28.1581 34.1986 27.8455 34.5112C27.5329 34.8238 27.109 34.9994 26.667 34.9994Z" fill="#00C2FF"/>
<path d="M36.666 34.9994H33.3327C32.8907 34.9994 32.4667 34.8238 32.1542 34.5112C31.8416 34.1986 31.666 33.7747 31.666 33.3327C31.666 32.8907 31.8416 32.4667 32.1542 32.1542C32.4667 31.8416 32.8907 31.666 33.3327 31.666H36.666C37.108 31.666 37.532 31.8416 37.8445 32.1542C38.1571 32.4667 38.3327 32.8907 38.3327 33.3327C38.3327 33.7747 38.1571 34.1986 37.8445 34.5112C37.532 34.8238 37.108 34.9994 36.666 34.9994Z" fill="#00C2FF"/>
</g>
<defs>
<clipPath id="clip0_450_1376">
<rect width="40" height="40" fill="white" transform="translate(5 5)"/>
</clipPath>
</defs>
</svg>
