<svg width="50" height="50" viewBox="0 0 50 50" fill="none" xmlns="http://www.w3.org/2000/svg">
<g clip-path="url(#clip0_450_1402)">
<path d="M23.3333 25C23.7754 25 24.1993 25.1756 24.5118 25.4882C24.8244 25.8007 25 26.2246 25 26.6667C25 27.1087 24.8244 27.5326 24.5118 27.8452C24.1993 28.1577 23.7754 28.3333 23.3333 28.3333H18.3333C17.8913 28.3333 17.4674 28.1577 17.1548 27.8452C16.8423 27.5326 16.6667 27.1087 16.6667 26.6667C16.6667 26.2246 16.8423 25.8007 17.1548 25.4882C17.4674 25.1756 17.8913 25 18.3333 25H23.3333ZM33.3333 20C33.3333 19.558 33.1577 19.134 32.8452 18.8215C32.5326 18.5089 32.1087 18.3333 31.6667 18.3333H18.3333C17.8913 18.3333 17.4674 18.5089 17.1548 18.8215C16.8423 19.134 16.6667 19.558 16.6667 20C16.6667 20.442 16.8423 20.8659 17.1548 21.1785C17.4674 21.4911 17.8913 21.6667 18.3333 21.6667H31.6667C32.1087 21.6667 32.5326 21.4911 32.8452 21.1785C33.1577 20.8659 33.3333 20.442 33.3333 20ZM18.3333 15H31.6667C32.1087 15 32.5326 14.8244 32.8452 14.5118C33.1577 14.1993 33.3333 13.7754 33.3333 13.3333C33.3333 12.8913 33.1577 12.4674 32.8452 12.1548C32.5326 11.8423 32.1087 11.6667 31.6667 11.6667H18.3333C17.8913 11.6667 17.4674 11.8423 17.1548 12.1548C16.8423 12.4674 16.6667 12.8913 16.6667 13.3333C16.6667 13.7754 16.8423 14.1993 17.1548 14.5118C17.4674 14.8244 17.8913 15 18.3333 15ZM38.3333 37.4067V43.795C38.3335 44.0328 38.263 44.2652 38.131 44.4629C37.999 44.6606 37.8113 44.8147 37.5916 44.9057C37.372 44.9967 37.1303 45.0205 36.8971 44.9741C36.6639 44.9277 36.4497 44.8132 36.2817 44.645L35 43.365L33.7183 44.645C33.5503 44.8132 33.3361 44.9277 33.1029 44.9741C32.8698 45.0205 32.628 44.9967 32.4084 44.9057C32.1887 44.8147 32.001 44.6606 31.869 44.4629C31.737 44.2652 31.6666 44.0328 31.6667 43.795V37.4067C30.3956 36.6764 29.4017 35.5462 28.8397 34.1923C28.2777 32.8383 28.1793 31.3365 28.5597 29.9208C28.94 28.505 29.7779 27.2548 30.9427 26.3648C32.1076 25.4748 33.5341 24.9949 35 25C35.5634 25.007 36.1236 25.0866 36.6667 25.2367V13.3333C36.6667 12.0073 36.1399 10.7355 35.2022 9.7978C34.2645 8.86012 32.9928 8.33333 31.6667 8.33333H18.3333C17.0073 8.33333 15.7355 8.86012 14.7978 9.7978C13.8601 10.7355 13.3333 12.0073 13.3333 13.3333V33.3333C13.3333 34.6594 13.8601 35.9312 14.7978 36.8689C15.7355 37.8065 17.0073 38.3333 18.3333 38.3333H26.6667C27.1087 38.3333 27.5326 38.5089 27.8452 38.8215C28.1577 39.134 28.3333 39.558 28.3333 40C28.3333 40.442 28.1577 40.866 27.8452 41.1785C27.5326 41.4911 27.1087 41.6667 26.6667 41.6667H18.3333C16.124 41.664 14.0059 40.7852 12.4437 39.223C10.8815 37.6607 10.0026 35.5427 10 33.3333V13.3333C10.0026 11.124 10.8815 9.00593 12.4437 7.4437C14.0059 5.88147 16.124 5.00265 18.3333 5L31.6667 5C33.876 5.00265 35.9941 5.88147 37.5563 7.4437C39.1185 9.00593 39.9974 11.124 40 13.3333V27.3033C40.6529 28.0365 41.1335 28.9064 41.4067 29.8493C41.6799 30.7922 41.7388 31.7843 41.579 32.7529C41.4192 33.7216 41.0448 34.6422 40.4832 35.4474C39.9216 36.2526 39.1871 36.922 38.3333 37.4067ZM38.3333 31.6667C38.3333 31.0074 38.1378 30.3629 37.7716 29.8148C37.4053 29.2666 36.8847 28.8394 36.2756 28.5871C35.6665 28.3348 34.9963 28.2688 34.3497 28.3974C33.7031 28.526 33.1092 28.8435 32.643 29.3096C32.1768 29.7758 31.8593 30.3698 31.7307 31.0164C31.6021 31.663 31.6681 32.3332 31.9204 32.9423C32.1727 33.5514 32.5999 34.072 33.1481 34.4382C33.6963 34.8045 34.3407 35 35 35C35.8841 35 36.7319 34.6488 37.357 34.0237C37.9821 33.3986 38.3333 32.5507 38.3333 31.6667Z" fill="#00C2FF"/>
</g>
<defs>
<clipPath id="clip0_450_1402">
<rect width="40" height="40" fill="white" transform="translate(5 5)"/>
</clipPath>
</defs>
</svg>
