<svg width="50" height="50" viewBox="0 0 50 50" fill="none" xmlns="http://www.w3.org/2000/svg">
<g clip-path="url(#clip0_450_1444)">
<path d="M34.99 8.80998C32.9557 6.99255 30.4643 5.76428 27.7839 5.25736C25.1035 4.75044 22.3356 4.98406 19.7781 5.93308C17.2206 6.88209 14.9703 8.51057 13.2694 10.6433C11.5685 12.776 10.4814 15.3321 10.125 18.0366C9.80501 20.4081 10.061 22.8217 10.8712 25.0732C11.6815 27.3248 13.0223 29.348 14.78 30.9716C15.867 31.9249 16.7442 33.0935 17.3558 34.4035C17.9675 35.7135 18.3004 37.1363 18.3334 38.5816V38.85C18.3351 40.4805 18.9837 42.0438 20.1366 43.1967C21.2896 44.3497 22.8528 44.9982 24.4834 45H25.5167C27.1473 44.9982 28.7105 44.3497 29.8635 43.1967C31.0164 42.0438 31.6649 40.4805 31.6667 38.85V37.935C31.6917 36.6574 31.9923 35.4003 32.548 34.2497C33.1038 33.0991 33.9015 32.0821 34.8867 31.2683C36.4844 29.869 37.7664 28.1463 38.648 26.2141C39.5296 24.2819 39.9905 22.1845 40.0003 20.0608C40.0101 17.937 39.5684 15.8354 38.7047 13.8952C37.8409 11.955 36.5748 10.2205 34.99 8.80664V8.80998ZM25.5167 41.6666H24.4834C23.7366 41.6658 23.0207 41.3687 22.4927 40.8407C21.9646 40.3126 21.6676 39.5967 21.6667 38.85C21.6667 38.85 21.655 38.4166 21.6534 38.3333H28.3334V38.85C28.3325 39.5967 28.0355 40.3126 27.5074 40.8407C26.9794 41.3687 26.2635 41.6658 25.5167 41.6666ZM32.6834 28.765C30.7858 30.4109 29.4153 32.5796 28.7434 35H26.6667V23.0266C27.6382 22.6832 28.4799 22.0479 29.0766 21.2078C29.6732 20.3677 29.9958 19.3637 30 18.3333C30 17.8913 29.8244 17.4674 29.5119 17.1548C29.1993 16.8422 28.7754 16.6666 28.3334 16.6666C27.8913 16.6666 27.4674 16.8422 27.1549 17.1548C26.8423 17.4674 26.6667 17.8913 26.6667 18.3333C26.6667 18.7753 26.4911 19.1993 26.1786 19.5118C25.866 19.8244 25.4421 20 25 20C24.558 20 24.1341 19.8244 23.8215 19.5118C23.509 19.1993 23.3334 18.7753 23.3334 18.3333C23.3334 17.8913 23.1578 17.4674 22.8452 17.1548C22.5327 16.8422 22.1087 16.6666 21.6667 16.6666C21.2247 16.6666 20.8008 16.8422 20.4882 17.1548C20.1756 17.4674 20 17.8913 20 18.3333C20.0043 19.3637 20.3269 20.3677 20.9235 21.2078C21.5202 22.0479 22.3619 22.6832 23.3334 23.0266V35H21.13C20.3784 32.5153 18.9686 30.2803 17.05 28.5316C15.4216 27.0143 14.2613 25.0628 13.7058 22.9075C13.1504 20.7521 13.2231 18.4828 13.9154 16.3675C14.6077 14.2521 15.8906 12.3789 17.6128 10.9689C19.335 9.55894 21.4246 8.67103 23.635 8.40998C24.0933 8.35883 24.554 8.33323 25.015 8.33331C27.8777 8.3248 30.6412 9.38102 32.7684 11.2966C34.0012 12.396 34.9863 13.7448 35.6583 15.2537C36.3303 16.7626 36.6739 18.3971 36.6664 20.0488C36.6588 21.7006 36.3002 23.3319 35.6144 24.8346C34.9286 26.3372 33.9312 27.677 32.6884 28.765H32.6834Z" fill="#00C2FF"/>
</g>
<defs>
<clipPath id="clip0_450_1444">
<rect width="40" height="40" fill="white" transform="translate(5 5)"/>
</clipPath>
</defs>
</svg>
