<svg width="50" height="50" viewBox="0 0 50 50" fill="none" xmlns="http://www.w3.org/2000/svg">
<g clip-path="url(#clip0_450_1336)">
<path d="M36.6667 5H13.3333C11.124 5.00265 9.00593 5.88147 7.4437 7.4437C5.88147 9.00593 5.00265 11.124 5 13.3333L5 36.6667C5.00265 38.876 5.88147 40.9941 7.4437 42.5563C9.00593 44.1185 11.124 44.9974 13.3333 45H36.6667C38.876 44.9974 40.9941 44.1185 42.5563 42.5563C44.1185 40.9941 44.9974 38.876 45 36.6667V13.3333C44.9974 11.124 44.1185 9.00593 42.5563 7.4437C40.9941 5.88147 38.876 5.00265 36.6667 5V5ZM13.3333 8.33333H36.6667C37.9927 8.33333 39.2645 8.86012 40.2022 9.7978C41.1399 10.7355 41.6667 12.0073 41.6667 13.3333V36.6667C41.6638 37.4091 41.4929 38.1413 41.1667 38.8083L25.895 23.5367C25.1211 22.7626 24.2024 22.1486 23.1912 21.7297C22.18 21.3107 21.0962 21.0951 20.0017 21.0951C18.9071 21.0951 17.8233 21.3107 16.8121 21.7297C15.8009 22.1486 14.8822 22.7626 14.1083 23.5367L8.33333 29.31V13.3333C8.33333 12.0073 8.86012 10.7355 9.7978 9.7978C10.7355 8.86012 12.0073 8.33333 13.3333 8.33333ZM13.3333 41.6667C12.0073 41.6667 10.7355 41.1399 9.7978 40.2022C8.86012 39.2645 8.33333 37.9927 8.33333 36.6667V34.0233L16.4633 25.8933C16.9277 25.4287 17.479 25.0601 18.0858 24.8086C18.6927 24.5572 19.3431 24.4277 20 24.4277C20.6569 24.4277 21.3073 24.5572 21.9142 24.8086C22.521 25.0601 23.0723 25.4287 23.5367 25.8933L38.8083 41.1667C38.1413 41.4929 37.4091 41.6638 36.6667 41.6667H13.3333Z" fill="#00C2FF"/>
<path d="M31.6673 22.4987C32.821 22.4987 33.9489 22.1566 34.9081 21.5156C35.8674 20.8746 36.6151 19.9636 37.0566 18.8977C37.4981 17.8318 37.6136 16.6589 37.3886 15.5273C37.1635 14.3958 36.6079 13.3564 35.7921 12.5406C34.9763 11.7248 33.9369 11.1692 32.8053 10.9441C31.6738 10.719 30.5009 10.8346 29.435 11.2761C28.3691 11.7176 27.4581 12.4653 26.8171 13.4245C26.1761 14.3838 25.834 15.5116 25.834 16.6654C25.834 18.2125 26.4486 19.6962 27.5425 20.7902C28.6365 21.8841 30.1202 22.4987 31.6673 22.4987ZM31.6673 14.1654C32.1618 14.1654 32.6451 14.312 33.0562 14.5867C33.4674 14.8614 33.7878 15.2518 33.977 15.7087C34.1662 16.1655 34.2157 16.6681 34.1193 17.1531C34.0228 17.638 33.7847 18.0835 33.4351 18.4331C33.0855 18.7828 32.64 19.0209 32.155 19.1173C31.6701 19.2138 31.1674 19.1643 30.7106 18.9751C30.2538 18.7858 29.8633 18.4654 29.5886 18.0543C29.3139 17.6432 29.1673 17.1598 29.1673 16.6654C29.1673 16.0023 29.4307 15.3664 29.8996 14.8976C30.3684 14.4288 31.0043 14.1654 31.6673 14.1654Z" fill="#00C2FF"/>
</g>
<defs>
<clipPath id="clip0_450_1336">
<rect width="40" height="40" fill="white" transform="translate(5 5)"/>
</clipPath>
</defs>
</svg>
