<svg width="50" height="50" viewBox="0 0 50 50" fill="none" xmlns="http://www.w3.org/2000/svg">
<g clip-path="url(#clip0_450_1328)">
<path d="M36.1878 25.0006H28.3328C27.4487 25.0006 26.6009 24.6495 25.9758 24.0243C25.3506 23.3992 24.9994 22.5514 24.9994 21.6673V13.7906C25.0017 13.0239 24.8276 12.267 24.4907 11.5783C24.1537 10.8896 23.6629 10.2877 23.0561 9.81898C22.4812 9.36366 21.8093 9.0466 21.0923 8.89228C20.3753 8.73797 19.6325 8.75052 18.9211 8.92898C14.8805 9.932 11.3033 12.2841 8.78106 15.5962C6.2588 18.9084 4.94257 22.9823 5.05004 27.1441C5.15752 31.3059 6.68226 35.3064 9.37212 38.484C12.062 41.6615 15.7558 43.8258 19.8428 44.619C24.4379 45.4985 29.1955 44.588 33.1412 42.0739C37.0869 39.5597 39.922 35.6322 41.0661 31.0956C41.2452 30.3834 41.2583 29.6395 41.1043 28.9214C40.9502 28.2032 40.6332 27.5301 40.1778 26.954C39.7035 26.3481 39.0981 25.8575 38.407 25.5192C37.716 25.1809 36.9572 25.0036 36.1878 25.0006ZM37.8344 30.2806C37.1963 32.8504 35.887 35.2046 34.0406 37.1023C32.1941 39.0001 29.8766 40.3733 27.3253 41.0816C24.774 41.7899 22.0803 41.8078 19.5198 41.1334C16.9593 40.4591 14.6238 39.1168 12.7523 37.2437C10.8808 35.3706 9.54035 33.034 8.86814 30.473C8.19593 27.9119 8.21605 25.2182 8.92644 22.6675C9.63683 20.1167 11.012 17.8005 12.9113 15.9555C14.8106 14.1106 17.1658 12.8033 19.7361 12.1673C19.956 12.1124 20.1857 12.1097 20.4068 12.1595C20.6279 12.2092 20.8343 12.3101 21.0094 12.454C21.2163 12.6117 21.384 12.8149 21.4996 13.0478C21.6152 13.2808 21.6756 13.5372 21.6761 13.7973V21.6673C21.6761 23.4354 22.3785 25.1311 23.6287 26.3814C24.879 27.6316 26.5747 28.334 28.3428 28.334H36.1961C36.4585 28.335 36.7171 28.3956 36.9527 28.5111C37.1883 28.6265 37.3946 28.7939 37.5561 29.0006C37.6978 29.1782 37.7965 29.3862 37.8445 29.6082C37.8925 29.8303 37.8885 30.0604 37.8328 30.2806H37.8344Z" fill="#00C2FF"/>
<path d="M44.4186 17.4102C43.6512 14.5893 42.1606 12.0177 40.0942 9.94978C38.0278 7.88191 35.4572 6.38947 32.6369 5.62015C32.3412 5.54067 32.0364 5.50032 31.7302 5.50015C31.2898 5.49597 30.853 5.5791 30.4449 5.74474C30.0368 5.91038 29.6656 6.15525 29.3527 6.46519C29.0398 6.77514 28.7915 7.14402 28.622 7.55052C28.4525 7.95701 28.3652 8.39307 28.3652 8.83348V16.6668C28.3652 17.9929 28.892 19.2647 29.8297 20.2024C30.7674 21.14 32.0392 21.6668 33.3652 21.6668H41.2302C41.7447 21.6619 42.2511 21.5384 42.71 21.3059C43.169 21.0735 43.5682 20.7384 43.8766 20.3266C44.1851 19.9149 44.3944 19.4375 44.4884 18.9317C44.5824 18.4259 44.5585 17.9052 44.4186 17.4102ZM40.2552 18.3335H33.3586C32.9165 18.3335 32.4926 18.1579 32.1801 17.8453C31.8675 17.5328 31.6919 17.1088 31.6919 16.6668L31.6786 8.84515C31.6908 8.83633 31.7052 8.83113 31.7202 8.83015H31.7636C34.0337 9.44862 36.102 10.6517 37.7619 12.3192C39.4219 13.9868 40.6155 16.0605 41.2236 18.3335H40.2552Z" fill="#00C2FF"/>
</g>
<defs>
<clipPath id="clip0_450_1328">
<rect width="40" height="40" fill="white" transform="translate(5 5)"/>
</clipPath>
</defs>
</svg>
