<svg width="50" height="50" viewBox="0 0 50 50" fill="none" xmlns="http://www.w3.org/2000/svg">
<g clip-path="url(#clip0_450_1345)">
<path d="M43.3333 38.3333H29.6933C29.4443 37.6363 29.0437 37.0032 28.5203 36.4798C27.9968 35.9563 27.3637 35.5557 26.6667 35.3067V30H33.3333C35.1014 30 36.7971 29.2976 38.0474 28.0474C39.2976 26.7971 40 25.1014 40 23.3333V15C40 13.2319 39.2976 11.5362 38.0474 10.286C36.7971 9.03571 35.1014 8.33334 33.3333 8.33334H26.035C25.6989 8.33329 25.3706 8.23162 25.0933 8.04167L21.95 5.88C21.1167 5.306 20.1285 4.99908 19.1167 5H16.6667C14.8986 5 13.2029 5.70238 11.9526 6.95262C10.7024 8.20287 10 9.89856 10 11.6667V23.3333C10 25.1014 10.7024 26.7971 11.9526 28.0474C13.2029 29.2976 14.8986 30 16.6667 30H23.3333V35.3067C22.6363 35.5557 22.0032 35.9563 21.4797 36.4798C20.9563 37.0032 20.5557 37.6363 20.3067 38.3333H6.66667C6.22464 38.3333 5.80072 38.5089 5.48816 38.8215C5.17559 39.1341 5 39.558 5 40C5 40.442 5.17559 40.866 5.48816 41.1785C5.80072 41.4911 6.22464 41.6667 6.66667 41.6667H20.3067C20.6461 42.6409 21.2803 43.4854 22.1212 44.083C22.9622 44.6805 23.9683 45.0016 25 45.0016C26.0317 45.0016 27.0378 44.6805 27.8788 44.083C28.7197 43.4854 29.3539 42.6409 29.6933 41.6667H43.3333C43.7754 41.6667 44.1993 41.4911 44.5118 41.1785C44.8244 40.866 45 40.442 45 40C45 39.558 44.8244 39.1341 44.5118 38.8215C44.1993 38.5089 43.7754 38.3333 43.3333 38.3333ZM16.6667 8.33334H19.1167C19.4541 8.3332 19.7836 8.43548 20.0617 8.62667L23.2017 10.7933C24.0343 11.3688 25.0228 11.6764 26.035 11.675H33.3333C34.2174 11.675 35.0652 12.0262 35.6904 12.6513C36.3155 13.2764 36.6667 14.1243 36.6667 15.0083H13.3333V11.6667C13.3333 10.7826 13.6845 9.93477 14.3096 9.30965C14.9348 8.68452 15.7826 8.33334 16.6667 8.33334ZM13.3333 23.3333V18.3333H36.6667V23.3333C36.6667 24.2174 36.3155 25.0652 35.6904 25.6904C35.0652 26.3155 34.2174 26.6667 33.3333 26.6667H16.6667C15.7826 26.6667 14.9348 26.3155 14.3096 25.6904C13.6845 25.0652 13.3333 24.2174 13.3333 23.3333ZM25 41.6667C24.6704 41.6667 24.3481 41.5689 24.074 41.3858C23.8 41.2027 23.5863 40.9424 23.4602 40.6378C23.3341 40.3333 23.301 39.9982 23.3654 39.6749C23.4297 39.3516 23.5884 39.0546 23.8215 38.8215C24.0546 38.5884 24.3515 38.4297 24.6748 38.3654C24.9981 38.3011 25.3333 38.3341 25.6378 38.4602C25.9423 38.5864 26.2026 38.8 26.3858 39.0741C26.5689 39.3481 26.6667 39.6704 26.6667 40C26.6667 40.442 26.4911 40.866 26.1785 41.1785C25.8659 41.4911 25.442 41.6667 25 41.6667Z" fill="#00C2FF"/>
</g>
<defs>
<clipPath id="clip0_450_1345">
<rect width="40" height="40" fill="white" transform="translate(5 5)"/>
</clipPath>
</defs>
</svg>
