<svg width="50" height="50" viewBox="0 0 50 50" fill="none" xmlns="http://www.w3.org/2000/svg">
<g clip-path="url(#clip0_227_773)">
<rect width="50" height="50" rx="25" fill="#29C0F0"/>
<path d="M25.023 27.8809C19.8605 27.8809 15.6611 23.6844 15.6611 18.5267C15.6611 13.3691 19.8612 9.17188 25.023 9.17188C27.5205 9.17188 29.8695 10.1448 31.6369 11.9121C33.4035 13.6795 34.3771 16.0285 34.3771 18.5267C34.3771 21.025 33.4042 23.374 31.6369 25.1413C29.8695 26.908 27.5205 27.8816 25.023 27.8816V27.8809ZM25.023 10.4078C20.5426 10.4078 16.897 14.0498 16.897 18.5267C16.897 23.0037 20.5426 26.645 25.023 26.645C27.1906 26.645 29.2293 25.8004 30.763 24.2674C32.2966 22.7337 33.1406 20.6944 33.1406 18.5267C33.1406 16.3591 32.2959 14.3197 30.763 12.786C29.2286 11.2524 27.1899 10.4078 25.023 10.4078Z" fill="white"/>
<path d="M16.9526 27.2049C16.7942 27.2049 16.6366 27.1442 16.5159 27.0236C16.2746 26.7822 16.2746 26.391 16.5159 26.1496L18.1494 24.5169C18.3907 24.2756 18.782 24.2756 19.0233 24.5169C19.2646 24.7582 19.2646 25.1495 19.0233 25.3908L17.3899 27.0236C17.2692 27.1442 17.1109 27.2049 16.9532 27.2049H16.9526Z" fill="white"/>
<path d="M12.7088 33.0114C11.3097 33.0114 10.0361 31.4352 10.0361 29.7041C10.0361 28.0854 11.1597 26.9102 12.7088 26.9102C14.2578 26.9102 15.3814 28.0854 15.3814 29.7041C15.3814 31.4038 14.0827 33.0114 12.7088 33.0114ZM12.7088 28.1467C11.8495 28.1467 11.272 28.773 11.272 29.7048C11.272 30.8012 12.0755 31.7762 12.7088 31.7762C13.342 31.7762 14.1455 30.7524 14.1455 29.7048C14.1455 28.773 13.568 28.1467 12.7088 28.1467Z" fill="white"/>
<path d="M12.7279 36.8677C12.1184 36.8677 11.5123 36.8238 10.9125 36.7373C10.3566 36.6585 9.84119 36.4158 9.42342 36.035C9.00844 35.6569 8.719 35.1687 8.58649 34.6226L8.56207 34.5201C8.30541 33.4544 8.69668 32.3308 9.55733 31.6578C9.96325 31.3398 10.4089 31.088 10.8818 30.9101C11.1998 30.7916 11.5569 30.952 11.6776 31.2714C11.7975 31.5908 11.6357 31.9472 11.3163 32.0672C10.962 32.2004 10.6265 32.3901 10.3196 32.6314C9.8384 33.0073 9.6208 33.6351 9.76378 34.2314L9.78819 34.3332C9.86212 34.638 10.0239 34.9107 10.2562 35.122C10.4891 35.3347 10.7772 35.4707 11.0875 35.5147C12.1177 35.6646 13.168 35.6716 14.2128 35.5384L14.3272 35.5216C15.0462 35.4296 15.6021 34.8681 15.6879 34.1553C15.7528 33.6155 15.5275 33.0722 15.0992 32.7374L14.9639 32.6307C14.6773 32.4048 14.36 32.2227 14.0217 32.0895C13.7044 31.9647 13.5481 31.6062 13.673 31.2881C13.7978 30.9708 14.1556 30.8132 14.4743 30.9394C14.9249 31.1166 15.3475 31.3593 15.7297 31.6606L15.8637 31.7659C16.6281 32.3643 17.0319 33.3372 16.9147 34.3025C16.762 35.5788 15.7653 36.5839 14.4925 36.7464L14.3788 36.7624C13.8278 36.8328 13.2768 36.8684 12.7279 36.8684V36.8677Z" fill="white"/>
<path d="M24.9918 38.3745C23.5069 38.3745 22.1553 36.6958 22.1553 34.8524C22.1553 33.1332 23.3486 31.8848 24.9918 31.8848C26.635 31.8848 27.8283 33.1325 27.8283 34.8524C27.8283 36.663 26.4495 38.3745 24.9918 38.3745ZM24.9918 33.1213C24.0342 33.1213 23.3912 33.8174 23.3912 34.8531C23.3912 35.9641 24.2141 37.1393 24.9918 37.1393C25.676 37.1393 26.5924 36.0088 26.5924 34.8531C26.5924 33.8174 25.9494 33.1213 24.9918 33.1213Z" fill="white"/>
<path d="M25.0116 42.5382C24.3553 42.5382 23.7025 42.4915 23.0574 42.3974C22.4667 42.3137 21.9192 42.0556 21.4756 41.6518C21.0348 41.2501 20.7272 40.7312 20.587 40.1509L20.5598 40.0407C20.2878 38.9073 20.7028 37.714 21.6172 36.9998C22.0503 36.6595 22.5273 36.3902 23.0337 36.1998C23.3531 36.0799 23.7095 36.241 23.8295 36.5604C23.9494 36.8799 23.7883 37.2362 23.4689 37.3562C23.0804 37.502 22.7142 37.7098 22.3795 37.9721C21.8445 38.3898 21.6018 39.088 21.7615 39.7505L21.788 39.86C21.8703 40.199 22.0496 40.5024 22.3076 40.7374C22.5671 40.9739 22.8865 41.1245 23.2324 41.1733C24.3491 41.3365 25.488 41.3442 26.6206 41.1991L26.7441 41.181C27.5434 41.0785 28.1613 40.455 28.2569 39.662C28.3287 39.0622 28.0783 38.4582 27.6027 38.0857L27.4569 37.9714C27.1437 37.7238 26.7964 37.525 26.4268 37.3792C26.1087 37.2544 25.9525 36.8959 26.0773 36.5779C26.2022 36.2605 26.56 36.1029 26.8787 36.2284C27.362 36.4181 27.814 36.6783 28.2227 37.0005L28.3664 37.1142C29.1782 37.7503 29.6071 38.7839 29.4837 39.8098C29.3205 41.1657 28.2624 42.2335 26.9101 42.4064L26.7873 42.4239C26.1945 42.4999 25.6017 42.5382 25.0123 42.5382H25.0116Z" fill="white"/>
<path d="M37.3269 33.0114C35.9278 33.0114 34.6543 31.4352 34.6543 29.7041C34.6543 28.0854 35.7779 26.9102 37.3269 26.9102C38.8759 26.9102 39.9995 28.0854 39.9995 29.7041C39.9995 31.4038 38.7009 33.0114 37.3269 33.0114ZM37.3269 28.1467C36.4677 28.1467 35.8902 28.773 35.8902 29.7048C35.8902 30.8012 36.6936 31.7762 37.3269 31.7762C37.9602 31.7762 38.7637 30.7524 38.7637 29.7048C38.7637 28.773 38.1862 28.1467 37.3269 28.1467Z" fill="white"/>
<path d="M37.3454 36.8684C36.7358 36.8684 36.129 36.8245 35.5299 36.738C34.9748 36.6592 34.4594 36.4165 34.0416 36.0357C33.6266 35.6576 33.3372 35.1687 33.2046 34.6226L33.1802 34.5201C32.9236 33.4544 33.3148 32.3308 34.1755 31.6578C34.5814 31.3398 35.0271 31.088 35.4999 30.9101C35.8187 30.7916 36.1758 30.952 36.2957 31.2714C36.4157 31.5908 36.2539 31.9472 35.9345 32.0672C35.5802 32.2004 35.2447 32.3901 34.9378 32.6314C34.4566 33.0073 34.239 33.6351 34.3819 34.2314L34.4064 34.3332C34.4803 34.638 34.6421 34.9107 34.8743 35.122C35.108 35.3347 35.3953 35.47 35.7057 35.514C36.7358 35.6639 37.7869 35.6709 38.831 35.5377L38.9453 35.5209C39.6644 35.4289 40.221 34.8674 40.3068 34.1547C40.3716 33.6148 40.1463 33.0715 39.7181 32.7367L39.5828 32.63C39.2962 32.4041 38.9788 32.222 38.6399 32.0888C38.3225 31.964 38.1663 31.6055 38.2911 31.2874C38.416 30.9701 38.7731 30.8125 39.0925 30.9387C39.5431 31.1159 39.9657 31.3586 40.3479 31.6599L40.4818 31.7652C41.2455 32.3629 41.6493 33.3358 41.5329 34.3018C41.3801 35.5781 40.3835 36.5832 39.1106 36.7457L38.997 36.7617C38.446 36.8322 37.895 36.8677 37.3468 36.8677L37.3454 36.8684Z" fill="white"/>
<path d="M33.0816 27.212C32.9233 27.212 32.7657 27.1513 32.645 27.0307L30.9837 25.3693C30.7424 25.128 30.7424 24.7368 30.9837 24.4954C31.225 24.2541 31.6163 24.2541 31.8576 24.4954L33.5189 26.1568C33.7603 26.3981 33.7603 26.7893 33.5189 27.0307C33.3983 27.1513 33.24 27.212 33.0823 27.212H33.0816Z" fill="white"/>
<path d="M25.072 13.8059C24.731 13.8059 24.4541 13.529 24.4541 13.1879V12.9968C24.4541 12.6558 24.731 12.3789 25.072 12.3789C25.4131 12.3789 25.69 12.6558 25.69 12.9968V13.1879C25.69 13.529 25.4131 13.8059 25.072 13.8059Z" fill="white"/>
<path d="M21.2382 15.3637C21.0799 15.3637 20.9223 15.303 20.8016 15.1824L20.6663 15.0471C20.425 14.8058 20.425 14.4145 20.6663 14.1732C20.9077 13.9319 21.2989 13.9319 21.5402 14.1732L21.6755 14.3085C21.9169 14.5498 21.9169 14.9411 21.6755 15.1824C21.5549 15.303 21.3966 15.3637 21.2389 15.3637H21.2382Z" fill="white"/>
<path d="M19.6284 19.1753H19.4373C19.0962 19.1753 18.8193 18.8984 18.8193 18.5574C18.8193 18.2163 19.0962 17.9395 19.4373 17.9395H19.6284C19.9694 17.9395 20.2463 18.2163 20.2463 18.5574C20.2463 18.8984 19.9694 19.1753 19.6284 19.1753Z" fill="white"/>
<path d="M21.0506 23.1446C20.8922 23.1446 20.7339 23.0839 20.6133 22.9633C20.3719 22.7213 20.3726 22.33 20.614 22.0894L20.7493 21.9541C20.9913 21.7128 21.3825 21.7135 21.6232 21.9548C21.8645 22.1968 21.8638 22.5881 21.6225 22.8287L21.4872 22.964C21.3665 23.0846 21.2082 23.1446 21.0506 23.1446Z" fill="white"/>
<path d="M28.9671 23.1974C28.8088 23.1974 28.6505 23.1367 28.5298 23.016L28.3945 22.8807C28.1532 22.6387 28.1539 22.2474 28.3952 22.0068C28.6372 21.7655 29.0285 21.7662 29.2691 22.0075L29.4044 22.1428C29.6457 22.3848 29.645 22.7761 29.4037 23.0167C29.2831 23.1374 29.1247 23.1974 28.9671 23.1974Z" fill="white"/>
<path d="M30.6323 19.2495H30.4412C30.1001 19.2495 29.8232 18.9727 29.8232 18.6316C29.8232 18.2906 30.1001 18.0137 30.4412 18.0137H30.6323C30.9733 18.0137 31.2502 18.2906 31.2502 18.6316C31.2502 18.9727 30.9733 19.2495 30.6323 19.2495Z" fill="white"/>
<path d="M28.8842 15.4165C28.7259 15.4165 28.5682 15.3558 28.4476 15.2351C28.2063 14.9938 28.2063 14.6025 28.4476 14.3612L28.5829 14.2259C28.8242 13.9846 29.2155 13.9846 29.4568 14.2259C29.6981 14.4672 29.6981 14.8585 29.4568 15.0998L29.3215 15.2351C29.2008 15.3558 29.0425 15.4165 28.8849 15.4165H28.8842Z" fill="white"/>
<path d="M26.4298 22.0738H23.6365C23.2954 22.0738 23.0186 21.7969 23.0186 21.4558C23.0186 21.1148 23.2954 20.8379 23.6365 20.8379H26.4298C26.7708 20.8379 27.0477 21.1148 27.0477 21.4558C27.0477 21.7969 26.7708 22.0738 26.4298 22.0738Z" fill="white"/>
<path d="M24.9915 25.1288C24.4998 25.1288 24.0332 24.9405 23.6775 24.5988C23.3037 24.2382 23.0889 23.734 23.0889 23.2144V21.3347C23.0889 20.9937 23.3658 20.7168 23.7068 20.7168C24.0479 20.7168 24.3247 20.9937 24.3247 21.3347V23.2144C24.3247 23.3999 24.4015 23.5798 24.5347 23.7081C24.7837 23.9481 25.2035 23.946 25.4504 23.7081C25.5829 23.5812 25.6583 23.4013 25.6583 23.2144V21.5516C25.6583 21.2106 25.9352 20.9337 26.2762 20.9337C26.6173 20.9337 26.8941 21.2106 26.8941 21.5516V23.2144C26.8941 23.7353 26.68 24.2396 26.3076 24.5988C25.9519 24.9405 25.4846 25.1288 24.9915 25.1288Z" fill="white"/>
<path d="M26.3612 21.9542C26.1282 21.9542 25.9057 21.8224 25.8011 21.5971C25.6568 21.2882 25.7907 20.9206 26.1003 20.7762C26.9819 20.3654 27.551 19.4713 27.551 18.4984C27.551 17.1104 26.4233 15.982 25.0367 15.982C23.6502 15.982 22.5203 17.1111 22.5203 18.4984C22.5203 19.4699 23.0895 20.364 23.9703 20.7769C24.2793 20.922 24.4125 21.2895 24.2681 21.5985C24.1231 21.9075 23.7548 22.04 23.4465 21.8963C22.134 21.2812 21.2852 19.9477 21.2852 18.4984C21.2852 16.429 22.9688 14.7461 25.0374 14.7461C27.1061 14.7461 28.7876 16.4297 28.7876 18.4984C28.7876 19.9497 27.9381 21.2833 26.6227 21.8963C26.5383 21.9361 26.4498 21.9542 26.3619 21.9542H26.3612Z" fill="white"/>
<path d="M25.074 30.5787C24.7329 30.5787 24.4561 30.3018 24.4561 29.9608V27.5281C24.4561 27.187 24.7329 26.9102 25.074 26.9102C25.415 26.9102 25.6919 27.187 25.6919 27.5281V29.9608C25.6919 30.3018 25.415 30.5787 25.074 30.5787Z" fill="white"/>
</g>
<defs>
<clipPath id="clip0_227_773">
<rect width="50" height="50" rx="25" fill="white"/>
</clipPath>
</defs>
</svg>
