<svg width="50" height="50" viewBox="0 0 50 50" fill="none" xmlns="http://www.w3.org/2000/svg">
<g clip-path="url(#clip0_227_706)">
<path d="M50 25C50 38.785 38.785 50 25 50C11.215 50 0 38.785 0 25" fill="#29C0F0"/>
<path d="M0 25C0 11.215 11.215 0 25 0C38.785 0 50 11.215 50 25" fill="#29C0F0"/>
<path d="M25.0005 48.7646C38.125 48.7646 48.7646 38.125 48.7646 25.0005C48.7646 11.8759 38.125 1.23633 25.0005 1.23633C11.8759 1.23633 1.23633 11.8759 1.23633 25.0005C1.23633 38.125 11.8759 48.7646 25.0005 48.7646Z" fill="#29C0F0"/>
<path d="M36.4889 15.261C35.1512 15.261 34.0625 14.173 34.0625 12.8346C34.0625 11.4962 35.1505 10.4082 36.4889 10.4082C37.8273 10.4082 38.9146 11.4962 38.9146 12.8346C38.9146 14.173 37.8266 15.261 36.4889 15.261ZM36.4889 11.6448C35.8326 11.6448 35.2984 12.179 35.2984 12.8353C35.2984 13.4916 35.8326 14.0259 36.4889 14.0259C37.1452 14.0259 37.6788 13.4916 37.6788 12.8353C37.6788 12.179 37.1452 11.6448 36.4889 11.6448Z" fill="white"/>
<path d="M28.485 18.1236C27.1473 18.1236 26.0586 17.0356 26.0586 15.6979C26.0586 14.3602 27.1466 13.2715 28.485 13.2715C29.8234 13.2715 30.9114 14.3595 30.9114 15.6979C30.9114 17.0363 29.8234 18.1236 28.485 18.1236ZM28.485 14.5074C27.8287 14.5074 27.2945 15.0416 27.2945 15.6979C27.2945 16.3542 27.8287 16.8877 28.485 16.8877C29.1413 16.8877 29.6756 16.3542 29.6756 15.6979C29.6756 15.0416 29.1413 14.5074 28.485 14.5074Z" fill="white"/>
<path d="M21.318 22.7669C19.9803 22.7669 18.8916 21.6789 18.8916 20.3405C18.8916 19.0021 19.9796 17.9141 21.318 17.9141C22.6564 17.9141 23.7437 19.0021 23.7437 20.3405C23.7437 21.6789 22.6557 22.7669 21.318 22.7669ZM21.318 19.1506C20.6617 19.1506 20.1275 19.6849 20.1275 20.3412C20.1275 20.9975 20.6617 21.5317 21.318 21.5317C21.9743 21.5317 22.5079 20.9975 22.5079 20.3412C22.5079 19.6849 21.9743 19.1506 21.318 19.1506Z" fill="white"/>
<path d="M13.2399 21.606C11.9022 21.606 10.8135 20.518 10.8135 19.1796C10.8135 17.8412 11.9015 16.7539 13.2399 16.7539C14.5783 16.7539 15.6656 17.8419 15.6656 19.1796C15.6656 20.5173 14.5776 21.606 13.2399 21.606ZM13.2399 17.9898C12.5836 17.9898 12.0494 18.5233 12.0494 19.1796C12.0494 19.8359 12.5836 20.3702 13.2399 20.3702C13.8962 20.3702 14.4297 19.8359 14.4297 19.1796C14.4297 18.5233 13.8962 17.9898 13.2399 17.9898Z" fill="white"/>
<path d="M30.0494 15.2545C29.7829 15.2545 29.5367 15.0801 29.4572 14.8116C29.3603 14.4845 29.5472 14.1407 29.8743 14.0437L34.5047 12.6718C34.8311 12.5756 35.1763 12.7618 35.2726 13.0889C35.3695 13.416 35.1826 13.7598 34.8555 13.8568L30.2251 15.2287C30.1665 15.2461 30.1073 15.2545 30.0494 15.2545Z" fill="white"/>
<path d="M22.8763 19.8352C22.6719 19.8352 22.4724 19.7341 22.3546 19.5493C22.1712 19.2612 22.2562 18.8797 22.5443 18.6963L26.5086 16.1729C26.7966 15.9895 27.1781 16.0746 27.3616 16.3626C27.545 16.6507 27.4599 17.0322 27.1719 17.2156L23.2076 19.739C23.1043 19.8045 22.99 19.8352 22.8763 19.8352Z" fill="white"/>
<path d="M19.4244 20.8752C19.3909 20.8752 19.3575 20.8724 19.3226 20.8668L14.967 20.1457C14.6309 20.0899 14.4028 19.7718 14.4586 19.435C14.5144 19.0988 14.8282 18.87 15.1693 18.9265L19.5249 19.6477C19.861 19.7035 20.0891 20.0215 20.0333 20.3584C19.9831 20.6604 19.7215 20.8752 19.4244 20.8752Z" fill="white"/>
<path d="M16.0488 37.5991H11.1394C10.7984 37.5991 10.5215 37.3222 10.5215 36.9811V24.2527C10.5215 23.9117 10.7984 23.6348 11.1394 23.6348H16.0488C16.3898 23.6348 16.6667 23.9117 16.6667 24.2527V36.9811C16.6667 37.3222 16.3898 37.5991 16.0488 37.5991ZM11.7581 36.3632H15.4315V24.8706H11.7581V36.3632Z" fill="white"/>
<path d="M23.6512 37.5989H18.7439C18.4029 37.5989 18.126 37.322 18.126 36.9809V25.8406C18.126 25.4995 18.4029 25.2227 18.7439 25.2227H23.6512C23.9922 25.2227 24.2691 25.4995 24.2691 25.8406V36.9809C24.2691 37.322 23.9922 37.5989 23.6512 37.5989ZM19.3619 36.363H23.0332V26.4585H19.3619V36.363Z" fill="white"/>
<path d="M31.2558 37.598H26.3465C26.0054 37.598 25.7285 37.3211 25.7285 36.98V21.3328C25.7285 20.9917 26.0054 20.7148 26.3465 20.7148H31.2558C31.5968 20.7148 31.8737 20.9917 31.8737 21.3328V36.98C31.8737 37.3211 31.5968 37.598 31.2558 37.598ZM26.9651 36.3621H30.6385V21.9507H26.9651V36.3621Z" fill="white"/>
<path d="M38.8603 37.5982H33.9509C33.6099 37.5982 33.333 37.3213 33.333 36.9803V18.1101C33.333 17.7691 33.6099 17.4922 33.9509 17.4922H38.8603C39.2013 17.4922 39.4782 17.7691 39.4782 18.1101V36.9803C39.4782 37.3213 39.2013 37.5982 38.8603 37.5982ZM34.5689 36.3623H38.2423V18.7281H34.5689V36.3623Z" fill="white"/>
</g>
<defs>
<clipPath id="clip0_227_706">
<rect width="50" height="50" fill="white"/>
</clipPath>
</defs>
</svg>
