<svg width="50" height="50" viewBox="0 0 50 50" fill="none" xmlns="http://www.w3.org/2000/svg">
<g clip-path="url(#clip0_227_615)">
<path d="M50 25C50 38.785 38.785 50 25 50C11.215 50 0 38.785 0 25C0 11.215 11.215 0 25 0C38.785 0 50 11.215 50 25Z" fill="#29C0F0"/>
<path d="M41.8039 41.8038C51.0844 32.5233 51.0844 17.4767 41.8039 8.19623C32.5234 -1.08424 17.4768 -1.08424 8.19635 8.19623C-1.08412 17.4767 -1.08412 32.5233 8.19635 41.8038C17.4768 51.0842 32.5234 51.0842 41.8039 41.8038Z" fill="#29C0F0"/>
<path d="M33.3851 39.5131H16.6143C14.5422 39.5131 12.8564 37.8273 12.8564 35.7552V14.5786C12.8564 12.6537 14.4222 11.0879 16.3472 11.0879H33.6515C35.5765 11.0879 37.1423 12.6537 37.1423 14.5786V35.7552C37.1423 37.8273 35.4565 39.5131 33.3851 39.5131ZM16.3472 12.3238C15.1036 12.3238 14.0923 13.3351 14.0923 14.5786V35.7552C14.0923 37.1459 15.2236 38.2772 16.6143 38.2772H33.3851C34.7751 38.2772 35.9064 37.1459 35.9064 35.7552V14.5786C35.9064 13.3351 34.8951 12.3238 33.6515 12.3238H16.3472Z" fill="white"/>
<path d="M33.2507 22.5777H16.7498C16.4087 22.5777 16.1318 22.3008 16.1318 21.9597C16.1318 21.6187 16.4087 21.3418 16.7498 21.3418H33.2507C33.5917 21.3418 33.8686 21.6187 33.8686 21.9597C33.8686 22.3008 33.5917 22.5777 33.2507 22.5777Z" fill="white"/>
<path d="M33.2507 25.9175H16.7498C16.4087 25.9175 16.1318 25.6406 16.1318 25.2996C16.1318 24.9585 16.4087 24.6816 16.7498 24.6816H33.2507C33.5917 24.6816 33.8686 24.9585 33.8686 25.2996C33.8686 25.6406 33.5917 25.9175 33.2507 25.9175Z" fill="white"/>
<path d="M33.2507 29.2593H16.7498C16.4087 29.2593 16.1318 28.9824 16.1318 28.6414C16.1318 28.3003 16.4087 28.0234 16.7498 28.0234H33.2507C33.5917 28.0234 33.8686 28.3003 33.8686 28.6414C33.8686 28.9824 33.5917 29.2593 33.2507 29.2593Z" fill="white"/>
<path d="M23.6877 32.6031H16.7488C16.4077 32.6031 16.1309 32.3262 16.1309 31.9851C16.1309 31.6441 16.4077 31.3672 16.7488 31.3672H23.6877C24.0288 31.3672 24.3056 31.6441 24.3056 31.9851C24.3056 32.3262 24.0288 32.6031 23.6877 32.6031Z" fill="white"/>
<path d="M23.6877 35.9429H16.7488C16.4077 35.9429 16.1309 35.666 16.1309 35.325C16.1309 34.9839 16.4077 34.707 16.7488 34.707H23.6877C24.0288 34.707 24.3056 34.9839 24.3056 35.325C24.3056 35.666 24.0288 35.9429 23.6877 35.9429Z" fill="white"/>
<path d="M33.2507 15.8941H16.7498C16.4087 15.8941 16.1318 15.6172 16.1318 15.2761C16.1318 14.9351 16.4087 14.6582 16.7498 14.6582H33.2507C33.5917 14.6582 33.8686 14.9351 33.8686 15.2761C33.8686 15.6172 33.5917 15.8941 33.2507 15.8941Z" fill="white"/>
<path d="M33.2507 19.2359H16.7498C16.4087 19.2359 16.1318 18.959 16.1318 18.6179C16.1318 18.2769 16.4087 18 16.7498 18H33.2507C33.5917 18 33.8686 18.2769 33.8686 18.6179C33.8686 18.959 33.5917 19.2359 33.2507 19.2359Z" fill="white"/>
<path d="M27.7541 35.6789C27.667 35.6789 27.5777 35.6601 27.4947 35.6217C27.2422 35.5045 27.0992 35.2325 27.1453 34.9584L27.7242 31.5333C27.7807 31.1971 28.098 30.9676 28.4363 31.0269C28.7731 31.0834 28.9998 31.4028 28.9426 31.739L28.7403 32.9344L29.5173 32.0145C29.6875 31.8129 29.9665 31.7418 30.2133 31.8373C30.4595 31.9329 30.6172 32.1735 30.6074 32.4372L30.5816 33.1067L32.305 31.5012C32.554 31.2682 32.9452 31.2815 33.1782 31.5319C33.4111 31.7816 33.3972 32.1721 33.1475 32.4051L30.327 35.0337C30.1443 35.2046 29.8751 35.2479 29.6484 35.1432C29.4204 35.0386 29.2788 34.8071 29.2885 34.5574L29.3032 34.1857L28.2277 35.4599C28.1071 35.6022 27.9334 35.6796 27.7555 35.6796L27.7541 35.6789Z" fill="white"/>
</g>
<defs>
<clipPath id="clip0_227_615">
<rect width="50" height="50" fill="white"/>
</clipPath>
</defs>
</svg>
