<svg width="50" height="50" viewBox="0 0 50 50" fill="none" xmlns="http://www.w3.org/2000/svg">
<g clip-path="url(#clip0_227_634)">
<rect width="50" height="50" rx="25" fill="#29C0F0"/>
<path d="M14.4631 26.2338C12.2536 26.2338 10.1641 23.5919 10.1641 20.7972C10.1641 18.1804 11.9718 16.2812 14.4631 16.2812C16.9544 16.2812 18.7629 18.1804 18.7629 20.7972C18.7629 23.414 16.6336 26.2338 14.4631 26.2338ZM14.4631 17.5171C12.6595 17.5171 11.3999 18.866 11.3999 20.7972C11.3999 22.9175 12.9169 24.9979 14.4631 24.9979C16.0094 24.9979 17.527 22.8386 17.527 20.7972C17.527 18.866 16.2667 17.5171 14.4631 17.5171Z" fill="white"/>
<path d="M14.9648 32.8291C10.3777 32.8291 8.24628 31.6699 7.78736 29.0691C7.46235 27.2279 8.0231 25.6342 9.36568 24.5817C10.038 24.0524 10.7745 23.636 11.5536 23.3445C11.873 23.2238 12.2294 23.387 12.3487 23.7065C12.4679 24.0266 12.3061 24.3823 11.9867 24.5015C11.3269 24.7484 10.702 25.102 10.1287 25.5533C9.14738 26.3233 8.75821 27.4643 9.00371 28.8543C9.30152 30.5428 10.5632 32.0277 17.7462 31.4739C18.0928 31.4481 18.3837 31.702 18.4102 32.0423C18.4367 32.3827 18.1821 32.6798 17.8418 32.7063C16.7914 32.7872 15.8338 32.8291 14.9641 32.8291H14.9648Z" fill="white"/>
<path d="M19.5015 25.9797C19.3438 25.9797 19.1855 25.9197 19.0656 25.7997C18.9024 25.6602 17.7927 24.8324 17.0667 24.5806C16.7445 24.469 16.5736 24.1168 16.6859 23.7946C16.7968 23.4723 17.1462 23.3015 17.4719 23.4131C18.479 23.7625 19.8153 24.8031 19.9367 24.9244C20.1787 25.165 20.1801 25.5563 19.9388 25.7983C19.8181 25.9197 19.6591 25.9804 19.5008 25.9804L19.5015 25.9797Z" fill="white"/>
<path d="M35.54 26.2338C33.3702 26.2338 31.2402 23.541 31.2402 20.7972C31.2402 18.0535 33.048 16.2812 35.54 16.2812C38.032 16.2812 39.8398 18.1804 39.8398 20.7972C39.8398 23.5919 37.7502 26.2338 35.54 26.2338ZM35.54 17.5171C33.7364 17.5171 32.4761 18.866 32.4761 20.7972C32.4761 22.8386 34.0509 24.9979 35.54 24.9979C37.029 24.9979 38.6039 22.9175 38.6039 20.7972C38.6039 18.866 37.3436 17.5171 35.54 17.5171Z" fill="white"/>
<path d="M35.0299 32.8302C34.1769 32.8302 33.2396 32.7897 32.2122 32.7123C31.8719 32.6865 31.6166 32.3901 31.6424 32.0497C31.6682 31.7094 31.9653 31.4534 32.305 31.4806C39.4462 32.0218 40.7023 30.5391 40.9952 28.8554C41.1675 27.8825 41.1124 26.5211 39.8779 25.5537C39.3081 25.1046 38.6804 24.7509 38.0129 24.5013C37.6928 24.382 37.5317 24.0256 37.6509 23.7062C37.7702 23.3867 38.1266 23.2242 38.446 23.3442C39.2334 23.6392 39.972 24.0556 40.6416 24.5822C41.9793 25.6311 42.5379 27.2248 42.2122 29.0688C41.7589 31.6717 39.6261 32.8309 35.0292 32.8309L35.0299 32.8302Z" fill="white"/>
<path d="M30.471 25.9928C30.3057 25.9928 30.1418 25.9279 30.0212 25.7989C29.7945 25.5555 29.7952 25.1809 30.0302 24.9459C30.1551 24.8211 31.527 23.7512 32.5675 23.3899C32.8905 23.2776 33.2413 23.4492 33.3536 23.7714C33.4652 24.0936 33.2943 24.4458 32.9714 24.5574C32.2167 24.8197 31.0715 25.6747 30.8832 25.8379C30.7646 25.9405 30.6168 25.9921 30.4696 25.9921L30.471 25.9928Z" fill="white"/>
<path d="M25.0015 27.0225C22.3868 27.0225 19.915 23.8798 19.915 20.5565C19.915 17.457 22.0541 15.207 25.0015 15.207C27.9489 15.207 30.088 17.457 30.088 20.5565C30.088 23.8198 27.5688 27.0225 25.0015 27.0225ZM25.0015 16.4429C22.7341 16.4429 21.1509 18.1342 21.1509 20.5565C21.1509 23.1963 23.0584 25.7866 25.0015 25.7866C26.9446 25.7866 28.8521 23.098 28.8521 20.5565C28.8521 18.015 27.2689 16.4429 25.0015 16.4429Z" fill="white"/>
<path d="M25.0459 35.4086C23.7542 35.4086 22.4688 35.3165 21.1974 35.1317C20.1317 34.9804 19.1441 34.5159 18.3448 33.7863C17.5484 33.061 16.9939 32.125 16.7414 31.0795L16.6877 30.8578C16.1967 28.8163 16.9451 26.6633 18.5931 25.3751C19.4182 24.7286 20.3235 24.2181 21.2818 23.8575C21.5991 23.7389 21.9569 23.8986 22.0776 24.2181C22.1975 24.5375 22.0357 24.8939 21.7163 25.0138C20.8759 25.3298 20.0808 25.7789 19.3547 26.3481C18.0854 27.3398 17.51 28.9963 17.8887 30.569L17.9417 30.7908C18.1363 31.5943 18.5624 32.3147 19.1762 32.8734C19.7913 33.4341 20.5502 33.7919 21.3718 33.9084C23.6754 34.2439 26.0258 34.2599 28.3616 33.9607L28.6196 33.9237C30.5041 33.6831 31.9709 32.2017 32.1968 30.3193C32.3691 28.8958 31.7735 27.4619 30.6443 26.5768L30.3528 26.346C29.6742 25.811 28.9223 25.3793 28.1196 25.0634C27.8022 24.9385 27.646 24.58 27.7708 24.262C27.8964 23.944 28.2556 23.7884 28.5722 23.9133C29.488 24.2739 30.3444 24.7656 31.1186 25.3758L31.4087 25.6053C32.8741 26.7533 33.6468 28.6162 33.4243 30.4665C33.1314 32.911 31.2232 34.8367 28.7856 35.1478L28.5276 35.1847C27.3663 35.334 26.203 35.4079 25.0445 35.4079L25.0459 35.4086Z" fill="white"/>
</g>
<defs>
<clipPath id="clip0_227_634">
<rect width="50" height="50" rx="25" fill="white"/>
</clipPath>
</defs>
</svg>
