<svg width="50" height="50" viewBox="0 0 50 50" fill="none" xmlns="http://www.w3.org/2000/svg">
<g clip-path="url(#clip0_227_728)">
<rect width="50" height="50" rx="25" fill="#29C0F0"/>
<path d="M33.8377 16.902H15.8143C14.6098 16.902 13.6299 15.9221 13.6299 14.7176C13.6299 13.5131 14.6098 12.5332 15.8143 12.5332H33.8384C35.0429 12.5332 36.0228 13.5131 36.0228 14.7176C36.0228 15.9221 35.0429 16.902 33.8384 16.902H33.8377ZM15.8143 13.7691C15.2912 13.7691 14.8658 14.1945 14.8658 14.7176C14.8658 15.2407 15.2912 15.6661 15.8143 15.6661H33.8384C34.3615 15.6661 34.7869 15.2407 34.7869 14.7176C34.7869 14.1945 34.3615 13.7691 33.8384 13.7691H15.8143Z" fill="white"/>
<path d="M18.0652 14.9992C17.7242 14.9992 17.4473 14.723 17.4473 14.3813V11.823C17.4473 11.4813 17.7242 11.2051 18.0652 11.2051C18.4063 11.2051 18.6831 11.4813 18.6831 11.823V14.3813C18.6831 14.723 18.4063 14.9992 18.0652 14.9992Z" fill="white"/>
<path d="M27.0808 14.9992C26.7398 14.9992 26.4629 14.723 26.4629 14.3813V11.823C26.4629 11.4813 26.7398 11.2051 27.0808 11.2051C27.4219 11.2051 27.6988 11.4813 27.6988 11.823V14.3813C27.6988 14.723 27.4219 14.9992 27.0808 14.9992Z" fill="white"/>
<path d="M22.573 14.9992C22.232 14.9992 21.9551 14.723 21.9551 14.3813V11.823C21.9551 11.4813 22.232 11.2051 22.573 11.2051C22.9141 11.2051 23.191 11.4813 23.191 11.823V14.3813C23.191 14.723 22.9141 14.9992 22.573 14.9992Z" fill="white"/>
<path d="M31.5886 14.9992C31.2476 14.9992 30.9707 14.723 30.9707 14.3813V11.823C30.9707 11.4813 31.2476 11.2051 31.5886 11.2051C31.9297 11.2051 32.2066 11.4813 32.2066 11.823V14.3813C32.2066 14.723 31.9297 14.9992 31.5886 14.9992Z" fill="white"/>
<path d="M28.3612 38.2801H16.6894C15.0037 38.2801 13.6318 36.9054 13.6318 35.2155V14.7175C13.6318 14.3758 13.9087 14.0996 14.2498 14.0996C14.5908 14.0996 14.8677 14.3758 14.8677 14.7175V35.2155C14.8677 36.224 15.6851 37.0442 16.6894 37.0442H28.3612C28.7023 37.0442 28.9792 37.3204 28.9792 37.6622C28.9792 38.0039 28.7023 38.2801 28.3612 38.2801Z" fill="white"/>
<path d="M35.409 30.9322C35.0679 30.9322 34.791 30.656 34.791 30.3142V18.284C34.791 17.9422 35.0679 17.666 35.409 17.666C35.75 17.666 36.0269 17.9422 36.0269 18.284V30.3142C36.0269 30.656 35.75 30.9322 35.409 30.9322Z" fill="white"/>
<path d="M26.3858 31.232H17.5994C17.2583 31.232 16.9814 30.9558 16.9814 30.614C16.9814 30.2723 17.2583 29.9961 17.5994 29.9961H26.3858C26.7269 29.9961 27.0038 30.2723 27.0038 30.614C27.0038 30.9558 26.7269 31.232 26.3858 31.232Z" fill="white"/>
<path d="M24.827 33.7437H17.5994C17.2583 33.7437 16.9814 33.4675 16.9814 33.1258C16.9814 32.784 17.2583 32.5078 17.5994 32.5078H24.827C25.1681 32.5078 25.445 32.784 25.445 33.1258C25.445 33.4675 25.1681 33.7437 24.827 33.7437Z" fill="white"/>
<path d="M33.0444 40.8661C29.8466 40.8661 27.2451 38.2646 27.2451 35.0669C27.2451 31.8691 29.8466 29.2676 33.0444 29.2676C36.2422 29.2676 38.8437 31.8691 38.8437 35.0669C38.8437 38.2646 36.2422 40.8661 33.0444 40.8661ZM33.0444 30.5042C30.528 30.5042 28.481 32.5512 28.481 35.0676C28.481 37.5839 30.528 39.6309 33.0444 39.6309C35.5608 39.6309 37.6078 37.5839 37.6078 35.0676C37.6078 32.5512 35.5608 30.5042 33.0444 30.5042Z" fill="white"/>
<path d="M28.2893 27.9043H26.4975C25.0559 27.9043 23.8828 26.7298 23.8828 25.2875C23.8828 24.9457 24.1597 24.6695 24.5007 24.6695C24.8418 24.6695 25.1187 24.9457 25.1187 25.2875C25.1187 26.0484 25.7373 26.6677 26.4982 26.6677H28.2893C28.6582 26.6677 29.0042 26.524 29.265 26.2639C29.5259 26.003 29.6695 25.6564 29.6695 25.2875V21.3894C29.6695 21.0477 29.9464 20.7715 30.2875 20.7715C30.6285 20.7715 30.9054 21.0477 30.9054 21.3894V25.2875C30.9054 25.9863 30.6334 26.6433 30.1389 27.1378C29.6444 27.6316 28.9881 27.9036 28.29 27.9036L28.2893 27.9043Z" fill="white"/>
<path d="M24.5003 25.9059C24.4013 25.9059 24.3016 25.8815 24.2109 25.8334C24.0093 25.7267 23.8831 25.5175 23.8824 25.2894L23.874 21.2902C23.874 19.8437 25.0478 18.6699 26.4908 18.6699H28.2903C29.7319 18.6699 30.9057 19.8444 30.9057 21.2867V21.3914C30.9057 21.5971 30.8032 21.7889 30.633 21.904L24.8463 25.8013C24.7423 25.8711 24.6217 25.9066 24.501 25.9066L24.5003 25.9059ZM26.4901 19.9058C25.7292 19.9058 25.1099 20.5251 25.1099 21.2867L25.1162 24.1288L29.6531 21.0726C29.5505 20.4128 28.9779 19.9065 28.2896 19.9065H26.4901V19.9058Z" fill="white"/>
<path d="M20.5628 27.9042C20.2218 27.9042 19.9449 27.628 19.9449 27.2863V20.4946C19.6715 20.6626 19.3102 20.5943 19.1198 20.3307C18.9203 20.0538 18.9824 19.6674 19.2586 19.4679L20.2008 18.7872C20.3885 18.6505 20.6368 18.6324 20.8439 18.7377C21.0503 18.843 21.1808 19.0557 21.1808 19.288V27.287C21.1808 27.6287 20.9039 27.9049 20.5628 27.9049V27.9042Z" fill="white"/>
<path d="M32.7084 37.259C32.5501 37.259 32.3925 37.1984 32.2718 37.0777L30.3978 35.2043C30.1565 34.963 30.1565 34.5718 30.3978 34.3304C30.6384 34.0891 31.0304 34.0891 31.2717 34.3304L32.7084 35.7665L34.8154 33.6595C35.0567 33.4182 35.448 33.4182 35.6893 33.6595C35.9306 33.9008 35.9306 34.2921 35.6893 34.5334L33.145 37.0777C33.0244 37.1984 32.8661 37.259 32.7084 37.259Z" fill="white"/>
</g>
<defs>
<clipPath id="clip0_227_728">
<rect width="50" height="50" rx="25" fill="white"/>
</clipPath>
</defs>
</svg>
