<svg width="50" height="50" viewBox="0 0 50 50" fill="none" xmlns="http://www.w3.org/2000/svg">
<g clip-path="url(#clip0_227_676)">
<path d="M25 0C38.785 0 50 11.215 50 25.0007C50 38.7864 38.785 50.0007 25 50.0007C11.215 50.0007 0 38.785 0 25.0007" fill="#29C0F0"/>
<path d="M0 25.0007C0 11.215 11.215 0 25 0Z" fill="#29C0F0"/>
<path d="M1.23633 25.0011C1.23633 38.1048 11.8968 48.7653 25.0005 48.7653C38.1041 48.7653 48.7646 38.1048 48.7646 25.0011C48.7646 11.8975 38.1041 1.23633 25.0005 1.23633C11.8968 1.23633 1.23633 11.8968 1.23633 25.0011Z" fill="#29C0F0"/>
<path d="M31.759 38.9324H13.2969C12.937 38.9324 12.6064 38.7678 12.3895 38.4798C12.1726 38.1917 12.1056 37.8284 12.2054 37.4824L12.5464 36.2982C12.6859 35.8141 13.1344 35.4766 13.6379 35.4766H31.418C31.9215 35.4766 32.37 35.8148 32.5095 36.2982L32.8505 37.4824C32.9502 37.8284 32.8833 38.1924 32.6664 38.4798C32.4495 38.7678 32.1189 38.9324 31.759 38.9324ZM13.4301 37.6965H31.6258L31.3426 36.7124H13.7133L13.4301 37.6965Z" fill="white"/>
<path d="M38.8064 38.933H35.9301C34.907 38.933 34.0742 38.1002 34.0742 37.0771C34.0742 35.6131 35.2655 34.4219 36.7294 34.4219H38.0078C39.4718 34.4219 40.663 35.6131 40.663 37.0771C40.663 38.1002 39.8303 38.933 38.8071 38.933H38.8064ZM36.7294 35.6578C35.9469 35.6578 35.3101 36.2945 35.3101 37.0771C35.3101 37.4195 35.5884 37.6971 35.9301 37.6971H38.8064C39.1488 37.6971 39.4264 37.4188 39.4264 37.0771C39.4264 36.2945 38.7897 35.6578 38.0071 35.6578H36.7287H36.7294Z" fill="white"/>
<path d="M36.0771 32.1554H12.5173C11.4837 32.1554 10.6426 31.3143 10.6426 30.2807V14.8545C10.6426 13.8209 11.4837 12.9805 12.5173 12.9805H36.0771C37.1107 12.9805 37.9518 13.8209 37.9518 14.8545V30.2807C37.9518 31.3143 37.1107 32.1554 36.0771 32.1554ZM12.5173 14.2163C12.1651 14.2163 11.8785 14.503 11.8785 14.8545V30.2807C11.8785 30.6329 12.1651 30.9195 12.5173 30.9195H36.0771C36.4293 30.9195 36.7159 30.6329 36.7159 30.2807V14.8545C36.7159 14.503 36.4293 14.2163 36.0771 14.2163H12.5173Z" fill="white"/>
<path d="M29.1709 36.6125C28.8299 36.6125 28.553 36.3363 28.553 35.9946V35.7435C28.553 35.5984 28.5014 35.4582 28.4072 35.3474L27.4468 34.2238C27.3513 34.1122 27.299 33.9706 27.299 33.8227L27.2969 31.812C27.2969 31.4709 27.5731 31.1941 27.9141 31.1934C28.2552 31.1934 28.5321 31.4695 28.5321 31.8106L28.5341 33.5933L29.3467 34.5446C29.6319 34.878 29.7889 35.3034 29.7889 35.7428V35.9939C29.7889 36.3356 29.512 36.6118 29.1709 36.6118V36.6125Z" fill="white"/>
<path d="M19.4236 36.6131C19.0825 36.6131 18.8057 36.3369 18.8057 35.9951V35.7441C18.8057 35.3047 18.9626 34.8792 19.2478 34.5458L19.9132 33.7675C20.0081 33.6566 20.0597 33.5157 20.059 33.3713L20.0548 31.717C20.0541 31.3759 20.3303 31.0984 20.6713 31.0977H20.6727C21.0131 31.0977 21.29 31.3731 21.2907 31.7142L21.2949 33.3678C21.2962 33.8086 21.1386 34.2355 20.852 34.5702L20.1873 35.3479C20.0932 35.4581 20.0415 35.599 20.0415 35.7441V35.9951C20.0415 36.3369 19.7647 36.6131 19.4236 36.6131Z" fill="white"/>
<path d="M37.008 29.7808H11.655C11.314 29.7808 11.0371 29.5046 11.0371 29.1629C11.0371 28.8211 11.314 28.5449 11.655 28.5449H37.008C37.349 28.5449 37.6259 28.8211 37.6259 29.1629C37.6259 29.5046 37.349 29.7808 37.008 29.7808Z" fill="white"/>
<path d="M22.5563 25.3252C22.5333 25.3252 22.5103 25.3238 22.4873 25.3217L20.3077 25.0797C19.9688 25.0413 19.724 24.7365 19.7616 24.3969C19.7993 24.0572 20.1055 23.8173 20.4437 23.8508L22.6233 24.0928C22.9622 24.1311 23.207 24.4359 23.1694 24.7756C23.1345 25.0915 22.8667 25.3252 22.5563 25.3252Z" fill="white"/>
<path d="M29.3277 22.1758C29.2342 22.1758 29.1401 22.1549 29.0508 22.1103L26.7744 20.9671C26.4696 20.8137 26.3461 20.4427 26.4996 20.1379C26.6523 19.8331 27.0233 19.7097 27.3288 19.8624L29.6053 21.0055C29.9101 21.1589 30.0335 21.53 29.8801 21.8348C29.772 22.051 29.5537 22.1758 29.327 22.1758H29.3277Z" fill="white"/>
<path d="M31.2836 21.7868C31.1141 21.7868 30.9453 21.7171 30.8233 21.5818C30.5952 21.3279 30.6161 20.9373 30.87 20.7093L33.9304 17.9634C34.1836 17.734 34.5756 17.7563 34.8029 18.0109C35.031 18.2647 35.0101 18.6553 34.7562 18.8834L31.6958 21.6292C31.5779 21.7352 31.4301 21.7875 31.2836 21.7875V21.7868Z" fill="white"/>
<path d="M24.2696 24.3054C24.1832 24.3054 24.0953 24.2873 24.0123 24.2497C23.7019 24.1067 23.5666 23.7398 23.7089 23.4302L24.8862 20.8677C25.0292 20.5574 25.396 20.4228 25.7057 20.5636C26.0161 20.7066 26.1514 21.0735 26.0091 21.3831L24.8318 23.9456C24.7279 24.1722 24.504 24.3061 24.2696 24.3061V24.3054Z" fill="white"/>
<path d="M15.9712 27.4462C15.7808 27.4462 15.5932 27.3591 15.4718 27.1931C15.2703 26.9176 15.3302 26.5312 15.6057 26.3296L17.8724 24.6704C18.1486 24.4681 18.5343 24.5288 18.7366 24.8036C18.9381 25.0791 18.8782 25.4655 18.6027 25.6671L16.336 27.3263C16.2258 27.4072 16.0981 27.4456 15.9712 27.4456V27.4462Z" fill="white"/>
<path d="M19.1659 26.1267C18.1797 26.1267 17.377 25.324 17.377 24.3378C17.377 23.3516 18.1797 22.5488 19.1659 22.5488C20.1521 22.5488 20.9549 23.3516 20.9549 24.3378C20.9549 25.324 20.1521 26.1267 19.1659 26.1267ZM19.1659 23.7847C18.8611 23.7847 18.6128 24.033 18.6128 24.3378C18.6128 24.6426 18.8611 24.8909 19.1659 24.8909C19.4707 24.8909 19.719 24.6426 19.719 24.3378C19.719 24.033 19.4707 23.7847 19.1659 23.7847Z" fill="white"/>
<path d="M23.7733 26.6111C22.7871 26.6111 21.9844 25.8083 21.9844 24.8222C21.9844 23.836 22.7871 23.0332 23.7733 23.0332C24.7595 23.0332 25.5623 23.836 25.5623 24.8222C25.5623 25.8083 24.7595 26.6111 23.7733 26.6111ZM23.7733 24.2691C23.4685 24.2691 23.2203 24.5174 23.2203 24.8222C23.2203 25.1269 23.4685 25.3752 23.7733 25.3752C24.0781 25.3752 24.3264 25.1269 24.3264 24.8222C24.3264 24.5174 24.0781 24.2691 23.7733 24.2691Z" fill="white"/>
<path d="M26.0136 21.6775C25.0274 21.6775 24.2246 20.8748 24.2246 19.8886C24.2246 18.9024 25.0274 18.0996 26.0136 18.0996C26.9998 18.0996 27.8025 18.9024 27.8025 19.8886C27.8025 20.8748 26.9998 21.6775 26.0136 21.6775ZM26.0136 19.3355C25.7088 19.3355 25.4605 19.5838 25.4605 19.8886C25.4605 20.1933 25.7088 20.4416 26.0136 20.4416C26.3183 20.4416 26.5666 20.1933 26.5666 19.8886C26.5666 19.5838 26.3183 19.3355 26.0136 19.3355Z" fill="white"/>
<path d="M30.3651 23.8787C29.3789 23.8787 28.5762 23.0759 28.5762 22.0897C28.5762 21.1035 29.3789 20.3008 30.3651 20.3008C31.3513 20.3008 32.1541 21.1035 32.1541 22.0897C32.1541 23.0759 31.3513 23.8787 30.3651 23.8787ZM30.3651 21.5367C30.0603 21.5367 29.812 21.7849 29.812 22.0897C29.812 22.3945 30.0603 22.6428 30.3651 22.6428C30.6699 22.6428 30.9182 22.3945 30.9182 22.0897C30.9182 21.7849 30.6699 21.5367 30.3651 21.5367Z" fill="white"/>
<path d="M21.0028 17.8355H14.9392C14.5982 17.8355 14.3213 17.5593 14.3213 17.2175C14.3213 16.8758 14.5982 16.5996 14.9392 16.5996H21.0028C21.3439 16.5996 21.6208 16.8758 21.6208 17.2175C21.6208 17.5593 21.3439 17.8355 21.0028 17.8355Z" fill="white"/>
<path d="M21.0028 20.5015H14.9392C14.5982 20.5015 14.3213 20.2253 14.3213 19.8836C14.3213 19.5418 14.5982 19.2656 14.9392 19.2656H21.0028C21.3439 19.2656 21.6208 19.5418 21.6208 19.8836C21.6208 20.2253 21.3439 20.5015 21.0028 20.5015Z" fill="white"/>
</g>
<defs>
<clipPath id="clip0_227_676">
<rect width="50" height="50" fill="white"/>
</clipPath>
</defs>
</svg>
