<svg width="50" height="50" viewBox="0 0 50 50" fill="none" xmlns="http://www.w3.org/2000/svg">
<g clip-path="url(#clip0_227_657)">
<rect width="50" height="50" rx="25" fill="#29C0F0"/>
<path d="M39.6023 36.8479H10.3974C9.39239 36.8479 8.04492 35.8219 8.04492 34.773V34.554C8.04492 33.6647 8.62938 33.0879 9.78157 32.8403L10.5662 32.6722C10.5606 32.6164 10.5578 32.5586 10.5578 32.5007V16.405C10.5578 15.2953 11.5984 14.6077 12.563 14.6077H37.5462C38.0268 14.5679 38.4864 14.7234 38.8449 15.0484C39.2229 15.3909 39.4398 15.8847 39.4398 16.405V32.5007C39.4398 32.562 39.437 32.6227 39.4307 32.682C39.6797 32.7336 39.9573 32.7901 40.2056 32.8382C41.7267 33.136 41.9541 34.0413 41.9541 34.5547V34.7737C41.9541 35.8226 40.6073 36.8486 39.6016 36.8486L39.6023 36.8479ZM10.0417 34.0483C9.2808 34.2115 9.2808 34.418 9.2808 34.554V34.773C9.2808 35.047 9.97057 35.612 10.3974 35.612H39.6016C40.0285 35.612 40.7182 35.047 40.7182 34.773V34.554C40.7182 34.4472 40.7182 34.1976 39.9685 34.0504C39.3059 33.9214 38.4362 33.7352 38.4362 33.7352C38.2088 33.687 38.0282 33.5148 37.9682 33.2902C37.9082 33.0649 37.9794 32.8264 38.1523 32.6708C38.1719 32.6534 38.2039 32.6241 38.2039 32.5V16.4043C38.2039 16.2327 38.1356 16.0723 38.0156 15.9642C37.9417 15.8979 37.8162 15.8226 37.6348 15.84C37.6146 15.8421 37.5937 15.8428 37.5727 15.8428H12.5637C12.208 15.8428 11.7944 16.0876 11.7944 16.4043V32.5C11.7944 32.6227 11.8258 32.652 11.8432 32.6681C12.0113 32.825 12.079 33.0621 12.0176 33.2839C11.9562 33.5057 11.777 33.6759 11.5517 33.724L10.0417 34.0483Z" fill="white"/>
<path d="M38.5656 33.7398H11.4216C11.0806 33.7398 10.8037 33.4636 10.8037 33.1218C10.8037 32.7801 11.0806 32.5039 11.4216 32.5039H38.5656C38.9067 32.5039 39.1835 32.7801 39.1835 33.1218C39.1835 33.4636 38.9067 33.7398 38.5656 33.7398Z" fill="white"/>
<path d="M35.527 19.816H28.8113C28.4702 19.816 28.1934 19.5398 28.1934 19.198C28.1934 18.8563 28.4702 18.5801 28.8113 18.5801H35.527C35.8681 18.5801 36.145 18.8563 36.145 19.198C36.145 19.5398 35.8681 19.816 35.527 19.816Z" fill="white"/>
<path d="M35.5272 22.3042H31.8816C31.5406 22.3042 31.2637 22.028 31.2637 21.6863C31.2637 21.3445 31.5406 21.0684 31.8816 21.0684H35.5272C35.8682 21.0684 36.1451 21.3445 36.1451 21.6863C36.1451 22.028 35.8682 22.3042 35.5272 22.3042Z" fill="white"/>
<path d="M35.527 24.7925H28.8113C28.4702 24.7925 28.1934 24.5163 28.1934 24.1746C28.1934 23.8328 28.4702 23.5566 28.8113 23.5566H35.527C35.8681 23.5566 36.145 23.8328 36.145 24.1746C36.145 24.5163 35.8681 24.7925 35.527 24.7925Z" fill="white"/>
<path d="M35.5272 27.2788H31.8816C31.5406 27.2788 31.2637 27.0027 31.2637 26.6609C31.2637 26.3192 31.5406 26.043 31.8816 26.043H35.5272C35.8682 26.043 36.1451 26.3192 36.1451 26.6609C36.1451 27.0027 35.8682 27.2788 35.5272 27.2788Z" fill="white"/>
<path d="M35.527 29.7671H28.8113C28.4702 29.7671 28.1934 29.4909 28.1934 29.1492C28.1934 28.8074 28.4702 28.5312 28.8113 28.5312H35.527C35.8681 28.5312 36.145 28.8074 36.145 29.1492C36.145 29.4909 35.8681 29.7671 35.527 29.7671Z" fill="white"/>
<path d="M20.1558 30.1964C19.7869 30.1964 19.4165 30.1622 19.0546 30.0932C18.7944 30.0444 18.5949 29.8351 18.5573 29.5722L18.445 28.7778C18.332 28.7353 18.2204 28.6899 18.1102 28.639L17.4665 29.1217C17.2538 29.2807 16.965 29.287 16.746 29.137C16.135 28.7171 15.6134 28.1947 15.1942 27.5852C15.0442 27.3669 15.0498 27.0767 15.2088 26.8647L15.6922 26.2196C15.6419 26.1108 15.5952 25.9992 15.5527 25.8855L14.7576 25.7718C14.496 25.7342 14.2875 25.5347 14.238 25.2752C14.1696 24.916 14.1348 24.5464 14.1348 24.1761C14.1348 23.8057 14.1696 23.434 14.238 23.0727C14.2868 22.8125 14.4967 22.6124 14.759 22.5754L15.552 22.4631C15.5938 22.3494 15.6406 22.2379 15.6908 22.1291L15.2088 21.4839C15.0505 21.2712 15.0449 20.9817 15.1949 20.7641C15.6127 20.1574 16.1343 19.635 16.7453 19.213C16.9643 19.0624 17.2551 19.068 17.4672 19.227L18.1088 19.7082C18.219 19.658 18.3313 19.6113 18.4457 19.5687L18.558 18.7771C18.5949 18.5149 18.7951 18.3056 19.0553 18.2568C19.7757 18.1201 20.5415 18.1201 21.2599 18.2568C21.5193 18.3056 21.7195 18.5149 21.7572 18.7771L21.8695 19.5687C21.9838 19.6113 22.0954 19.6573 22.2049 19.7075L22.8459 19.2277C23.0579 19.0687 23.348 19.0638 23.5663 19.2123C24.1801 19.6343 24.7039 20.1574 25.1217 20.7676C25.2709 20.9859 25.2646 21.2761 25.1063 21.4874L24.6251 22.1297C24.6753 22.2392 24.7213 22.3508 24.7632 22.4638L25.5562 22.5761C25.8184 22.6131 26.0283 22.8132 26.0772 23.0734C26.1455 23.434 26.1804 23.8057 26.1804 24.1768C26.1804 24.5478 26.1455 24.9174 26.0772 25.2759C26.0283 25.5354 25.8191 25.7349 25.5576 25.7725L24.7625 25.8862C24.7199 26.0006 24.6732 26.1122 24.623 26.2217L25.1049 26.8619C25.2639 27.074 25.2709 27.3641 25.121 27.5824C24.7039 28.192 24.1808 28.7157 23.5656 29.1384C23.3473 29.2883 23.0558 29.2828 22.8445 29.1231L22.2028 28.6411C22.0933 28.692 21.981 28.7374 21.8688 28.7799L21.7565 29.5743C21.7195 29.8365 21.5193 30.0465 21.2592 30.0953C20.8972 30.1643 20.5262 30.1985 20.1558 30.1985V30.1964ZM19.7164 28.9396C20.0094 28.9682 20.3051 28.9668 20.5966 28.9396L20.6977 28.2219C20.7326 27.9778 20.9091 27.7763 21.1476 27.7121C21.4273 27.6361 21.7007 27.5224 21.9594 27.3752C22.1735 27.2539 22.4386 27.2699 22.636 27.4192L23.2141 27.8537C23.4415 27.6654 23.6493 27.4575 23.8363 27.2323L23.4011 26.6541C23.2532 26.4567 23.2358 26.1903 23.3585 25.9755C23.5029 25.723 23.6166 25.4496 23.6975 25.1602C23.7637 24.9251 23.9625 24.7501 24.2045 24.7152L24.9208 24.6127C24.934 24.4676 24.941 24.3211 24.941 24.1747C24.941 24.0282 24.934 23.8796 24.9208 23.7332L24.2059 23.6327C23.9625 23.5986 23.763 23.4235 23.6968 23.1871C23.6166 22.8983 23.5029 22.6242 23.3592 22.3718C23.2378 22.1583 23.2546 21.8926 23.4017 21.6959L23.8356 21.1164C23.6479 20.8904 23.4394 20.6818 23.212 20.4935L22.6332 20.9267C22.4358 21.0759 22.1694 21.0919 21.9545 20.9678C21.7076 20.8262 21.4343 20.7118 21.142 20.6302C20.9056 20.5647 20.7305 20.3645 20.6964 20.1218L20.5952 19.4083C20.3044 19.3811 20.0066 19.3811 19.7143 19.4083L19.6132 20.1218C19.579 20.3645 19.404 20.564 19.1675 20.6302C18.8767 20.7118 18.6012 20.8255 18.3508 20.9685C18.1381 21.0912 17.8717 21.0745 17.6736 20.9267L17.0954 20.4935C16.8688 20.6818 16.6609 20.8897 16.474 21.1143L16.9085 21.6952C17.0557 21.8919 17.0717 22.1569 16.9511 22.3704C16.8074 22.6228 16.6937 22.8969 16.6135 23.1857C16.5479 23.4221 16.3478 23.5972 16.1044 23.6314L15.3895 23.7318C15.3762 23.8782 15.3692 24.0254 15.3692 24.1733C15.3692 24.3211 15.3762 24.4662 15.3895 24.6113L16.1058 24.7138C16.3478 24.7487 16.5465 24.923 16.6128 25.1588C16.6937 25.4482 16.8074 25.7209 16.9511 25.9699C17.0745 26.1833 17.0585 26.4511 16.9106 26.6485L16.474 27.2316C16.6616 27.4575 16.8688 27.6647 17.0947 27.8523L17.6757 27.4164C17.8724 27.2685 18.1374 27.2525 18.3515 27.3732C18.611 27.5203 18.8844 27.634 19.1634 27.71C19.4019 27.7749 19.5783 27.9758 19.6132 28.2199L19.7143 28.9375L19.7164 28.9396Z" fill="white"/>
<path d="M20.1566 26.68C18.775 26.68 17.6514 25.555 17.6514 24.1726C17.6514 22.7903 18.775 21.666 20.1566 21.666C21.5382 21.666 22.6639 22.7903 22.6639 24.1726C22.6639 25.555 21.5396 26.68 20.1566 26.68ZM20.1566 22.9019C19.4564 22.9019 18.8872 23.4724 18.8872 24.1726C18.8872 24.8729 19.4571 25.4441 20.1566 25.4441C20.8561 25.4441 21.428 24.8736 21.428 24.1726C21.428 23.4717 20.8575 22.9019 20.1566 22.9019Z" fill="white"/>
</g>
<defs>
<clipPath id="clip0_227_657">
<rect width="50" height="50" rx="25" fill="white"/>
</clipPath>
</defs>
</svg>
