<svg width="50" height="50" viewBox="0 0 50 50" fill="none" xmlns="http://www.w3.org/2000/svg">
<g clip-path="url(#clip0_227_754)">
<path d="M50 25C50 38.785 38.785 50 25 50C11.215 50 0 38.785 0 25" fill="#29C0F0"/>
<path d="M0 25C0 11.215 11.215 0 25 0C38.785 0 50 11.215 50 25" fill="#29C0F0"/>
<path d="M1.23633 25.0005C1.23633 38.1041 11.8968 48.7646 25.0005 48.7646C38.1041 48.7646 48.7646 38.1041 48.7646 25.0005C48.7646 11.8968 38.1041 1.23633 25.0005 1.23633C11.8968 1.23633 1.23633 11.8968 1.23633 25.0005Z" fill="#29C0F0"/>
<path d="M23.4047 43.0966C23.0972 43.0966 22.8363 42.8706 22.7931 42.5658L22.475 40.3375C21.5963 40.1087 20.7628 39.7642 19.988 39.3087L18.1885 40.6583C17.9423 40.8431 17.5985 40.818 17.3809 40.6011L15.1253 38.3456C14.9077 38.128 14.8833 37.7841 15.0682 37.5379L16.4177 35.7385C15.9623 34.9636 15.6177 34.1309 15.389 33.2521L13.1606 32.9341C12.8566 32.8908 12.6299 32.63 12.6299 32.3224V29.1323C12.6299 28.8247 12.8559 28.5639 13.1606 28.5206L15.3918 28.2012C15.6177 27.3273 15.9623 26.4945 16.4198 25.7169L15.0682 23.9154C14.8833 23.6692 14.9077 23.3253 15.1253 23.1077L17.3809 20.8522C17.5985 20.6353 17.943 20.6102 18.1885 20.795L19.99 22.146C20.767 21.6898 21.5998 21.346 22.473 21.1207L22.7924 18.8882C22.8356 18.5834 23.0965 18.3574 23.404 18.3574H26.5935C26.901 18.3574 27.1619 18.5834 27.2051 18.8882L27.5239 21.1179C28.3852 21.3404 29.2229 21.6863 30.0068 22.1467L31.8097 20.795C32.0559 20.6109 32.3997 20.6353 32.6173 20.8529L34.8729 23.1084C35.0905 23.3253 35.1149 23.6706 34.9301 23.9161L33.5784 25.7183C34.0345 26.4952 34.3791 27.328 34.6071 28.2019L36.8369 28.5206C37.141 28.5639 37.3676 28.8247 37.3676 29.1323V32.3224C37.3676 32.63 37.141 32.8908 36.8369 32.9341L34.6044 33.2528C34.3784 34.1267 34.0352 34.9588 33.5791 35.7364L34.9301 37.5372C35.1149 37.7834 35.0905 38.1273 34.8729 38.3449L32.6173 40.6004C32.3997 40.8173 32.0552 40.8424 31.8097 40.6576L30.0089 39.3066C29.2305 39.7635 28.3985 40.108 27.5246 40.334L27.2051 42.5651C27.1619 42.8699 26.901 43.0959 26.5935 43.0959H23.404L23.4047 43.0966ZM19.9545 37.9445C20.011 37.9445 20.0689 37.9522 20.1247 37.9682C20.1839 37.985 20.2418 38.0115 20.2934 38.045C21.1632 38.6099 22.127 39.0088 23.1572 39.2299C23.4103 39.2843 23.6028 39.4901 23.6391 39.7467L23.9411 41.8607H26.0592L26.3619 39.7426C26.3982 39.4859 26.5914 39.2794 26.8453 39.2257C27.8684 39.0088 28.8309 38.6106 29.7076 38.0415C29.9252 37.9006 30.2076 37.9097 30.4148 38.0659L32.1242 39.3485L33.6223 37.8511L32.3404 36.1423C32.1849 35.9352 32.1751 35.6527 32.316 35.4358C32.8831 34.5598 33.2806 33.5966 33.4982 32.5735C33.5519 32.3196 33.7584 32.1264 34.015 32.0902L36.1339 31.7875V29.6693L34.0185 29.3666C33.7995 29.3352 33.6147 29.1895 33.5324 28.9844C33.5198 28.9523 33.5087 28.9168 33.501 28.8826C33.2813 27.8622 32.8845 26.9025 32.3209 26.03C32.1765 25.8152 32.1786 25.5272 32.339 25.3138L33.6217 23.6036L32.1235 22.1062L30.4134 23.3888C30.2063 23.5457 29.9245 23.5541 29.7062 23.4132C28.8316 22.8469 27.8684 22.4473 26.8446 22.2269C26.5914 22.1725 26.3975 21.966 26.3612 21.7101L26.0585 19.5947H23.9404L23.637 21.7142C23.6007 21.9709 23.4068 22.1773 23.1537 22.231C22.1305 22.448 21.168 22.8455 20.2927 23.4132C20.0758 23.5541 19.7934 23.545 19.5855 23.3888L17.8761 22.1062L16.378 23.6036L17.6606 25.3131C17.8161 25.5202 17.8259 25.8034 17.685 26.0203C17.1166 26.8963 16.7176 27.8587 16.5007 28.8819C16.447 29.1358 16.2406 29.329 15.9839 29.3652L13.8658 29.6679V31.7861L15.9797 32.0881C16.2364 32.1243 16.4428 32.3168 16.4972 32.57C16.7176 33.5994 17.1166 34.5633 17.6815 35.4337C17.7833 35.5899 17.8105 35.7873 17.7505 35.968C17.7296 36.0307 17.6982 36.09 17.6585 36.143L16.378 37.8504L17.8754 39.3478L19.5827 38.0673C19.6908 37.9864 19.8213 37.9438 19.9538 37.9438L19.9545 37.9445Z" fill="white"/>
<path d="M24.9996 37.7804C21.1106 37.7804 17.9463 34.6161 17.9463 30.7271C17.9463 26.8381 21.1106 23.6738 24.9996 23.6738C25.3406 23.6738 25.6175 23.9507 25.6175 24.2918C25.6175 24.6328 25.3406 24.9097 24.9996 24.9097C21.7913 24.9097 19.1822 27.5196 19.1822 30.7271C19.1822 33.9347 21.792 36.5445 24.9996 36.5445C28.2071 36.5445 30.817 33.9347 30.817 30.7271C30.817 30.3861 31.0939 30.1092 31.4349 30.1092C31.776 30.1092 32.0529 30.3861 32.0529 30.7271C32.0529 34.6161 28.8892 37.7804 24.9996 37.7804Z" fill="white"/>
<path d="M24.5168 33.5571C24.3515 33.5571 24.1932 33.4909 24.0767 33.373L20.9926 30.247C20.7527 30.0043 20.7554 29.6131 20.9989 29.3731C21.2423 29.1332 21.6328 29.136 21.8728 29.3794L24.5105 32.0534L29.5649 26.7898C29.8013 26.5436 30.1919 26.5352 30.4381 26.7717C30.6843 27.0081 30.6927 27.3994 30.4562 27.6449L24.9625 33.3667C24.8467 33.4874 24.6877 33.5557 24.521 33.5571H24.5168Z" fill="white"/>
<path d="M26.3709 17.5953C26.0298 17.5953 25.7529 17.3184 25.7529 16.9774V10.3042C25.7529 10.0971 25.8568 9.90318 26.0298 9.7888L28.768 7.97752C28.9751 7.84083 29.243 7.84083 29.4501 7.97752L32.189 9.7888C32.3619 9.90318 32.4659 10.0971 32.4659 10.3042V16.4194C32.4659 16.7605 32.189 17.0374 31.8479 17.0374C31.5069 17.0374 31.23 16.7605 31.23 16.4194V10.6362L29.109 9.23363L26.9888 10.6362V16.9767C26.9888 17.3177 26.7119 17.5946 26.3709 17.5946V17.5953Z" fill="white"/>
<path d="M22.2615 17.9249C21.9204 17.9249 21.6436 17.648 21.6436 17.307V14.4656C21.6436 14.1245 21.9204 13.8477 22.2615 13.8477H26.3715C26.7126 13.8477 26.9895 14.1245 26.9895 14.4656C26.9895 14.8066 26.7126 15.0835 26.3715 15.0835H22.8794V17.307C22.8794 17.648 22.6025 17.9249 22.2615 17.9249Z" fill="white"/>
<path d="M14.0418 22.7338C13.7007 22.7338 13.4238 22.457 13.4238 22.1159V16.5008C13.4238 16.1597 13.7007 15.8828 14.0418 15.8828H18.1518C18.4929 15.8828 18.7698 16.1597 18.7698 16.5008V16.8878C18.7698 17.2289 18.4929 17.5058 18.1518 17.5058C17.8917 17.5058 17.6699 17.3454 17.5785 17.1187H14.6604V22.1159C14.6604 22.457 14.3835 22.7338 14.0425 22.7338H14.0418Z" fill="white"/>
<path d="M35.9578 22.7342C35.6167 22.7342 35.3398 22.4573 35.3398 22.1163V13.7085H32.4663V18.7734C32.4663 19.1144 32.1895 19.3913 31.8484 19.3913C31.5074 19.3913 31.2305 19.1144 31.2305 18.7734V13.0906C31.2305 12.7495 31.5074 12.4727 31.8484 12.4727H35.9578C36.2988 12.4727 36.5757 12.7495 36.5757 13.0906V22.1163C36.5757 22.4573 36.2988 22.7342 35.9578 22.7342Z" fill="white"/>
<path d="M18.1521 19.9525C17.8111 19.9525 17.5342 19.6756 17.5342 19.3345V12.8699C17.5342 12.5288 17.8111 12.252 18.1521 12.252H22.2615C22.6025 12.252 22.8794 12.5288 22.8794 12.8699V16.0063C22.8794 16.3474 22.6025 16.6243 22.2615 16.6243C21.9204 16.6243 21.6435 16.3474 21.6435 16.0063V13.4878H18.7701V19.3345C18.7701 19.6756 18.4932 19.9525 18.1521 19.9525Z" fill="white"/>
</g>
<defs>
<clipPath id="clip0_227_754">
<rect width="50" height="50" fill="white"/>
</clipPath>
</defs>
</svg>
