<svg width="20" height="18" viewBox="0 0 20 18" fill="none" xmlns="http://www.w3.org/2000/svg">
<path d="M19.104 9.832V17.768H11.552V9.832C11.552 7.528 12.2347 5.56533 13.6 3.944C14.9653 2.28 16.8 1.27733 19.104 0.935997V4.456C17.6107 4.66933 16.608 5.288 16.096 6.312C15.6267 7.336 15.392 8.50933 15.392 9.832H19.104ZM8.224 9.832V17.768H0.672V9.832C0.672 7.528 1.35467 5.56533 2.72 3.944C4.08533 2.28 5.92 1.27733 8.224 0.935997V4.456C6.73067 4.66933 5.728 5.288 5.216 6.312C4.74667 7.336 4.512 8.50933 4.512 9.832H8.224Z" fill="#0C2848"/>
</svg>
