<svg width="320" height="320" viewBox="0 0 320 320" fill="none" xmlns="http://www.w3.org/2000/svg">
<rect x="0.5" y="0.5" width="319" height="319" rx="159.5" fill="white"/>
<rect x="0.5" y="0.5" width="319" height="319" rx="159.5" stroke="#69F6FF"/>
<path d="M129.727 116.156V117.156H123.992V118.516C126.617 118.617 128.164 119.445 128.18 120.875C128.164 122.391 126.383 123.234 123.398 123.234C120.383 123.234 118.602 122.391 118.602 120.875C118.602 119.453 120.141 118.617 122.789 118.516V117.156H117.07V116.156H129.727ZM128.523 109.906V110.922H126.383V113.844H128.477V114.859H118.305V113.844H120.398V110.922H118.258V109.906H128.523ZM123.398 119.453C121.164 119.453 119.852 119.969 119.852 120.875C119.852 121.781 121.164 122.297 123.398 122.281C125.602 122.297 126.93 121.781 126.93 120.875C126.93 119.969 125.602 119.453 123.398 119.453ZM121.617 113.844H125.164V110.922H121.617V113.844ZM143.617 120.453V121.484H130.898V120.453H134.055V116.703C132.867 116.086 132.148 115.086 132.148 113.828C132.148 111.672 134.258 110.266 137.227 110.25C140.195 110.266 142.305 111.672 142.305 113.828C142.305 115.062 141.609 116.055 140.461 116.672V120.453H143.617ZM137.227 111.266C134.945 111.25 133.336 112.281 133.336 113.828C133.336 115.375 134.945 116.422 137.227 116.422C139.492 116.422 141.117 115.375 141.117 113.828C141.117 112.281 139.492 111.25 137.227 111.266ZM135.258 120.453H139.227V117.141C138.625 117.305 137.953 117.391 137.227 117.391C136.516 117.391 135.852 117.312 135.258 117.156V120.453ZM157.445 120.516V121.547H144.727V120.516H150.445V117.891H146.32V113.609H154.633V111.422H146.289V110.406H155.836V114.609H147.539V116.875H156.164V117.891H151.648V120.516H157.445ZM171.258 116.438V117.453H165.617V120.297H164.383V117.453H158.539V116.438H171.258ZM169.836 121.922V122.969H160.18V118.906H161.414V121.922H169.836ZM164.883 109.734C167.852 109.75 169.773 110.812 169.773 112.531C169.773 114.25 167.852 115.297 164.883 115.297C161.914 115.297 159.977 114.25 159.977 112.531C159.977 110.812 161.914 109.75 164.883 109.734ZM164.883 110.734C162.727 110.734 161.273 111.422 161.289 112.531C161.273 113.609 162.727 114.297 164.883 114.297C167.039 114.297 168.477 113.609 168.477 112.531C168.477 111.422 167.039 110.734 164.883 110.734ZM183.633 110.75V119.781H177.211V110.75H183.633ZM178.414 111.734V118.781H182.43V111.734H178.414ZM187.852 109.375V123.297H186.617V109.375H187.852ZM195.898 110.891V115.75H191.883V118.906C193.477 118.898 194.984 118.828 196.789 118.531L196.898 119.531C194.93 119.875 193.352 119.938 191.602 119.938H190.695V114.734H194.711V111.922H190.664V110.891H195.898ZM202.102 109.375V123.266H200.93V115.891H198.883V122.547H197.758V109.688H198.883V114.875H200.93V109.375H202.102Z" fill="#5B5B5B"/>
<path d="M114.953 202V168.062H127.703C135.484 168.062 139.656 172.422 139.656 178.891C139.656 183.508 137.547 186.93 133.562 188.547L140.875 202H134.078L127.422 189.578H121.047V202H114.953ZM121.047 184.469H126.766C131.359 184.469 133.422 182.5 133.422 178.891C133.422 175.281 131.359 173.172 126.766 173.172H121.047V184.469ZM144.625 202V176.547H150.625V202H144.625ZM147.672 172.938C145.797 172.938 144.203 171.484 144.203 169.656C144.203 167.875 145.797 166.422 147.672 166.422C149.594 166.422 151.141 167.875 151.141 169.656C151.141 171.484 149.594 172.938 147.672 172.938ZM167.453 202.516C159.859 202.516 155.266 197.078 155.266 189.391C155.266 181.609 160 176.219 167.453 176.219C173.641 176.219 177.953 179.828 178.375 185.312H172.656C172.188 182.875 170.406 181 167.5 181C163.797 181 161.312 184.141 161.312 189.25C161.312 194.5 163.75 197.641 167.5 197.641C170.172 197.641 172.141 196.094 172.656 193.328H178.375C177.906 198.719 173.828 202.516 167.453 202.516ZM188.875 187.094V202H182.875V168.062H188.734V180.859H189.062C190.234 178 192.672 176.219 196.609 176.219C201.906 176.219 205.375 179.641 205.375 185.781V202H199.422V186.719C199.422 183.25 197.547 181.281 194.406 181.281C191.172 181.281 188.875 183.391 188.875 187.094Z" fill="#69F6FF"/>
</svg>
