<svg width="320" height="320" viewBox="0 0 320 320" fill="none" xmlns="http://www.w3.org/2000/svg">
<rect x="0.5" y="0.5" width="319" height="319" rx="159.5" fill="white"/>
<rect x="0.5" y="0.5" width="319" height="319" rx="159.5" stroke="#3869A1"/>
<path d="M144.047 110.781V112.172C144.031 113.875 144.031 115.781 143.531 118.578L142.281 118.438C142.812 115.781 142.812 113.828 142.812 112.172V111.797H134.25V110.781H144.047ZM145.562 120.281V121.297H132.906V120.281H137.875V115.312H139.078V120.281H145.562ZM158.531 109.391V117.578H157.359V113.906H155.469V117.484H154.297V109.656H155.469V112.891H157.359V109.391H158.531ZM158.531 118.219V123.266H157.328V119.219H149.156V118.219H158.531ZM152.828 110.406C152.828 113.719 150.953 116.234 147.422 117.734L146.812 116.812C149.695 115.633 151.328 113.758 151.562 111.422H147.375V110.406H152.828ZM167.578 110.641V117.031H161.156V110.641H167.578ZM162.359 111.641V116.047H166.391V111.641H162.359ZM171.422 109.375V113.609H173.516V114.641H171.422V119.562H170.203V109.375H171.422ZM172.062 121.938V122.969H162.734V118.594H163.938V121.938H172.062ZM185.922 109.953V110.953H181.516C181.531 112.531 183.891 113.781 186.344 114.062L185.891 115.031C183.617 114.742 181.484 113.727 180.719 112.172C179.961 113.727 177.836 114.742 175.562 115.031L175.109 114.062C177.547 113.781 179.891 112.531 179.922 110.953H175.547V109.953H185.922ZM187.094 116.359V117.375H174.391V116.359H180.109V114.25H181.312V116.359H187.094ZM185.484 118.75V123.266H184.25V119.75H175.797V118.75H185.484Z" fill="#5B5B5B"/>
<path d="M49.3047 177.391C49.0234 174.484 46.5391 172.797 42.8828 172.797C39.0391 172.797 36.6953 174.672 36.6953 177.203C36.6953 180.062 39.6953 181.234 42.5078 181.891L45.6953 182.734C50.7578 183.906 55.6328 186.578 55.6328 192.484C55.6328 198.438 50.9453 202.516 42.7891 202.516C34.8672 202.516 29.8984 198.719 29.6172 192.016H35.6172C35.8984 195.578 38.8984 197.312 42.7422 197.312C46.7734 197.312 49.5391 195.344 49.5391 192.438C49.5391 189.766 47.0547 188.641 43.3984 187.703L39.5547 186.719C33.9766 185.266 30.5078 182.453 30.5078 177.578C30.5078 171.578 35.8516 167.594 42.9766 167.594C50.1953 167.594 55.0703 171.672 55.1641 177.391H49.3047ZM59.2422 194.828C59.2422 189.109 63.9766 187.422 68.7109 187.141C70.4688 187.023 74.125 186.812 75.2266 186.766V184.75C75.2266 182.219 73.5859 180.766 70.6328 180.766C67.9609 180.766 66.3203 181.984 65.8516 183.812H60.0859C60.5078 179.5 64.3984 176.219 70.7734 176.219C75.6016 176.219 81.1797 178.188 81.1797 184.984V202H75.4609V198.484H75.2734C74.1484 200.641 71.7578 202.516 67.7734 202.516C62.8984 202.516 59.2422 199.844 59.2422 194.828ZM65.0078 194.781C65.0078 196.984 66.7891 198.109 69.3203 198.109C72.9297 198.109 75.2734 195.719 75.2734 192.859V190.75L69.6484 191.125C66.7891 191.359 65.0078 192.531 65.0078 194.781ZM99.5078 176.547V181.141H94.4922V194.359C94.4922 196.797 95.7109 197.312 97.2109 197.312C97.9141 197.312 99.0859 197.266 99.8359 197.219V202.094C99.1328 202.234 97.9609 202.328 96.4609 202.328C91.9609 202.328 88.4922 200.125 88.5391 195.344V181.141H84.8828V176.547H88.5391V170.453H94.4922V176.547H99.5078ZM104.102 202V176.547H110.102V202H104.102ZM107.148 172.938C105.273 172.938 103.68 171.484 103.68 169.656C103.68 167.875 105.273 166.422 107.148 166.422C109.07 166.422 110.617 167.875 110.617 169.656C110.617 171.484 109.07 172.938 107.148 172.938ZM130.258 183.812C129.883 181.891 128.289 180.672 125.758 180.672C123.18 180.672 121.305 181.938 121.352 183.672C121.305 184.984 122.383 185.969 124.961 186.578L129.273 187.469C134.102 188.547 136.398 190.75 136.445 194.406C136.398 199.188 132.227 202.516 125.57 202.516C119.102 202.516 115.258 199.609 114.648 194.734H120.742C121.117 196.891 122.805 197.969 125.57 197.969C128.43 197.969 130.352 196.797 130.352 194.922C130.352 193.469 129.18 192.531 126.648 191.969L122.57 191.078C117.836 190.141 115.398 187.656 115.398 184C115.398 179.312 119.43 176.219 125.664 176.219C131.758 176.219 135.508 179.172 135.93 183.812H130.258ZM153.883 176.547V181.141H148.633V202H142.633V181.141H138.836V176.547H142.633V174.109C142.633 169.141 145.727 166.469 150.602 166.469C152.008 166.469 153.273 166.609 154.398 166.844V171.578C153.414 171.438 152.664 171.391 152.242 171.391C149.805 171.391 148.633 172.375 148.633 174.672V176.547H153.883ZM156.086 194.828C156.086 189.109 160.82 187.422 165.555 187.141C167.312 187.023 170.969 186.812 172.07 186.766V184.75C172.07 182.219 170.43 180.766 167.477 180.766C164.805 180.766 163.164 181.984 162.695 183.812H156.93C157.352 179.5 161.242 176.219 167.617 176.219C172.445 176.219 178.023 178.188 178.023 184.984V202H172.305V198.484H172.117C170.992 200.641 168.602 202.516 164.617 202.516C159.742 202.516 156.086 199.844 156.086 194.828ZM161.852 194.781C161.852 196.984 163.633 198.109 166.164 198.109C169.773 198.109 172.117 195.719 172.117 192.859V190.75L166.492 191.125C163.633 191.359 161.852 192.531 161.852 194.781ZM194.758 202.516C187.164 202.516 182.57 197.078 182.57 189.391C182.57 181.609 187.305 176.219 194.758 176.219C200.945 176.219 205.258 179.828 205.68 185.312H199.961C199.492 182.875 197.711 181 194.805 181C191.102 181 188.617 184.141 188.617 189.25C188.617 194.5 191.055 197.641 194.805 197.641C197.477 197.641 199.445 196.094 199.961 193.328H205.68C205.211 198.719 201.133 202.516 194.758 202.516ZM222.883 176.547V181.141H217.867V194.359C217.867 196.797 219.086 197.312 220.586 197.312C221.289 197.312 222.461 197.266 223.211 197.219V202.094C222.508 202.234 221.336 202.328 219.836 202.328C215.336 202.328 211.867 200.125 211.914 195.344V181.141H208.258V176.547H211.914V170.453H217.867V176.547H222.883ZM227.477 202V176.547H233.477V202H227.477ZM230.523 172.938C228.648 172.938 227.055 171.484 227.055 169.656C227.055 167.875 228.648 166.422 230.523 166.422C232.445 166.422 233.992 167.875 233.992 169.656C233.992 171.484 232.445 172.938 230.523 172.938ZM250.305 202.516C242.898 202.516 238.117 197.266 238.117 189.391C238.117 181.469 242.898 176.219 250.305 176.219C257.758 176.219 262.492 181.469 262.492 189.391C262.492 197.266 257.758 202.516 250.305 202.516ZM250.352 197.734C254.43 197.734 256.445 194.031 256.445 189.344C256.445 184.703 254.43 180.953 250.352 180.953C246.18 180.953 244.164 184.703 244.164 189.344C244.164 194.031 246.18 197.734 250.352 197.734ZM273.133 187.094V202H267.133V176.547H272.852V180.859H273.18C274.352 178 276.93 176.219 280.727 176.219C286.023 176.219 289.492 179.688 289.445 185.781V202H283.492V186.719C283.492 183.297 281.664 181.281 278.523 181.281C275.336 181.281 273.133 183.391 273.133 187.094Z" fill="#3869A1"/>
</svg>
