<svg width="1000" height="837" viewBox="0 0 1000 837" fill="none" xmlns="http://www.w3.org/2000/svg">
<g clip-path="url(#clip0_106_905)">
<path d="M505.112 617.827C642.974 617.827 754.734 543.94 754.734 452.797C754.734 361.653 642.974 287.767 505.112 287.767C367.249 287.767 255.489 361.653 255.489 452.797C255.489 543.94 367.249 617.827 505.112 617.827Z" fill="#D9D9D9"/>
<path d="M505.112 611.029C640.889 611.029 750.958 538.665 750.958 449.398C750.958 360.131 640.889 287.767 505.112 287.767C369.335 287.767 259.266 360.131 259.266 449.398C259.266 538.665 369.335 611.029 505.112 611.029Z" fill="#EFEFEF"/>
<path d="M426.381 442.025C426.115 439.281 423.77 437.688 420.318 437.688C416.689 437.688 414.476 439.458 414.476 441.848C414.476 444.547 417.308 445.654 419.964 446.273L422.973 447.07C427.752 448.176 432.355 450.699 432.355 456.275C432.355 461.895 427.93 465.746 420.229 465.746C412.75 465.746 408.059 462.161 407.794 455.833H413.458C413.724 459.196 416.556 460.834 420.185 460.834C423.991 460.834 426.602 458.975 426.602 456.231C426.602 453.708 424.256 452.646 420.804 451.761L417.175 450.831C411.909 449.46 408.634 446.804 408.634 442.202C408.634 436.537 413.68 432.775 420.406 432.775C427.221 432.775 431.824 436.626 431.912 442.025H426.381ZM450.5 448.088C450.146 446.273 448.641 445.123 446.252 445.123C443.817 445.123 442.047 446.318 442.091 447.955C442.047 449.195 443.065 450.124 445.499 450.699L449.57 451.54C454.128 452.558 456.297 454.638 456.341 458.09C456.297 462.603 452.358 465.746 446.074 465.746C439.967 465.746 436.338 463.002 435.763 458.399H441.516C441.87 460.435 443.463 461.453 446.074 461.453C448.773 461.453 450.588 460.346 450.588 458.576C450.588 457.204 449.482 456.319 447.092 455.788L443.242 454.948C438.772 454.062 436.471 451.716 436.471 448.265C436.471 443.84 440.276 440.918 446.162 440.918C451.916 440.918 455.456 443.707 455.854 448.088H450.5ZM471.3 465.746C464.042 465.746 459.616 460.922 459.616 453.398C459.616 445.963 464.13 440.918 470.989 440.918C476.875 440.918 481.965 444.592 481.965 453.044V454.815H465.193C465.259 458.908 467.671 461.32 471.344 461.32C473.822 461.32 475.504 460.258 476.212 458.842H481.744C480.726 463.002 476.875 465.746 471.3 465.746ZM465.236 450.964H476.566C476.522 447.689 474.353 445.3 471.079 445.3C467.671 445.3 465.414 447.889 465.236 450.964ZM492.011 451.186V465.259H486.346V441.229H491.745V445.3H492.055C493.162 442.6 495.596 440.918 499.181 440.918C504.181 440.918 507.456 444.193 507.412 449.947V465.259H501.792V450.831C501.792 447.601 500.066 445.698 497.1 445.698C494.091 445.698 492.011 447.689 492.011 451.186ZM523.83 465.259V433.218H544.674V438.042H529.584V446.804H543.568V451.628H529.584V460.391H544.763V465.259H523.83ZM550.206 465.259V433.218H562.244C569.59 433.218 573.529 437.334 573.529 443.441C573.529 447.8 571.537 451.031 567.776 452.558L574.68 465.259H568.263L561.978 453.531H555.959V465.259H550.206ZM555.959 448.707H561.359C565.696 448.707 567.643 446.849 567.643 443.441C567.643 440.034 565.696 438.042 561.359 438.042H555.959V448.707ZM578.486 465.259V433.218H590.523C597.869 433.218 601.808 437.688 601.808 443.84C601.808 449.991 597.825 454.417 590.434 454.417H584.239V465.259H578.486ZM584.239 449.681H589.637C593.974 449.681 595.922 447.247 595.922 443.84C595.922 440.387 593.974 438.042 589.637 438.042H584.239V449.681Z" fill="#5B5B5B"/>
<path d="M148.239 163.52L314.024 313.444C148.239 460.725 254.357 577.039 415.988 642.374L314.024 814.955C-12.1036 706.571 -112.335 399.924 148.239 163.52Z" fill="url(#paint0_linear_106_905)"/>
<path d="M216.449 163.967C269.477 129.761 331.164 104.918 397.362 91.1088C463.56 77.2998 532.733 74.8451 600.233 83.9094C667.732 92.9728 731.992 113.346 788.693 143.657C845.393 173.969 893.218 213.517 928.95 259.642C964.683 305.767 987.493 357.4 995.861 411.068C1004.22 464.737 997.931 519.198 977.425 570.789C956.919 622.378 922.659 669.903 876.956 710.166C831.246 750.429 775.159 782.5 712.457 804.215L624.813 646.373C658.985 634.539 689.553 617.062 714.46 595.119C739.368 573.177 758.036 547.277 769.215 519.161C780.393 491.045 783.814 461.365 779.26 432.116C774.706 402.868 762.273 374.729 742.796 349.592C723.322 324.455 697.259 302.902 666.359 286.382C635.458 269.863 600.439 258.761 563.653 253.821C526.867 248.881 489.169 250.219 453.091 257.745C417.015 265.27 383.397 278.809 354.498 297.451L216.449 163.967Z" fill="url(#paint1_linear_106_905)"/>
<path d="M421.174 175.212L446.758 180.689L438.708 155.794L421.174 175.212ZM818.452 612.16L843.059 603.27L823.059 586.405L818.452 612.16ZM441.182 171.122C526.216 147.184 683.881 144.546 796.571 243.02L799.554 239.608C685.293 139.763 525.835 142.584 439.954 166.76L441.182 171.122ZM796.571 243.02C820.204 263.673 860.733 311.413 879.215 374.143C897.659 436.731 894.192 514.341 829.811 595.177L833.353 598C898.731 515.915 902.387 436.749 883.565 372.862C864.781 309.116 823.671 260.681 799.554 239.608L796.571 243.02Z" fill="#174070"/>
<path d="M402.77 182.024C402.77 165.339 389.244 151.812 372.559 151.812C355.874 151.812 342.347 165.339 342.347 182.024C342.347 198.709 355.874 212.235 372.559 212.235C389.244 212.235 402.77 198.709 402.77 182.024Z" fill="url(#paint2_linear_106_905)"/>
<path d="M364.54 166.66C365.529 166.653 366.372 167.026 366.93 167.643H369.904V165.97H371.165V172.993H369.904V171.387H366.917C366.366 171.998 365.523 172.362 364.54 172.356C362.748 172.369 361.42 171.174 361.42 169.515C361.42 167.842 362.748 166.647 364.54 166.66ZM364.54 167.749C363.425 167.736 362.628 168.452 362.628 169.515C362.628 170.551 363.425 171.294 364.54 171.28C365.629 171.294 366.425 170.551 366.425 169.515C366.425 168.452 365.629 167.736 364.54 167.749ZM367.182 173.259C369.652 173.259 371.205 174.095 371.205 175.556C371.205 177.003 369.652 177.853 367.182 177.839C364.699 177.853 363.146 177.003 363.159 175.556C363.146 174.095 364.699 173.259 367.182 173.259ZM367.182 174.228C365.443 174.228 364.381 174.706 364.394 175.556C364.381 176.378 365.443 176.844 367.182 176.844C368.935 176.844 369.97 176.378 369.97 175.556C369.97 174.706 368.935 174.228 367.182 174.228ZM367.501 168.652C367.587 168.917 367.634 169.209 367.634 169.515C367.634 169.807 367.587 170.092 367.514 170.351H369.904V168.652H367.501ZM376.29 166.514C377.856 166.501 379.065 167.41 379.33 168.745H381.653V165.97H382.915V172.356H381.653V169.78H379.344C379.085 171.148 377.87 172.063 376.29 172.063C374.471 172.063 373.17 170.922 373.17 169.276C373.17 167.656 374.471 166.501 376.29 166.514ZM376.29 167.563C375.162 167.563 374.378 168.254 374.378 169.276C374.378 170.298 375.162 171.001 376.29 171.001C377.392 171.001 378.175 170.298 378.175 169.276C378.175 168.254 377.392 167.563 376.29 167.563ZM376.409 172.927V174.307H381.653V172.927H382.915V177.72H375.162V172.927H376.409ZM376.409 176.684H381.653V175.304H376.409V176.684ZM367.872 187.265V187.929C367.859 188.726 367.859 189.908 367.567 191.448L366.319 191.328C366.578 190.007 366.618 189.051 366.638 188.301H361.872V187.265H367.872ZM364.832 189.934V192.39C366.106 192.35 367.421 192.257 368.616 192.085L368.696 193.001C366.213 193.439 363.372 193.479 361.274 193.492L361.155 192.47C361.885 192.463 362.714 192.456 363.585 192.43V189.934H364.832ZM370.661 186.362V190.146H372.294V191.208H370.661V195.298H369.373V186.362H370.661ZM371.046 196.984V198.006H362.96V194.488H364.221V196.984H371.046ZM382.875 186.362V198.285H381.614V186.362H382.875ZM379.237 187.438V191.779H374.962V194.381C376.887 194.375 378.573 194.288 380.565 193.957L380.684 194.992C378.573 195.351 376.781 195.43 374.683 195.43H373.674V190.77H377.949V188.46H373.661V187.438H379.237Z" fill="white"/>
<path d="M526.637 158.61C526.637 141.925 513.111 128.399 496.426 128.399C479.741 128.399 466.214 141.925 466.214 158.61C466.214 175.296 479.741 188.822 496.426 188.822C513.111 188.822 526.637 175.296 526.637 158.61Z" fill="url(#paint3_linear_106_905)"/>
<path d="M495.39 142.556V154.451H494.183V148.344H492.762V153.868H491.567V142.781H492.762V147.282H494.183V142.556H495.39ZM488.726 145.702C488.726 147.84 489.536 149.778 491.262 150.667L490.518 151.637C489.35 151.007 488.566 149.898 488.142 148.517C487.737 150.084 486.947 151.331 485.739 152.048L484.955 151.093C486.695 150.11 487.505 148.065 487.505 145.702V144.933H485.274V143.91H490.797V144.933H488.726V145.702ZM507.738 149.38V150.402H502.878V154.439H501.644V150.402H496.851V149.38H507.738ZM506.37 143.193V147.866H498.218V143.193H506.37ZM499.453 144.202V146.884H505.11V144.202H499.453ZM494.952 162.948V174.844H493.691V162.948H494.952ZM485.181 171.605C486.157 171.598 487.279 171.592 488.447 171.552V170.37C487.053 170.191 486.15 169.374 486.164 168.206C486.15 166.865 487.319 165.976 489.045 165.976C490.784 165.976 491.979 166.865 491.979 168.206C491.979 169.361 491.076 170.171 489.695 170.357V171.512C490.797 171.466 491.912 171.379 492.962 171.246L493.054 172.189C490.412 172.627 487.531 172.654 485.353 172.654L485.181 171.605ZM492.696 164.369V165.378H485.434V164.369H488.447V162.975H489.708V164.369H492.696ZM489.045 166.958C488.049 166.958 487.345 167.449 487.359 168.206C487.345 168.963 488.049 169.427 489.045 169.427C490.067 169.427 490.77 168.963 490.77 168.206C490.77 167.449 490.067 166.958 489.045 166.958ZM507.088 162.948V174.844H505.893V162.948H507.088ZM504.658 163.254V174.26H503.463V170.21H501.431V169.175H503.463V167.237H501.631C501.053 169.235 499.786 170.967 497.542 172.309L496.798 171.405C499.32 169.905 500.536 167.908 500.755 165.457H497.382V164.422H502.002C502.002 165.033 501.956 165.624 501.857 166.201H503.463V163.254H504.658Z" fill="white"/>
<path d="M650.505 167.674C650.505 150.989 636.978 137.462 620.293 137.462C603.608 137.462 590.082 150.989 590.082 167.674C590.082 184.359 603.608 197.885 620.293 197.885C636.978 197.885 650.505 184.359 650.505 167.674Z" fill="url(#paint4_linear_106_905)"/>
<path d="M618.846 151.633V160.275H617.585V151.633H618.846ZM619.205 162.241V163.263H611.067V159.399H612.341V162.241H619.205ZM612.394 152.429C614.186 152.429 615.554 153.651 615.554 155.377C615.554 157.129 614.186 158.337 612.394 158.337C610.601 158.337 609.221 157.129 609.221 155.377C609.221 153.651 610.601 152.429 612.394 152.429ZM612.394 153.531C611.279 153.531 610.455 154.288 610.455 155.377C610.455 156.491 611.279 157.235 612.394 157.235C613.483 157.235 614.319 156.491 614.319 155.377C614.319 154.288 613.483 153.531 612.394 153.531ZM624.86 154.646C624.847 156.757 626.069 158.908 627.848 159.771L627.064 160.78C625.77 160.109 624.767 158.775 624.25 157.182C623.712 158.881 622.67 160.302 621.316 161.006L620.533 159.983C622.365 159.107 623.599 156.824 623.599 154.646V152.615H624.86V154.646ZM629.999 151.619V156.359H631.91V157.434H629.999V163.515H628.737V151.619H629.999ZM611.61 178.797V180.283H617.227V178.797H618.462V183.762H610.363V178.797H611.61ZM611.61 182.726H617.227V181.266H611.61V182.726ZM618.488 172.53V173.433C618.488 174.342 618.488 175.365 618.183 176.805H619.869V177.827H608.982V176.805H616.948C617.227 175.437 617.239 174.435 617.239 173.566H610.349V172.53H618.488ZM623.958 172.902C625.04 172.902 625.936 173.525 626.467 174.601H629.401V172.012H630.649V183.934H629.401V179.367H626.547C626.036 180.562 625.1 181.253 623.958 181.253C622.179 181.253 620.931 179.633 620.944 177.07C620.931 174.521 622.179 172.902 623.958 172.902ZM623.958 174.03C622.882 174.03 622.139 175.198 622.139 177.07C622.139 178.956 622.882 180.124 623.958 180.124C625.033 180.124 625.777 178.956 625.777 177.07C625.777 175.198 625.033 174.03 623.958 174.03ZM626.826 175.637C626.912 176.075 626.971 176.553 626.971 177.07C626.971 177.522 626.931 177.94 626.852 178.331H629.401V175.637H626.826Z" fill="white"/>
<path d="M774.372 206.949C774.372 190.263 760.846 176.737 744.16 176.737C727.475 176.737 713.949 190.263 713.949 206.949C713.949 223.634 727.475 237.16 744.16 237.16C760.846 237.16 774.372 223.634 774.372 206.949Z" fill="url(#paint5_linear_106_905)"/>
<path d="M743.085 190.894V202.79H741.877V190.894H743.085ZM740.696 191.12V202.206H739.501V198.369H737.774C737.35 199.551 736.56 200.234 735.544 200.228C733.991 200.241 732.982 198.608 732.982 196.032C732.982 193.457 733.991 191.837 735.544 191.85C736.56 191.844 737.343 192.52 737.774 193.696H739.501V191.12H740.696ZM735.544 193.032C734.668 193.032 734.137 194.134 734.137 196.032C734.137 197.931 734.668 199.033 735.544 199.033C736.42 199.033 736.978 197.931 736.978 196.032C736.978 194.134 736.42 193.032 735.544 193.032ZM738.04 194.718C738.1 195.123 738.133 195.561 738.133 196.032C738.133 196.497 738.1 196.935 738.04 197.334H739.501V194.718H738.04ZM748.727 193.072C748.727 194.665 749.843 196.165 751.648 196.776L750.998 197.772C749.664 197.301 748.674 196.351 748.143 195.156C747.625 196.49 746.603 197.532 745.209 198.051L744.505 197.054C746.391 196.404 747.48 194.811 747.48 193.032V191.625H748.727V193.072ZM753.946 190.881V194.466H755.672V195.541H753.946V199.657H752.684V190.881H753.946ZM754.463 201.516V202.538H746.418V198.807H747.705V201.516H754.463ZM739.474 212.189V212.853C739.461 213.65 739.461 214.832 739.168 216.372L737.921 216.252C738.179 214.931 738.219 213.976 738.239 213.226H733.473V212.189H739.474ZM736.434 214.859V217.315C737.708 217.275 739.023 217.182 740.217 217.009L740.297 217.925C737.814 218.363 734.973 218.403 732.875 218.417L732.756 217.394C733.486 217.387 734.316 217.381 735.186 217.354V214.859H736.434ZM742.262 211.287V215.071H743.895V216.133H742.262V220.222H740.974V211.287H742.262ZM742.647 221.909V222.93H734.561V219.412H735.823V221.909H742.647ZM754.477 211.287V223.209H753.215V211.287H754.477ZM750.838 212.362V216.704H746.563V219.306C748.489 219.3 750.174 219.213 752.166 218.881L752.285 219.917C750.174 220.276 748.382 220.355 746.285 220.355H745.276V215.695H749.551V213.384H745.262V212.362H750.838Z" fill="white"/>
<path d="M869.811 294.562C869.811 277.877 856.285 264.351 839.6 264.351C822.914 264.351 809.388 277.877 809.388 294.562C809.388 311.247 822.914 324.774 839.6 324.774C856.285 324.774 869.811 311.247 869.811 294.562Z" fill="url(#paint6_linear_106_905)"/>
<path d="M838.18 278.521V287.536H836.918V286.395H834.532V285.505H836.918V278.521H838.18ZM838.474 289.129V290.151H829.887V286.66H831.133V289.129H838.474ZM828.24 283.951C830.446 283.938 833.406 283.911 835.937 283.593L836.02 284.496C835 284.662 833.935 284.774 832.885 284.841V287.164H831.624V284.907C830.468 284.96 829.358 284.967 828.399 284.96L828.24 283.951ZM832.13 278.972C833.867 278.972 835.076 279.809 835.076 281.071C835.076 282.332 833.867 283.142 832.13 283.142C830.363 283.142 829.169 282.332 829.169 281.071C829.169 279.809 830.363 278.972 832.13 278.972ZM832.13 279.915C831.065 279.902 830.347 280.354 830.363 281.071C830.347 281.774 831.065 282.212 832.13 282.212C833.15 282.212 833.867 281.774 833.882 281.071C833.867 280.354 833.15 279.902 832.13 279.915ZM849.305 278.508V283.248H851.156V284.296H849.305V290.391H848.044V278.508H849.305ZM846.201 279.756C846.186 283.194 844.675 286.262 840.755 288.2L840.053 287.217C843.036 285.731 844.653 283.58 844.917 280.805H840.65V279.756H846.201ZM834.917 299.803V300.467C834.902 301.264 834.902 302.446 834.607 303.986L833.361 303.866C833.625 302.545 833.663 301.589 833.678 300.839H828.912V299.803H834.917ZM831.873 302.472V304.929C833.15 304.888 834.464 304.796 835.657 304.623L835.74 305.539C833.255 305.977 830.415 306.017 828.316 306.03L828.195 305.008C828.928 305.001 829.758 304.994 830.627 304.968V302.472H831.873ZM837.704 298.901V302.685H839.335V303.746H837.704V307.836H836.42V298.901H837.704ZM838.089 309.522V310.544H830.008V307.026H831.269V309.522H838.089ZM849.917 298.901V310.823H848.656V298.901H849.917ZM846.284 299.976V304.317H842.009V306.919C843.927 306.913 845.619 306.827 847.606 306.495L847.727 307.53C845.619 307.889 843.822 307.969 841.73 307.969H840.718V303.308H844.992V300.998H840.702V299.976H846.284Z" fill="white"/>
<path d="M917.878 409.366C917.878 392.68 904.352 379.154 887.666 379.154C870.981 379.154 857.455 392.68 857.455 409.366C857.455 426.051 870.981 439.577 887.666 439.577C904.352 439.577 917.878 426.051 917.878 409.366Z" fill="url(#paint7_linear_106_905)"/>
<path d="M886.246 393.312V405.207H884.97V393.312H886.246ZM882.696 394.586C882.696 398.065 881.216 401.092 877.137 403.043L876.473 402.021C879.637 400.514 881.178 398.37 881.427 395.596H877.047V394.586H882.696ZM897.983 393.883V394.892H894.358C894.426 396.186 896.141 397.328 898.354 397.6L897.878 398.595C895.838 398.33 894.162 397.381 893.52 396.046C892.878 397.374 891.208 398.33 889.177 398.595L888.701 397.6C890.921 397.328 892.621 396.186 892.681 394.892H889.101V393.883H897.983ZM898.98 399.366V400.388H894.252V402.698H892.998V400.388H888.089V399.366H898.98ZM897.772 403.933V404.955H889.441V401.556H890.702V403.933H897.772ZM886.269 413.704V420.781H885.008V417.767H882.795V416.731H885.008V413.704H886.269ZM882.289 421.113C884.781 421.113 886.314 421.936 886.314 423.356C886.314 424.777 884.781 425.587 882.289 425.6C879.789 425.587 878.255 424.777 878.263 423.356C878.255 421.936 879.789 421.113 882.289 421.113ZM882.289 422.096C880.551 422.096 879.517 422.546 879.517 423.356C879.517 424.153 880.551 424.617 882.289 424.605C884.026 424.617 885.06 424.153 885.06 423.356C885.06 422.546 884.026 422.096 882.289 422.096ZM880.612 415.802C880.612 417.315 881.692 418.776 883.482 419.387L882.832 420.383C881.495 419.918 880.514 418.969 880.008 417.793C879.479 419.128 878.437 420.197 877.017 420.714L876.352 419.705C878.202 419.068 879.328 417.462 879.328 415.815V415.55H876.752V414.528H883.165V415.55H880.612V415.802ZM898.988 423.077V424.126H888.104V423.077H892.893V420.635H889.35V414.514H890.612V416.558H896.458V414.514H897.704V420.635H894.147V423.077H898.988ZM890.612 419.612H896.458V417.581H890.612V419.612Z" fill="white"/>
<path d="M887.666 542.296C887.666 525.611 874.14 512.085 857.455 512.085C840.769 512.085 827.243 525.611 827.243 542.296C827.243 558.982 840.769 572.508 857.455 572.508C874.14 572.508 887.666 558.982 887.666 542.296Z" fill="url(#paint8_linear_106_905)"/>
<path d="M849.781 528.525C849.781 529.826 850.619 531.14 852.153 531.725L851.495 532.694C850.385 532.269 849.607 531.459 849.184 530.477C848.746 531.585 847.931 532.548 846.782 533.039L846.088 532.056C847.696 531.353 848.557 529.852 848.557 528.525V526.985H849.781V528.525ZM856.284 526.255V533.57H855.091V530.384H853.693V533.198H852.53V526.467H853.693V529.348H855.091V526.255H856.284ZM852.304 533.796C854.788 533.796 856.337 534.605 856.352 535.96C856.337 537.314 854.788 538.124 852.304 538.111C849.819 538.124 848.263 537.314 848.278 535.96C848.263 534.605 849.819 533.796 852.304 533.796ZM852.304 534.765C850.574 534.765 849.517 535.203 849.524 535.96C849.517 536.716 850.574 537.155 852.304 537.142C854.026 537.155 855.076 536.716 855.091 535.96C855.076 535.203 854.026 534.765 852.304 534.765ZM862.024 528.419C862.024 530.012 863.134 531.513 864.94 532.123L864.29 533.119C862.953 532.648 861.971 531.698 861.435 530.503C860.921 531.837 859.894 532.88 858.505 533.398L857.802 532.402C859.683 531.751 860.77 530.158 860.77 528.379V526.972H862.024V528.419ZM867.236 526.229V529.813H868.965V530.888H867.236V535.004H865.974V526.229H867.236ZM867.757 536.863V537.885H859.713V534.155H860.997V536.863H867.757ZM852.764 547.537V548.201C852.757 548.997 852.757 550.179 852.462 551.719L851.216 551.599C851.473 550.278 851.511 549.323 851.533 548.573H846.767V547.537H852.764ZM849.728 550.206V552.662C851.005 552.622 852.319 552.529 853.512 552.356L853.588 553.272C851.11 553.71 848.263 553.75 846.171 553.764L846.05 552.741C846.782 552.735 847.606 552.728 848.482 552.701V550.206H849.728ZM855.551 546.634V550.418H857.19V551.48H855.551V555.569H854.267V546.634H855.551ZM855.937 557.256V558.278H847.855V554.76H849.116V557.256H855.937ZM867.772 546.634V558.556H866.511V546.634H867.772ZM864.131 547.71V552.051H859.856V554.653C861.782 554.647 863.467 554.56 865.461 554.229L865.582 555.264C863.467 555.623 861.677 555.702 859.577 555.702H858.572V551.042H862.847V548.732H858.557V547.71H864.131Z" fill="white"/>
<path d="M819.69 643.504C819.69 626.819 806.164 613.293 789.479 613.293C772.794 613.293 759.267 626.819 759.267 643.504C759.267 660.19 772.794 673.716 789.479 673.716C806.164 673.716 819.69 660.19 819.69 643.504Z" fill="url(#paint9_linear_106_905)"/>
<path d="M782.311 630.955C782.311 632.841 783.542 634.938 785.347 635.788L784.63 636.77C783.301 636.126 782.243 634.786 781.714 633.226C781.163 634.931 780.045 636.399 778.686 637.076L777.938 636.08C779.743 635.217 781.057 632.974 781.057 630.955V629.694H778.376V628.645H784.894V629.694H782.311V630.955ZM787.432 627.45V632.163H789.343V633.226H787.432V639.346H786.171V627.45H787.432ZM800.189 627.45V639.346H798.98V633.239H797.56V638.762H796.367V627.676H797.56V632.177H798.98V627.45H800.189ZM793.527 630.597C793.527 632.734 794.335 634.673 796.065 635.562L795.317 636.532C794.154 635.901 793.369 634.792 792.946 633.412C792.538 634.978 791.745 636.226 790.536 636.943L789.758 635.987C791.495 635.005 792.304 632.96 792.304 630.597V629.827H790.076V628.804H795.597V629.827H793.527V630.597ZM784.789 648.746V649.409C784.781 650.206 784.781 651.388 784.486 652.928L783.24 652.808C783.497 651.487 783.535 650.532 783.557 649.782H778.792V648.746H784.789ZM781.752 651.415V653.871C783.029 653.831 784.343 653.738 785.536 653.565L785.612 654.481C783.134 654.919 780.287 654.959 778.195 654.973L778.074 653.95C778.807 653.943 779.63 653.937 780.506 653.91V651.415H781.752ZM787.576 647.843V651.627H789.215V652.689H787.576V656.778H786.292V647.843H787.576ZM787.961 658.465V659.486H779.879V655.968H781.14V658.465H787.961ZM799.796 647.843V659.765H798.535V647.843H799.796ZM796.156 648.918V653.26H791.881V655.862C793.807 655.856 795.491 655.769 797.485 655.437L797.606 656.473C795.491 656.832 793.701 656.911 791.601 656.911H790.589V652.251H794.872V649.94H790.582V648.918H796.156Z" fill="white"/>
<path d="M561.003 719.411H491.517C476.5 719.411 464.326 731.585 464.326 746.601C464.326 761.618 476.5 773.792 491.517 773.792H561.003C576.02 773.792 588.193 761.618 588.193 746.601C588.193 731.585 576.02 719.411 561.003 719.411Z" fill="white"/>
<path d="M561.003 719.411H491.517C476.5 719.411 464.326 731.585 464.326 746.601C464.326 761.618 476.5 773.792 491.517 773.792H561.003C576.02 773.792 588.193 761.618 588.193 746.601C588.193 731.585 576.02 719.411 561.003 719.411Z" stroke="#CCCCCC"/>
<path d="M494.373 745.764C494.208 744.917 493.505 744.38 492.391 744.38C491.255 744.38 490.428 744.938 490.449 745.702C490.428 746.28 490.903 746.713 492.039 746.982L493.939 747.374C496.066 747.849 497.079 748.821 497.099 750.431C497.079 752.537 495.24 754.004 492.307 754.004C489.458 754.004 487.764 752.723 487.495 750.576H490.181C490.346 751.526 491.089 752 492.307 752C493.567 752 494.414 751.484 494.414 750.658C494.414 750.018 493.898 749.605 492.782 749.357L490.986 748.965C488.9 748.552 487.826 747.457 487.826 745.846C487.826 743.781 489.602 742.418 492.349 742.418C495.034 742.418 496.686 743.719 496.872 745.764H494.373ZM506.269 749.068V742.562H508.891V753.777H506.351V751.794H506.227C505.711 753.034 504.534 753.921 502.861 753.921C500.651 753.921 499.123 752.393 499.102 749.708V742.562H501.745V749.295C501.745 750.72 502.592 751.629 503.873 751.629C505.029 751.629 506.269 750.782 506.269 749.068ZM511.411 757.991V742.562H513.992V744.401H514.158C514.571 743.596 515.397 742.418 517.38 742.418C519.962 742.418 522.006 744.442 522.006 748.18C522.006 751.877 520.023 753.983 517.38 753.983C515.438 753.983 514.571 752.827 514.158 752H514.054V757.991H511.411ZM513.992 748.159C513.992 750.349 514.943 751.815 516.657 751.815C518.391 751.815 519.321 750.287 519.321 748.159C519.321 746.074 518.412 744.566 516.657 744.566C514.943 744.566 513.992 745.991 513.992 748.159ZM524.071 757.991V742.562H526.653V744.401H526.818C527.231 743.596 528.057 742.418 530.039 742.418C532.621 742.418 534.665 744.442 534.665 748.18C534.665 751.877 532.683 753.983 530.039 753.983C528.098 753.983 527.231 752.827 526.818 752H526.715V757.991H524.071ZM526.653 748.159C526.653 750.349 527.603 751.815 529.317 751.815C531.051 751.815 531.981 750.287 531.981 748.159C531.981 746.074 531.073 744.566 529.317 744.566C527.603 744.566 526.653 745.991 526.653 748.159ZM539.375 738.824V753.777H536.731V738.824H539.375ZM541.894 753.777V742.562H544.538V753.777H541.894ZM543.236 740.972C542.41 740.972 541.708 740.332 541.708 739.527C541.708 738.742 542.41 738.102 543.236 738.102C544.083 738.102 544.764 738.742 544.764 739.527C544.764 740.332 544.083 740.972 543.236 740.972ZM552.034 754.004C548.647 754.004 546.582 751.753 546.582 748.242C546.582 744.772 548.689 742.418 551.89 742.418C554.637 742.418 557.011 744.132 557.011 748.077V748.903H549.184C549.215 750.813 550.341 751.938 552.055 751.938C553.212 751.938 553.996 751.443 554.327 750.782H556.909C556.434 752.723 554.637 754.004 552.034 754.004ZM549.205 747.106H554.492C554.471 745.578 553.459 744.463 551.931 744.463C550.341 744.463 549.288 745.671 549.205 747.106ZM559.056 753.777V742.562H561.617V744.421H561.741C562.134 743.141 563.228 742.398 564.508 742.398C564.798 742.398 565.211 742.418 565.458 742.46V744.896C565.231 744.814 564.674 744.731 564.24 744.731C562.773 744.731 561.699 745.743 561.699 747.168V753.777H559.056Z" fill="#2D2D2D"/>
<path d="M141.701 340.299V341.868H134.225V343.851H139.636V349.716H126.852V343.851H132.283V341.868H124.828V340.299H141.701ZM140.111 332.017V333.607H137.426V337.139H140.028V338.729H126.459V337.139H129.082V333.607H126.377V332.017H140.111ZM128.793 345.4V348.126H137.736V345.4H128.793ZM131.023 337.139H135.464V333.607H131.023V337.139ZM158.43 331.438V341H156.488V331.438H158.43ZM158.45 341.847V346.432H148.248V348.229H159.069V349.757H146.348V345.007H156.509V343.355H146.285V341.847H158.45ZM149.962 334.02C149.962 336.272 151.738 338.357 154.609 339.183L153.659 340.691C151.48 340.04 149.838 338.646 149.012 336.87C148.186 338.832 146.503 340.37 144.221 341.083L143.312 339.534C146.183 338.646 147.958 336.416 147.98 334.02H143.829V332.43H154.03V334.02H149.962ZM171.688 332.843V333.876C171.668 335.114 171.668 336.953 171.213 339.349L169.272 339.163C169.674 337.108 169.736 335.621 169.767 334.454H162.353V332.843H171.688ZM166.959 336.994V340.815C168.942 340.753 170.986 340.608 172.845 340.34L172.969 341.765C169.106 342.446 164.687 342.508 161.424 342.529L161.238 340.938C162.374 340.929 163.665 340.918 165.017 340.877V336.994H166.959ZM176.025 331.438V337.324H178.566V338.977H176.025V345.338H174.022V331.438H176.025ZM176.624 347.96V349.551H164.047V344.078H166.009V347.96H176.624ZM195.026 331.438V349.985H193.063V331.438H195.026ZM189.367 333.111V339.864H182.717V343.913C185.711 343.902 188.334 343.768 191.432 343.252L191.618 344.863C188.334 345.42 185.546 345.544 182.283 345.544H180.714V338.295H187.363V334.702H180.693V333.111H189.367Z" fill="white"/>
<path d="M112.893 410.12H110.476L115.846 395.168H118.468L123.859 410.12H121.443L120.079 406.175H114.255L112.893 410.12ZM114.916 404.276H119.418L117.208 397.894H117.106L114.916 404.276ZM131.273 394.466L126.461 412.371H124.499L129.311 394.466H131.273ZM141.227 399.113C141.083 397.729 139.865 396.923 138.15 396.923C136.312 396.923 135.156 397.853 135.156 399.133C135.156 400.558 136.705 401.095 137.882 401.385L139.328 401.777C141.248 402.231 143.623 403.284 143.644 405.99C143.623 408.509 141.62 410.368 138.088 410.368C134.742 410.368 132.636 408.695 132.492 405.969H134.764C134.908 407.601 136.333 408.385 138.088 408.385C139.989 408.385 141.372 407.415 141.393 405.949C141.372 404.648 140.153 404.111 138.563 403.697L136.787 403.222C134.391 402.561 132.884 401.343 132.884 399.257C132.884 396.675 135.197 394.962 138.212 394.962C141.248 394.962 143.375 396.697 143.437 399.113H141.227ZM155.539 394.776V395.808C155.519 397.047 155.519 398.885 155.065 401.281L153.123 401.095C153.526 399.04 153.588 397.553 153.619 396.386H146.205V394.776H155.539ZM150.81 398.927V402.747C152.793 402.685 154.838 402.541 156.696 402.272L156.82 403.697C152.958 404.379 148.539 404.441 145.276 404.462L145.09 402.871C146.225 402.861 147.516 402.851 148.869 402.809V398.927H150.81ZM159.877 393.371V399.257H162.417V400.91H159.877V407.271H157.873V393.371H159.877ZM160.476 409.893V411.484H147.898V406.011H149.86V409.893H160.476ZM178.877 393.371V411.917H176.915V393.371H178.877ZM173.218 395.044V401.797H166.568V405.845C169.563 405.835 172.186 405.7 175.283 405.185L175.469 406.796C172.186 407.353 169.397 407.477 166.134 407.477H164.565V400.228H171.215V396.635H164.544V395.044H173.218Z" fill="white"/>
<path d="M111.138 461.976C110.767 460.055 109.177 458.981 107.276 458.981C104.695 458.981 102.774 460.963 102.774 464.578C102.774 468.213 104.715 470.175 107.276 470.175C109.156 470.175 110.746 469.121 111.138 467.222L113.431 467.242C112.956 470.195 110.539 472.26 107.256 472.26C103.353 472.26 100.523 469.349 100.523 464.578C100.523 459.787 103.373 456.896 107.256 456.896C110.415 456.896 112.915 458.754 113.431 461.976H111.138ZM115.888 472.054V457.102H121.217C124.687 457.102 126.4 459.043 126.4 461.79C126.4 463.803 125.492 465.332 123.674 466.003L126.979 472.054H124.397L121.361 466.416H121.217H118.16V472.054H115.888ZM118.16 464.454H120.989C123.199 464.454 124.108 463.483 124.108 461.79C124.108 460.096 123.199 459.043 120.989 459.043H118.16V464.454ZM128.92 457.102H131.687L136.417 468.688H136.603L141.332 457.102H144.1V472.054H141.931V461.253H141.786L137.409 472.034H135.612L131.212 461.232H131.088V472.054H128.92V457.102Z" fill="white"/>
<path d="M124.282 522.98C124.137 521.596 122.919 520.791 121.205 520.791C119.367 520.791 118.211 521.72 118.211 523.001C118.211 524.426 119.759 524.963 120.936 525.252L122.382 525.644C124.303 526.099 126.678 527.152 126.699 529.857C126.678 532.377 124.674 534.235 121.143 534.235C117.798 534.235 115.691 532.563 115.546 529.837H117.818C117.962 531.468 119.387 532.253 121.143 532.253C123.043 532.253 124.427 531.282 124.447 529.816C124.427 528.515 123.208 527.978 121.618 527.565L119.842 527.09C117.446 526.429 115.939 525.211 115.939 523.124C115.939 520.543 118.251 518.829 121.267 518.829C124.303 518.829 126.43 520.564 126.492 522.98H124.282ZM139.255 523.909C138.884 521.988 137.293 520.914 135.393 520.914C132.812 520.914 130.891 522.897 130.891 526.512C130.891 530.146 132.832 532.109 135.393 532.109C137.273 532.109 138.862 531.055 139.255 529.155L141.548 529.176C141.072 532.129 138.656 534.194 135.372 534.194C131.469 534.194 128.64 531.282 128.64 526.512C128.64 521.72 131.49 518.829 135.372 518.829C138.532 518.829 141.031 520.688 141.548 523.909H139.255ZM144.005 519.035H146.773L151.502 530.621H151.688L156.418 519.035H159.185V533.988H157.017V523.186H156.872L152.493 533.967H150.696L146.298 523.166H146.174V533.988H144.005V519.035Z" fill="white"/>
<path d="M149.099 595.921V580.969H154.427C157.897 580.969 159.611 583.055 159.611 585.822C159.611 588.569 157.897 590.676 154.427 590.676H151.371V595.921H149.099ZM151.371 588.734H154.2C156.41 588.734 157.319 587.495 157.319 585.822C157.319 584.129 156.41 582.91 154.2 582.91H151.371V588.734ZM174.997 588.445C174.997 593.216 172.126 596.128 168.264 596.128C164.361 596.128 161.511 593.216 161.511 588.445C161.511 583.654 164.361 580.763 168.264 580.763C172.126 580.763 174.997 583.654 174.997 588.445ZM172.746 588.445C172.746 584.81 170.825 582.848 168.264 582.848C165.683 582.848 163.762 584.81 163.762 588.445C163.762 592.08 165.683 594.042 168.264 594.042C170.825 594.042 172.746 592.08 172.746 588.445ZM177.558 595.921V580.969H182.886C186.356 580.969 188.07 583.055 188.07 585.822C188.07 588.569 186.356 590.676 182.886 590.676H179.83V595.921H177.558ZM179.83 588.734H182.659C184.869 588.734 185.778 587.495 185.778 585.822C185.778 584.129 184.869 582.91 182.659 582.91H179.83V588.734Z" fill="white"/>
<path d="M177.927 657.855V642.902H183.255C186.725 642.902 188.439 644.989 188.439 647.756C188.439 650.503 186.725 652.609 183.255 652.609H180.199V657.855H177.927ZM180.199 650.668H183.028C185.238 650.668 186.147 649.429 186.147 647.756C186.147 646.063 185.238 644.844 183.028 644.844H180.199V650.668ZM190.835 642.902H193.602L198.332 654.489H198.517L203.247 642.902H206.014V657.855H203.845V647.054H203.701L199.323 657.835H197.526L193.127 647.033H193.003V657.855H190.835V642.902ZM217.208 646.847C217.063 645.464 215.844 644.658 214.131 644.658C212.292 644.658 211.136 645.588 211.136 646.868C211.136 648.293 212.685 648.83 213.862 649.119L215.307 649.511C217.228 649.966 219.604 651.019 219.624 653.724C219.604 656.244 217.6 658.103 214.069 658.103C210.723 658.103 208.616 656.43 208.471 653.704H210.743C210.888 655.335 212.313 656.12 214.069 656.12C215.968 656.12 217.352 655.149 217.373 653.683C217.352 652.382 216.134 651.845 214.544 651.432L212.767 650.957C210.372 650.296 208.864 649.078 208.864 646.992C208.864 644.41 211.178 642.696 214.193 642.696C217.228 642.696 219.356 644.431 219.418 646.847H217.208Z" fill="white"/>
<path d="M387.921 0.377441H301.063C286.046 0.377441 273.872 12.551 273.872 27.5678C273.872 42.5846 286.046 54.7581 301.063 54.7581H387.921C402.937 54.7581 415.111 42.5846 415.111 27.5678C415.111 12.551 402.937 0.377441 387.921 0.377441Z" fill="white"/>
<path d="M387.921 0.377441H301.063C286.046 0.377441 273.872 12.551 273.872 27.5678C273.872 42.5846 286.046 54.7581 301.063 54.7581H387.921C402.937 54.7581 415.111 42.5846 415.111 27.5678C415.111 12.551 402.937 0.377441 387.921 0.377441Z" stroke="#CCCCCC"/>
<path d="M307.679 24.8302C307.369 23.0334 305.924 22.0008 304.106 22.0008C301.649 22.0008 299.934 23.8802 299.934 27.2672C299.934 30.6954 301.669 32.5335 304.106 32.5335C305.882 32.5335 307.328 31.5422 307.679 29.7867H310.384C309.971 32.6574 307.617 34.9498 304.065 34.9498C300.12 34.9498 297.229 32.0792 297.229 27.2672C297.229 22.4345 300.162 19.5845 304.065 19.5845C307.369 19.5845 309.93 21.5052 310.384 24.8302H307.679ZM319.74 30.0345V23.529H322.363V34.7433H319.823V32.7607H319.699C319.182 33.9998 318.005 34.8879 316.332 34.8879C314.122 34.8879 312.594 33.3596 312.573 30.6748V23.529H315.217V30.2617C315.217 31.6867 316.064 32.5954 317.344 32.5954C318.501 32.5954 319.74 31.7487 319.74 30.0345ZM331.243 26.7302C331.078 25.8834 330.376 25.3465 329.261 25.3465C328.125 25.3465 327.299 25.9041 327.32 26.6682C327.299 27.2465 327.773 27.6802 328.909 27.9487L330.81 28.341C332.937 28.816 333.949 29.7867 333.97 31.3976C333.949 33.5042 332.111 34.9705 329.178 34.9705C326.328 34.9705 324.634 33.6901 324.366 31.5422H327.051C327.216 32.4922 327.96 32.9672 329.178 32.9672C330.438 32.9672 331.285 32.4509 331.285 31.6248C331.285 30.9845 330.768 30.5716 329.653 30.3237L327.857 29.9313C325.77 29.5182 324.696 28.4237 324.696 26.8128C324.696 24.7475 326.473 23.3845 329.219 23.3845C331.904 23.3845 333.557 24.6856 333.742 26.7302H331.243ZM341.57 23.529V25.553H339.36V31.377C339.36 32.4509 339.897 32.6781 340.557 32.6781C340.867 32.6781 341.384 32.6574 341.714 32.6367V34.7846C341.404 34.8466 340.888 34.8879 340.227 34.8879C338.245 34.8879 336.716 33.9172 336.737 31.8107V25.553H335.126V23.529H336.737V20.8443H339.36V23.529H341.57ZM348.364 34.9705C345.101 34.9705 342.995 32.6574 342.995 29.1878C342.995 25.6975 345.101 23.3845 348.364 23.3845C351.648 23.3845 353.734 25.6975 353.734 29.1878C353.734 32.6574 351.648 34.9705 348.364 34.9705ZM348.384 32.8639C350.181 32.8639 351.07 31.2324 351.07 29.1672C351.07 27.1226 350.181 25.4704 348.384 25.4704C346.547 25.4704 345.659 27.1226 345.659 29.1672C345.659 31.2324 346.547 32.8639 348.384 32.8639ZM355.779 34.7433V23.529H358.298V25.4291H358.443C358.897 24.1487 360.033 23.3845 361.52 23.3845C363.048 23.3845 364.122 24.1487 364.556 25.4291H364.68C365.175 24.1899 366.415 23.3845 368.046 23.3845C370.091 23.3845 371.536 24.7062 371.536 27.2052V34.7433H368.913V27.6182C368.913 26.2139 368.066 25.5943 366.992 25.5943C365.692 25.5943 364.948 26.4824 364.948 27.7422V34.7433H362.387V27.515C362.387 26.3584 361.602 25.5943 360.487 25.5943C359.351 25.5943 358.422 26.5237 358.422 27.9281V34.7433H355.779ZM379.033 34.9705C375.646 34.9705 373.581 32.7194 373.581 29.2085C373.581 25.7389 375.687 23.3845 378.888 23.3845C381.635 23.3845 384.01 25.0987 384.01 29.0432V29.8694H376.183C376.214 31.7797 377.339 32.9052 379.054 32.9052C380.21 32.9052 380.995 32.4096 381.326 31.7487H383.907C383.432 33.6901 381.635 34.9705 379.033 34.9705ZM376.204 28.0726H381.491C381.47 26.5443 380.458 25.4291 378.93 25.4291C377.339 25.4291 376.286 26.6373 376.204 28.0726ZM386.054 34.7433V23.529H388.616V25.3878H388.739C389.132 24.1074 390.227 23.3639 391.507 23.3639C391.796 23.3639 392.209 23.3845 392.457 23.4258V25.8628C392.23 25.7802 391.672 25.6975 391.239 25.6975C389.772 25.6975 388.698 26.7095 388.698 28.1345V34.7433H386.054Z" fill="#2D2D2D"/>
<path d="M325.076 112.317C325.371 112.612 325.849 112.612 326.144 112.317L330.95 107.51C331.245 107.215 331.245 106.736 330.95 106.442C330.656 106.147 330.178 106.147 329.882 106.442L325.61 110.715L321.337 106.442C321.042 106.147 320.564 106.147 320.269 106.442C319.974 106.736 319.974 107.215 320.269 107.51L325.076 112.317ZM324.854 61.9336V111.783H326.365V61.9336H324.854Z" fill="#ACACAC"/>
<path d="M363.153 61.3994C362.858 61.1045 362.38 61.1045 362.085 61.3994L357.278 66.2061C356.983 66.501 356.983 66.9792 357.278 67.2742C357.573 67.5691 358.051 67.5691 358.346 67.2742L362.619 63.0016L366.891 67.2742C367.187 67.5691 367.665 67.5691 367.959 67.2742C368.255 66.9792 368.255 66.501 367.959 66.2061L363.153 61.3994ZM361.863 61.9335V111.782H363.374V61.9335H361.863Z" fill="#ACACAC"/>
<path d="M690.791 0.377441H581.274C566.257 0.377441 554.084 12.551 554.084 27.5678C554.084 42.5846 566.257 54.7581 581.274 54.7581H690.791C705.808 54.7581 717.981 42.5846 717.981 27.5678C717.981 12.551 705.808 0.377441 690.791 0.377441Z" fill="white"/>
<path d="M690.791 0.377441H581.274C566.257 0.377441 554.084 12.551 554.084 27.5678C554.084 42.5846 566.257 54.7581 581.274 54.7581H690.791C705.808 54.7581 717.981 42.5846 717.981 27.5678C717.981 12.551 705.808 0.377441 690.791 0.377441Z" stroke="#CCCCCC"/>
<path d="M586.157 23.9008C586.033 22.6203 584.939 21.8768 583.328 21.8768C581.634 21.8768 580.602 22.703 580.602 23.8182C580.602 25.078 581.924 25.5943 583.162 25.8834L584.567 26.2552C586.798 26.7715 588.945 27.9487 588.945 30.5509C588.945 33.1737 586.88 34.9705 583.286 34.9705C579.796 34.9705 577.607 33.2976 577.483 30.3444H580.127C580.251 31.9139 581.573 32.6781 583.266 32.6781C585.042 32.6781 586.261 31.8107 586.261 30.5302C586.261 29.3531 585.166 28.8574 583.555 28.4444L581.862 28.0106C579.404 27.3704 577.875 26.1313 577.875 23.9834C577.875 21.3399 580.23 19.5845 583.369 19.5845C586.55 19.5845 588.697 21.3812 588.739 23.9008H586.157ZM596.649 23.529V25.553H594.439V31.377C594.439 32.4509 594.976 32.6781 595.637 32.6781C595.946 32.6781 596.463 32.6574 596.793 32.6367V34.7846C596.483 34.8466 595.967 34.8879 595.306 34.8879C593.323 34.8879 591.795 33.9172 591.816 31.8107V25.553H590.205V23.529H591.816V20.8443H594.439V23.529H596.649ZM603.443 34.9705C600.18 34.9705 598.073 32.6574 598.073 29.1878C598.073 25.6975 600.18 23.3845 603.443 23.3845C606.727 23.3845 608.813 25.6975 608.813 29.1878C608.813 32.6574 606.727 34.9705 603.443 34.9705ZM603.464 32.8639C605.261 32.8639 606.149 31.2324 606.149 29.1672C606.149 27.1226 605.261 25.4704 603.464 25.4704C601.625 25.4704 600.738 27.1226 600.738 29.1672C600.738 31.2324 601.625 32.8639 603.464 32.8639ZM615.752 34.9705C612.406 34.9705 610.382 32.5748 610.382 29.1878C610.382 25.7595 612.468 23.3845 615.752 23.3845C618.478 23.3845 620.378 24.9747 620.564 27.391H618.045C617.838 26.3172 617.053 25.491 615.773 25.491C614.141 25.491 613.047 26.8747 613.047 29.1259C613.047 31.4389 614.12 32.8226 615.773 32.8226C616.95 32.8226 617.817 32.1411 618.045 30.9226H620.564C620.357 33.2976 618.56 34.9705 615.752 34.9705ZM622.547 34.7433V19.791H625.19V28.0313H625.376L629.403 23.529H632.48L628.143 28.3617L632.749 34.7433H629.61L626.161 29.9313L625.19 30.9639V34.7433H622.547ZM636.693 28.1759V34.7433H634.05V19.791H636.631V25.4291H636.776C637.292 24.1693 638.366 23.3845 640.101 23.3845C642.435 23.3845 643.963 24.8921 643.963 27.5976V34.7433H641.341V28.0106C641.341 26.4824 640.514 25.615 639.131 25.615C637.705 25.615 636.693 26.5443 636.693 28.1759ZM651.356 34.9705C648.094 34.9705 645.987 32.6574 645.987 29.1878C645.987 25.6975 648.094 23.3845 651.356 23.3845C654.64 23.3845 656.727 25.6975 656.727 29.1878C656.727 32.6574 654.64 34.9705 651.356 34.9705ZM651.378 32.8639C653.174 32.8639 654.062 31.2324 654.062 29.1672C654.062 27.1226 653.174 25.4704 651.378 25.4704C649.539 25.4704 648.651 27.1226 648.651 29.1672C648.651 31.2324 649.539 32.8639 651.378 32.8639ZM661.415 19.791V34.7433H658.771V19.791H661.415ZM668.106 34.9498C665.462 34.9498 663.48 32.8433 663.48 29.1465C663.48 25.4084 665.524 23.3845 668.126 23.3845C670.109 23.3845 670.935 24.5617 671.328 25.3671H671.431V19.791H674.054V34.7433H671.472V32.9672H671.328C670.915 33.7933 670.047 34.9498 668.106 34.9498ZM668.829 32.7813C670.522 32.7813 671.492 31.315 671.492 29.1259C671.492 26.9574 670.543 25.5324 668.829 25.5324C667.073 25.5324 666.165 27.04 666.165 29.1259C666.165 31.2531 667.094 32.7813 668.829 32.7813ZM681.695 34.9705C678.308 34.9705 676.242 32.7194 676.242 29.2085C676.242 25.7389 678.35 23.3845 681.551 23.3845C684.298 23.3845 686.672 25.0987 686.672 29.0432V29.8694H678.845C678.876 31.7797 680.001 32.9052 681.716 32.9052C682.872 32.9052 683.657 32.4096 683.987 31.7487H686.569C686.094 33.6901 684.298 34.9705 681.695 34.9705ZM678.866 28.0726H684.153C684.132 26.5443 683.12 25.4291 681.591 25.4291C680.002 25.4291 678.948 26.6373 678.866 28.0726ZM688.717 34.7433V23.529H691.278V25.3878H691.402C691.794 24.1074 692.889 23.3639 694.169 23.3639C694.458 23.3639 694.872 23.3845 695.119 23.4258V25.8628C694.892 25.7802 694.335 25.6975 693.9 25.6975C692.434 25.6975 691.36 26.7095 691.36 28.1345V34.7433H688.717Z" fill="#2D2D2D"/>
<path d="M616.616 112.317C616.912 112.612 617.39 112.612 617.684 112.317L622.491 107.51C622.786 107.215 622.786 106.736 622.491 106.442C622.196 106.147 621.718 106.147 621.423 106.442L617.15 110.715L612.878 106.442C612.583 106.147 612.105 106.147 611.81 106.442C611.515 106.736 611.515 107.215 611.81 107.51L616.616 112.317ZM616.395 61.9336V111.783H617.906V61.9336H616.395Z" fill="#ACACAC"/>
<path d="M654.693 61.3994C654.399 61.1045 653.921 61.1045 653.625 61.3994L648.819 66.2061C648.524 66.501 648.524 66.9792 648.819 67.2742C649.114 67.5691 649.592 67.5691 649.887 67.2742L654.159 63.0016L658.432 67.2742C658.727 67.5691 659.206 67.5691 659.5 67.2742C659.795 66.9792 659.795 66.501 659.5 66.2061L654.693 61.3994ZM653.404 61.9335V111.782H654.915V61.9335H653.404Z" fill="#ACACAC"/>
<path d="M619.759 732.849C619.464 733.144 619.464 733.623 619.759 733.917L624.566 738.724C624.861 739.019 625.339 739.019 625.634 738.724C625.929 738.429 625.929 737.951 625.634 737.656L621.362 733.383L625.634 729.111C625.929 728.816 625.929 728.337 625.634 728.043C625.339 727.747 624.861 727.747 624.566 728.043L619.759 732.849ZM620.293 734.139H691.668V732.628H620.293V734.139Z" fill="#ACACAC"/>
<path d="M692.202 759.599C692.497 759.305 692.497 758.821 692.202 758.527L687.396 753.722C687.1 753.427 686.622 753.427 686.327 753.722C686.032 754.017 686.032 754.496 686.327 754.79L690.6 759.063L686.327 763.338C686.032 763.633 686.032 764.108 686.327 764.403C686.622 764.698 687.1 764.698 687.396 764.403L692.202 759.599ZM620.293 759.818H691.668V758.308H620.293V759.818Z" fill="#ACACAC"/>
<path d="M447.432 14.5718C447.138 14.8667 447.138 15.345 447.432 15.6399L452.239 20.4466C452.534 20.7415 453.012 20.7415 453.307 20.4466C453.602 20.1516 453.602 19.6734 453.307 19.3784L449.034 15.1059L453.307 10.8333C453.602 10.5383 453.602 10.0602 453.307 9.76515C453.012 9.47021 452.534 9.47021 452.239 9.76515L447.432 14.5718ZM447.966 15.8611H519.341V14.3506H447.966V15.8611Z" fill="#00C2FF"/>
<path d="M519.875 41.3196C520.17 41.0247 520.17 40.5464 519.875 40.2515L515.068 35.4448C514.773 35.1499 514.295 35.1499 514 35.4448C513.705 35.7399 513.705 36.218 514 36.513L518.273 40.7855L514 45.0581C513.705 45.3531 513.705 45.8312 514 46.1263C514.295 46.4212 514.773 46.4212 515.068 46.1263L519.875 41.3196ZM447.966 41.5408H519.341V40.0303H447.966V41.5408Z" fill="#00C2FF"/>
<path d="M378.822 725.297C378.528 725.591 378.528 726.07 378.822 726.365L383.629 731.171C383.924 731.467 384.403 731.467 384.698 731.171C384.992 730.877 384.992 730.398 384.698 730.103L380.425 725.831L384.698 721.558C384.992 721.263 384.992 720.785 384.698 720.49C384.403 720.195 383.924 720.195 383.629 720.49L378.822 725.297ZM379.356 726.586H451.109V725.075H379.356V726.586Z" fill="#ACACAC"/>
<path d="M451.643 753.555C451.938 753.26 451.938 752.782 451.643 752.487L446.837 747.68C446.541 747.385 446.063 747.385 445.768 747.68C445.474 747.975 445.474 748.454 445.768 748.748L450.041 753.021L445.768 757.296C445.474 757.591 445.474 758.066 445.768 758.361C446.063 758.656 446.541 758.656 446.837 758.361L451.643 753.555ZM379.356 753.776H451.109V752.266H379.356V753.776Z" fill="#ACACAC"/>
<path d="M215.909 345.986C215.528 346.155 215.355 346.601 215.524 346.982L218.274 353.198C218.443 353.58 218.889 353.752 219.27 353.584C219.652 353.415 219.825 352.969 219.656 352.587L217.211 347.062L222.736 344.617C223.119 344.448 223.291 344.002 223.122 343.621C222.953 343.239 222.507 343.067 222.125 343.236L215.909 345.986ZM215.943 347.381L305.822 382.124L306.366 380.715L216.487 345.972L215.943 347.381Z" fill="#F5F5F5"/>
<path d="M204.086 408.362C203.74 408.594 203.648 409.064 203.881 409.41L207.678 415.048C207.912 415.394 208.381 415.486 208.727 415.252C209.073 415.02 209.165 414.55 208.931 414.204L205.556 409.193L210.568 405.817C210.914 405.585 211.005 405.115 210.773 404.769C210.539 404.423 210.07 404.332 209.724 404.564L204.086 408.362ZM204.363 409.729L297.264 427.856L297.553 426.374L204.653 408.247L204.363 409.729Z" fill="#F5F5F5"/>
<path d="M199.098 466.202C198.786 466.478 198.756 466.955 199.033 467.267L203.535 472.36C203.811 472.673 204.289 472.702 204.601 472.426C204.914 472.149 204.943 471.672 204.667 471.359L200.665 466.833L205.192 462.831C205.504 462.554 205.533 462.077 205.257 461.765C204.981 461.452 204.504 461.423 204.191 461.699L199.098 466.202ZM199.552 467.521L297.739 473.563L297.832 472.056L199.645 466.013L199.552 467.521Z" fill="#F5F5F5"/>
<path d="M199.798 522.903C199.515 523.211 199.536 523.688 199.843 523.97L204.851 528.566C205.159 528.849 205.636 528.828 205.918 528.521C206.2 528.214 206.18 527.736 205.872 527.454L201.421 523.368L205.507 518.917C205.789 518.609 205.768 518.131 205.461 517.85C205.153 517.567 204.676 517.588 204.394 517.895L199.798 522.903ZM200.386 524.168L306.126 519.637L306.062 518.128L200.322 522.659L200.386 524.168Z" fill="#F5F5F5"/>
<path d="M225.403 582.289C225.173 582.638 225.27 583.106 225.619 583.335L231.297 587.071C231.646 587.301 232.114 587.204 232.343 586.856C232.573 586.507 232.476 586.039 232.128 585.81L227.079 582.488L230.401 577.44C230.63 577.092 230.533 576.624 230.185 576.394C229.837 576.165 229.369 576.261 229.139 576.61L225.403 582.289ZM226.186 583.443L334.192 561.162L333.887 559.684L225.881 581.965L226.186 583.443Z" fill="#F5F5F5"/>
<path d="M274.421 635.308C274.273 635.698 274.47 636.134 274.861 636.281L281.223 638.676C281.613 638.823 282.048 638.626 282.196 638.236C282.343 637.845 282.145 637.41 281.754 637.263L276.1 635.134L278.23 629.479C278.377 629.089 278.179 628.653 277.788 628.506C277.399 628.359 276.963 628.556 276.816 628.947L274.421 635.308ZM275.439 636.262L379.668 589.057L379.045 587.681L274.816 634.886L275.439 636.262Z" fill="#F5F5F5"/>
</g>
<defs>
<linearGradient id="paint0_linear_106_905" x1="221.152" y1="163.52" x2="221.152" y2="814.955" gradientUnits="userSpaceOnUse">
<stop stop-color="#00C2FF"/>
<stop offset="1" stop-color="#3869A1"/>
</linearGradient>
<linearGradient id="paint1_linear_106_905" x1="407.302" y1="133.686" x2="941.292" y2="646.526" gradientUnits="userSpaceOnUse">
<stop stop-color="#3869A1"/>
<stop offset="1" stop-color="#124279"/>
</linearGradient>
<linearGradient id="paint2_linear_106_905" x1="372.559" y1="151.812" x2="372.559" y2="212.235" gradientUnits="userSpaceOnUse">
<stop stop-color="#00C2FF"/>
<stop offset="1" stop-color="#3869A1"/>
</linearGradient>
<linearGradient id="paint3_linear_106_905" x1="496.426" y1="128.399" x2="496.426" y2="188.822" gradientUnits="userSpaceOnUse">
<stop stop-color="#00C2FF"/>
<stop offset="1" stop-color="#3869A1"/>
</linearGradient>
<linearGradient id="paint4_linear_106_905" x1="620.293" y1="137.462" x2="620.293" y2="197.885" gradientUnits="userSpaceOnUse">
<stop stop-color="#00C2FF"/>
<stop offset="1" stop-color="#3869A1"/>
</linearGradient>
<linearGradient id="paint5_linear_106_905" x1="744.16" y1="176.737" x2="744.16" y2="237.16" gradientUnits="userSpaceOnUse">
<stop stop-color="#00C2FF"/>
<stop offset="1" stop-color="#3869A1"/>
</linearGradient>
<linearGradient id="paint6_linear_106_905" x1="839.6" y1="264.351" x2="839.6" y2="324.774" gradientUnits="userSpaceOnUse">
<stop stop-color="#00C2FF"/>
<stop offset="1" stop-color="#3869A1"/>
</linearGradient>
<linearGradient id="paint7_linear_106_905" x1="887.666" y1="379.154" x2="887.666" y2="439.577" gradientUnits="userSpaceOnUse">
<stop stop-color="#00C2FF"/>
<stop offset="1" stop-color="#3869A1"/>
</linearGradient>
<linearGradient id="paint8_linear_106_905" x1="857.455" y1="512.085" x2="857.455" y2="572.508" gradientUnits="userSpaceOnUse">
<stop stop-color="#00C2FF"/>
<stop offset="1" stop-color="#3869A1"/>
</linearGradient>
<linearGradient id="paint9_linear_106_905" x1="789.479" y1="613.293" x2="789.479" y2="673.716" gradientUnits="userSpaceOnUse">
<stop stop-color="#00C2FF"/>
<stop offset="1" stop-color="#3869A1"/>
</linearGradient>
<clipPath id="clip0_106_905">
<rect width="1000" height="836.103" fill="white"/>
</clipPath>
</defs>
</svg>
