<svg width="1520" height="647" viewBox="0 0 1520 647" fill="none" xmlns="http://www.w3.org/2000/svg">
<rect x="40" y="50.1025" width="272" height="140" rx="20" fill="#1EA3EE"/>
<path d="M99.2324 117.353V119.759H89.4434V121.618H96.416V127.688H82.3613V129.493H97.0996V131.817H79.3809V125.501H93.4355V123.915H79.3535V121.618H86.4082V119.759H76.7012V117.353H99.2324ZM96.334 108.083V115.794H79.5449V108.083H96.334ZM82.5254 110.462V113.415H93.2988V110.462H82.5254ZM123.459 121.919V124.298H118.018V132.036H114.955V124.298H109.404V132.036H106.369V124.298H100.873V121.919H123.459ZM120.834 108.138V115.056H106.643V117.407H121.381V119.868H103.58V112.786H117.717V110.626H103.525V108.138H120.834ZM134.451 113.251C134.424 117.79 136.803 122.329 140.822 124.052L139.018 126.485C136.174 125.173 134.082 122.548 132.947 119.321C131.812 122.808 129.693 125.651 126.686 127.06L124.826 124.517C128.955 122.739 131.361 118.009 131.361 113.251V109.313H134.451V113.251ZM145.662 107.317V132.063H142.6V107.317H145.662ZM162.068 110.708C162.068 114.536 165.814 118.364 170.982 119.267L169.615 121.81C165.473 120.935 162.082 118.433 160.482 115.11C158.842 118.405 155.451 120.921 151.322 121.81L149.982 119.267C155.096 118.337 158.814 114.509 158.842 110.708V108.876H162.068V110.708ZM171.885 126.376V128.892H149.299V126.376H171.885ZM183.943 108.849V111.31H177.463V113.634H183.014V115.985H177.463V118.528C180.43 118.501 182.467 118.392 184.873 117.954L185.201 120.333C182.357 120.853 180.006 120.962 176.178 120.962H174.537V108.849H183.943ZM194.635 107.317V122.11H191.736V107.317H194.635ZM189.768 107.728V121.919H186.869V115.821H184.08V113.36H186.869V107.728H189.768ZM194.635 123.149V131.735H177.955V123.149H194.635ZM180.99 125.556V129.274H191.627V125.556H180.99ZM214.076 120.552V124.544C216.223 124.435 218.383 124.243 220.42 123.942L220.666 126.185C215.115 127.196 209.182 127.251 204.834 127.251L204.451 124.79C206.379 124.776 208.648 124.763 211.041 124.681V120.552H214.076ZM219.408 110.353V112.813H214.131C214.268 115.452 216.359 117.831 220.092 118.774L218.697 121.153C215.771 120.36 213.68 118.651 212.572 116.45C211.479 118.774 209.414 120.552 206.475 121.345L205.025 119.048C208.758 118.022 210.809 115.589 210.986 112.813H205.764V110.353H211.041V107.536H214.076V110.353H219.408ZM224.932 107.317V132.063H221.896V107.317H224.932ZM237.619 111.556C237.619 114.563 239.615 117.599 243.443 118.884L241.912 121.235C239.15 120.333 237.195 118.46 236.115 116.149C235.035 118.733 232.971 120.812 230.045 121.782L228.486 119.376C232.424 118.091 234.529 114.81 234.529 111.583V111.255H229.389V108.821H242.732V111.255H237.619V111.556ZM249.24 123.231V132.036H246.205V125.665H232.396V123.231H249.24ZM249.24 107.317V122.056H246.205V115.931H241.994V113.442H246.205V107.317H249.24ZM272.291 107.317V117.517H275.764V120.06H272.291V132.036H269.229V107.317H272.291ZM252.439 125.173C254.312 125.173 256.486 125.173 258.756 125.118V122.794C256.062 122.343 254.299 120.647 254.326 118.337C254.299 115.548 256.76 113.688 260.314 113.688C263.814 113.688 266.303 115.548 266.33 118.337C266.303 120.661 264.512 122.356 261.818 122.794V125.009C263.896 124.899 265.975 124.735 267.916 124.462L268.107 126.677C262.803 127.634 257.088 127.688 252.877 127.688L252.439 125.173ZM267.643 110.161V112.567H252.904V110.161H258.756V107.427H261.818V110.161H267.643ZM260.314 116.013C258.428 116.04 257.197 116.888 257.197 118.337C257.197 119.759 258.428 120.606 260.314 120.579C262.174 120.606 263.404 119.759 263.404 118.337C263.404 116.888 262.174 116.04 260.314 116.013Z" fill="#F5F5F5"/>
<rect x="332" y="50.1025" width="272" height="140" rx="20" fill="#00C2FF"/>
<path d="M437.799 107.345V125.392H434.764V116.341H430.389V113.88H434.764V107.345H437.799ZM438.428 129.083V131.544H421.584V123.806H424.619V129.083H438.428ZM426.178 112.267C426.178 115.247 428.174 118.31 432.002 119.567L430.471 122.001C427.709 121.058 425.754 119.185 424.674 116.833C423.58 119.444 421.516 121.509 418.604 122.521L417.045 120.06C420.982 118.774 423.088 115.521 423.088 112.239V111.583H417.947V109.122H431.291V111.583H426.178V112.267ZM463.857 119.677V122.11H454.314V126.649H451.307V122.11H441.271V119.677H463.857ZM460.959 108.438V117.38H444.143V108.438H460.959ZM447.096 110.817V115.001H457.951V110.817H447.096ZM461.369 129.083V131.544H444.006V124.38H447.041V129.083H461.369ZM492.732 107.345V125.2H489.67V107.345H492.732ZM493.416 129.083V131.544H476.381V123.396H479.443V129.083H493.416ZM479.252 108.958C482.998 108.958 485.896 111.556 485.896 115.138C485.896 118.802 482.998 121.345 479.252 121.345C475.479 121.345 472.58 118.802 472.58 115.138C472.58 111.556 475.479 108.958 479.252 108.958ZM479.252 111.61C477.146 111.61 475.533 113.005 475.561 115.138C475.533 117.325 477.146 118.692 479.252 118.692C481.303 118.692 482.916 117.325 482.916 115.138C482.916 113.005 481.303 111.61 479.252 111.61ZM508.154 108.794V116.231H500.361V119.267C504.326 119.28 506.609 119.157 509.221 118.665L509.521 121.126C506.568 121.618 503.998 121.7 499.158 121.7H497.354V113.962H505.119V111.2H497.299V108.794H508.154ZM517.041 107.345V122.548H514.006V118.474H509.631V116.04H514.006V113.278H509.631V110.845H514.006V107.345H517.041ZM517.041 123.724V132.036H514.006V126.157H500.143V123.724H517.041Z" fill="#F5F5F5"/>
<rect x="624" y="50.1025" width="272" height="140" rx="20" fill="#3869A1"/>
<path d="M702.555 96.9463V98.9854C702.531 101.61 702.531 104.563 701.711 108.993L699.086 108.712C699.906 104.587 699.906 101.575 699.93 99.0322H687.273V96.9463H702.555ZM704.57 111.313V113.446H685.258V111.313H692.383V103.954H694.961V111.313H704.57ZM724.117 95.0244V107.446H721.633V102.173H719.406V107.353H716.945V95.4229H719.406V100.04H721.633V95.0244H724.117ZM724.117 108.313V116.188H721.516V110.423H709.516V108.313H724.117ZM715.234 96.501C715.258 101.751 712.586 105.407 707.125 107.634L705.883 105.688C710.008 104.118 712.164 101.716 712.586 98.6104H706.844V96.501H715.234ZM734.312 100.087C734.289 103.86 736.188 107.704 739.469 109.274L737.875 111.36C735.578 110.2 733.926 107.962 733.023 105.267C732.098 108.149 730.363 110.54 727.938 111.759L726.344 109.673C729.742 108.056 731.688 104.001 731.711 100.087V96.7119H734.312V100.087ZM743.336 95.001V103.298H746.594V105.524H743.336V116.188H740.734V95.001H743.336ZM754.352 96.4775C757.703 96.4541 760.164 98.5869 760.188 101.587C760.164 104.61 757.703 106.72 754.352 106.72C751.023 106.72 748.539 104.61 748.539 101.587C748.539 98.5869 751.023 96.4541 754.352 96.4775ZM754.352 98.7275C752.5 98.7275 751.117 99.8291 751.117 101.587C751.117 103.368 752.5 104.446 754.352 104.446C756.227 104.446 757.633 103.368 757.633 101.587C757.633 99.8291 756.227 98.7275 754.352 98.7275ZM765.133 95.001V116.212H762.531V95.001H765.133ZM747.578 109.649C751.398 109.649 756.695 109.603 761.266 108.946L761.477 110.845C756.719 111.759 751.633 111.782 747.906 111.782L747.578 109.649ZM793.234 106.087V108.126H773.875V106.087H793.234ZM790.797 109.743V116.188H788.172V111.829H776.055V109.743H790.797ZM791.078 102.524V104.517H776.359V95.5166H790.914V97.5557H778.961V99.0088H790.398V100.954H778.961V102.524H791.078ZM811.422 95.001V103.743H814.398V105.923H811.422V116.188H808.797V95.001H811.422ZM794.406 110.306C796.012 110.306 797.875 110.306 799.82 110.259V108.267C797.512 107.88 796 106.427 796.023 104.446C796 102.056 798.109 100.462 801.156 100.462C804.156 100.462 806.289 102.056 806.312 104.446C806.289 106.438 804.754 107.892 802.445 108.267V110.165C804.227 110.071 806.008 109.931 807.672 109.696L807.836 111.595C803.289 112.415 798.391 112.462 794.781 112.462L794.406 110.306ZM807.438 97.4385V99.501H794.805V97.4385H799.82V95.0947H802.445V97.4385H807.438ZM801.156 102.454C799.539 102.478 798.484 103.204 798.484 104.446C798.484 105.665 799.539 106.392 801.156 106.368C802.75 106.392 803.805 105.665 803.805 104.446C803.805 103.204 802.75 102.478 801.156 102.454ZM827.734 101.657V103.743H823.797V106.134C825.566 106.063 827.324 105.946 828.977 105.782L829.164 107.657C824.664 108.29 819.789 108.407 815.852 108.407L815.5 106.321C817.246 106.31 819.18 106.298 821.172 106.228V103.743H817.328V96.3135H827.57V98.4229H819.953V101.657H827.734ZM833.078 95.001V110.915H830.453V95.001H833.078ZM833.688 113.657V115.767H818.875V109.743H821.5V113.657H833.688ZM738.531 134.032V136.118H730.141V138.157H736.188V144.931H721.492V138.157H727.562V136.118H719.219V134.032H738.531ZM736.75 124.634V126.72H733.844V130.353H736.633V132.462H721.07V130.353H723.859V126.72H720.953V124.634H736.75ZM724.07 140.173V142.821H733.656V140.173H724.07ZM726.461 130.353H731.219V126.72H726.461V130.353ZM757.562 124.001V134.923H754.984V124.001H757.562ZM757.609 135.813V141.274H746.148V142.985H758.242V145.001H743.594V139.376H755.008V137.806H743.547V135.813H757.609ZM752.453 125.056V127.165H748.023C748.129 129.509 749.922 131.724 753.203 132.626L751.938 134.642C749.465 133.927 747.695 132.415 746.734 130.493C745.785 132.614 743.934 134.302 741.32 135.087L740.125 133.024C743.406 132.052 745.234 129.673 745.375 127.165H740.805V125.056H752.453ZM772.539 125.571V126.837C772.516 128.29 772.516 130.376 772.023 133.071L769.445 132.837C769.855 130.646 769.938 129.028 769.984 127.728H761.734V125.571H772.539ZM767.195 130.399V134.618C769.387 134.536 771.637 134.372 773.688 134.079L773.828 135.954C769.422 136.751 764.43 136.821 760.703 136.845L760.469 134.759C761.723 134.747 763.129 134.735 764.617 134.712V130.399H767.195ZM777.602 124.001V130.61H780.344V132.79H777.602V139.868H774.93V124.001H777.602ZM778.281 142.657V144.767H763.633V138.462H766.258V142.657H778.281ZM799.094 124.001V145.212H796.516V124.001H799.094ZM792.578 125.853V133.798H785.289V138.063C788.629 138.04 791.512 137.876 794.805 137.313L795.039 139.446C791.43 140.079 788.266 140.196 784.469 140.196H782.617V131.735H789.93V127.962H782.594V125.853H792.578Z" fill="#F5F5F5"/>
<rect x="916" y="50.1025" width="272" height="140" rx="20" fill="#1A4F8C"/>
<path d="M956.242 108.411C959.441 108.384 961.957 110.229 962.586 112.95H967.043V107.317H970.078V120.579H967.043V115.411H962.613C961.998 118.187 959.455 120.06 956.242 120.06C952.441 120.06 949.707 117.626 949.707 114.208C949.707 110.845 952.441 108.384 956.242 108.411ZM956.242 110.954C954.109 110.954 952.605 112.212 952.605 114.208C952.605 116.177 954.109 117.489 956.242 117.489C958.32 117.489 959.797 116.177 959.824 114.208C959.797 112.212 958.32 110.954 956.242 110.954ZM956.789 121.728V124.353H967.043V121.728H970.078V131.735H953.781V121.728H956.789ZM956.789 129.274H967.043V126.704H956.789V129.274ZM996.137 121.317V123.778H986.293V132.009H983.285V123.778H973.551V121.317H996.137ZM993.375 108.575V118.419H976.312V108.575H993.375ZM979.293 111.009V116.04H990.34V111.009H979.293ZM1018.5 107.317V132.063H1015.47V119.431H1010.68V116.97H1015.47V107.317H1018.5ZM1006.8 115.165C1006.77 118.911 1009.02 122.903 1012.93 124.626L1011.29 126.95C1008.46 125.747 1006.4 123.272 1005.32 120.306C1004.23 123.45 1002.19 126.089 999.363 127.36L997.723 125.009C1001.58 123.259 1003.77 119.048 1003.77 115.165V113.88H998.461V111.446H1003.79V107.837H1006.83V111.446H1012V113.88H1006.8V115.165ZM1042.57 107.317V132.063H1039.56V107.317H1042.57ZM1034.96 109.478V118.747H1026.46V123.724C1030.36 123.696 1033.72 123.505 1037.56 122.849L1037.84 125.337C1033.62 126.075 1029.93 126.212 1025.5 126.212H1023.34V116.341H1031.88V111.938H1023.32V109.478H1034.96ZM1072.81 113.743V116.204H1055.75V107.755H1058.78V113.743H1072.81ZM1075.38 118.583V121.044H1052.82V118.583H1075.38ZM1064.06 122.821C1069.39 122.849 1072.59 124.489 1072.62 127.388C1072.59 130.286 1069.39 131.927 1064.06 131.927C1058.67 131.927 1055.45 130.286 1055.45 127.388C1055.45 124.489 1058.67 122.849 1064.06 122.821ZM1064.06 125.2C1060.45 125.228 1058.51 125.911 1058.54 127.388C1058.51 128.81 1060.45 129.603 1064.06 129.603C1067.59 129.603 1069.55 128.81 1069.58 127.388C1069.55 125.911 1067.59 125.228 1064.06 125.2ZM1088.83 108.794V116.231H1081.04V119.267C1085 119.28 1087.29 119.157 1089.9 118.665L1090.2 121.126C1087.25 121.618 1084.68 121.7 1079.84 121.7H1078.03V113.962H1085.8V111.2H1077.98V108.794H1088.83ZM1097.72 107.345V122.548H1094.68V118.474H1090.31V116.04H1094.68V113.278H1090.31V110.845H1094.68V107.345H1097.72ZM1097.72 123.724V132.036H1094.68V126.157H1080.82V123.724H1097.72ZM1130.72 111.173V113.661H1127.36V116.478H1130.72V118.966H1127.36V123.095H1124.32V107.317H1127.36V111.173H1130.72ZM1119.38 123.313C1124.43 123.313 1127.63 124.927 1127.63 127.661C1127.63 130.368 1124.43 132.009 1119.38 132.009C1114.23 132.009 1111.09 130.368 1111.12 127.661C1111.09 124.927 1114.23 123.313 1119.38 123.313ZM1119.38 125.638C1115.98 125.638 1114.1 126.294 1114.12 127.661C1114.1 128.974 1115.98 129.712 1119.38 129.712C1122.71 129.712 1124.6 128.974 1124.6 127.661C1124.6 126.294 1122.71 125.638 1119.38 125.638ZM1122.55 109.833V112.212H1107.89V109.833H1113.71V107.153H1116.75V109.833H1122.55ZM1115.22 113.196C1118.8 113.196 1121.23 114.974 1121.26 117.626C1121.23 120.278 1118.8 122.028 1115.22 122.028C1111.61 122.028 1109.15 120.278 1109.15 117.626C1109.15 114.974 1111.61 113.196 1115.22 113.196ZM1115.22 115.438C1113.33 115.438 1112.1 116.259 1112.1 117.626C1112.1 118.966 1113.33 119.731 1115.22 119.731C1117.11 119.731 1118.36 118.966 1118.36 117.626C1118.36 116.259 1117.11 115.438 1115.22 115.438ZM1140.81 111.255C1140.81 114.372 1142.84 117.298 1146.64 118.501L1145 120.88C1142.33 119.978 1140.42 118.173 1139.36 115.876C1138.27 118.501 1136.27 120.565 1133.43 121.563L1131.79 119.185C1135.78 117.79 1137.75 114.509 1137.78 110.981V108.63H1140.81V111.255ZM1151.56 107.317V113.333H1155V115.849H1151.56V122.11H1148.52V107.317H1151.56ZM1143.52 122.657C1148.63 122.63 1151.78 124.38 1151.8 127.306C1151.78 130.286 1148.63 132.009 1143.52 132.009C1138.35 132.009 1135.15 130.286 1135.15 127.306C1135.15 124.38 1138.35 122.63 1143.52 122.657ZM1143.52 125.036C1140.13 125.036 1138.19 125.856 1138.19 127.306C1138.19 128.837 1140.13 129.603 1143.52 129.603C1146.91 129.603 1148.8 128.837 1148.8 127.306C1148.8 125.856 1146.91 125.036 1143.52 125.036Z" fill="#F5F5F5"/>
<rect x="1208" y="50.1025" width="272" height="140" rx="20" fill="#0D3768"/>
<path d="M1274.01 107.317V119.923H1271.01V107.317H1274.01ZM1274.07 121.071V127.497H1260.7V129.411H1274.81V131.817H1257.72V125.228H1271.03V123.423H1257.66V121.071H1274.07ZM1262.69 109.833C1262.69 112.978 1264.77 115.931 1268.68 117.106L1267.21 119.458C1264.33 118.583 1262.28 116.737 1261.16 114.372C1260.04 116.942 1257.94 118.952 1254.98 119.896L1253.45 117.517C1257.44 116.231 1259.55 113.06 1259.55 109.833V107.919H1262.69V109.833ZM1287.03 113.251C1287 117.79 1289.38 122.329 1293.4 124.052L1291.6 126.485C1288.75 125.173 1286.66 122.548 1285.53 119.321C1284.39 122.808 1282.27 125.651 1279.26 127.06L1277.4 124.517C1281.53 122.739 1283.94 118.009 1283.94 113.251V109.313H1287.03V113.251ZM1298.24 107.317V132.063H1295.18V107.317H1298.24ZM1321.37 107.317V114.427H1324.82V116.97H1321.37V125.146H1318.28V107.317H1321.37ZM1314.65 109.204C1314.65 115.767 1310.38 120.442 1303.05 122.575L1301.79 120.169C1307.44 118.542 1310.8 115.466 1311.34 111.692H1302.83V109.204H1314.65ZM1322.3 129.083V131.544H1305.49V123.313H1308.58V129.083H1322.3ZM1353.42 107.317V122.001H1350.38V115.958H1346.17V113.47H1350.38V107.317H1353.42ZM1345.05 122.63C1350.3 122.63 1353.5 124.353 1353.5 127.333C1353.5 130.313 1350.3 132.036 1345.05 132.036C1339.83 132.036 1336.63 130.313 1336.66 127.333C1336.63 124.353 1339.83 122.63 1345.05 122.63ZM1345.05 124.954C1341.61 124.954 1339.67 125.774 1339.67 127.333C1339.67 128.864 1341.61 129.685 1345.05 129.685C1348.5 129.685 1350.47 128.864 1350.47 127.333C1350.47 125.774 1348.5 124.954 1345.05 124.954ZM1341.8 111.556C1341.8 114.563 1343.79 117.599 1347.62 118.884L1346.09 121.29C1343.34 120.36 1341.39 118.474 1340.32 116.149C1339.23 118.788 1337.16 120.894 1334.22 121.946L1332.64 119.54C1336.6 118.173 1338.71 114.837 1338.71 111.583V111.392H1333.57V108.931H1346.91V111.392H1341.8V111.556ZM1379.51 126.567V129.056H1356.92V126.567H1366.65V121.755H1359.41V108.958H1362.44V113.005H1373.9V108.958H1376.94V121.755H1369.66V126.567H1379.51ZM1362.44 119.294H1373.9V115.438H1362.44V119.294ZM1410.32 120.114V122.548H1400.78V126.813H1397.77V122.548H1387.74V120.114H1410.32ZM1407.83 129.083V131.544H1390.47V124.735H1393.48V129.083H1407.83ZM1393.7 108.11V110.899H1404.36V108.11H1407.37V118.173H1390.69V108.11H1393.7ZM1393.7 115.767H1404.36V113.169H1393.7V115.767ZM1420.93 111.228C1420.93 114.399 1422.93 117.435 1426.73 118.665L1425.09 121.099C1422.41 120.155 1420.49 118.282 1419.46 115.903C1418.35 118.501 1416.34 120.538 1413.49 121.563L1411.85 119.13C1415.87 117.79 1417.87 114.563 1417.87 111.036V108.603H1420.93V111.228ZM1432.66 123.204V132.036H1429.63V125.61H1415.82V123.204H1432.66ZM1432.66 107.317V122.001H1429.63V114.618H1424.71V112.13H1429.63V107.317H1432.66Z" fill="#F5F5F5"/>
<rect x="654" y="220.103" width="212" height="206" rx="103" fill="url(#paint0_linear_89_1210)"/>
<rect x="661" y="224.103" width="198" height="198" rx="99" stroke="white" stroke-width="2"/>
<path d="M693.432 317.146C693.221 314.966 691.357 313.7 688.615 313.7C685.732 313.7 683.975 315.106 683.975 317.005C683.975 319.149 686.225 320.028 688.334 320.521L690.725 321.153C694.521 322.032 698.178 324.036 698.178 328.466C698.178 332.931 694.662 335.989 688.545 335.989C682.604 335.989 678.877 333.142 678.666 328.114H683.166C683.377 330.786 685.627 332.087 688.51 332.087C691.533 332.087 693.607 330.61 693.607 328.431C693.607 326.427 691.744 325.583 689.002 324.88L686.119 324.142C681.936 323.052 679.334 320.942 679.334 317.286C679.334 312.786 683.342 309.798 688.686 309.798C694.1 309.798 697.756 312.856 697.826 317.146H693.432ZM715.826 317.146C715.615 314.966 713.752 313.7 711.01 313.7C708.127 313.7 706.369 315.106 706.369 317.005C706.369 319.149 708.619 320.028 710.729 320.521L713.119 321.153C716.916 322.032 720.572 324.036 720.572 328.466C720.572 332.931 717.057 335.989 710.939 335.989C704.998 335.989 701.271 333.142 701.061 328.114H705.561C705.771 330.786 708.021 332.087 710.904 332.087C713.928 332.087 716.002 330.61 716.002 328.431C716.002 326.427 714.139 325.583 711.396 324.88L708.514 324.142C704.33 323.052 701.729 320.942 701.729 317.286C701.729 312.786 705.736 309.798 711.08 309.798C716.494 309.798 720.15 312.856 720.221 317.146H715.826ZM724.369 335.603V310.149H740.928V313.981H728.939V320.942H740.049V324.774H728.939V331.735H740.998V335.603H724.369ZM766.24 310.149V335.603H762.162L750.104 318.2H749.893V335.603H745.322V310.149H749.471L761.459 327.552H761.705V310.149H766.24ZM779.494 335.603V310.149H796.053V313.981H784.064V320.942H795.174V324.774H784.064V331.735H796.123V335.603H779.494ZM800.447 335.603V310.149H810.01C815.846 310.149 818.975 313.419 818.975 318.271C818.975 321.733 817.393 324.3 814.404 325.513L819.889 335.603H814.791L809.799 326.286H805.018V335.603H800.447ZM805.018 322.454H809.307C812.752 322.454 814.299 320.978 814.299 318.271C814.299 315.563 812.752 313.981 809.307 313.981H805.018V322.454ZM822.912 335.603V310.149H832.475C838.311 310.149 841.439 313.7 841.439 318.587C841.439 323.474 838.275 326.989 832.404 326.989H827.482V335.603H822.912ZM827.482 323.228H831.771C835.217 323.228 836.764 321.294 836.764 318.587C836.764 315.845 835.217 313.981 831.771 313.981H827.482V323.228Z" fill="white"/>
<rect x="40" y="456.103" width="272" height="140" rx="20" fill="#1EA3EE"/>
<path d="M71.0703 503.134H74.8203L79.8594 515.462H80.0703L85.1094 503.134H88.8594V520.103H85.9297V508.431H85.7656L81.0547 520.056H78.875L74.1641 508.384H74.0234V520.103H71.0703V503.134ZM92 520.103V503.134H98.375C102.266 503.134 104.352 505.313 104.352 508.548C104.352 510.856 103.297 512.567 101.305 513.376L104.961 520.103H101.562L98.2344 513.892H95.0469V520.103H92ZM95.0469 511.337H97.9062C100.203 511.337 101.234 510.353 101.234 508.548C101.234 506.743 100.203 505.688 97.9062 505.688H95.0469V511.337ZM106.977 520.103V503.134H113.352C117.242 503.134 119.328 505.501 119.328 508.759C119.328 512.017 117.219 514.36 113.305 514.36H110.023V520.103H106.977ZM110.023 511.853H112.883C115.18 511.853 116.211 510.563 116.211 508.759C116.211 506.931 115.18 505.688 112.883 505.688H110.023V511.853ZM139.203 501.001V522.188H136.695V501.001H139.203ZM134.844 501.376V521.157H132.359V511.079H130.344C130.098 515.204 128.328 517.759 125.703 517.735C122.938 517.759 121.133 514.829 121.133 510.165C121.133 505.501 122.938 502.618 125.703 502.618C128.27 502.618 130.016 505.009 130.32 508.97H132.359V501.376H134.844ZM125.703 505.079C124.367 505.056 123.523 506.86 123.547 510.165C123.523 513.47 124.367 515.274 125.703 515.251C127.109 515.274 127.953 513.47 127.953 510.165C127.953 506.86 127.109 505.056 125.703 505.079ZM154.227 502.478C157.578 502.454 160.039 504.587 160.062 507.587C160.039 510.61 157.578 512.72 154.227 512.72C150.898 512.72 148.414 510.61 148.414 507.587C148.414 504.587 150.898 502.454 154.227 502.478ZM154.227 504.728C152.375 504.728 150.992 505.829 150.992 507.587C150.992 509.368 152.375 510.446 154.227 510.446C156.102 510.446 157.508 509.368 157.508 507.587C157.508 505.829 156.102 504.728 154.227 504.728ZM165.008 501.001V522.212H162.406V501.001H165.008ZM147.453 515.649C151.273 515.649 156.57 515.603 161.141 514.946L161.352 516.845C156.594 517.759 151.508 517.782 147.781 517.782L147.453 515.649ZM184.812 501.024V507.681H187.766V509.837H184.812V516.845H182.211V501.024H184.812ZM180.688 503.368V505.454H168.125V503.368H173.117V501.001H175.719V503.368H180.688ZM174.406 506.321C177.453 506.321 179.562 507.938 179.586 510.376C179.562 512.79 177.453 514.384 174.406 514.384C171.336 514.384 169.203 512.79 169.203 510.376C169.203 507.938 171.336 506.321 174.406 506.321ZM174.406 508.337C172.789 508.337 171.734 509.087 171.734 510.376C171.734 511.642 172.789 512.392 174.406 512.368C176.023 512.392 177.102 511.642 177.102 510.376C177.102 509.087 176.023 508.337 174.406 508.337ZM185.656 519.657V521.767H171.242V515.603H173.844V519.657H185.656ZM212.914 501.001V522.188H210.43V511.454H208.25V521.157H205.789V501.376H208.25V509.298H210.43V501.001H212.914ZM201.125 506.415C201.125 510.188 202.391 513.657 205.531 515.274L204.008 517.267C201.992 516.188 200.668 514.325 199.93 512.017C199.203 514.653 197.879 516.774 195.781 518.017L194.188 516.024C197.328 514.243 198.594 510.54 198.594 506.415V505.407H194.82V503.321H204.594V505.407H201.125V506.415ZM232.578 502.946V504.985C232.555 507.61 232.555 510.563 231.734 514.993L229.109 514.712C229.93 510.587 229.93 507.575 229.953 505.032H217.297V502.946H232.578ZM234.594 517.313V519.446H215.281V517.313H222.406V509.954H224.984V517.313H234.594ZM261.055 512.884V514.993H256.344V522.188H253.695V514.993H249.008V522.188H246.336V514.993H241.695V512.884H261.055ZM251.328 501.751C255.828 501.774 258.969 503.603 258.969 506.485C258.969 509.321 255.828 511.126 251.328 511.126C246.805 511.126 243.711 509.321 243.734 506.485C243.711 503.603 246.805 501.774 251.328 501.751ZM251.328 503.86C248.328 503.86 246.383 504.821 246.406 506.485C246.383 508.103 248.328 509.063 251.328 509.063C254.328 509.063 256.273 508.103 256.273 506.485C256.273 504.821 254.328 503.86 251.328 503.86ZM270.453 507.024C270.453 510.493 272.492 514.149 275.914 515.579L274.484 517.642C271.977 516.563 270.148 514.337 269.188 511.642C268.203 514.548 266.352 516.985 263.867 518.157L262.367 516.118C265.719 514.571 267.805 510.634 267.805 507.024V505.243H263.141V503.087H275.094V505.243H270.453V507.024ZM280.086 501.001V522.188H277.461V501.001H280.086ZM119.023 530.024V546.056H116.398V544.204H112.25V542.376H116.398V530.024H119.023ZM119.516 548.657V550.767H103.977V544.509H106.578V548.657H119.516ZM101.164 539.54C105.078 539.517 110.328 539.47 114.828 538.907L114.969 540.782C113.223 541.075 111.418 541.274 109.625 541.392V545.47H107.023V541.532C105.043 541.614 103.156 541.626 101.492 541.626L101.164 539.54ZM108.078 530.798C111.172 530.798 113.328 532.321 113.352 534.548C113.328 536.821 111.172 538.274 108.078 538.274C104.938 538.274 102.781 536.821 102.781 534.548C102.781 532.321 104.938 530.798 108.078 530.798ZM108.078 532.72C106.391 532.72 105.242 533.399 105.242 534.548C105.242 535.696 106.391 536.376 108.078 536.376C109.695 536.376 110.844 535.696 110.867 534.548C110.844 533.399 109.695 532.72 108.078 532.72ZM138.711 529.954V534.735H141.688V536.845H138.711V541.509H136.109V529.954H138.711ZM138.711 542.446V547.556H127.461V549.056H139.367V551.001H124.883V545.751H136.109V544.345H124.859V542.446H138.711ZM134.586 531.712V533.704H122.023V531.712H127.016V529.837H129.617V531.712H134.586ZM128.305 534.36C131.445 534.384 133.461 535.72 133.484 537.829C133.461 540.009 131.445 541.298 128.305 541.298C125.164 541.298 123.102 540.009 123.102 537.829C123.102 535.72 125.164 534.384 128.305 534.36ZM128.305 536.235C126.664 536.235 125.633 536.821 125.633 537.829C125.633 538.86 126.664 539.423 128.305 539.423C129.945 539.423 131 538.86 131 537.829C131 536.821 129.945 536.235 128.305 536.235ZM159.453 530.024V536.681H162.406V538.837H159.453V545.845H156.852V530.024H159.453ZM155.328 532.368V534.454H142.766V532.368H147.758V530.001H150.359V532.368H155.328ZM149.047 535.321C152.094 535.321 154.203 536.938 154.227 539.376C154.203 541.79 152.094 543.384 149.047 543.384C145.977 543.384 143.844 541.79 143.844 539.376C143.844 536.938 145.977 535.321 149.047 535.321ZM149.047 537.337C147.43 537.337 146.375 538.087 146.375 539.376C146.375 540.642 147.43 541.392 149.047 541.368C150.664 541.392 151.742 540.642 151.742 539.376C151.742 538.087 150.664 537.337 149.047 537.337ZM160.297 548.657V550.767H145.883V544.603H148.484V548.657H160.297ZM180.219 531.759C180.219 534.431 183.195 537.126 187.719 537.712L186.688 539.821C183.09 539.282 180.23 537.513 178.859 535.11C177.465 537.513 174.617 539.282 171.055 539.821L170.023 537.712C174.5 537.126 177.477 534.431 177.477 531.759V530.681H180.219V531.759ZM188.492 541.649V543.806H180.078V551.188H177.5V543.806H169.18V541.649H188.492ZM194.867 542.071V544.509H204.266V542.071H206.844V550.931H192.312V542.071H194.867ZM194.867 548.821H204.266V546.524H194.867V548.821ZM206.914 530.915V532.556C206.914 534.161 206.914 535.931 206.398 538.415H209.281V540.501H189.922V538.415H203.82C204.266 536.177 204.312 534.489 204.312 533.001H192.312V530.915H206.914ZM227.445 530.024V536.188H230.305V538.345H227.445V544.345H224.844V530.024H227.445ZM210.477 541.813C212.07 541.813 213.91 541.802 215.82 541.743V540.454C213.465 540.161 211.977 539.024 211.977 537.36C211.977 535.415 214.016 534.196 217.086 534.22C220.18 534.196 222.195 535.415 222.195 537.36C222.195 539.013 220.742 540.138 218.422 540.431V541.649C220.227 541.567 222.043 541.427 223.742 541.204L223.953 543.009C219.43 543.806 214.484 543.853 210.758 543.853L210.477 541.813ZM227.445 545.259V551.188H224.844V547.298H213.148V545.259H227.445ZM223.18 531.688V533.61H211.016V531.688H215.82V529.837H218.422V531.688H223.18ZM217.086 535.978C215.445 535.954 214.461 536.446 214.484 537.36C214.461 538.228 215.445 538.79 217.086 538.767C218.727 538.79 219.711 538.228 219.711 537.36C219.711 536.446 218.727 535.954 217.086 535.978ZM250.766 546.501V548.634H231.406V546.501H239.75V542.376H233.539V531.407H236.141V534.876H245.961V531.407H248.562V542.376H242.328V546.501H250.766ZM236.141 540.267H245.961V536.962H236.141V540.267Z" fill="#F5F5F5"/>
<rect x="332" y="456.103" width="272" height="140" rx="20" fill="#00C2FF"/>
<path d="M408.152 501.024V516.493H405.551V508.735H401.801V506.626H405.551V501.024H408.152ZM408.691 519.657V521.767H394.254V515.134H396.855V519.657H408.691ZM398.191 505.243C398.191 507.798 399.902 510.423 403.184 511.501L401.871 513.587C399.504 512.778 397.828 511.173 396.902 509.157C395.965 511.396 394.195 513.165 391.699 514.032L390.363 511.923C393.738 510.821 395.543 508.032 395.543 505.22V504.657H391.137V502.548H402.574V504.657H398.191V505.243ZM430.488 511.595V513.681H422.309V517.571H419.73V513.681H411.129V511.595H430.488ZM428.004 501.962V509.626H413.59V501.962H428.004ZM416.121 504.001V507.587H425.426V504.001H416.121ZM428.355 519.657V521.767H413.473V515.626H416.074V519.657H428.355ZM439.676 504.634C439.676 507.212 441.387 509.813 444.668 510.915L443.355 512.931C440.988 512.157 439.312 510.552 438.387 508.571C437.461 510.786 435.691 512.567 433.184 513.399L431.848 511.337C435.223 510.235 437.027 507.423 437.027 504.657V504.376H432.621V502.29H444.059V504.376H439.676V504.634ZM449.637 514.642V522.188H447.035V516.728H435.199V514.642H449.637ZM449.637 501.001V513.634H447.035V508.384H443.426V506.251H447.035V501.001H449.637ZM475.559 510.306V512.415H469.301V517.548H477.691V519.657H458.332V517.548H466.676V512.415H460.559V502.688H463.23V510.306H475.559ZM495.668 501.001V509.438H498.926V511.595H495.668V522.188H493.09V501.001H495.668ZM491.449 504.259V506.345H478.957V504.259H483.973V501.306H486.574V504.259H491.449ZM485.285 507.728C488.332 507.728 490.605 509.79 490.605 512.72C490.605 515.649 488.332 517.688 485.285 517.688C482.191 517.688 479.918 515.649 479.941 512.72C479.918 509.79 482.191 507.728 485.285 507.728ZM485.285 509.86C483.621 509.86 482.426 510.985 482.426 512.72C482.426 514.454 483.621 515.556 485.285 515.532C486.902 515.556 488.098 514.454 488.121 512.72C488.098 510.985 486.902 509.86 485.285 509.86ZM519.152 512.931V515.087H510.715V522.188H508.137V515.087H499.793V512.931H519.152ZM509.426 501.751C513.926 501.774 517.066 503.603 517.066 506.509C517.066 509.392 513.926 511.196 509.426 511.196C504.902 511.196 501.809 509.392 501.832 506.509C501.809 503.603 504.902 501.774 509.426 501.751ZM509.426 503.86C506.426 503.86 504.48 504.845 504.504 506.509C504.48 508.149 506.426 509.134 509.426 509.134C512.426 509.134 514.371 508.149 514.371 506.509C514.371 504.845 512.426 503.86 509.426 503.86ZM537.551 502.313V511.126H527.332V502.313H537.551ZM529.91 504.376V509.087H534.973V504.376H529.91ZM543.855 501.001V513.071H541.277V501.001H543.855ZM544.301 514.313V516.282H538.254C538.5 517.923 541.043 519.728 545.098 520.126L544.207 522.118C540.773 521.767 538.172 520.407 536.895 518.649C535.57 520.431 532.945 521.743 529.488 522.118L528.598 520.126C532.652 519.774 535.254 517.97 535.488 516.282H529.465V514.313H535.559V512.462H538.184V514.313H544.301ZM409.969 530.001V536.095H412.922V538.274H409.969V545.282H407.32V530.001H409.969ZM404.203 531.618C404.203 537.243 400.547 541.251 394.266 543.079L393.188 541.017C398.027 539.622 400.91 536.985 401.367 533.751H394.078V531.618H404.203ZM410.766 548.657V550.767H396.352V543.712H399V548.657H410.766ZM431.742 530.001V545.657H429.141V540.126H426.141V537.97H429.141V535.954H426.141V533.845H429.141V530.001H431.742ZM425.836 531.595V533.681H423.961V540.431C424.758 540.384 425.531 540.325 426.281 540.243L426.398 542.142C422.391 542.798 417.68 542.868 414.305 542.868L414.023 540.712L416.414 540.688V533.681H414.562V531.595H425.836ZM432.281 548.657V550.767H417.82V544.438H420.445V548.657H432.281ZM418.945 540.665L421.453 540.571V533.681H418.945V540.665ZM451.453 530.024V536.681H454.406V538.837H451.453V545.845H448.852V530.024H451.453ZM447.328 532.368V534.454H434.766V532.368H439.758V530.001H442.359V532.368H447.328ZM441.047 535.321C444.094 535.321 446.203 536.938 446.227 539.376C446.203 541.79 444.094 543.384 441.047 543.384C437.977 543.384 435.844 541.79 435.844 539.376C435.844 536.938 437.977 535.321 441.047 535.321ZM441.047 537.337C439.43 537.337 438.375 538.087 438.375 539.376C438.375 540.642 439.43 541.392 441.047 541.368C442.664 541.392 443.742 540.642 443.742 539.376C443.742 538.087 442.664 537.337 441.047 537.337ZM452.297 548.657V550.767H437.883V544.603H440.484V548.657H452.297ZM480.516 540.478V542.563H472.336V546.454H469.688V542.563H461.156V540.478H480.516ZM478.383 548.634V550.767H463.523V544.485H466.148V548.634H478.383ZM470.812 530.47C475.383 530.47 478.406 532.134 478.406 534.806C478.406 537.478 475.383 539.118 470.812 539.118C466.242 539.118 463.219 537.478 463.219 534.806C463.219 532.134 466.242 530.47 470.812 530.47ZM470.812 532.532C467.906 532.532 466.008 533.353 466.031 534.806C466.008 536.212 467.906 537.032 470.812 537.032C473.742 537.032 475.617 536.212 475.617 534.806C475.617 533.353 473.742 532.532 470.812 532.532ZM501.234 540.196V542.282H481.922V540.196H486.422V537.501C484.828 536.833 483.914 535.767 483.914 534.384C483.914 531.853 486.891 530.353 491.555 530.353C496.219 530.353 499.172 531.853 499.195 534.384C499.184 535.778 498.27 536.845 496.664 537.501V540.196H501.234ZM491.555 543.571C496.125 543.548 498.867 544.907 498.891 547.345C498.867 549.806 496.125 551.142 491.555 551.142C486.938 551.142 484.172 549.806 484.172 547.345C484.172 544.907 486.938 543.548 491.555 543.571ZM491.555 545.54C488.461 545.54 486.797 546.149 486.82 547.345C486.797 548.54 488.461 549.173 491.555 549.173C494.578 549.173 496.266 548.54 496.289 547.345C496.266 546.149 494.578 545.54 491.555 545.54ZM491.555 532.368C488.414 532.368 486.609 533.071 486.633 534.384C486.609 535.673 488.414 536.353 491.555 536.353C494.672 536.353 496.5 535.673 496.5 534.384C496.5 533.071 494.672 532.368 491.555 532.368ZM489.047 540.196H494.062V538.181C493.301 538.286 492.457 538.345 491.555 538.345C490.652 538.345 489.809 538.286 489.047 538.181V540.196ZM519.445 530.001V537.103H522.305V539.259H519.445V546.548H516.844V530.001H519.445ZM520.195 548.657V550.767H505.523V545.446H508.125V548.657H520.195ZM502.477 542.306C504.059 542.306 505.898 542.294 507.82 542.212V540.876C505.465 540.595 503.977 539.435 503.977 537.735C503.977 535.649 506.016 534.431 509.086 534.454C512.18 534.431 514.195 535.649 514.195 537.735C514.195 539.423 512.742 540.571 510.422 540.876V542.095C512.227 542.001 514.043 541.837 515.742 541.579L515.953 543.407C511.477 544.251 506.414 544.298 502.758 544.345L502.477 542.306ZM515.18 531.853V533.751H503.016V531.853H507.82V529.931H510.422V531.853H515.18ZM509.086 536.212C507.445 536.212 506.461 536.751 506.484 537.735C506.461 538.649 507.445 539.188 509.086 539.188C510.727 539.188 511.711 538.649 511.711 537.735C511.711 536.751 510.727 536.212 509.086 536.212ZM541.148 530.024V542.399H538.547V540.056H533.508V537.946H538.547V535.673H533.719C532.371 539.048 529.289 541.403 524.672 542.681L523.617 540.618C528.574 539.271 531.211 536.763 531.633 533.61H524.742V531.501H534.469C534.469 532.239 534.41 532.942 534.281 533.61H538.547V530.024H541.148ZM534.141 542.634C538.43 542.634 541.289 544.251 541.289 546.853C541.289 549.454 538.43 551.071 534.141 551.071C529.805 551.071 526.945 549.454 526.945 546.853C526.945 544.251 529.805 542.634 534.141 542.634ZM534.141 544.673C531.281 544.673 529.547 545.446 529.547 546.853C529.547 548.235 531.281 549.009 534.141 549.009C536.93 549.009 538.688 548.235 538.688 546.853C538.688 545.446 536.93 544.673 534.141 544.673Z" fill="#F5F5F5"/>
<rect x="624" y="456.103" width="272" height="140" rx="20" fill="#3869A1"/>
<path d="M663.566 504.681C663.566 507.282 665.254 509.86 668.582 510.962L667.27 512.978C664.902 512.192 663.215 510.599 662.301 508.618C661.352 510.786 659.594 512.509 657.121 513.353L655.738 511.337C659.16 510.212 660.941 507.47 660.941 504.681V504.423H656.465V502.337H667.973V504.423H663.566V504.681ZM672.684 501.001V506.298H675.637V508.478H672.684V513.774H670.082V501.001H672.684ZM672.684 514.759V522.188H670.082V516.845H658.574V514.759H672.684ZM682.598 501.938C685.34 501.915 687.496 503.497 688.035 505.829H691.855V501.001H694.457V512.368H691.855V507.938H688.059C687.531 510.317 685.352 511.923 682.598 511.923C679.34 511.923 676.996 509.837 676.996 506.907C676.996 504.024 679.34 501.915 682.598 501.938ZM682.598 504.118C680.77 504.118 679.48 505.196 679.48 506.907C679.48 508.595 680.77 509.72 682.598 509.72C684.379 509.72 685.645 508.595 685.668 506.907C685.645 505.196 684.379 504.118 682.598 504.118ZM683.066 513.353V515.603H691.855V513.353H694.457V521.931H680.488V513.353H683.066ZM683.066 519.821H691.855V517.618H683.066V519.821ZM722.512 517.454V519.634H703.152V517.454H722.512ZM720.824 502.97V505.056H717.73V511.806H720.754V513.868H704.816V511.806H707.793V505.056H704.746V502.97H720.824ZM710.395 511.806H715.152V505.056H710.395V511.806ZM743.254 517.571V519.728H723.895V517.571H732.238V514.126H726.191V507.188H738.379V504.563H726.145V502.454H740.957V509.251H728.793V511.993H741.449V514.126H734.816V517.571H743.254ZM751.246 506.556C751.246 509.978 752.441 513.54 755.301 515.345L753.871 517.337C751.961 516.188 750.719 514.208 750.027 511.876C749.254 514.442 747.895 516.61 745.902 517.829L744.285 515.884C747.355 514.009 748.738 510.282 748.738 506.673V502.876H751.246V506.556ZM762.918 501.001V522.188H760.41V501.001H762.918ZM758.512 501.376V521.157H756.051V510.446H753.027V508.29H756.051V501.376H758.512ZM776.324 503.907C776.324 507.188 779.535 510.47 783.965 511.243L782.793 513.423C779.242 512.673 776.336 510.528 774.965 507.681C773.559 510.505 770.652 512.661 767.113 513.423L765.965 511.243C770.348 510.446 773.535 507.165 773.559 503.907V502.337H776.324V503.907ZM784.738 517.337V519.493H765.379V517.337H784.738ZM803.652 502.571V503.837C803.629 505.29 803.629 507.376 803.137 510.071L800.559 509.837C800.969 507.646 801.051 506.028 801.098 504.728H792.848V502.571H803.652ZM798.309 507.399V511.618C800.5 511.536 802.75 511.372 804.801 511.079L804.941 512.954C800.535 513.751 795.543 513.821 791.816 513.845L791.582 511.759C792.836 511.747 794.242 511.735 795.73 511.712V507.399H798.309ZM808.715 501.001V507.61H811.457V509.79H808.715V516.868H806.043V501.001H808.715ZM809.395 519.657V521.767H794.746V515.462H797.371V519.657H809.395ZM830.207 501.001V522.212H827.629V501.001H830.207ZM823.691 502.853V510.798H816.402V515.063C819.742 515.04 822.625 514.876 825.918 514.313L826.152 516.446C822.543 517.079 819.379 517.196 815.582 517.196H813.73V508.735H821.043V504.962H813.707V502.853H823.691ZM850.293 502.313V511.126H840.074V502.313H850.293ZM842.652 504.376V509.087H847.715V504.376H842.652ZM856.598 501.001V513.071H854.02V501.001H856.598ZM857.043 514.313V516.282H850.996C851.242 517.923 853.785 519.728 857.84 520.126L856.949 522.118C853.516 521.767 850.914 520.407 849.637 518.649C848.312 520.431 845.688 521.743 842.23 522.118L841.34 520.126C845.395 519.774 847.996 517.97 848.23 516.282H842.207V514.313H848.301V512.462H850.926V514.313H857.043ZM676.188 531.946V534.103C676.188 536.728 676.188 539.587 675.414 543.735L672.859 543.478C673.586 539.563 673.586 536.657 673.586 534.103V534.032H660.766V531.946H676.188ZM678.133 546.313V548.446H658.82V546.313H663.156V539.563H665.758V546.313H668.453V539.563H671.008V546.313H678.133ZM698.875 540.009V542.095H694.047V544.298H696.508V551.188H693.906V546.337H681.695V544.298H684.32V542.095H679.562V540.009H698.875ZM689.195 530.446C693.836 530.446 696.812 532.017 696.836 534.571C696.812 537.149 693.836 538.72 689.195 538.72C684.555 538.72 681.555 537.149 681.555 534.571C681.555 532.017 684.555 530.446 689.195 530.446ZM689.195 532.485C686.102 532.485 684.25 533.235 684.273 534.571C684.25 535.954 686.102 536.704 689.195 536.704C692.289 536.704 694.141 535.954 694.141 534.571C694.141 533.235 692.289 532.485 689.195 532.485ZM686.922 544.298H691.469V542.095H686.922V544.298ZM709.938 530.329C714.766 530.329 717.555 531.618 717.578 533.962C717.555 536.329 714.766 537.595 709.938 537.618C705.109 537.595 702.297 536.329 702.297 533.962C702.297 531.618 705.109 530.329 709.938 530.329ZM709.938 532.251C706.703 532.251 705.016 532.86 705.039 533.962C705.016 535.134 706.703 535.673 709.938 535.673C713.219 535.673 714.883 535.134 714.883 533.962C714.883 532.86 713.219 532.251 709.938 532.251ZM719.617 538.743V540.829H700.305V538.743H719.617ZM717.203 542.259V547.438H705.156V549.009H717.789V551.001H702.602V545.587H714.648V544.181H702.578V542.259H717.203ZM746.055 541.017V543.079H726.695V541.017H735.062V539.446H729.18V530.563H743.734V532.579H731.781V534.032H743.219V535.954H731.781V537.454H743.898V539.446H737.664V541.017H746.055ZM736.375 544.251C741.039 544.251 743.688 545.493 743.711 547.696C743.688 549.97 741.039 551.165 736.375 551.165C731.641 551.165 728.992 549.97 728.992 547.696C728.992 545.493 731.641 544.251 736.375 544.251ZM736.375 546.196C733.188 546.196 731.594 546.688 731.594 547.696C731.594 548.728 733.188 549.22 736.375 549.22C739.516 549.22 741.086 548.728 741.109 547.696C741.086 546.688 739.516 546.196 736.375 546.196ZM764.195 530.024V536.681H767.148V538.837H764.195V545.845H761.594V530.024H764.195ZM760.07 532.368V534.454H747.508V532.368H752.5V530.001H755.102V532.368H760.07ZM753.789 535.321C756.836 535.321 758.945 536.938 758.969 539.376C758.945 541.79 756.836 543.384 753.789 543.384C750.719 543.384 748.586 541.79 748.586 539.376C748.586 536.938 750.719 535.321 753.789 535.321ZM753.789 537.337C752.172 537.337 751.117 538.087 751.117 539.376C751.117 540.642 752.172 541.392 753.789 541.368C755.406 541.392 756.484 540.642 756.484 539.376C756.484 538.087 755.406 537.337 753.789 537.337ZM765.039 548.657V550.767H750.625V544.603H753.227V548.657H765.039ZM779.008 530.329V531.993H788.148V530.329H790.727V537.384H776.43V530.329H779.008ZM779.008 535.438H788.148V533.892H779.008V535.438ZM793.234 538.696V540.829H784.844V542.399H790.82V547.532H778.773V549.009H791.406V551.001H776.219V545.704H788.266V544.321H776.195V542.399H782.242V540.829H773.922V538.696H793.234ZM814.352 533.024V535.181H811.375V537.478H814.352V539.657H811.375V542.821H808.773V530.024H811.375V533.024H814.352ZM805.141 531.313V537.407H798.086V539.634C801.684 539.61 804.145 539.481 807.039 539.001L807.32 541.087C804.156 541.649 801.414 541.79 797.219 541.767H795.484V535.438H802.586V533.376H795.461V531.313H805.141ZM804.461 543.22C808.82 543.243 811.562 544.72 811.586 547.228C811.562 549.712 808.82 551.142 804.461 551.142C800.008 551.142 797.289 549.712 797.289 547.228C797.289 544.72 800.008 543.243 804.461 543.22ZM804.461 545.259C801.508 545.259 799.82 545.962 799.844 547.228C799.82 548.493 801.508 549.173 804.461 549.173C807.391 549.173 809.008 548.493 809.008 547.228C809.008 545.962 807.391 545.259 804.461 545.259ZM829.445 541.345V544.767C831.285 544.673 833.137 544.509 834.883 544.251L835.094 546.173C830.336 547.04 825.25 547.087 821.523 547.087L821.195 544.978C822.848 544.966 824.793 544.954 826.844 544.884V541.345H829.445ZM834.016 532.603V534.712H829.492C829.609 536.974 831.402 539.013 834.602 539.821L833.406 541.86C830.898 541.181 829.105 539.716 828.156 537.829C827.219 539.821 825.449 541.345 822.93 542.024L821.688 540.056C824.887 539.177 826.645 537.091 826.797 534.712H822.32V532.603H826.844V530.188H829.445V532.603H834.016ZM838.75 530.001V551.212H836.148V530.001H838.75ZM861.203 546.454V548.563H841.844V546.454H850.141V541.556H852.719V546.454H861.203ZM852.789 532.837C852.789 536.048 856 539.212 860.453 539.915L859.328 542.071C855.742 541.392 852.812 539.341 851.406 536.563C850 539.329 847.094 541.415 843.531 542.071L842.406 539.915C846.836 539.212 850 536.024 850.023 532.837V531.29H852.789V532.837Z" fill="#F5F5F5"/>
<rect x="916" y="456.103" width="272" height="140" rx="20" fill="#1A4F8C"/>
<path d="M973.004 513.329V515.392H964.566V522.188H961.988V515.392H953.645V513.329H973.004ZM958.566 501.845V504.446H968.035V501.845H970.66V511.126H955.988V501.845H958.566ZM958.566 509.017H968.035V506.509H958.566V509.017ZM982.238 506.087C982.238 510.024 984.113 513.892 987.488 515.368L985.918 517.454C983.516 516.282 981.828 514.032 980.926 511.267C980 514.185 978.277 516.61 975.84 517.853L974.199 515.743C977.645 514.126 979.566 510.048 979.59 506.087V502.712H982.238V506.087ZM992.176 501.001V522.212H989.598V509.954H985.145V507.845H989.598V501.001H992.176ZM1012.89 501.001V511.946H1010.29V509.649H1006.03V511.267H996.113V501.938H998.715V504.61H1003.45V501.938H1006.03V503.813H1010.29V501.001H1012.89ZM1012.89 512.813V518.251H1001.55V519.868H1013.57V521.931H998.949V516.329H1010.29V514.853H998.926V512.813H1012.89ZM998.715 509.204H1003.45V506.603H998.715V509.204ZM1006.03 507.657H1010.29V505.782H1006.03V507.657ZM1040.9 510.728V512.837H1032.51V514.595C1036.31 514.853 1038.54 516.165 1038.56 518.368C1038.54 520.806 1035.79 522.165 1031.22 522.165C1026.61 522.165 1023.84 520.806 1023.84 518.368C1023.84 516.165 1026.09 514.841 1029.93 514.595V512.837H1021.59V510.728H1040.9ZM1031.22 516.563C1028.13 516.587 1026.46 517.196 1026.49 518.368C1026.46 519.54 1028.13 520.173 1031.22 520.173C1034.25 520.173 1035.93 519.54 1035.96 518.368C1035.93 517.196 1034.25 516.587 1031.22 516.563ZM1039.17 501.938V504.024H1033.07C1033.48 505.771 1036.02 507.341 1039.99 507.704L1039.07 509.767C1035.23 509.38 1032.37 507.845 1031.22 505.688C1030.07 507.833 1027.26 509.38 1023.42 509.767L1022.53 507.704C1026.42 507.341 1028.95 505.747 1029.39 504.024H1023.35V501.938H1039.17ZM1061.64 511.665V513.751H1042.33V511.665H1050.65V509.626H1044.84V501.517H1047.42V503.626H1056.56V501.517H1059.14V509.626H1053.28V511.665H1061.64ZM1059.28 515.438V522.188H1056.68V517.501H1044.46V515.438H1059.28ZM1047.42 507.54H1056.56V505.571H1047.42V507.54ZM1068.96 501.938C1071.7 501.915 1073.86 503.497 1074.39 505.829H1078.21V501.001H1080.82V512.368H1078.21V507.938H1074.42C1073.89 510.317 1071.71 511.923 1068.96 511.923C1065.7 511.923 1063.36 509.837 1063.36 506.907C1063.36 504.024 1065.7 501.915 1068.96 501.938ZM1068.96 504.118C1067.13 504.118 1065.84 505.196 1065.84 506.907C1065.84 508.595 1067.13 509.72 1068.96 509.72C1070.74 509.72 1072 508.595 1072.03 506.907C1072 505.196 1070.74 504.118 1068.96 504.118ZM1069.43 513.353V515.603H1078.21V513.353H1080.82V521.931H1066.85V513.353H1069.43ZM1069.43 519.821H1078.21V517.618H1069.43V519.821ZM1103.15 513.001V515.11H1094.71V522.165H1092.14V515.11H1083.79V513.001H1103.15ZM1100.79 502.079V510.517H1086.16V502.079H1100.79ZM1088.71 504.165V508.478H1098.18V504.165H1088.71ZM1113.37 502.946V507.845H1116.82V502.946H1119.23V517.056H1110.91V502.946H1113.37ZM1113.37 514.946H1116.82V509.907H1113.37V514.946ZM1128.54 501.001V522.188H1126.03V511.337H1123.78V521.157H1121.32V501.376H1123.78V509.181H1126.03V501.001H1128.54ZM1149.23 501.001V522.188H1146.75V501.001H1149.23ZM1144.92 501.399V521.157H1142.46V510.493H1139.41V508.384H1142.46V501.399H1144.92ZM1137.54 506.79C1137.54 510.376 1138.82 513.962 1141.85 515.696L1140.3 517.618C1138.34 516.446 1137.04 514.431 1136.32 512.017C1135.57 514.63 1134.22 516.856 1132.21 518.11L1130.62 516.165C1133.69 514.313 1135.03 510.47 1135.03 506.79V505.384H1131.35V503.274H1140.96V505.384H1137.54V506.79ZM993.969 530.001V535.954H996.945V538.11H993.969V545.329H991.367V530.001H993.969ZM987.641 531.759V533.845H980.727V539.61C984.711 539.622 986.926 539.481 989.445 538.954L989.727 541.063C986.961 541.603 984.477 541.743 979.859 541.743H978.148V531.759H987.641ZM994.812 548.657V550.767H980.398V543.712H983V548.657H994.812ZM1008.99 531.36C1008.99 533.868 1011.92 536.446 1016.26 537.056L1015.27 539.118C1011.79 538.579 1009.02 536.892 1007.68 534.618C1006.31 536.927 1003.52 538.626 1000.04 539.165L999.055 537.126C1003.37 536.47 1006.3 533.938 1006.32 531.36V530.54H1008.99V531.36ZM1017.34 540.524V542.634H1009.16V546.501H1006.58V542.634H997.977V540.524H1017.34ZM1015.2 548.657V550.767H1000.32V544.603H1002.92V548.657H1015.2ZM1024.62 530.938C1027.37 530.915 1029.52 532.497 1030.06 534.829H1033.88V530.001H1036.48V541.368H1033.88V536.938H1030.09C1029.56 539.317 1027.38 540.923 1024.62 540.923C1021.37 540.923 1019.02 538.837 1019.02 535.907C1019.02 533.024 1021.37 530.915 1024.62 530.938ZM1024.62 533.118C1022.8 533.118 1021.51 534.196 1021.51 535.907C1021.51 537.595 1022.8 538.72 1024.62 538.72C1026.41 538.72 1027.67 537.595 1027.7 535.907C1027.67 534.196 1026.41 533.118 1024.62 533.118ZM1025.09 542.353V544.603H1033.88V542.353H1036.48V550.931H1022.52V542.353H1025.09ZM1025.09 548.821H1033.88V546.618H1025.09V548.821ZM1058.82 542.001V544.11H1050.38V551.165H1047.8V544.11H1039.46V542.001H1058.82ZM1056.45 531.079V539.517H1041.83V531.079H1056.45ZM1044.38 533.165V537.478H1053.85V533.165H1044.38ZM1073.52 536.024C1073.52 539.306 1075.46 543.032 1078.81 544.579L1077.36 546.642C1074.97 545.517 1073.2 543.243 1072.25 540.595C1071.29 543.501 1069.44 545.985 1067 547.157L1065.48 545.118C1068.85 543.524 1070.89 539.54 1070.91 536.024V534.243H1066.3V532.087H1077.95V534.243H1073.52V536.024ZM1082.52 530.001V538.251H1085.77V540.431H1082.52V551.188H1079.91V530.001H1082.52ZM1106 540.149V542.235H1086.66V540.149H1095.05V538.134H1089.03V530.962H1103.66V533.001H1091.63V536.071H1103.77V538.134H1097.61V540.149H1106ZM1096.3 543.454C1100.87 543.454 1103.61 544.837 1103.63 547.321C1103.61 549.782 1100.87 551.188 1096.3 551.188C1091.68 551.188 1088.91 549.782 1088.91 547.321C1088.91 544.837 1091.68 543.454 1096.3 543.454ZM1096.3 545.446C1093.2 545.446 1091.54 546.103 1091.56 547.321C1091.54 548.54 1093.2 549.173 1096.3 549.173C1099.32 549.173 1101.01 548.54 1101.03 547.321C1101.01 546.103 1099.32 545.446 1096.3 545.446ZM1124.16 530.001V538.743H1127.14V540.923H1124.16V551.188H1121.54V530.001H1124.16ZM1107.15 545.306C1108.75 545.306 1110.62 545.306 1112.56 545.259V543.267C1110.25 542.88 1108.74 541.427 1108.77 539.446C1108.74 537.056 1110.85 535.462 1113.9 535.462C1116.9 535.462 1119.03 537.056 1119.05 539.446C1119.03 541.438 1117.5 542.892 1115.19 543.267V545.165C1116.97 545.071 1118.75 544.931 1120.41 544.696L1120.58 546.595C1116.03 547.415 1111.13 547.462 1107.52 547.462L1107.15 545.306ZM1120.18 532.438V534.501H1107.55V532.438H1112.56V530.095H1115.19V532.438H1120.18ZM1113.9 537.454C1112.28 537.478 1111.23 538.204 1111.23 539.446C1111.23 540.665 1112.28 541.392 1113.9 541.368C1115.49 541.392 1116.55 540.665 1116.55 539.446C1116.55 538.204 1115.49 537.478 1113.9 537.454Z" fill="#F5F5F5"/>
<rect x="1208" y="456.103" width="272" height="140" rx="20" fill="#0D3768"/>
<path d="M1270.84 501.024V516.329H1268.21V501.024H1270.84ZM1271.43 519.657V521.767H1256.82V514.782H1259.45V519.657H1271.43ZM1259.29 502.407C1262.5 502.407 1264.98 504.634 1264.98 507.704C1264.98 510.845 1262.5 513.024 1259.29 513.024C1256.05 513.024 1253.57 510.845 1253.57 507.704C1253.57 504.634 1256.05 502.407 1259.29 502.407ZM1259.29 504.681C1257.48 504.681 1256.1 505.876 1256.12 507.704C1256.1 509.579 1257.48 510.751 1259.29 510.751C1261.04 510.751 1262.43 509.579 1262.43 507.704C1262.43 505.876 1261.04 504.681 1259.29 504.681ZM1281.71 504.634C1281.71 507.212 1283.43 509.813 1286.71 510.915L1285.39 512.931C1283.03 512.157 1281.35 510.552 1280.43 508.571C1279.5 510.786 1277.73 512.567 1275.22 513.399L1273.89 511.337C1277.26 510.235 1279.07 507.423 1279.07 504.657V504.376H1274.66V502.29H1286.1V504.376H1281.71V504.634ZM1291.68 514.642V522.188H1289.07V516.728H1277.24V514.642H1291.68ZM1291.68 501.001V513.634H1289.07V508.384H1285.46V506.251H1289.07V501.001H1291.68ZM1319.68 509.603V511.665H1311.29V513.259H1317.27V518.462H1305.22V520.009H1317.86V522.001H1302.67V516.587H1314.71V515.228H1302.64V513.259H1308.69V511.665H1300.37V509.603H1319.68ZM1317.2 501.657V508.267H1302.81V501.657H1317.2ZM1305.36 503.696V506.228H1314.6V503.696H1305.36ZM1328.89 504.634C1328.89 507.212 1330.61 509.813 1333.89 510.915L1332.57 512.931C1330.21 512.157 1328.53 510.552 1327.61 508.571C1326.68 510.786 1324.91 512.567 1322.4 513.399L1321.07 511.337C1324.44 510.235 1326.25 507.423 1326.25 504.657V504.376H1321.84V502.29H1333.28V504.376H1328.89V504.634ZM1338.86 514.642V522.188H1336.25V516.728H1324.42V514.642H1338.86ZM1338.86 501.001V513.634H1336.25V508.384H1332.64V506.251H1336.25V501.001H1338.86ZM1355.14 507.024C1355.14 510.306 1357.09 514.032 1360.44 515.579L1358.99 517.642C1356.6 516.517 1354.83 514.243 1353.88 511.595C1352.92 514.501 1351.07 516.985 1348.63 518.157L1347.11 516.118C1350.48 514.524 1352.52 510.54 1352.54 507.024V505.243H1347.93V503.087H1359.57V505.243H1355.14V507.024ZM1364.14 501.001V509.251H1367.4V511.431H1364.14V522.188H1361.54V501.001H1364.14ZM1386.06 501.024V517.056H1383.43V515.204H1379.29V513.376H1383.43V501.024H1386.06ZM1386.55 519.657V521.767H1371.01V515.509H1373.61V519.657H1386.55ZM1368.2 510.54C1372.11 510.517 1377.36 510.47 1381.86 509.907L1382 511.782C1380.26 512.075 1378.45 512.274 1376.66 512.392V516.47H1374.06V512.532C1372.08 512.614 1370.19 512.626 1368.53 512.626L1368.2 510.54ZM1375.11 501.798C1378.21 501.798 1380.36 503.321 1380.39 505.548C1380.36 507.821 1378.21 509.274 1375.11 509.274C1371.97 509.274 1369.82 507.821 1369.82 505.548C1369.82 503.321 1371.97 501.798 1375.11 501.798ZM1375.11 503.72C1373.43 503.72 1372.28 504.399 1372.28 505.548C1372.28 506.696 1373.43 507.376 1375.11 507.376C1376.73 507.376 1377.88 506.696 1377.9 505.548C1377.88 504.399 1376.73 503.72 1375.11 503.72ZM1412.47 501.001V513.587H1409.87V508.407H1406.26V506.274H1409.87V501.001H1412.47ZM1405.3 514.126C1409.8 514.126 1412.54 515.603 1412.54 518.157C1412.54 520.712 1409.8 522.188 1405.3 522.188C1400.82 522.188 1398.08 520.712 1398.11 518.157C1398.08 515.603 1400.82 514.126 1405.3 514.126ZM1405.3 516.118C1402.35 516.118 1400.68 516.821 1400.68 518.157C1400.68 519.47 1402.35 520.173 1405.3 520.173C1408.25 520.173 1409.94 519.47 1409.94 518.157C1409.94 516.821 1408.25 516.118 1405.3 516.118ZM1402.51 504.634C1402.51 507.212 1404.22 509.813 1407.5 510.915L1406.19 512.978C1403.84 512.181 1402.16 510.563 1401.25 508.571C1400.31 510.833 1398.54 512.638 1396.02 513.54L1394.66 511.478C1398.06 510.306 1399.86 507.446 1399.86 504.657V504.493H1395.46V502.384H1406.89V504.493H1402.51V504.634ZM1434.83 517.501V519.634H1415.47V517.501H1423.82V513.376H1417.61V502.407H1420.21V505.876H1430.03V502.407H1432.63V513.376H1426.39V517.501H1434.83ZM1420.21 511.267H1430.03V507.962H1420.21V511.267ZM1284.01 530.001V540.806H1281.43V530.001H1284.01ZM1284.06 541.79V547.298H1272.6V548.938H1284.69V551.001H1270.04V545.353H1281.46V543.806H1270V541.79H1284.06ZM1274.31 532.157C1274.31 534.853 1276.09 537.384 1279.44 538.392L1278.18 540.407C1275.71 539.657 1273.96 538.075 1273 536.048C1272.04 538.251 1270.23 539.974 1267.7 540.782L1266.39 538.743C1269.81 537.642 1271.61 534.923 1271.61 532.157V530.517H1274.31V532.157ZM1295.17 535.087C1295.14 538.978 1297.18 542.868 1300.63 544.345L1299.08 546.431C1296.64 545.306 1294.85 543.056 1293.88 540.29C1292.91 543.278 1291.09 545.716 1288.51 546.923L1286.92 544.743C1290.46 543.22 1292.52 539.165 1292.52 535.087V531.712H1295.17V535.087ZM1304.78 530.001V551.212H1302.15V530.001H1304.78ZM1324.61 530.001V536.095H1327.56V538.274H1324.61V545.282H1321.96V530.001H1324.61ZM1318.84 531.618C1318.84 537.243 1315.18 541.251 1308.9 543.079L1307.82 541.017C1312.66 539.622 1315.55 536.985 1316 533.751H1308.71V531.618H1318.84ZM1325.4 548.657V550.767H1310.99V543.712H1313.64V548.657H1325.4ZM1341.2 531.478C1344.55 531.454 1347.01 533.587 1347.04 536.587C1347.01 539.61 1344.55 541.72 1341.2 541.72C1337.87 541.72 1335.39 539.61 1335.39 536.587C1335.39 533.587 1337.87 531.454 1341.2 531.478ZM1341.2 533.728C1339.35 533.728 1337.96 534.829 1337.96 536.587C1337.96 538.368 1339.35 539.446 1341.2 539.446C1343.07 539.446 1344.48 538.368 1344.48 536.587C1344.48 534.829 1343.07 533.728 1341.2 533.728ZM1351.98 530.001V551.212H1349.38V530.001H1351.98ZM1334.43 544.649C1338.25 544.649 1343.54 544.603 1348.11 543.946L1348.32 545.845C1343.57 546.759 1338.48 546.782 1334.75 546.782L1334.43 544.649ZM1362.64 535.087C1362.62 538.86 1364.52 542.704 1367.8 544.274L1366.21 546.36C1363.91 545.2 1362.26 542.962 1361.36 540.267C1360.43 543.149 1358.7 545.54 1356.27 546.759L1354.68 544.673C1358.07 543.056 1360.02 539.001 1360.04 535.087V531.712H1362.64V535.087ZM1371.67 530.001V538.298H1374.93V540.524H1371.67V551.188H1369.07V530.001H1371.67ZM1399.25 530.001V540.735H1396.65V538.884H1391.54V536.892H1396.65V534.806H1391.82C1390.49 538.04 1387.39 540.149 1382.71 541.204L1381.79 539.071C1386.77 538.04 1389.26 535.849 1389.62 533.024H1382.96V530.915H1392.53C1392.53 531.583 1392.47 532.216 1392.39 532.813H1396.65V530.001H1399.25ZM1399.25 541.556V547.134H1387.93V548.892H1399.82V550.978H1385.33V545.188H1396.65V543.618H1385.31V541.556H1399.25ZM1420 530.001V542.587H1417.39V537.407H1413.79V535.274H1417.39V530.001H1420ZM1412.82 543.126C1417.32 543.126 1420.07 544.603 1420.07 547.157C1420.07 549.712 1417.32 551.188 1412.82 551.188C1408.35 551.188 1405.61 549.712 1405.63 547.157C1405.61 544.603 1408.35 543.126 1412.82 543.126ZM1412.82 545.118C1409.87 545.118 1408.21 545.821 1408.21 547.157C1408.21 548.47 1409.87 549.173 1412.82 549.173C1415.78 549.173 1417.46 548.47 1417.46 547.157C1417.46 545.821 1415.78 545.118 1412.82 545.118ZM1410.04 533.634C1410.04 536.212 1411.75 538.813 1415.03 539.915L1413.71 541.978C1411.36 541.181 1409.68 539.563 1408.77 537.571C1407.83 539.833 1406.06 541.638 1403.54 542.54L1402.18 540.478C1405.58 539.306 1407.39 536.446 1407.39 533.657V533.493H1402.98V531.384H1414.42V533.493H1410.04V533.634Z" fill="#F5F5F5"/>
<defs>
<linearGradient id="paint0_linear_89_1210" x1="679.874" y1="220.103" x2="880.928" y2="274.055" gradientUnits="userSpaceOnUse">
<stop stop-color="#1A4F8C"/>
<stop offset="1" stop-color="#00C2FF"/>
</linearGradient>
</defs>
</svg>
