<svg width="1320" height="186" viewBox="0 0 1320 186" fill="none" xmlns="http://www.w3.org/2000/svg">
<rect x="1" y="1" width="215" height="184" rx="9" fill="white"/>
<rect x="1" y="1" width="215" height="184" rx="9" stroke="#0D3768" stroke-width="2"/>
<path d="M75.6055 86H71.8047L78.7773 66.2031H83.1523L90.1523 86H86.3516L84.7109 81.1055H77.2461L75.6055 86ZM78.2031 78.2344H83.7539L81.0469 70.25H80.8828L78.2031 78.2344ZM102.977 71.6445C102.812 69.9492 101.363 68.9648 99.2305 68.9648C96.9883 68.9648 95.6211 70.0586 95.6211 71.5352C95.6211 73.2031 97.3711 73.8867 99.0117 74.2695L100.871 74.7617C103.824 75.4453 106.668 77.0039 106.668 80.4492C106.668 83.9219 103.934 86.3008 99.1758 86.3008C94.5547 86.3008 91.6562 84.0859 91.4922 80.1758H94.9922C95.1562 82.2539 96.9062 83.2656 99.1484 83.2656C101.5 83.2656 103.113 82.1172 103.113 80.4219C103.113 78.8633 101.664 78.207 99.5312 77.6602L97.2891 77.0859C94.0352 76.2383 92.0117 74.5977 92.0117 71.7539C92.0117 68.2539 95.1289 65.9297 99.2852 65.9297C103.496 65.9297 106.34 68.3086 106.395 71.6445H102.977ZM119.82 66.2031V86H116.266V66.2031H119.82ZM134.285 71.6445C134.121 69.9492 132.672 68.9648 130.539 68.9648C128.297 68.9648 126.93 70.0586 126.93 71.5352C126.93 73.2031 128.68 73.8867 130.32 74.2695L132.18 74.7617C135.133 75.4453 137.977 77.0039 137.977 80.4492C137.977 83.9219 135.242 86.3008 130.484 86.3008C125.863 86.3008 122.965 84.0859 122.801 80.1758H126.301C126.465 82.2539 128.215 83.2656 130.457 83.2656C132.809 83.2656 134.422 82.1172 134.422 80.4219C134.422 78.8633 132.973 78.207 130.84 77.6602L128.598 77.0859C125.344 76.2383 123.32 74.5977 123.32 71.7539C123.32 68.2539 126.438 65.9297 130.594 65.9297C134.805 65.9297 137.648 68.3086 137.703 71.6445H134.285ZM81.6211 96.7422V115.555H78.5859V110.688H74.9219V108.254H78.5859V105.492H74.9219V103.031H78.5859V96.7422H81.6211ZM74.7852 99.4766V101.91H60.9766V99.4766H66.5V96.7148H69.5352V99.4766H74.7852ZM67.9766 102.922C71.3398 102.922 73.7461 104.891 73.7734 107.734C73.7461 110.578 71.3398 112.547 67.9766 112.547C64.6406 112.547 62.2344 110.578 62.2617 107.734C62.2344 104.891 64.6406 102.922 67.9766 102.922ZM67.9766 105.301C66.2812 105.328 65.0781 106.23 65.1055 107.734C65.0781 109.293 66.2812 110.195 67.9766 110.195C69.6719 110.195 70.9023 109.293 70.9023 107.734C70.9023 106.23 69.6719 105.328 67.9766 105.301ZM82.168 118.48V120.941H65.3242V113.941H68.4141V118.48H82.168ZM104.699 96.7422V103.906H108.035V106.395H104.699V113.449H101.664V96.7422H104.699ZM96.5234 113.668C101.773 113.668 104.809 115.062 104.836 117.578C104.809 120.094 101.773 121.434 96.5234 121.434C91.1914 121.434 88.1836 120.094 88.1836 117.578C88.1836 115.062 91.1914 113.668 96.5234 113.668ZM96.5234 115.91C92.9688 115.883 91.2188 116.457 91.2188 117.578C91.2188 118.617 92.9688 119.191 96.5234 119.191C100.023 119.191 101.746 118.617 101.773 117.578C101.746 116.457 100.023 115.883 96.5234 115.91ZM84.9023 110.277C86.7754 110.277 88.9082 110.277 91.1367 110.195V108.582C88.3613 108.268 86.6523 107.01 86.6523 105.137C86.6523 102.949 88.9766 101.609 92.6133 101.609C96.25 101.609 98.5742 102.949 98.5742 105.137C98.5742 106.996 96.9062 108.24 94.1719 108.555V110.086C96.2773 109.99 98.3965 109.812 100.379 109.539L100.625 111.645C95.3477 112.547 89.6055 112.629 85.2305 112.629L84.9023 110.277ZM99.7227 98.6289V100.871H85.5312V98.6289H91.1367V96.5234H94.1719V98.6289H99.7227ZM92.6133 103.633C90.6992 103.633 89.5508 104.207 89.5781 105.137C89.5508 106.121 90.6992 106.668 92.6133 106.668C94.5273 106.668 95.6758 106.121 95.6758 105.137C95.6758 104.207 94.5273 103.633 92.6133 103.633ZM131.879 109.512V111.945H122.336V116.211H119.328V111.945H109.293V109.512H131.879ZM129.391 118.48V120.941H112.027V114.133H115.035V118.48H129.391ZM115.254 97.5078V100.297H125.918V97.5078H128.926V107.57H112.246V97.5078H115.254ZM115.254 105.164H125.918V102.566H115.254V105.164ZM142.488 100.625C142.488 103.797 144.484 106.832 148.285 108.062L146.645 110.496C143.965 109.553 142.051 107.68 141.012 105.301C139.904 107.898 137.895 109.936 135.051 110.961L133.41 108.527C137.43 107.188 139.426 103.961 139.426 100.434V98H142.488V100.625ZM154.219 112.602V121.434H151.184V115.008H137.375V112.602H154.219ZM154.219 96.7148V111.398H151.184V104.016H146.262V101.527H151.184V96.7148H154.219Z" fill="#0D3768"/>
<g clip-path="url(#clip0_21_1737)">
<path d="M258.138 91.75H243.125V94.25H258.138V98L263.125 93L258.138 88V91.75Z" fill="#ACACAC"/>
</g>
<rect x="290.25" y="1" width="215" height="184" rx="9" fill="white"/>
<rect x="290.25" y="1" width="215" height="184" rx="9" stroke="#1A4F8C" stroke-width="2"/>
<path d="M353.371 69.1836V66.2031H369.148V69.1836H363.051V86H359.496V69.1836H353.371ZM388.727 76.1016C388.727 82.5 384.844 86.2734 379.648 86.2734C374.453 86.2734 370.57 82.4727 370.57 76.1016C370.57 69.7031 374.453 65.9297 379.648 65.9297C384.844 65.9297 388.727 69.7031 388.727 76.1016ZM385.145 76.1016C385.145 71.5898 382.875 69.1289 379.648 69.1289C376.422 69.1289 374.152 71.5898 374.152 76.1016C374.152 80.6133 376.422 83.0742 379.648 83.0742C382.875 83.0742 385.145 80.6133 385.145 76.1016ZM400.73 74.6797V77.5508H391.816V74.6797H400.73ZM404.312 86V66.2031H411.887C416.18 66.2031 418.312 68.3906 418.312 71.3438C418.312 73.75 416.781 75.0898 414.84 75.5547V75.7461C416.945 75.8555 419.078 77.6055 419.078 80.6133C419.078 83.7031 416.863 86 412.324 86H404.312ZM411.777 83.0195C414.375 83.0195 415.469 81.8984 415.469 80.3398C415.469 78.5625 414.074 77.1953 411.859 77.1953H407.867V83.0195H411.777ZM411.449 74.625C413.336 74.625 414.758 73.5312 414.758 71.7812C414.758 70.25 413.664 69.1562 411.531 69.1562H407.867V74.625H411.449ZM421.977 86V66.2031H434.855V69.1836H425.531V74.5977H434.172V77.5781H425.531V82.9922H434.91V86H421.977ZM370.871 96.7422V114.789H367.836V105.738H363.461V103.277H367.836V96.7422H370.871ZM371.5 118.48V120.941H354.656V113.203H357.691V118.48H371.5ZM359.25 101.664C359.25 104.645 361.246 107.707 365.074 108.965L363.543 111.398C360.781 110.455 358.826 108.582 357.746 106.23C356.652 108.842 354.588 110.906 351.676 111.918L350.117 109.457C354.055 108.172 356.16 104.918 356.16 101.637V100.98H351.02V98.5195H364.363V100.98H359.25V101.664ZM397.312 100.324V102.812H393.867V105.574H397.312V108.062H393.867V111.754H390.832V96.7422H393.867V100.324H397.312ZM386.594 98.1367V105.465H378.363V108.227C382.561 108.213 385.432 108.076 388.809 107.488L389.137 109.922C385.445 110.551 382.246 110.715 377.352 110.715H375.328V103.113H383.613V100.598H375.301V98.1367H386.594ZM393.867 112.93V121.406H390.832V115.363H377.406V112.93H393.867ZM411.449 98.7656C411.449 101.883 414.922 105.027 420.199 105.711L418.996 108.172C414.799 107.543 411.463 105.479 409.863 102.676C408.236 105.479 404.914 107.543 400.758 108.172L399.555 105.711C404.777 105.027 408.25 101.883 408.25 98.7656V97.5078H411.449V98.7656ZM421.102 110.305V112.82H411.285V121.434H408.277V112.82H398.57V110.305H421.102ZM443.359 96.7422V110.441H440.297V96.7422H443.359ZM435.43 97.8633V105H427.062V107.488C431.301 107.447 434.295 107.365 437.836 106.777L438.219 109.238C434.309 109.867 430.973 109.977 426.188 109.977H424.082V102.676H432.422V100.324H424.027V97.8633H435.43ZM430.016 111.535V113.941H440.324V111.535H443.359V121.133H426.98V111.535H430.016ZM430.016 118.672H440.324V116.293H430.016V118.672Z" fill="#1A4F8C"/>
<g clip-path="url(#clip1_21_1737)">
<path d="M547.388 91.75H532.375V94.25H547.388V98L552.375 93L547.388 88V91.75Z" fill="#ACACAC"/>
</g>
<rect x="579.5" y="1" width="209" height="184" rx="9" fill="white"/>
<rect x="579.5" y="1" width="209" height="184" rx="9" stroke="#1A4F8C" stroke-width="2"/>
<path d="M639.621 69.1836V66.2031H655.398V69.1836H649.301V86H645.746V69.1836H639.621ZM674.977 76.1016C674.977 82.5 671.094 86.2734 665.898 86.2734C660.703 86.2734 656.82 82.4727 656.82 76.1016C656.82 69.7031 660.703 65.9297 665.898 65.9297C671.094 65.9297 674.977 69.7031 674.977 76.1016ZM671.395 76.1016C671.395 71.5898 669.125 69.1289 665.898 69.1289C662.672 69.1289 660.402 71.5898 660.402 76.1016C660.402 80.6133 662.672 83.0742 665.898 83.0742C669.125 83.0742 671.395 80.6133 671.395 76.1016ZM686.98 74.6797V77.5508H678.066V74.6797H686.98ZM690.562 86V66.2031H698.137C702.43 66.2031 704.562 68.3906 704.562 71.3438C704.562 73.75 703.031 75.0898 701.09 75.5547V75.7461C703.195 75.8555 705.328 77.6055 705.328 80.6133C705.328 83.7031 703.113 86 698.574 86H690.562ZM698.027 83.0195C700.625 83.0195 701.719 81.8984 701.719 80.3398C701.719 78.5625 700.324 77.1953 698.109 77.1953H694.117V83.0195H698.027ZM697.699 74.625C699.586 74.625 701.008 73.5312 701.008 71.7812C701.008 70.25 699.914 69.1562 697.781 69.1562H694.117V74.625H697.699ZM708.227 86V66.2031H721.105V69.1836H711.781V74.5977H720.422V77.5781H711.781V82.9922H721.16V86H708.227ZM681.32 96.7148V109.375H678.285V103.113H673.363V100.68H678.285V96.7148H681.32ZM681.32 110.441V116.84H668.059V118.727H682.113V121.133H665.078V114.57H678.312V112.82H665.051V110.441H681.32ZM669.59 99.5039C669.59 102.539 671.586 105.438 675.414 106.613L673.801 108.965C671.121 108.062 669.18 106.326 668.113 104.07C667.02 106.6 664.996 108.555 662.07 109.512L660.484 107.078C664.449 105.875 666.527 102.84 666.527 99.5039V97.5352H669.59V99.5039ZM706.148 96.7148V121.434H703.25V96.7148H706.148ZM701.035 97.3164V120.258H698.137V112H694.281V109.512H698.137V105.848H694.719C693.557 109.949 690.973 113.477 686.352 116.211L684.574 114.051C689.701 111.029 692.053 107.16 692.504 102.184H685.887V99.7227H695.512C695.512 100.967 695.43 102.184 695.266 103.359H698.137V97.3164H701.035Z" fill="#1A4F8C"/>
<g clip-path="url(#clip2_21_1737)">
<path d="M830.638 91.75H815.625V94.25H830.638V98L835.625 93L830.638 88V91.75Z" fill="#ACACAC"/>
</g>
<rect x="862.75" y="1" width="191" height="184" rx="9" fill="white"/>
<rect x="862.75" y="1" width="191" height="184" rx="9" stroke="#00C2FF" stroke-width="2"/>
<path d="M932.123 69.6484C932.096 74.1875 934.475 78.7266 938.494 80.4492L936.689 82.8828C933.846 81.5703 931.754 78.9453 930.619 75.7188C929.484 79.2051 927.365 82.0488 924.357 83.457L922.498 80.9141C926.627 79.1367 929.033 74.4062 929.033 69.6484V65.7109H932.123V69.6484ZM943.334 63.7148V88.4609H940.271V63.7148H943.334ZM959.74 67.1055C959.74 70.9336 963.486 74.7617 968.654 75.6641L967.287 78.207C963.145 77.332 959.754 74.8301 958.154 71.5078C956.514 74.8027 953.123 77.3184 948.994 78.207L947.654 75.6641C952.768 74.7344 956.486 70.9062 956.514 67.1055V65.2734H959.74V67.1055ZM969.557 82.7734V85.2891H946.971V82.7734H969.557ZM981.615 65.2461V67.707H975.135V70.0312H980.686V72.3828H975.135V74.9258C978.102 74.8984 980.139 74.7891 982.545 74.3516L982.873 76.7305C980.029 77.25 977.678 77.3594 973.85 77.3594H972.209V65.2461H981.615ZM992.307 63.7148V78.5078H989.408V63.7148H992.307ZM987.439 64.125V78.3164H984.541V72.2188H981.752V69.7578H984.541V64.125H987.439ZM992.307 79.5469V88.1328H975.627V79.5469H992.307ZM978.662 81.9531V85.6719H989.299V81.9531H978.662ZM954.641 98.2188V100.434C954.641 102.744 954.641 105.273 953.984 108.773H957.402V111.234H947.586V121.461H944.523V111.234H934.871V108.773H950.895C951.578 105.41 951.605 102.895 951.605 100.68H937.523V98.2188H954.641ZM981.602 108.965V111.398H971.812V113.75H978.84V121.379H975.805V116.184H961.559V113.75H968.805V111.398H959.07V108.965H981.602ZM971.812 96.6875V99.0391H979.387V101.418H972.031C972.359 103.523 975.258 105.246 980.48 105.629L979.523 107.926C975.121 107.557 971.854 106.189 970.309 104.043C968.764 106.189 965.482 107.557 961.094 107.926L960.137 105.629C965.305 105.246 968.23 103.523 968.586 101.418H961.285V99.0391H968.805V96.6875H971.812Z" fill="#00C2FF"/>
<g clip-path="url(#clip3_21_1737)">
<path d="M1095.89 91.75H1080.88V94.25H1095.89V98L1100.88 93L1095.89 88V91.75Z" fill="#ACACAC"/>
</g>
<rect x="1127" width="193" height="186" rx="10" fill="#00C2FF"/>
<path d="M1197.37 69.6484C1197.35 74.1875 1199.72 78.7266 1203.74 80.4492L1201.94 82.8828C1199.1 81.5703 1197 78.9453 1195.87 75.7188C1194.73 79.2051 1192.62 82.0488 1189.61 83.457L1187.75 80.9141C1191.88 79.1367 1194.28 74.4062 1194.28 69.6484V65.7109H1197.37V69.6484ZM1208.58 63.7148V88.4609H1205.52V63.7148H1208.58ZM1224.99 67.1055C1224.99 70.9336 1228.74 74.7617 1233.9 75.6641L1232.54 78.207C1228.39 77.332 1225 74.8301 1223.4 71.5078C1221.76 74.8027 1218.37 77.3184 1214.24 78.207L1212.9 75.6641C1218.02 74.7344 1221.74 70.9062 1221.76 67.1055V65.2734H1224.99V67.1055ZM1234.81 82.7734V85.2891H1212.22V82.7734H1234.81ZM1246.87 65.2461V67.707H1240.38V70.0312H1245.94V72.3828H1240.38V74.9258C1243.35 74.8984 1245.39 74.7891 1247.79 74.3516L1248.12 76.7305C1245.28 77.25 1242.93 77.3594 1239.1 77.3594H1237.46V65.2461H1246.87ZM1257.56 63.7148V78.5078H1254.66V63.7148H1257.56ZM1252.69 64.125V78.3164H1249.79V72.2188H1247V69.7578H1249.79V64.125H1252.69ZM1257.56 79.5469V88.1328H1240.88V79.5469H1257.56ZM1243.91 81.9531V85.6719H1254.55V81.9531H1243.91ZM1222.68 108.938V111.371H1213.14V115.91H1210.05V111.371H1200.09V108.938H1222.68ZM1220.19 118.453V120.941H1202.86V113.613H1205.92V118.453H1220.19ZM1211.36 97.2617C1216.69 97.2617 1220.22 99.2031 1220.22 102.32C1220.22 105.438 1216.69 107.352 1211.36 107.352C1206.03 107.352 1202.5 105.438 1202.5 102.32C1202.5 99.2031 1206.03 97.2617 1211.36 97.2617ZM1211.36 99.668C1207.97 99.668 1205.75 100.625 1205.78 102.32C1205.75 103.961 1207.97 104.918 1211.36 104.918C1214.78 104.918 1216.96 103.961 1216.96 102.32C1216.96 100.625 1214.78 99.668 1211.36 99.668ZM1231.18 98.1094C1233.18 98.1094 1234.9 98.8477 1236.08 100.078H1241.98V96.7148H1245.02V111.262H1241.98V108.117H1236.08C1234.9 109.348 1233.17 110.072 1231.18 110.059C1227.46 110.086 1224.65 107.57 1224.65 104.098C1224.65 100.598 1227.46 98.1094 1231.18 98.1094ZM1231.18 100.707C1229.05 100.707 1227.55 102.02 1227.55 104.098C1227.55 106.121 1229.05 107.488 1231.18 107.488C1233.23 107.488 1234.74 106.121 1234.77 104.098C1234.74 102.02 1233.23 100.707 1231.18 100.707ZM1236.65 111.781C1241.85 111.781 1245.1 113.559 1245.1 116.594C1245.1 119.629 1241.85 121.406 1236.65 121.406C1231.48 121.406 1228.23 119.629 1228.26 116.594C1228.23 113.559 1231.48 111.781 1236.65 111.781ZM1236.65 114.105C1233.21 114.105 1231.21 114.98 1231.24 116.594C1231.21 118.152 1233.21 119.027 1236.65 119.027C1240.15 119.027 1242.12 118.152 1242.12 116.594C1242.12 114.98 1240.15 114.105 1236.65 114.105ZM1237.45 102.512C1237.58 103.018 1237.66 103.537 1237.66 104.098C1237.66 104.645 1237.58 105.164 1237.47 105.656H1241.98V102.512H1237.45Z" fill="white"/>
<defs>
<clipPath id="clip0_21_1737">
<rect width="30" height="30" fill="white" transform="translate(238.125 78)"/>
</clipPath>
<clipPath id="clip1_21_1737">
<rect width="30" height="30" fill="white" transform="translate(527.375 78)"/>
</clipPath>
<clipPath id="clip2_21_1737">
<rect width="30" height="30" fill="white" transform="translate(810.625 78)"/>
</clipPath>
<clipPath id="clip3_21_1737">
<rect width="30" height="30" fill="white" transform="translate(1075.88 78)"/>
</clipPath>
</defs>
</svg>
