<svg width="320" height="320" viewBox="0 0 320 320" fill="none" xmlns="http://www.w3.org/2000/svg">
<rect x="0.5" y="0.5" width="319" height="319" rx="159.5" stroke="#00C2FF"/>
<path d="M125.812 109.375V115.031H128.062V116.062H125.812V123.266H124.594V109.375H125.812ZM122.219 110.875C122.219 114.812 120.375 118.391 115.844 120.625L115.156 119.656C118.75 117.867 120.703 115.195 120.984 111.906H115.797V110.875H122.219ZM140.344 109.375V123.266H139.109V109.375H140.344ZM134.016 113.906C134.016 116.234 135.641 118.484 137.734 119.375L137.047 120.328C135.445 119.617 134.086 118.109 133.438 116.266C132.812 118.219 131.461 119.82 129.859 120.578L129.172 119.625C131.234 118.688 132.812 116.344 132.812 113.906V112.797H129.547V111.797H132.797V109.641H134.016V111.797H137.25V112.797H134.016V113.906ZM151.438 118.703C151.438 119.93 152.094 121.234 153.422 121.984C154.734 121.164 155.438 119.781 155.438 118.703V117.938H156.641V118.703C156.641 120.125 157.688 121.562 159.469 122.172L158.859 123.078C157.469 122.586 156.492 121.617 156.016 120.453C155.586 121.578 154.734 122.641 153.453 123.188C152.102 122.672 151.242 121.648 150.828 120.484C150.336 121.609 149.375 122.578 148.047 123.078L147.422 122.172C149.172 121.516 150.234 120.031 150.25 118.703V117.938H151.438V118.703ZM158.203 109.391V117.328H156.984V109.391H158.203ZM150.703 110.203C152.812 110.203 154.344 111.516 154.344 113.453C154.344 115.359 152.812 116.672 150.703 116.672C148.594 116.672 147.062 115.359 147.062 113.453C147.062 111.516 148.594 110.203 150.703 110.203ZM150.703 111.25C149.281 111.234 148.25 112.156 148.266 113.453C148.25 114.734 149.281 115.641 150.703 115.656C152.109 115.641 153.141 114.734 153.141 113.453C153.141 112.156 152.109 111.234 150.703 111.25ZM171.797 113.594V114.578H162.281V109.891H163.5V113.594H171.797ZM173.266 116.469V117.469H160.547V116.469H173.266ZM171.875 121.906V122.922H162.203V118.891H163.422V121.906H171.875ZM189.922 109.375V117.656H188.688V114.016H185.891V113H188.688V109.375H189.922ZM185.312 118.094C188.203 118.094 189.969 119.031 189.969 120.672C189.969 122.312 188.203 123.25 185.312 123.266C182.422 123.25 180.656 122.312 180.656 120.672C180.656 119.031 182.422 118.094 185.312 118.094ZM185.312 119.047C183.188 119.047 181.859 119.656 181.875 120.672C181.859 121.672 183.188 122.281 185.312 122.281C187.438 122.281 188.75 121.672 188.75 120.672C188.75 119.656 187.438 119.047 185.312 119.047ZM183.234 111.922C183.234 113.734 184.625 115.453 186.656 116.156L186.016 117.141C184.453 116.578 183.242 115.414 182.656 113.969C182.047 115.602 180.758 116.906 179.109 117.531L178.469 116.547C180.531 115.797 182 113.922 182 111.938V111.422H178.859V110.391H186.344V111.422H183.234V111.922ZM204.953 120.469V121.484H192.234V120.469H197.953V117.469H193.734V110.359H194.969V112.875H202.188V110.359H203.391V117.469H199.156V120.469H204.953ZM194.969 116.469H202.188V113.875H194.969V116.469Z" fill="#5B5B5B"/>
<path d="M105.695 168.062L114.508 194.828H114.883L123.742 168.062H130.445L118.445 202H110.945L98.9922 168.062H105.695ZM130.352 194.828C130.352 189.109 135.086 187.422 139.82 187.141C141.578 187.023 145.234 186.812 146.336 186.766V184.75C146.336 182.219 144.695 180.766 141.742 180.766C139.07 180.766 137.43 181.984 136.961 183.812H131.195C131.617 179.5 135.508 176.219 141.883 176.219C146.711 176.219 152.289 178.188 152.289 184.984V202H146.57V198.484H146.383C145.258 200.641 142.867 202.516 138.883 202.516C134.008 202.516 130.352 199.844 130.352 194.828ZM136.117 194.781C136.117 196.984 137.898 198.109 140.43 198.109C144.039 198.109 146.383 195.719 146.383 192.859V190.75L140.758 191.125C137.898 191.359 136.117 192.531 136.117 194.781ZM163.914 168.062V202H157.914V168.062H163.914ZM185.898 191.312V176.547H191.852V202H186.086V197.5H185.805C184.633 200.312 181.961 202.328 178.164 202.328C173.148 202.328 169.68 198.859 169.633 192.766V176.547H175.633V191.828C175.633 195.062 177.555 197.125 180.461 197.125C183.086 197.125 185.898 195.203 185.898 191.312ZM208.867 202.516C201.18 202.516 196.492 197.406 196.492 189.438C196.492 181.562 201.273 176.219 208.539 176.219C214.773 176.219 220.164 180.109 220.164 189.062V190.938H202.398C202.469 195.273 205.023 197.828 208.914 197.828C211.539 197.828 213.32 196.703 214.07 195.203H219.93C218.852 199.609 214.773 202.516 208.867 202.516ZM202.445 186.859H214.445C214.398 183.391 212.102 180.859 208.633 180.859C205.023 180.859 202.633 183.602 202.445 186.859Z" fill="#00C2FF"/>
</svg>
